<?xml version="1.0" encoding="UTF-8" standalone="no"?>
<!DOCTYPE svg PUBLIC "-//W3C//DTD SVG 1.1//EN" "http://www.w3.org/Graphics/SVG/1.1/DTD/svg11.dtd">
<svg xmlns="http://www.w3.org/2000/svg" version="1.1" viewBox="0 0 424 172">
<g stroke-width="2.00" fill="none" stroke-linecap="butt">
<path stroke="#8b4e25" stroke-opacity="0.969" vector-effect="non-scaling-stroke" d="
  M 205.21 57.00
  Q 203.30 57.67 201.25 57.29"
/>
<path stroke="#8b4e25" stroke-opacity="0.969" vector-effect="non-scaling-stroke" d="
  M 205.21 57.75
  L 201.75 57.96"
/>
<path stroke="#b96124" vector-effect="non-scaling-stroke" d="
  M 188.75 61.71
  Q 195.81 61.24 202.88 61.56
  C 203.51 61.59 205.31 60.63 203.42 60.71
  Q 196.08 61.01 188.75 61.04"
/>
<path stroke="#5c6978" vector-effect="non-scaling-stroke" d="
  M 237.20 99.61
  Q 227.89 107.15 233.25 117.96"
/>
<path stroke="#5c6978" vector-effect="non-scaling-stroke" d="
  M 232.75 124.04
  Q 232.12 124.90 231.04 124.70
  A 0.31 0.30 -88.8 0 0 230.69 125.05
  L 231.21 128.75"
/>
<path stroke="#5c6978" vector-effect="non-scaling-stroke" d="
  M 226.73 129.04
  Q 228.14 127.52 228.66 124.99
  A 0.42 0.41 -84.3 0 0 228.26 124.48
  L 215.30 124.83"
/>
<path stroke="#5c6978" vector-effect="non-scaling-stroke" d="
  M 214.49 121.82
  Q 220.71 121.16 227.50 121.82
  Q 229.57 122.02 229.74 119.96
  C 230.81 106.74 220.73 97.66 207.68 97.52"
/>
<path stroke="#5c6978" vector-effect="non-scaling-stroke" d="
  M 261.84 103.04
  L 264.00 109.26
  A 1.31 1.18 -9.2 0 1 262.73 110.83
  L 252.73 111.01
  A 1.41 1.34 -5.8 0 1 251.32 109.92
  Q 250.98 108.05 249.04 107.75"
/>
<path stroke="#5c6978" vector-effect="non-scaling-stroke" d="
  M 245.25 110.21
  Q 243.87 110.40 244.83 111.49
  A 3.31 3.27 -15.0 0 0 246.71 112.56
  C 254.70 114.02 263.93 114.73 264.96 125.00"
/>
<path stroke="#1c2634" stroke-opacity="0.969" vector-effect="non-scaling-stroke" d="
  M 264.96 125.00
  Q 263.47 125.64 264.75 126.79"
/>
<path stroke="#5c6978" vector-effect="non-scaling-stroke" d="
  M 264.75 126.79
  L 265.04 129.50"
/>
<path stroke="#5a575a" stroke-opacity="0.969" vector-effect="non-scaling-stroke" d="
  M 264.75 126.79
  L 264.96 125.00"
/>
<path stroke="#8b6044" vector-effect="non-scaling-stroke" d="
  M 200.75 96.04
  L 197.50 96.79"
/>
<path stroke="#c79069" vector-effect="non-scaling-stroke" d="
  M 297.50 102.29
  Q 299.50 106.19 298.77 110.66
  A 0.60 0.58 5.0 0 1 298.17 111.15
  L 289.16 110.94
  A 1.42 1.14 -18.3 0 1 288.28 110.61
  Q 287.42 109.82 286.92 108.72
  A 1.33 1.08 84.4 0 0 286.27 108.06
  Q 283.77 107.02 281.04 107.25
  A 0.82 0.81 7.6 0 0 280.36 107.76
  Q 279.53 109.98 280.33 112.32
  A 0.79 0.72 -7.1 0 0 281.01 112.80
  C 287.14 113.07 300.28 115.18 299.90 124.14
  Q 299.80 126.66 300.54 129.00"
/>
<path stroke="#b57e56" vector-effect="non-scaling-stroke" d="
  M 295.25 135.79
  L 284.47 138.74
  Q 283.97 138.88 283.50 138.77
  C 280.23 137.95 276.57 137.46 273.61 135.80
  Q 271.50 134.62 269.64 133.69"
/>
<path stroke="#c79069" vector-effect="non-scaling-stroke" d="
  M 266.71 129.50
  L 266.54 126.39
  A 1.50 1.50 89.1 0 1 268.07 124.81
  L 279.62 125.06
  A 0.52 0.49 1.1 0 1 280.13 125.56
  L 280.06 128.22
  A 0.49 0.41 87.7 0 0 280.53 128.73
  L 286.26 127.91
  A 0.88 0.74 -84.7 0 0 286.90 127.28
  C 287.45 125.22 286.40 124.24 284.43 123.74
  Q 279.64 122.55 274.79 121.36
  C 267.57 119.58 264.11 108.18 269.75 103.04"
/>
<path stroke="#b57e56" vector-effect="non-scaling-stroke" d="
  M 295.50 100.96
  C 292.01 100.32 288.72 98.08 283.99 97.94
  C 278.84 97.79 273.92 100.23 269.75 103.04"
/>
<path stroke="#858689" vector-effect="non-scaling-stroke" d="
  M 269.75 103.04
  L 268.00 103.04"
/>
<path stroke="#474446" stroke-opacity="0.969" vector-effect="non-scaling-stroke" d="
  M 408.21 136.75
  Q 405.69 137.60 404.29 139.75"
/>
<path stroke="#b57e56" vector-effect="non-scaling-stroke" d="
  M 404.29 139.75
  L 402.04 143.28"
/>
<path stroke="#858689" vector-effect="non-scaling-stroke" d="
  M 309.21 129.75
  L 309.55 103.53
  A 1.15 1.12 -2.9 0 0 308.27 102.40
  Q 303.45 102.94 298.75 101.96"
/>
<path stroke="#8b4e25" stroke-opacity="0.969" vector-effect="non-scaling-stroke" d="
  M 408.50 137.46
  Q 406.10 138.08 404.29 139.75"
/>
<path stroke="#8b4e25" stroke-opacity="0.969" vector-effect="non-scaling-stroke" d="
  M 205.00 70.54
  L 202.00 70.79"
/>
<path stroke="#8b4e25" stroke-opacity="0.969" vector-effect="non-scaling-stroke" d="
  M 204.96 71.50
  L 202.00 71.46"
/>
<path stroke="#2f5a29" vector-effect="non-scaling-stroke" d="
  M 38.54 19.50
  L 38.04 17.50"
/>
<path stroke="#b57e56" vector-effect="non-scaling-stroke" d="
  M 290.06 93.56
  Q 290.99 89.18 290.24 84.58
  A 0.61 0.61 -3.9 0 0 289.65 84.07
  L 275.49 84.02
  A 0.68 0.65 -0.4 0 0 274.81 84.68
  L 274.95 94.72
  A 0.44 0.41 -6.3 0 0 275.48 95.11
  Q 282.28 93.76 288.99 94.35
  A 1.00 1.00 8.4 0 0 290.06 93.56"
/>
<path stroke="#1c2634" stroke-opacity="0.969" vector-effect="non-scaling-stroke" d="
  M 205.00 114.04
  Q 206.78 115.21 208.50 114.04"
/>
<path stroke="#5c6978" vector-effect="non-scaling-stroke" d="
  M 208.50 114.04
  L 216.04 114.06
  A 0.35 0.34 -9.2 0 0 216.38 113.60
  C 213.73 106.13 204.60 106.66 201.38 113.31
  A 0.46 0.46 -76.9 0 0 201.79 113.97
  L 205.00 114.04"
/>
<path stroke="#5a575a" stroke-opacity="0.969" vector-effect="non-scaling-stroke" d="
  M 208.50 114.04
  L 205.00 114.04"
/>
<path stroke="#b57e56" vector-effect="non-scaling-stroke" d="
  M 290.0413 143.0459
  A 0.26 0.26 0.0 0 0 289.7854 142.7819
  L 275.6072 142.5592
  A 0.26 0.26 0.0 0 0 275.3431 142.8150
  L 275.2187 150.7341
  A 0.26 0.26 0.0 0 0 275.4746 150.9981
  L 289.6528 151.2208
  A 0.26 0.26 0.0 0 0 289.9169 150.9650
  L 290.0413 143.0459"
/>
</g>
<path fill="#335a2a" d="
  M 30.81 0.00
  L 32.06 0.00
  L 37.33 2.99
  A 1.54 0.80 82.2 0 1 37.89 3.78
  C 38.27 4.87 39.43 10.62 40.93 10.11
  A 1.49 0.81 -72.7 0 0 41.61 9.45
  Q 43.07 6.87 45.99 5.79
  Q 48.81 4.74 49.16 7.72
  C 49.53 10.78 44.55 14.34 42.14 15.70
  A 1.79 1.68 -88.9 0 0 41.48 16.38
  Q 40.40 18.35 38.54 19.50
  L 38.04 17.50
  L 37.44 14.65
  A 0.64 0.53 -8.1 0 0 36.78 14.24
  C 29.24 14.95 29.46 4.66 30.81 0.00
  Z"
/>
<path fill="#f68735" d="
  M 205.21 57.00
  Q 203.30 57.67 201.25 57.29
  L 189.73 57.24
  A 0.83 0.83 86.5 0 1 188.91 56.51
  C 187.92 48.53 186.09 41.76 181.12 35.58
  C 170.73 22.64 177.54 1.94 195.22 0.66
  C 214.60 -0.75 225.27 21.49 213.11 36.33
  C 208.37 42.11 206.32 49.73 205.21 57.00
  Z"
/>
<path fill="#2b5928" d="
  M 38.04 17.50
  L 38.54 19.50
  L 36.97 34.42
  A 0.80 0.77 83.0 0 1 36.48 35.08
  Q 26.43 38.88 26.74 49.50
  C 27.17 64.18 49.03 65.88 51.72 50.35
  Q 53.36 40.95 43.95 35.77
  C 41.20 34.25 42.53 32.42 42.43 30.35
  Q 42.18 25.12 42.24 20.62
  Q 42.27 18.26 44.49 19.06
  Q 49.04 20.70 52.79 23.51
  A 1.11 1.07 35.3 0 0 54.37 23.27
  L 56.16 20.50
  A 0.97 0.92 -73.2 0 1 56.93 20.06
  L 66.50 19.94
  Q 70.08 19.90 70.02 23.49
  Q 69.69 46.54 70.04 69.06
  C 70.07 70.77 71.02 73.40 69.99 75.59
  A 1.02 0.90 5.4 0 1 69.26 76.12
  Q 63.11 77.15 57.06 76.28
  Q 56.68 76.23 56.21 75.86
  L 53.69 73.90
  A 1.02 0.80 -32.2 0 0 52.80 73.81
  C 49.98 74.82 47.16 76.42 44.58 77.12
  C 28.54 81.48 11.39 72.88 8.38 55.71
  Q 4.34 32.72 22.80 21.77
  C 27.30 19.10 31.86 18.45 36.95 18.84
  A 1.08 0.69 14.0 0 0 37.82 18.55
  Q 38.11 18.15 38.04 17.50
  Z"
/>
<path fill="#2b5928" d="
  M 103.36 80.87
  C 107.79 80.30 114.58 76.26 113.80 70.79
  Q 113.50 68.70 111.56 69.53
  C 104.19 72.67 100.16 72.34 92.30 71.13
  C 74.60 68.41 68.48 45.16 76.89 31.35
  C 84.08 19.54 99.95 14.26 112.43 21.68
  C 115.16 23.30 117.07 23.92 119.19 21.31
  A 1.43 0.85 -63.5 0 1 119.98 20.80
  L 129.06 19.76
  A 1.47 1.31 79.1 0 1 130.50 20.86
  Q 131.06 22.97 131.11 25.00
  Q 131.63 47.92 130.79 70.83
  C 130.16 87.82 117.38 94.44 102.25 94.88
  C 90.76 95.21 77.29 88.82 75.22 76.32
  A 0.44 0.43 84.3 0 1 75.63 75.80
  L 90.77 75.41
  A 1.25 0.96 63.1 0 1 91.61 75.81
  C 94.74 79.16 98.65 81.47 103.36 80.87
  Z
  M 102.2386 57.5865
  A 12.13 11.47 92.7 0 0 114.2673 46.0103
  A 12.13 11.47 92.7 0 0 103.3814 33.3535
  A 12.13 11.47 92.7 0 0 91.3527 44.9297
  A 12.13 11.47 92.7 0 0 102.2386 57.5865
  Z"
/>
<path fill="#2b5928" d="
  M 151.18 25.69
  C 153.74 22.48 156.86 19.65 161.20 19.30
  C 164.04 19.07 172.05 17.99 170.50 23.33
  C 168.55 30.04 166.67 37.21 158.27 37.84
  Q 155.02 38.09 155.73 35.01
  Q 157.03 29.36 154.53 34.31
  Q 153.55 36.24 153.55 38.18
  Q 153.56 54.06 153.37 69.93
  C 153.33 72.88 151.74 73.74 148.94 73.75
  Q 143.47 73.78 138.04 73.71
  Q 135.78 73.68 135.66 71.42
  Q 134.41 48.14 135.50 21.63
  A 1.51 1.51 -3.0 0 1 136.79 20.20
  Q 141.20 19.59 146.22 20.42
  A 1.27 0.81 -2.8 0 1 147.03 20.88
  L 149.94 25.53
  A 0.81 0.72 49.0 0 0 151.18 25.69
  Z"
/>
<path fill="#97989c" d="
  M 237.20 99.61
  Q 227.89 107.15 233.25 117.96
  Q 231.37 119.79 230.79 122.33
  A 1.00 0.90 -61.0 0 0 230.99 123.21
  Q 231.65 123.94 232.75 124.04
  Q 232.12 124.90 231.04 124.70
  A 0.31 0.30 -88.8 0 0 230.69 125.05
  L 231.21 128.75
  Q 229.35 129.45 226.73 129.04
  Q 228.14 127.52 228.66 124.99
  A 0.42 0.41 -84.3 0 0 228.26 124.48
  L 215.30 124.83
  L 214.49 121.82
  Q 220.71 121.16 227.50 121.82
  Q 229.57 122.02 229.74 119.96
  C 230.81 106.74 220.73 97.66 207.68 97.52
  Q 209.01 95.72 209.64 94.16
  Q 223.15 60.71 237.08 27.43
  Q 238.28 24.57 240.31 21.37
  A 2.40 2.39 17.3 0 1 242.44 20.26
  Q 254.38 20.75 265.74 20.17
  Q 268.63 20.03 267.53 22.70
  Q 252.45 59.23 237.48 95.78
  Q 236.82 97.40 237.20 99.61
  Z"
/>
<path fill="#335a2a" d="
  M 38.08 52.39
  Q 35.79 51.08 35.68 48.50
  A 1.75 1.26 -37.7 0 1 35.95 47.59
  Q 39.02 42.74 38.83 37.00
  A 0.54 0.42 79.3 0 1 39.07 36.53
  C 39.85 36.17 39.45 40.23 39.42 40.61
  C 39.06 44.84 41.43 44.34 42.67 47.30
  Q 44.12 50.73 40.62 52.47
  A 2.69 2.69 46.7 0 1 38.08 52.39
  Z"
/>
<path fill="#737476" d="
  M 408.21 136.75
  Q 405.69 137.60 404.29 139.75
  L 402.04 143.28
  Q 396.61 150.65 388.91 155.01
  C 370.56 165.40 349.47 164.91 330.80 155.52
  A 3.06 2.34 -89.9 0 1 329.47 153.77
  L 326.41 143.31
  Q 325.68 140.81 322.85 139.24
  C 320.27 137.80 314.67 134.18 311.54 134.63
  A 0.51 0.50 81.3 0 1 310.97 134.21
  Q 310.46 131.16 309.21 129.75
  L 309.55 103.53
  A 1.15 1.12 -2.9 0 0 308.27 102.40
  Q 303.45 102.94 298.75 101.96
  C 299.67 78.48 314.31 56.85 335.93 47.52
  C 348.44 42.11 361.10 40.95 374.60 44.98
  C 395.76 51.30 411.32 66.88 416.55 88.19
  C 420.65 104.87 418.07 122.19 408.21 136.75
  Z
  M 344.67 73.67
  C 332.94 89.58 334.43 112.35 343.31 129.19
  C 347.22 136.60 356.69 141.51 364.64 138.00
  C 377.41 132.34 382.02 116.20 381.56 102.98
  C 381.13 90.72 379.27 80.91 371.03 71.47
  C 366.79 66.60 360.88 66.16 354.88 66.97
  C 350.30 67.60 347.28 70.12 344.67 73.67
  Z"
/>
<path fill="#737476" d="
  M 295.50 100.96
  C 292.01 100.32 288.72 98.08 283.99 97.94
  C 278.84 97.79 273.92 100.23 269.75 103.04
  L 268.00 103.04
  Q 269.92 101.96 269.83 99.48
  Q 268.93 76.78 269.37 54.02
  C 269.43 50.52 268.99 48.45 273.47 48.29
  C 277.82 48.12 292.19 46.59 295.19 49.16
  A 1.20 1.08 -72.2 0 1 295.57 50.01
  Q 296.08 69.95 295.67 78.68
  Q 295.02 92.82 295.50 100.96
  Z
  M 290.06 93.56
  Q 290.99 89.18 290.24 84.58
  A 0.61 0.61 -3.9 0 0 289.65 84.07
  L 275.49 84.02
  A 0.68 0.65 -0.4 0 0 274.81 84.68
  L 274.95 94.72
  A 0.44 0.41 -6.3 0 0 275.48 95.11
  Q 282.28 93.76 288.99 94.35
  A 1.00 1.00 8.4 0 0 290.06 93.56
  Z"
/>
<path fill="#181113" fill-opacity="0.937" d="
  M 205.21 57.00
  L 205.21 57.75
  L 201.75 57.96
  L 201.25 57.29
  Q 203.30 57.67 205.21 57.00
  Z"
/>
<path fill="#f68735" d="
  M 205.21 57.75
  Q 206.20 60.94 205.89 64.11
  A 1.53 1.53 3.8 0 1 204.31 65.49
  Q 197.82 65.28 191.58 65.43
  C 189.16 65.48 186.21 65.16 188.75 61.71
  Q 195.81 61.24 202.88 61.56
  C 203.51 61.59 205.31 60.63 203.42 60.71
  Q 196.08 61.01 188.75 61.04
  C 187.60 59.51 188.32 58.49 190.11 58.52
  Q 195.95 58.61 201.75 57.96
  L 205.21 57.75
  Z"
/>
<path fill="#7c3b13" d="
  M 188.75 61.71
  L 188.75 61.04
  Q 196.08 61.01 203.42 60.71
  C 205.31 60.63 203.51 61.59 202.88 61.56
  Q 195.81 61.24 188.75 61.71
  Z"
/>
<path fill="#f68735" d="
  M 205.00 70.54
  L 202.00 70.79
  L 189.23 70.97
  A 1.05 0.81 -14.5 0 1 188.43 70.63
  Q 187.21 68.96 188.24 67.13
  A 0.94 0.80 12.0 0 1 189.00 66.72
  L 204.20 66.53
  A 1.89 1.19 -17.9 0 1 205.14 66.77
  Q 207.48 68.33 205.00 70.54
  Z"
/>
<path fill="#181113" fill-opacity="0.937" d="
  M 205.00 70.54
  L 204.96 71.50
  L 202.00 71.46
  L 202.00 70.79
  L 205.00 70.54
  Z"
/>
<path fill="#f68735" d="
  M 204.96 71.50
  Q 207.97 74.48 204.97 76.78
  A 1.46 1.24 24.5 0 1 204.06 77.04
  Q 196.78 76.55 189.52 77.07
  A 1.00 0.90 -19.5 0 1 188.69 76.73
  Q 187.24 74.89 188.24 72.85
  A 0.96 0.81 8.8 0 1 188.99 72.39
  L 202.00 71.46
  L 204.96 71.50
  Z"
/>
<path fill="#f68735" d="
  M 200.75 96.04
  L 197.50 96.79
  C 187.82 95.55 187.00 88.41 188.10 80.38
  A 0.53 0.50 6.3 0 1 188.67 79.95
  Q 196.48 80.84 204.51 80.14
  Q 206.61 79.96 206.42 82.05
  C 205.83 88.48 206.73 92.05 200.75 96.04
  Z"
/>
<rect fill="#203953" x="-5.79" y="-5.24" transform="translate(138.22,88.50) rotate(-0.8)" width="11.58" height="10.48" rx="1.81"/>
<path fill="#f68735" d="
  M 290.06 93.56
  A 1.00 1.00 8.4 0 1 288.99 94.35
  Q 282.28 93.76 275.48 95.11
  A 0.44 0.41 -6.3 0 1 274.95 94.72
  L 274.81 84.68
  A 0.68 0.65 -0.4 0 1 275.49 84.02
  L 289.65 84.07
  A 0.61 0.61 -3.9 0 1 290.24 84.58
  Q 290.99 89.18 290.06 93.56
  Z"
/>
<path fill="#203953" d="
  M 25.15 100.41
  C 31.66 98.17 39.81 97.55 45.68 101.52
  C 53.27 106.64 54.31 113.86 53.44 122.40
  C 51.93 137.11 34.94 142.07 23.68 134.95
  A 1.09 0.91 47.6 0 0 22.78 134.83
  Q 21.62 135.28 20.96 136.34
  A 1.13 0.92 -75.6 0 1 20.24 136.87
  Q 17.07 137.40 13.93 136.85
  A 1.57 1.56 3.8 0 1 12.62 135.36
  Q 11.90 112.63 12.52 87.10
  A 1.62 1.62 -89.5 0 1 14.14 85.51
  L 22.66 85.51
  A 1.83 1.82 -90.0 0 1 24.48 87.34
  L 24.51 99.95
  A 0.49 0.48 80.6 0 0 25.15 100.41
  Z
  M 30.4224 127.3446
  A 9.33 9.06 104.7 0 0 41.5534 120.6190
  A 9.33 9.06 104.7 0 0 35.1576 109.2954
  A 9.33 9.06 104.7 0 0 24.0266 116.0210
  A 9.33 9.06 104.7 0 0 30.4224 127.3446
  Z"
/>
<path fill="#203953" d="
  M 200.75 96.04
  Q 200.38 97.46 201.36 98.43
  A 1.04 0.91 58.8 0 0 202.25 98.71
  L 207.68 97.52
  C 220.73 97.66 230.81 106.74 229.74 119.96
  Q 229.57 122.02 227.50 121.82
  Q 220.71 121.16 214.49 121.82
  Q 208.48 120.82 201.91 121.42
  A 1.26 1.26 83.6 0 0 200.78 122.84
  C 201.06 124.99 202.11 126.36 204.09 127.37
  Q 210.61 130.69 215.30 124.83
  L 228.26 124.48
  A 0.42 0.41 -84.3 0 1 228.66 124.99
  Q 228.14 127.52 226.73 129.04
  Q 215.75 141.86 201.65 136.75
  Q 195.14 134.40 191.92 129.69
  C 185.54 120.36 188.71 104.53 199.88 100.50
  A 0.99 0.99 -24.0 0 0 200.42 99.10
  Q 199.46 97.31 197.50 96.79
  L 200.75 96.04
  Z
  M 205.00 114.04
  Q 206.78 115.21 208.50 114.04
  L 216.04 114.06
  A 0.35 0.34 -9.2 0 0 216.38 113.60
  C 213.73 106.13 204.60 106.66 201.38 113.31
  A 0.46 0.46 -76.9 0 0 201.79 113.97
  L 205.00 114.04
  Z"
/>
<path fill="#f68735" d="
  M 295.50 100.96
  L 297.50 102.29
  Q 299.50 106.19 298.77 110.66
  A 0.60 0.58 5.0 0 1 298.17 111.15
  L 289.16 110.94
  A 1.42 1.14 -18.3 0 1 288.28 110.61
  Q 287.42 109.82 286.92 108.72
  A 1.33 1.08 84.4 0 0 286.27 108.06
  Q 283.77 107.02 281.04 107.25
  A 0.82 0.81 7.6 0 0 280.36 107.76
  Q 279.53 109.98 280.33 112.32
  A 0.79 0.72 -7.1 0 0 281.01 112.80
  C 287.14 113.07 300.28 115.18 299.90 124.14
  Q 299.80 126.66 300.54 129.00
  L 295.25 135.79
  L 284.47 138.74
  Q 283.97 138.88 283.50 138.77
  C 280.23 137.95 276.57 137.46 273.61 135.80
  Q 271.50 134.62 269.64 133.69
  L 266.71 129.50
  L 266.54 126.39
  A 1.50 1.50 89.1 0 1 268.07 124.81
  L 279.62 125.06
  A 0.52 0.49 1.1 0 1 280.13 125.56
  L 280.06 128.22
  A 0.49 0.41 87.7 0 0 280.53 128.73
  L 286.26 127.91
  A 0.88 0.74 -84.7 0 0 286.90 127.28
  C 287.45 125.22 286.40 124.24 284.43 123.74
  Q 279.64 122.55 274.79 121.36
  C 267.57 119.58 264.11 108.18 269.75 103.04
  C 273.92 100.23 278.84 97.79 283.99 97.94
  C 288.72 98.08 292.01 100.32 295.50 100.96
  Z"
/>
<path fill="#203953" d="
  M 109.28 128.64
  Q 112.03 129.73 115.03 129.15
  A 1.60 1.45 13.3 0 0 115.87 128.69
  C 121.10 122.90 105.73 120.85 103.06 120.42
  Q 100.88 120.07 99.70 118.21
  C 96.84 113.70 95.42 111.81 97.01 106.18
  Q 97.13 105.75 97.51 105.37
  L 103.16 99.86
  A 1.80 1.36 -66.5 0 1 103.99 99.39
  Q 111.44 97.83 118.84 99.04
  C 120.88 99.37 121.59 100.34 122.77 101.84
  A 1.60 1.47 -9.1 0 0 123.56 102.36
  C 128.83 103.88 128.85 112.77 123.68 110.16
  A 1.31 1.24 49.7 0 0 122.76 110.06
  C 116.68 111.70 115.01 104.32 109.30 107.54
  Q 106.27 109.25 108.34 111.93
  A 1.64 1.41 -6.9 0 0 109.13 112.46
  Q 115.25 114.32 121.51 115.30
  Q 127.95 116.31 128.44 122.99
  Q 129.24 133.95 119.06 137.35
  C 110.23 140.30 101.38 137.90 97.00 129.41
  Q 95.18 125.89 99.14 125.66
  L 105.20 125.32
  A 1.80 1.47 -26.7 0 1 106.14 125.53
  Q 107.66 126.45 108.57 128.00
  A 1.69 1.32 80.1 0 0 109.28 128.64
  Z"
/>
<path fill="#203953" d="
  M 148.92 135.72
  C 148.00 122.97 147.93 111.86 148.38 100.19
  A 0.56 0.56 -0.6 0 1 148.91 99.65
  L 155.10 99.35
  A 1.40 1.29 -25.2 0 1 155.99 99.63
  Q 157.34 100.68 158.00 102.25
  Q 158.87 104.31 160.72 102.48
  C 166.03 97.26 177.15 97.04 181.84 103.32
  C 186.68 109.81 185.72 128.16 185.05 136.00
  A 1.06 1.03 -87.6 0 1 184.02 136.97
  L 175.49 136.98
  Q 173.22 136.98 173.17 134.77
  L 172.65 112.43
  A 1.71 1.26 -70.5 0 0 172.38 111.54
  Q 168.75 106.43 164.14 109.13
  C 160.88 111.04 160.54 114.48 160.51 118.00
  Q 160.45 126.93 160.01 135.02
  Q 159.90 137.06 157.95 136.99
  L 149.91 136.73
  A 1.09 1.02 88.7 0 1 148.92 135.72
  Z"
/>
<path fill="#203953" d="
  M 261.84 103.04
  L 264.00 109.26
  A 1.31 1.18 -9.2 0 1 262.73 110.83
  L 252.73 111.01
  A 1.41 1.34 -5.8 0 1 251.32 109.92
  Q 250.98 108.05 249.04 107.75
  Q 244.13 105.39 245.25 110.21
  Q 243.87 110.40 244.83 111.49
  A 3.31 3.27 -15.0 0 0 246.71 112.56
  C 254.70 114.02 263.93 114.73 264.96 125.00
  Q 263.47 125.64 264.75 126.79
  L 265.04 129.50
  Q 254.87 142.33 239.50 136.75
  Q 233.97 134.74 231.21 128.75
  L 230.69 125.05
  A 0.31 0.30 -88.8 0 1 231.04 124.70
  Q 232.12 124.90 232.75 124.04
  Q 236.99 125.40 241.53 125.19
  A 1.20 0.87 -17.1 0 1 242.40 125.49
  L 244.72 128.11
  A 1.81 0.75 59.2 0 0 245.49 128.68
  C 247.35 129.28 249.48 129.48 250.90 127.84
  C 254.74 123.42 244.07 122.26 242.11 121.82
  C 238.90 121.10 236.41 119.12 233.25 117.96
  Q 227.89 107.15 237.20 99.61
  C 242.60 98.72 252.70 97.56 257.68 100.38
  Q 259.95 101.67 261.84 103.04
  Z"
/>
<path fill="#203953" d="
  M 73.27 127.12
  C 80.31 128.67 81.30 123.67 81.25 118.25
  Q 81.18 110.47 81.36 102.06
  Q 81.42 99.59 83.89 99.51
  L 91.31 99.27
  Q 93.84 99.19 93.77 101.72
  Q 93.52 111.69 93.59 121.30
  C 93.74 143.35 58.25 145.09 56.61 120.46
  C 56.30 115.77 55.50 104.13 57.24 100.14
  A 0.81 0.74 -77.4 0 1 57.94 99.65
  L 67.00 99.56
  A 1.76 1.64 88.2 0 1 68.66 101.24
  C 68.95 108.12 67.94 118.06 69.84 124.01
  Q 70.66 126.55 73.27 127.12
  Z"
/>
<path fill="#203953" d="
  M 134.88 136.90
  Q 132.11 136.35 132.10 133.58
  L 131.92 100.10
  A 0.56 0.55 -3.5 0 1 132.41 99.55
  Q 137.84 98.89 142.70 99.34
  A 1.23 1.23 1.1 0 1 143.81 100.49
  Q 144.77 119.22 143.52 136.20
  A 0.68 0.66 86.7 0 1 142.99 136.81
  Q 138.71 137.67 134.88 136.90
  Z"
/>
<path fill="#97989c" d="
  M 298.75 101.96
  Q 303.45 102.94 308.27 102.40
  A 1.15 1.12 -2.9 0 1 309.55 103.53
  L 309.21 129.75
  L 300.54 129.00
  Q 299.80 126.66 299.90 124.14
  C 300.28 115.18 287.14 113.07 281.01 112.80
  A 0.79 0.72 -7.1 0 1 280.33 112.32
  Q 279.53 109.98 280.36 107.76
  A 0.82 0.81 7.6 0 1 281.04 107.25
  Q 283.77 107.02 286.27 108.06
  A 1.33 1.08 84.4 0 1 286.92 108.72
  Q 287.42 109.82 288.28 110.61
  A 1.42 1.14 -18.3 0 0 289.16 110.94
  L 298.17 111.15
  A 0.60 0.58 5.0 0 0 298.77 110.66
  Q 299.50 106.19 297.50 102.29
  L 298.75 101.96
  Z"
/>
<path fill="#97989c" d="
  M 261.84 103.04
  Q 265.45 102.32 268.00 103.04
  L 269.75 103.04
  C 264.11 108.18 267.57 119.58 274.79 121.36
  Q 279.64 122.55 284.43 123.74
  C 286.40 124.24 287.45 125.22 286.90 127.28
  A 0.88 0.74 -84.7 0 1 286.26 127.91
  L 280.53 128.73
  A 0.49 0.41 87.7 0 1 280.06 128.22
  L 280.13 125.56
  A 0.52 0.49 1.1 0 0 279.62 125.06
  L 268.07 124.81
  A 1.50 1.50 89.1 0 0 266.54 126.39
  L 266.71 129.50
  L 265.04 129.50
  L 264.75 126.79
  L 264.96 125.00
  C 263.93 114.73 254.70 114.02 246.71 112.56
  A 3.31 3.27 -15.0 0 1 244.83 111.49
  Q 243.87 110.40 245.25 110.21
  Q 249.31 111.80 249.04 107.75
  Q 250.98 108.05 251.32 109.92
  A 1.41 1.34 -5.8 0 0 252.73 111.01
  L 262.73 110.83
  A 1.31 1.18 -9.2 0 0 264.00 109.26
  L 261.84 103.04
  Z"
/>
<path fill="#97989c" d="
  M 208.50 114.04
  L 205.00 114.04
  L 201.79 113.97
  A 0.46 0.46 -76.9 0 1 201.38 113.31
  C 204.60 106.66 213.73 106.13 216.38 113.60
  A 0.35 0.34 -9.2 0 1 216.04 114.06
  L 208.50 114.04
  Z"
/>
<path fill="#181113" fill-opacity="0.937" d="
  M 205.00 114.04
  L 208.50 114.04
  Q 206.78 115.21 205.00 114.04
  Z"
/>
<path fill="#181113" fill-opacity="0.937" d="
  M 264.96 125.00
  L 264.75 126.79
  Q 263.47 125.64 264.96 125.00
  Z"
/>
<path fill="#737476" d="
  M 269.64 133.69
  Q 271.50 134.62 273.61 135.80
  C 276.57 137.46 280.23 137.95 283.50 138.77
  Q 283.97 138.88 284.47 138.74
  L 295.25 135.79
  L 295.92 162.37
  A 0.51 0.50 89.4 0 1 295.42 162.89
  L 270.61 162.89
  A 0.52 0.49 89.4 0 1 270.12 162.38
  L 269.64 133.69
  Z
  M 290.0413 143.0459
  A 0.26 0.26 0.0 0 0 289.7854 142.7819
  L 275.6072 142.5592
  A 0.26 0.26 0.0 0 0 275.3431 142.8150
  L 275.2187 150.7341
  A 0.26 0.26 0.0 0 0 275.4746 150.9981
  L 289.6528 151.2208
  A 0.26 0.26 0.0 0 0 289.9169 150.9650
  L 290.0413 143.0459
  Z"
/>
<path fill="#181113" fill-opacity="0.937" d="
  M 408.21 136.75
  L 408.50 137.46
  Q 406.10 138.08 404.29 139.75
  Q 405.69 137.60 408.21 136.75
  Z"
/>
<ellipse fill="#f68735" cx="0.00" cy="0.00" transform="translate(314.69,149.59) rotate(104.6)" rx="12.21" ry="11.79"/>
<path fill="#f68735" d="
  M 408.50 137.46
  C 419.79 137.28 421.13 147.33 414.90 154.30
  Q 413.06 156.36 415.59 156.66
  L 418.48 157.01
  A 1.09 0.73 -4.7 0 1 419.23 157.43
  Q 420.31 159.33 419.49 161.34
  A 0.82 0.78 -79.3 0 1 418.79 161.84
  L 401.85 162.49
  Q 400.35 162.55 401.27 161.30
  Q 406.03 154.86 411.48 148.99
  Q 414.85 145.37 410.80 143.89
  A 1.16 1.15 -48.2 0 0 409.86 143.95
  Q 408.53 144.62 407.64 145.71
  A 1.30 0.67 -60.4 0 1 406.86 146.22
  L 402.88 146.45
  A 0.79 0.65 77.9 0 1 402.20 145.91
  Q 401.76 144.61 402.04 143.28
  L 404.29 139.75
  Q 406.10 138.08 408.50 137.46
  Z"
/>
<rect fill="#f68735" x="-7.35" y="-4.22" transform="translate(282.63,146.89) rotate(0.9)" width="14.70" height="8.44" rx="0.26"/>
<path fill="#2b5928" d="
  M 77.71 153.44
  L 77.77 150.01
  A 0.68 0.64 83.9 0 1 78.25 149.37
  Q 79.62 148.99 81.00 149.38
  A 0.69 0.65 -82.9 0 1 81.48 150.04
  L 81.49 162.45
  A 0.74 0.69 81.2 0 1 81.02 163.14
  Q 79.54 163.65 78.32 162.84
  A 0.95 0.89 49.6 0 0 77.46 162.74
  C 67.68 166.80 66.97 150.62 77.20 153.78
  A 0.40 0.37 9.4 0 0 77.71 153.44
  Z
  M 74.8922 160.5610
  A 2.47 2.12 108.6 0 0 77.6893 158.8962
  A 2.47 2.12 108.6 0 0 76.4678 155.8790
  A 2.47 2.12 108.6 0 0 73.6707 157.5438
  A 2.47 2.12 108.6 0 0 74.8922 160.5610
  Z"
/>
<path fill="#2b5928" d="
  M 144.70 153.54
  Q 145.31 151.99 145.00 150.15
  A 0.67 0.59 75.1 0 1 145.35 149.45
  Q 146.66 148.92 148.05 149.37
  A 0.75 0.64 -83.2 0 1 148.50 150.05
  L 148.68 162.48
  A 0.65 0.59 83.3 0 1 148.23 163.11
  Q 146.69 163.50 145.21 162.87
  A 1.19 1.06 42.4 0 0 144.31 162.86
  C 140.39 164.52 136.80 162.20 136.99 158.01
  C 137.14 154.85 140.87 151.90 144.08 153.74
  A 0.44 0.42 25.2 0 0 144.70 153.54
  Z
  M 142.2841 160.6040
  A 2.46 2.10 103.3 0 0 144.8937 158.6931
  A 2.46 2.10 103.3 0 0 143.4159 155.8160
  A 2.46 2.10 103.3 0 0 140.8063 157.7269
  A 2.46 2.10 103.3 0 0 142.2841 160.6040
  Z"
/>
<rect fill="#2b5928" x="180.75" y="149.25" width="3.76" height="14.00" rx="0.59"/>
<path fill="#2b5928" d="
  M 244.45 162.72
  C 233.76 166.17 235.06 150.60 244.25 153.73
  Q 245.42 154.13 244.98 152.97
  Q 243.16 148.10 247.95 149.40
  A 0.67 0.66 7.4 0 1 248.45 150.04
  L 248.48 162.45
  A 0.75 0.70 80.5 0 1 248.02 163.14
  Q 246.56 163.64 245.33 162.85
  A 1.11 1.01 50.6 0 0 244.45 162.72
  Z
  M 242.1786 160.6749
  A 2.54 2.04 103.0 0 0 244.7377 158.6589
  A 2.54 2.04 103.0 0 0 243.3214 155.7251
  A 2.54 2.04 103.0 0 0 240.7623 157.7411
  A 2.54 2.04 103.0 0 0 242.1786 160.6749
  Z"
/>
<ellipse fill="#2b5928" cx="0.00" cy="0.00" transform="translate(107.99,150.96) rotate(-2.4)" rx="2.05" ry="1.51"/>
<path fill="#2b5928" d="
  M 18.98 158.34
  L 17.53 158.03
  A 0.51 0.43 -84.8 0 0 17.02 158.54
  L 16.98 162.47
  A 0.70 0.64 82.9 0 1 16.51 163.13
  Q 15.11 163.51 13.76 163.12
  A 0.69 0.65 -82.9 0 1 13.28 162.46
  L 13.34 150.68
  A 0.61 0.60 -5.2 0 1 13.84 150.09
  C 16.78 149.59 21.23 149.28 23.50 151.40
  Q 25.86 153.62 22.89 156.51
  A 0.77 0.61 59.7 0 0 22.78 157.28
  L 24.83 162.50
  A 0.50 0.45 -17.6 0 1 24.47 163.12
  Q 22.99 163.50 21.49 163.14
  A 1.03 0.73 81.7 0 1 20.89 162.51
  L 19.66 159.02
  A 1.08 0.83 82.6 0 0 18.98 158.34
  Z
  M 18.36 152.25
  A 1.14 1.13 -78.7 0 0 17.02 153.15
  C 15.85 159.22 24.72 153.52 18.36 152.25
  Z"
/>
<path fill="#2b5928" d="
  M 29.91 159.92
  C 31.93 162.03 36.39 159.43 35.94 162.34
  A 0.82 0.81 -4.1 0 1 35.37 162.99
  C 30.55 164.38 22.48 161.78 27.03 155.36
  C 29.71 151.57 37.76 152.95 36.55 158.90
  A 0.67 0.61 -83.3 0 1 35.93 159.44
  L 30.26 159.26
  Q 29.25 159.23 29.91 159.92
  Z
  M 29.93 156.20
  Q 28.84 157.26 30.37 157.26
  L 32.53 157.25
  Q 33.77 157.25 32.95 156.33
  Q 31.48 154.68 29.93 156.20
  Z"
/>
<path fill="#2b5928" d="
  M 53.44 159.92
  Q 55.44 161.73 58.29 160.80
  A 0.87 0.70 -28.3 0 1 59.12 160.95
  Q 59.72 161.57 59.50 162.38
  A 1.03 0.82 -4.8 0 1 58.84 163.00
  C 54.37 164.37 46.45 162.03 50.24 155.87
  C 52.71 151.84 60.03 152.14 60.23 158.22
  A 1.23 1.11 89.9 0 1 59.08 159.50
  L 53.74 159.27
  Q 52.67 159.23 53.44 159.92
  Z
  M 53.81 157.26
  C 60.32 158.20 53.88 153.33 53.35 156.69
  A 0.53 0.49 8.2 0 0 53.81 157.26
  Z"
/>
<path fill="#2b5928" d="
  M 65.75 153.93
  Q 69.41 151.86 68.89 155.66
  A 0.63 0.56 1.4 0 1 68.31 156.15
  Q 66.90 156.24 66.08 157.15
  A 1.48 1.08 72.3 0 0 65.78 158.05
  L 65.73 162.47
  A 0.70 0.64 82.9 0 1 65.26 163.13
  Q 63.86 163.51 62.50 163.13
  A 0.68 0.67 -82.0 0 1 62.02 162.48
  L 62.01 154.30
  A 0.76 0.73 79.9 0 1 62.48 153.60
  Q 63.83 153.09 64.93 153.88
  A 0.80 0.75 46.7 0 0 65.75 153.93
  Z"
/>
<path fill="#2b5928" d="
  M 87.42 159.78
  C 87.40 161.34 91.09 161.02 92.01 160.85
  A 1.23 0.79 -22.1 0 1 92.91 161.02
  Q 93.53 161.53 93.44 162.35
  A 0.84 0.71 -7.1 0 1 92.85 162.99
  Q 88.99 164.15 85.32 162.42
  Q 82.98 161.32 83.23 158.75
  C 83.97 151.22 94.84 151.46 93.95 158.86
  A 0.63 0.57 -86.0 0 1 93.38 159.41
  L 87.99 159.35
  A 0.57 0.44 0.5 0 0 87.42 159.78
  Z
  M 90.44 156.48
  C 90.14 155.03 87.79 155.37 87.21 156.51
  A 0.44 0.43 22.0 0 0 87.48 157.13
  Q 88.75 157.49 90.00 157.14
  A 0.60 0.55 -13.8 0 0 90.44 156.48
  Z"
/>
<path fill="#2b5928" d="
  M 101.55 160.59
  Q 104.48 160.09 104.37 162.45
  A 0.75 0.72 -7.1 0 1 103.84 163.10
  Q 98.78 164.65 96.04 161.21
  C 94.67 159.50 95.24 156.25 97.03 154.83
  Q 99.90 152.53 103.84 153.58
  A 0.71 0.68 7.4 0 1 104.36 154.23
  Q 104.45 156.67 101.94 155.82
  A 1.21 0.99 36.2 0 0 101.04 155.87
  Q 97.15 158.00 100.65 160.42
  A 1.31 1.08 -28.8 0 0 101.55 160.59
  Z"
/>
<path fill="#2b5928" d="
  M 115.57 159.82
  Q 117.67 161.77 120.54 160.81
  A 0.91 0.79 -31.6 0 1 121.39 160.95
  Q 123.03 162.40 120.84 163.09
  Q 116.98 164.29 113.26 162.13
  A 1.48 1.44 4.2 0 1 112.63 161.42
  C 108.92 152.82 121.41 149.74 122.58 158.04
  A 1.29 1.21 86.5 0 1 121.36 159.52
  L 115.80 159.32
  Q 115.00 159.29 115.57 159.82
  Z
  M 118.94 156.63
  C 119.00 155.37 115.84 154.76 115.63 156.84
  A 0.47 0.46 1.0 0 0 116.12 157.34
  L 118.34 157.18
  A 0.65 0.57 -1.3 0 0 118.94 156.63
  Z"
/>
<path fill="#2b5928" d="
  M 130.45 156.17
  C 127.13 155.49 128.00 160.73 127.98 162.48
  A 0.68 0.64 82.8 0 1 127.51 163.13
  Q 126.11 163.50 124.75 163.13
  A 0.68 0.67 -82.0 0 1 124.27 162.48
  L 124.27 154.29
  A 0.71 0.66 82.4 0 1 124.74 153.62
  Q 126.22 153.17 127.54 153.88
  A 1.00 0.93 44.7 0 0 128.42 153.91
  C 135.80 150.35 134.95 158.58 134.99 162.47
  A 0.68 0.65 82.8 0 1 134.51 163.12
  Q 133.19 163.50 131.92 163.14
  A 0.64 0.59 -79.3 0 1 131.51 162.48
  Q 131.81 159.55 131.07 156.79
  A 0.88 0.79 87.0 0 0 130.45 156.17
  Z"
/>
<path fill="#2b5928" d="
  M 162.3823 158.0569
  A 5.99 5.14 -2.9 0 1 156.6600 163.4934
  A 5.99 5.14 -2.9 0 1 150.4177 158.6631
  A 5.99 5.14 -2.9 0 1 156.1400 153.2266
  A 5.99 5.14 -2.9 0 1 162.3823 158.0569
  Z
  M 156.3454 161.0190
  A 2.67 2.11 91.6 0 0 158.5292 158.4089
  A 2.67 2.11 91.6 0 0 156.4946 155.6810
  A 2.67 2.11 91.6 0 0 154.3108 158.2911
  A 2.67 2.11 91.6 0 0 156.3454 161.0190
  Z"
/>
<path fill="#2b5928" d="
  M 172.00 159.98
  C 172.30 161.20 176.15 161.01 177.06 160.82
  A 0.75 0.68 -20.6 0 1 177.83 161.12
  C 179.35 163.64 176.09 163.24 174.80 163.39
  C 167.29 164.27 165.70 154.93 172.17 153.49
  C 175.96 152.65 179.31 154.39 178.84 158.76
  A 0.60 0.60 -88.3 0 1 178.27 159.30
  L 172.48 159.56
  A 0.48 0.33 -6.6 0 0 172.00 159.98
  Z
  M 172.55 157.27
  C 178.83 158.28 172.35 153.12 172.06 156.70
  A 0.58 0.54 6.3 0 0 172.55 157.27
  Z"
/>
<path fill="#2b5928" d="
  M 195.28 153.75
  Q 198.33 152.65 201.04 154.28
  A 0.80 0.76 43.3 0 0 201.87 154.28
  C 209.10 149.58 208.47 158.91 208.49 162.47
  A 0.68 0.64 82.8 0 1 208.02 163.12
  Q 206.74 163.50 205.51 163.14
  A 0.69 0.68 -82.2 0 1 205.02 162.48
  L 205.01 157.71
  A 1.68 1.11 -72.4 0 0 204.75 156.80
  C 201.65 152.68 201.71 161.92 201.73 162.49
  A 0.64 0.62 81.5 0 1 201.27 163.13
  Q 199.97 163.46 198.73 163.18
  A 0.65 0.63 -83.9 0 1 198.24 162.55
  C 198.25 161.68 199.04 153.27 195.63 156.71
  A 1.33 1.16 70.9 0 0 195.28 157.58
  L 195.23 162.48
  A 0.68 0.64 82.8 0 1 194.76 163.13
  Q 193.36 163.50 192.00 163.13
  A 0.68 0.67 -82.0 0 1 191.52 162.48
  L 191.51 154.29
  A 0.71 0.67 81.6 0 1 191.98 153.62
  Q 193.22 153.21 194.37 153.71
  A 1.31 1.15 43.9 0 0 195.28 153.75
  Z"
/>
<path fill="#2b5928" d="
  M 228.22 157.31
  L 227.99 162.48
  A 0.75 0.61 85.6 0 1 227.54 163.13
  Q 226.11 163.51 224.76 163.13
  A 0.68 0.66 -81.6 0 1 224.28 162.47
  L 224.33 154.17
  A 0.62 0.62 85.0 0 1 224.84 153.56
  Q 226.41 153.30 227.76 153.85
  A 1.25 1.16 42.4 0 0 228.67 153.84
  C 235.88 150.64 234.97 158.68 234.99 162.48
  A 0.65 0.63 83.2 0 1 234.51 163.11
  Q 233.10 163.48 231.72 163.17
  A 0.64 0.60 -84.5 0 1 231.24 162.55
  L 231.25 157.45
  A 1.37 1.06 -72.2 0 0 230.93 156.57
  Q 229.99 155.58 228.70 156.50
  A 1.16 1.00 -18.7 0 0 228.22 157.31
  Z"
/>
<path fill="#2b5928" d="
  M 262.3275 157.9528
  A 6.00 5.14 -3.7 0 1 256.6717 163.4693
  A 6.00 5.14 -3.7 0 1 250.3525 158.7272
  A 6.00 5.14 -3.7 0 1 256.0083 153.2107
  A 6.00 5.14 -3.7 0 1 262.3275 157.9528
  Z
  M 256.4182 161.0085
  A 2.66 2.13 88.1 0 0 258.4588 158.2794
  A 2.66 2.13 88.1 0 0 256.2418 155.6915
  A 2.66 2.13 88.1 0 0 254.2012 158.4206
  A 2.66 2.13 88.1 0 0 256.4182 161.0085
  Z"
/>
<path fill="#2b5928" d="
  M 43.82 158.15
  Q 44.03 156.41 45.12 154.03
  A 0.88 0.69 -74.7 0 1 45.83 153.50
  L 48.44 153.61
  A 0.40 0.38 -76.7 0 1 48.76 154.17
  L 45.11 162.66
  A 0.88 0.68 -74.7 0 1 44.39 163.20
  L 41.72 163.13
  A 0.95 0.66 75.4 0 1 41.03 162.54
  L 37.49 154.26
  A 0.46 0.44 71.0 0 1 37.78 153.64
  Q 39.26 153.25 40.76 153.61
  A 0.93 0.91 87.5 0 1 41.42 154.23
  L 42.78 158.24
  Q 43.53 160.46 43.82 158.15
  Z"
/>
<rect fill="#2b5928" x="106.25" y="153.50" width="3.50" height="9.76" rx="0.60"/>
<path fill="#2b5928" d="
  M 215.87 160.71
  Q 218.16 160.83 217.88 155.73
  Q 217.78 153.86 219.54 153.22
  Q 219.85 153.11 221.24 153.61
  A 0.73 0.70 9.9 0 1 221.73 154.28
  L 221.67 162.59
  A 0.60 0.59 86.1 0 1 221.16 163.18
  Q 219.60 163.40 218.24 162.85
  A 1.14 1.12 42.6 0 0 217.34 162.88
  C 210.43 166.16 210.85 157.91 211.02 154.27
  A 0.70 0.68 83.8 0 1 211.52 153.63
  Q 212.89 153.24 214.25 153.62
  A 0.68 0.65 -82.8 0 1 214.73 154.27
  L 214.75 159.51
  A 1.20 1.19 -88.2 0 0 215.87 160.71
  Z"
/>
</svg>
