<?xml version="1.0" encoding="UTF-8"?>
<svg id="Capa_1" xmlns="http://www.w3.org/2000/svg" viewBox="0 0 211.43 173.04">
  <defs>
    <style>
      .cls-1 {
        stroke: #209838;
      }

      .cls-1, .cls-2, .cls-3, .cls-4, .cls-5, .cls-6, .cls-7, .cls-8, .cls-9, .cls-10, .cls-11, .cls-12, .cls-13, .cls-14, .cls-15, .cls-16, .cls-17, .cls-18, .cls-19, .cls-20, .cls-21, .cls-22, .cls-23, .cls-24, .cls-25, .cls-26, .cls-27, .cls-28, .cls-29, .cls-30, .cls-31, .cls-32 {
        fill: none;
        stroke-width: 2px;
      }

      .cls-2 {
        stroke: #0f8f38;
      }

      .cls-33 {
        fill: #5db130;
      }

      .cls-34 {
        fill: #4dad33;
      }

      .cls-3 {
        stroke: #764e2a;
      }

      .cls-4 {
        stroke: #3fab35;
      }

      .cls-5 {
        stroke: #52ae32;
      }

      .cls-6 {
        stroke: #218e37;
      }

      .cls-7 {
        stroke: #207dc1;
      }

      .cls-35 {
        fill: #2fa836;
      }

      .cls-36 {
        fill: #0a7934;
      }

      .cls-37 {
        fill: #38aa35;
      }

      .cls-38 {
        fill: #088c38;
      }

      .cls-8 {
        stroke: #0b8637;
      }

      .cls-9 {
        stroke: #7f5128;
      }

      .cls-39 {
        fill: #0a9338;
      }

      .cls-10 {
        stroke: #109639;
      }

      .cls-11 {
        stroke: #0d8d38;
      }

      .cls-12 {
        stroke: #0b8437;
      }

      .cls-40 {
        fill: #1c74ba;
      }

      .cls-13 {
        stroke: #6ab42d;
      }

      .cls-41 {
        fill: #77b82a;
      }

      .cls-14 {
        stroke: #49ac34;
      }

      .cls-42 {
        fill: #2362ac;
      }

      .cls-15 {
        stroke: #259f38;
      }

      .cls-16 {
        stroke: #0c9038;
      }

      .cls-17 {
        stroke: #139a39;
      }

      .cls-43 {
        fill: #835226;
      }

      .cls-44 {
        fill: #107d35;
      }

      .cls-18 {
        stroke: #289f38;
      }

      .cls-19 {
        stroke: #7a4f29;
      }

      .cls-45 {
        fill: #2c86c8;
      }

      .cls-20 {
        stroke: #5fb130;
      }

      .cls-46 {
        fill: #0ea038;
      }

      .cls-21 {
        stroke: #57af31;
      }

      .cls-22 {
        stroke: #0a8637;
      }

      .cls-47 {
        fill: #399d36;
      }

      .cls-23 {
        stroke: #17a638;
      }

      .cls-24 {
        stroke: #33a536;
      }

      .cls-48 {
        fill: #7b4f27;
      }

      .cls-25 {
        stroke: #216bb4;
      }

      .cls-26 {
        stroke: #3c9f36;
      }

      .cls-27 {
        stroke: #44ac34;
      }

      .cls-49 {
        fill: #704c2b;
      }

      .cls-50 {
        fill: #0a7e35;
      }

      .cls-28 {
        stroke: #229638;
      }

      .cls-29 {
        stroke: #29a737;
      }

      .cls-30 {
        stroke: #3ca835;
      }

      .cls-31 {
        stroke: #1ca638;
      }

      .cls-32 {
        stroke: #26a737;
      }

      .cls-51 {
        fill: #119d39;
      }

      .cls-52 {
        fill: #4aad33;
      }
    </style>
  </defs>
  <g>
    <path class="cls-25" d="M121.9,33.73c-1.37.57-2.69.32-3.96-.75-7.34-6.17-15.67-7.59-25-4.25-1.31.47-2.5,1.63-3.57,3.5-.13.22-.38.44-.7.63-.35.21-.53.48-.53.83,0,.36-.07.67-.22.84-1.94,2.26-2.19,4.88-4.94,6.95" vector-effect="non-scaling-stroke"/>
    <path class="cls-2" d="M45.69,43.44c-1.35-.16-2.18.33-2.47,1.48-.08.31-.24.6-.47.83-.79.8-.9,1.71-.35,2.73" vector-effect="non-scaling-stroke"/>
    <path class="cls-29" d="M64.98,55.73c-.57,1.54-.78,3.12-.61,4.74.04.34-.07.65-.3.84l-.67.56c-.18.14-.48.1-.69-.1-.3-.29-.64-.29-1.02,0" vector-effect="non-scaling-stroke"/>
    <path class="cls-27" d="M102.19,89.44c-3.22,1.87-5.89.84-9.94-.02-.73-.15-1.05.14-.97.88.02.15.17.44.45.86.21.32.13.59-.25.82" vector-effect="non-scaling-stroke"/>
    <path class="cls-31" d="M118,92.14c-2.89-.35-5.25-.07-7.06.84-1.47.73-2.8,1.08-4,1.04-.33-.01-.64.07-.91.23-3.02,1.87-8.25.29-12.15.97" vector-effect="non-scaling-stroke"/>
    <path class="cls-31" d="M132.91,76.06c-1.09-1.65-.87-3.31.64-4.98,1.65-1.83,1.69-3.69.1-5.6" vector-effect="non-scaling-stroke"/>
    <path class="cls-2" d="M159.23,55.98c-2.22-1.4-2.22-3.56-4.08-5" vector-effect="non-scaling-stroke"/>
    <path class="cls-22" d="M27.48,60.73c-.99.39-1.19,1-.6,1.81,3.19,4.41,6.37,8.82,9.56,13.23" vector-effect="non-scaling-stroke"/>
    <path class="cls-11" d="M36.44,75.77l6.96,10.46" vector-effect="non-scaling-stroke"/>
    <path class="cls-28" d="M43.4,86.23l1.58,2.75" vector-effect="non-scaling-stroke"/>
    <path class="cls-12" d="M44.98,88.98c-.23,4.09-3.97,3.14-6.46,4.66-1.57.96-2.56,1.51-2.95,1.65-2.84,1.02-7.68,2.42-8.95,5.39-.35.83-1.23,1.32-2.12,1.18-2.13-.34-3.18.55-3.15,2.68,0,.15.1.45.3.92.14.35,0,.6-.42.77" vector-effect="non-scaling-stroke"/>
    <path class="cls-32" d="M65.99,83.75c-7.21,1.2-14.48,1.54-21.8,1.02-.34-.03-.63.17-.66.44l-.13,1.02" vector-effect="non-scaling-stroke"/>
    <path class="cls-17" d="M54.19,73.94c-1.15.39-1.95.17-2.38-.68-.08-.16-.24-.25-.36-.21-.02,0-.03.02-.04.03l-.26.21c-.32.28-.6.46-.71.46l-12.76.47c-.37.01-.69.14-.86.34-.27.33-.4.73-.38,1.21" vector-effect="non-scaling-stroke"/>
    <path class="cls-20" d="M76.69,94.94c-2.2-2.13-3.6-.94-5.7-.99-6.66-.13-13.32-.16-19.99-.07-.69,0-1.05.37-1.1,1.1" vector-effect="non-scaling-stroke"/>
    <path class="cls-1" d="M49.9,94.98l-1.42-1.25" vector-effect="non-scaling-stroke"/>
    <path class="cls-18" d="M48.48,93.73l-3.5-4.75" vector-effect="non-scaling-stroke"/>
    <path class="cls-8" d="M48.48,93.73c2.18,6.33,8.23,14.67,11.57,19.11" vector-effect="non-scaling-stroke"/>
    <path class="cls-10" d="M60.05,112.84c-2.47,3.29-5.61,5.24-9.42,5.83-3.88.59-4.39,3.57-8.13,3.63-.24,0-.45.21-.5.49-.32,1.66-7.41,1.88-9.14,4.94-.14.26-.4.45-.71.53-1.23.33-1.81,1.24-1.75,2.72" vector-effect="non-scaling-stroke"/>
    <path class="cls-6" d="M82.23,122.48c-.13.75.11,1.16.71,1.25.41.06.73.17.89.3,4.21,3.48-11.23,2.53-13.04,2.16" vector-effect="non-scaling-stroke"/>
    <path class="cls-16" d="M70.79,126.19c-4-4.13-7.58-8.58-10.74-13.35" vector-effect="non-scaling-stroke"/>
    <path class="cls-21" d="M105.59,132.6c-8.25-2.19-16.04-5.56-23.36-10.12" vector-effect="non-scaling-stroke"/>
    <path class="cls-26" d="M82.23,122.48c-12.34-7.34-23.12-16.51-32.33-27.5" vector-effect="non-scaling-stroke"/>
    <path class="cls-15" d="M70.79,126.19c1.27.6,2.12,1.68,2.53,3.24" vector-effect="non-scaling-stroke"/>
    <path class="cls-23" d="M73.32,129.43c-6.21,3.12-12.39,6.16-18.56,9.13-1.24.59-2.48,1.19-3.71,1.78-3.04,1.45-6.37,2.26-9.15,5.14" vector-effect="non-scaling-stroke"/>
    <path class="cls-14" d="M114.44,141.44c-1.01.35-2.03.39-3.05.11-.29-.08-.6.04-.76.29-1.86,2.93-8.31,5.15-11.39,6.38-.82.33-1.74.34-2.56.02-3.17-1.23-6-2.91-8.49-5.05" vector-effect="non-scaling-stroke"/>
    <path class="cls-30" d="M88.19,143.19l-9.34-8.19" vector-effect="non-scaling-stroke"/>
    <path class="cls-24" d="M78.85,135l-5.53-5.57" vector-effect="non-scaling-stroke"/>
    <path class="cls-4" d="M78.85,135c-6.47,2.89-12.9,5.91-19.27,9.05-2.12,1.04-5.54,2.06-8.01,4.1-.23.2-.52.33-.87.39-1.43.25-2.18,1.16-2.26,2.73" vector-effect="non-scaling-stroke"/>
    <path class="cls-5" d="M88.19,143.19c-1.36.09-2.38.69-3.07,1.8-.16.26-.44.41-.74.42-.79.02-1.54.19-2.25.51-6.52,2.99-12.98,6.11-19.37,9.36-1.58.8-3.68.49-3.86,3.2" vector-effect="non-scaling-stroke"/>
    <path class="cls-13" d="M123.19,147.94c-.53.33-.93.32-1.22-.03-.18-.2-.44-.27-.58-.15,0,0,0,0,0,0-.11.11-.19.24-.24.39-.09.35-.27.61-.48.7-3.17,1.34-5.99,2.95-8.46,4.84-1.46,1.12-1.32,1.98.41,2.59,9.71,3.39,25.05,5.39,34.88,1.63.29-.11.61-.14.94-.08,1.52.26,2.44-.35,2.76-1.82" vector-effect="non-scaling-stroke"/>
    <path class="cls-19" d="M184.73,63.48c-1.11.35-1.73,1.03-1.88,2.03-1.01,7.07-5.38,15.98-8.41,22.51" vector-effect="non-scaling-stroke"/>
    <path class="cls-9" d="M174.44,88.02c-1.11.51-1.95.31-2.52-.6-.16-.27-.45-.41-.73-.36-4.05.71-6.66,2.97-10.45,3.21-4.61.3-12.79.51-17.05,3.21-.64.41-1.53.6-2.68.58-.31,0-.58.17-.72.44-.55,1.13-.86.98-.91-.45,0-.23-.22-.44-.51-.52l-1.93-.5c-.3-.08-.59-.08-.88,0-.41.11-.36-.4.13-1.51" vector-effect="non-scaling-stroke"/>
    <path class="cls-19" d="M183.9,109.23c-.67-.87-1.38-1.05-2.15-.56-2.41,1.56-3.29,1.09-5.83,1.46-4.93.71-9.86,1.37-14.8,1.98-.31.04-.6.2-.79.45-10.51,13.56-25.62,22.85-43,22.61-1.75-.03-1.88.41-.38,1.32,1.11.67,1.85,1.99,2.24,3.95" vector-effect="non-scaling-stroke"/>
    <path class="cls-3" d="M124.19,103.44c-1.01,2.24-.66,3.12,1.05,2.64,1.73-.49,2.73-.16,4.29-.31.54-.05.65-.29.32-.72-.86-1.14-.65-1.56.64-1.27,3.73.85,5.95-1.01,8.8-1.37,4.18-.54,8.26.04,12.15-.77,4.19-.88,10.4-3.41,14.45-3.25.35.01.67-.06.92-.21.81-.49,1.46-1.14,1.95-1.95.14-.22.43-.34.72-.29,2.12.34,4.3-6.27,4.96-7.92" vector-effect="non-scaling-stroke"/>
    <path class="cls-7" d="M113.98,41.75c-2.59-3.89-6.29-5.84-11.1-5.85-2.27-.01-4.89.78-7.88,2.39-5.34,2.88-6.37,6.62-6.58,12.5-.13,3.6,1.11,6.6,3.71,9,6.23,5.75,12.76,6.32,19.59,1.69.69-.46,1.26-1.04,1.71-1.73,3.83-5.88,4.44-11.49,1.84-16.84-.13-.26-.31-.45-.54-.58-.38-.21-.63-.41-.75-.58" vector-effect="non-scaling-stroke"/>
  </g>
  <path class="cls-42" d="M121.9,33.73c-1.37.57-2.69.32-3.96-.75-7.34-6.17-15.67-7.59-25-4.25-1.31.47-2.5,1.63-3.57,3.5-.13.22-.38.44-.7.63-.35.21-.53.48-.53.83,0,.36-.07.67-.22.84-1.94,2.26-2.19,4.88-4.94,6.95,5.25-14.71,12.3-28.48,21.17-41.33.11-.16.33-.2.48-.09.03.02.06.06.09.09,6.96,10.56,12.69,21.75,17.18,33.58Z"/>
  <path class="cls-40" d="M121.9,33.73c4.99,12.39,7.1,26.52-3.65,36.31-7.29,6.65-19.69,7.02-27.64,1.26-9.38-6.8-11.8-19.07-7.63-29.82,2.75-2.07,3-4.69,4.94-6.95.15-.17.23-.48.22-.84,0-.35.18-.62.53-.83.32-.19.57-.41.7-.63,1.07-1.87,2.26-3.03,3.57-3.5,9.33-3.34,17.66-1.92,25,4.25,1.27,1.07,2.59,1.32,3.96.75ZM113.98,41.75c-2.59-3.89-6.29-5.84-11.1-5.85-2.27-.01-4.89.78-7.88,2.39-5.34,2.88-6.37,6.62-6.58,12.5-.13,3.6,1.11,6.6,3.71,9,6.23,5.75,12.76,6.32,19.59,1.69.69-.46,1.26-1.04,1.71-1.73,3.83-5.88,4.44-11.49,1.84-16.84-.13-.26-.31-.45-.54-.58-.38-.21-.63-.41-.75-.58Z"/>
  <path class="cls-50" d="M45.69,43.44c-1.35-.16-2.18.33-2.47,1.48-.08.31-.24.6-.47.83-.79.8-.9,1.71-.35,2.73C28.42,39.97,14.58,33.16.88,28.04c-.38-.14-.64-.31-.77-.52-.23-.35-.1-.48.39-.39,16,2.86,31.06,8.3,45.19,16.31Z"/>
  <path class="cls-50" d="M159.23,55.98c-2.22-1.4-2.22-3.56-4.08-5,16.95-10.48,35.31-17.15,55.07-20.02,1.43-.21,1.6-.12.51.27-18.06,6.39-35.23,14.64-51.5,24.75Z"/>
  <path class="cls-45" d="M114.73,42.33c.23.13.41.32.54.58,2.6,5.35,1.99,10.96-1.84,16.84-.45.69-1.02,1.27-1.71,1.73-6.83,4.63-13.36,4.06-19.59-1.69-2.6-2.4-3.84-5.4-3.71-9,.21-5.88,1.24-9.62,6.58-12.5,2.99-1.61,5.61-2.4,7.88-2.39,4.81.01,8.51,1.96,11.1,5.85.12.17.37.37.75.58Z"/>
  <path class="cls-51" d="M45.69,43.44c6.72,3.64,13.15,7.74,19.29,12.29-.57,1.54-.78,3.12-.61,4.74.04.34-.07.65-.3.84l-.67.56c-.18.14-.48.1-.69-.1-.3-.29-.64-.29-1.02,0l-19.29-13.29c-.55-1.02-.44-1.93.35-2.73.23-.23.39-.52.47-.83.29-1.15,1.12-1.64,2.47-1.48Z"/>
  <path class="cls-51" d="M155.15,50.98c1.86,1.44,1.86,3.6,4.08,5-9.26,5.99-18.03,12.69-26.32,20.08-1.09-1.65-.87-3.31.64-4.98,1.65-1.83,1.69-3.69.1-5.6,6.83-5.34,13.99-10.17,21.5-14.5Z"/>
  <path class="cls-34" d="M64.98,55.73c13.78,9.72,26.18,20.96,37.21,33.71-3.22,1.87-5.89.84-9.94-.02-.73-.15-1.05.14-.97.88.02.15.17.44.45.86.21.32.13.59-.25.82-8.63-11.35-18.56-21.42-29.79-30.21.38-.29.72-.29,1.02,0,.21.2.51.24.69.1l.67-.56c.23-.19.34-.5.3-.84-.17-1.62.04-3.2.61-4.74Z"/>
  <path class="cls-36" d="M27.48,60.73c-.99.39-1.19,1-.6,1.81,3.19,4.41,6.37,8.82,9.56,13.23l6.96,10.46,1.58,2.75c-.23,4.09-3.97,3.14-6.46,4.66-1.57.96-2.56,1.51-2.95,1.65-2.84,1.02-7.68,2.42-8.95,5.39-.35.83-1.23,1.32-2.12,1.18-2.13-.34-3.18.55-3.15,2.68,0,.15.1.45.3.92.14.35,0,.6-.42.77-2.49-15.49-1.32-30.69,3.49-45.59.1-.31.36-.52.66-.53.75-.03,1.45.18,2.1.62Z"/>
  <path class="cls-39" d="M27.48,60.73c9.67,2.87,18.57,7.27,26.71,13.21-1.15.39-1.95.17-2.38-.68-.08-.16-.24-.25-.36-.21-.02,0-.03.02-.04.03l-.26.21c-.32.28-.6.46-.71.46l-12.76.47c-.37.01-.69.14-.86.34-.27.33-.4.73-.38,1.21-3.19-4.41-6.37-8.82-9.56-13.23-.59-.81-.39-1.42.6-1.81Z"/>
  <path class="cls-43" d="M184.73,63.48c-1.11.35-1.73,1.03-1.88,2.03-1.01,7.07-5.38,15.98-8.41,22.51-1.11.51-1.95.31-2.52-.6-.16-.27-.45-.41-.73-.36-4.05.71-6.66,2.97-10.45,3.21-4.61.3-12.79.51-17.05,3.21-.64.41-1.53.6-2.68.58-.31,0-.58.17-.72.44-.55,1.13-.86.98-.91-.45,0-.23-.22-.44-.51-.52l-1.93-.5c-.3-.08-.59-.08-.88,0-.41.11-.36-.4.13-1.51,12.96-12.42,29.55-25.92,47-30.29,1.48-.37,1.99.38,1.54,2.25Z"/>
  <path class="cls-49" d="M184.73,63.48c3.27,15.32,3,30.57-.83,45.75-.67-.87-1.38-1.05-2.15-.56-2.41,1.56-3.29,1.09-5.83,1.46-4.93.71-9.86,1.37-14.8,1.98-.31.04-.6.2-.79.45-10.51,13.56-25.62,22.85-43,22.61-1.75-.03-1.88.41-.38,1.32,1.11.67,1.85,1.99,2.24,3.95-5.53-4.31-10.09-9.46-13.68-15.46-.16-.26-.13-.59.06-.82,5.87-7.21,12.07-14.11,18.62-20.72-1.01,2.24-.66,3.12,1.05,2.64,1.73-.49,2.73-.16,4.29-.31.54-.05.65-.29.32-.72-.86-1.14-.65-1.56.64-1.27,3.73.85,5.95-1.01,8.8-1.37,4.18-.54,8.26.04,12.15-.77,4.19-.88,10.4-3.41,14.45-3.25.35.01.67-.06.92-.21.81-.49,1.46-1.14,1.95-1.95.14-.22.43-.34.72-.29,2.12.34,4.3-6.27,4.96-7.92,3.03-6.53,7.4-15.44,8.41-22.51.15-1,.77-1.68,1.88-2.03Z"/>
  <path class="cls-37" d="M133.65,65.48c1.59,1.91,1.55,3.77-.1,5.6-1.51,1.67-1.73,3.33-.64,4.98-5.29,5.11-10.26,10.47-14.91,16.08-2.89-.35-5.25-.07-7.06.84-1.47.73-2.8,1.08-4,1.04-.33-.01-.64.07-.91.23-3.02,1.87-8.25.29-12.15.97l-2.4-3.24c.38-.23.46-.5.25-.82-.28-.42-.43-.71-.45-.86-.08-.74.24-1.03.97-.88,4.05.86,6.72,1.89,9.94.02l1.41,1.34c.64.6,1.57.66,2.08.12,0,0,0,0,0,0,8.83-9.41,18.15-17.88,27.96-25.41Z"/>
  <path class="cls-46" d="M54.19,73.94c4.16,2.68,8.09,5.95,11.8,9.81-7.21,1.2-14.48,1.54-21.8,1.02-.34-.03-.63.17-.66.44l-.13,1.02-6.96-10.46c-.02-.48.11-.88.38-1.21.17-.2.49-.33.86-.34l12.76-.47c.11,0,.39-.18.71-.46l.26-.21c.09-.08.25-.03.36.12.01.02.03.04.04.06.43.85,1.23,1.07,2.38.68Z"/>
  <path class="cls-52" d="M65.99,83.75c3.84,3.19,7.41,6.92,10.7,11.19-2.2-2.13-3.6-.94-5.7-.99-6.66-.13-13.32-.16-19.99-.07-.69,0-1.05.37-1.1,1.1l-1.42-1.25-3.5-4.75-1.58-2.75.13-1.02c.03-.27.32-.47.66-.44,7.32.52,14.59.18,21.8-1.02Z"/>
  <path class="cls-48" d="M174.44,88.02c-.66,1.65-2.84,8.26-4.96,7.92-.29-.05-.58.07-.72.29-.49.81-1.14,1.46-1.95,1.95-.25.15-.57.22-.92.21-4.05-.16-10.26,2.37-14.45,3.25-3.89.81-7.97.23-12.15.77-2.85.36-5.07,2.22-8.8,1.37-1.29-.29-1.5.13-.64,1.27.33.43.22.67-.32.72-1.56.15-2.56-.18-4.29.31-1.71.48-2.06-.4-1.05-2.64l12-11.92c-.49,1.11-.54,1.62-.13,1.51.29-.08.58-.08.88,0l1.93.5c.29.08.5.29.51.52.05,1.43.36,1.58.91.45.14-.27.41-.44.72-.44,1.15.02,2.04-.17,2.68-.58,4.26-2.7,12.44-2.91,17.05-3.21,3.79-.24,6.4-2.5,10.45-3.21.28-.05.57.09.73.36.57.91,1.41,1.11,2.52.6Z"/>
  <path class="cls-38" d="M44.98,88.98l3.5,4.75c2.18,6.33,8.23,14.67,11.57,19.11-2.47,3.29-5.61,5.24-9.42,5.83-3.88.59-4.39,3.57-8.13,3.63-.24,0-.45.21-.5.49-.32,1.66-7.41,1.88-9.14,4.94-.14.26-.4.45-.71.53-1.23.33-1.81,1.24-1.75,2.72-4.65-7.65-7.71-15.9-9.17-24.75.42-.17.56-.42.42-.77-.2-.47-.3-.77-.3-.92-.03-2.13,1.02-3.02,3.15-2.68.89.14,1.77-.35,2.12-1.18,1.27-2.97,6.11-4.37,8.95-5.39.39-.14,1.38-.69,2.95-1.65,2.49-1.52,6.23-.57,6.46-4.66Z"/>
  <path class="cls-46" d="M118,92.14c-5.21,6.67-9.64,13.94-13.27,21.79-.23.51-.47.51-.7,0-3.05-6.71-6.43-12.95-10.15-18.7,3.9-.68,9.13.9,12.15-.97.27-.16.58-.24.91-.23,1.2.04,2.53-.31,4-1.04,1.81-.91,4.17-1.19,7.06-.84Z"/>
  <path class="cls-41" d="M76.69,94.94c10.31,11.81,19.4,24.98,28.9,37.66-8.25-2.19-16.04-5.56-23.36-10.12-12.34-7.34-23.12-16.51-32.33-27.5.05-.73.41-1.09,1.1-1.1,6.67-.09,13.33-.06,19.99.07,2.1.05,3.5-1.14,5.7.99Z"/>
  <path class="cls-44" d="M48.48,93.73l1.42,1.25c9.21,10.99,19.99,20.16,32.33,27.5-.13.75.11,1.16.71,1.25.41.06.73.17.89.3,4.21,3.48-11.23,2.53-13.04,2.16-4-4.13-7.58-8.58-10.74-13.35-3.34-4.44-9.39-12.78-11.57-19.11Z"/>
  <path class="cls-43" d="M183.9,109.23c-3.61,15.03-10.66,28.55-21.15,40.56-1.55,1.77-3.32,2.77-5.33,2.98-14.67,1.56-27.42-2.55-38.23-12.33-.39-1.96-1.13-3.28-2.24-3.95-1.5-.91-1.37-1.35.38-1.32,17.38.24,32.49-9.05,43-22.61.19-.25.48-.41.79-.45,4.94-.61,9.87-1.27,14.8-1.98,2.54-.37,3.42.1,5.83-1.46.77-.49,1.48-.31,2.15.56Z"/>
  <path class="cls-46" d="M60.05,112.84c3.16,4.77,6.74,9.22,10.74,13.35,1.27.6,2.12,1.68,2.53,3.24-6.21,3.12-12.39,6.16-18.56,9.13-1.24.59-2.48,1.19-3.71,1.78-3.04,1.45-6.37,2.26-9.15,5.14-4.45-4.34-8.29-9.17-11.5-14.5-.06-1.48.52-2.39,1.75-2.72.31-.08.57-.27.71-.53,1.73-3.06,8.82-3.28,9.14-4.94.05-.28.26-.49.5-.49,3.74-.06,4.25-3.04,8.13-3.63,3.81-.59,6.95-2.54,9.42-5.83Z"/>
  <path class="cls-47" d="M82.23,122.48c7.32,4.56,15.11,7.93,23.36,10.12l8.85,8.84c-1.01.35-2.03.39-3.05.11-.29-.08-.6.04-.76.29-1.86,2.93-8.31,5.15-11.39,6.38-.82.33-1.74.34-2.56.02-3.17-1.23-6-2.91-8.49-5.05l-9.34-8.19-5.53-5.57c-.41-1.56-1.26-2.64-2.53-3.24,1.81.37,17.25,1.32,13.04-2.16-.16-.13-.48-.24-.89-.3-.6-.09-.84-.5-.71-1.25Z"/>
  <path class="cls-35" d="M73.32,129.43l5.53,5.57c-6.47,2.89-12.9,5.91-19.27,9.05-2.12,1.04-5.54,2.06-8.01,4.1-.23.2-.52.33-.87.39-1.43.25-2.18,1.16-2.26,2.73l-6.54-5.79c2.78-2.88,6.11-3.69,9.15-5.14,1.23-.59,2.47-1.19,3.71-1.78,6.17-2.97,12.35-6.01,18.56-9.13Z"/>
  <path class="cls-52" d="M78.85,135l9.34,8.19c-1.36.09-2.38.69-3.07,1.8-.16.26-.44.41-.74.42-.79.02-1.54.19-2.25.51-6.52,2.99-12.98,6.11-19.37,9.36-1.58.8-3.68.49-3.86,3.2-3.69-2.1-7.18-4.5-10.46-7.21.08-1.57.83-2.48,2.26-2.73.35-.06.64-.19.87-.39,2.47-2.04,5.89-3.06,8.01-4.1,6.37-3.14,12.8-6.16,19.27-9.05Z"/>
  <path class="cls-33" d="M114.44,141.44l8.75,6.5c-.53.33-.93.32-1.22-.03-.18-.2-.44-.27-.58-.15,0,0,0,0,0,0-.11.11-.19.24-.24.39-.09.35-.27.61-.48.7-3.17,1.34-5.99,2.95-8.46,4.84-1.46,1.12-1.32,1.98.41,2.59,9.71,3.39,25.05,5.39,34.88,1.63.29-.11.61-.14.94-.08,1.52.26,2.44-.35,2.76-1.82,1.56-.29,3.05-.18,4.48.34.15.06.22.23.16.38-.02.05-.05.09-.08.12-16.1,13.81-40.59,18.51-60.81,15.12-12.49-2.09-24.51-6.59-36.04-13.5.18-2.71,2.28-2.4,3.86-3.2,6.39-3.25,12.85-6.37,19.37-9.36.71-.32,1.46-.49,2.25-.51.3,0,.58-.16.74-.42.69-1.11,1.71-1.71,3.07-1.8,2.49,2.14,5.32,3.82,8.49,5.05.82.32,1.74.31,2.56-.02,3.08-1.23,9.53-3.45,11.39-6.38.16-.25.47-.37.76-.29,1.02.28,2.04.24,3.05-.11Z"/>
  <path class="cls-41" d="M123.19,147.94c8.58,5.21,17.91,7.91,28,8.08-.32,1.47-1.24,2.08-2.76,1.82-.33-.06-.65-.03-.94.08-9.83,3.76-25.17,1.76-34.88-1.63-1.73-.61-1.87-1.47-.41-2.59,2.47-1.89,5.29-3.5,8.46-4.84.21-.09.39-.35.48-.7.05-.15.13-.28.24-.39.14-.13.39-.07.58.13,0,0,0,0,.01.01.29.35.69.36,1.22.03Z"/>
</svg>