<?xml version="1.0" encoding="UTF-8" standalone="no"?>
<!DOCTYPE svg PUBLIC "-//W3C//DTD SVG 1.1//EN" "http://www.w3.org/Graphics/SVG/1.1/DTD/svg11.dtd">
<svg xmlns="http://www.w3.org/2000/svg" version="1.1" viewBox="0 0 229 143">
<g stroke-width="2.00" fill="none" stroke-linecap="butt">
<path stroke="#85bbe0" vector-effect="non-scaling-stroke" d="
  M 98.33 23.50
  C 99.96 35.63 92.75 48.92 109.75 52.50
  Q 118.90 54.43 128.27 54.23
  Q 130.58 54.18 130.73 51.88
  C 131.87 35.03 120.95 20.33 104.76 15.93
  Q 101.56 15.06 97.50 15.68
  A 0.75 0.71 2.1 0 0 96.88 16.23
  C 96.17 19.33 98.00 21.04 98.33 23.50"
/>
<path stroke="#ffb280" vector-effect="non-scaling-stroke" d="
  M 88.92 26.80
  C 88.40 25.39 86.18 23.40 84.62 22.99
  A 0.60 0.54 11.1 0 0 83.88 23.44
  L 83.31 28.51
  A 0.55 0.53 -6.3 0 0 84.03 29.06
  L 88.57 27.57
  A 0.60 0.58 70.4 0 0 88.92 26.80"
/>
<path stroke="#ffac80" vector-effect="non-scaling-stroke" d="
  M 94.47 27.51
  A 0.41 0.41 71.0 0 0 94.81 26.88
  L 92.54 23.42
  A 0.41 0.41 43.6 0 0 91.82 23.48
  L 90.34 26.93
  A 0.41 0.41 -79.0 0 0 90.71 27.50
  L 94.47 27.51"
/>
<path stroke="#ffb280" vector-effect="non-scaling-stroke" d="
  M 81.82 29.00
  A 0.60 0.60 49.6 0 0 81.90 27.95
  L 76.18 24.18
  A 0.60 0.60 -70.8 0 0 75.25 24.68
  L 75.17 31.02
  A 0.60 0.60 76.7 0 0 76.02 31.57
  L 81.82 29.00"
/>
<path stroke="#ffac80" vector-effect="non-scaling-stroke" d="
  M 64.04 39.66
  C 67.37 38.66 70.63 35.40 73.47 33.55
  Q 75.82 32.02 73.29 30.95
  L 64.30 27.16
  Q 60.54 25.58 61.43 29.54
  L 63.39 38.27
  A 0.37 0.32 -0.3 0 1 62.96 38.64
  C 60.93 38.34 47.92 36.05 45.18 39.57
  A 0.72 0.60 -44.9 0 0 45.11 40.36
  L 53.37 52.35
  Q 54.92 54.58 56.35 52.17
  C 57.32 50.52 63.74 41.28 63.65 40.31
  A 0.63 0.57 79.0 0 1 64.04 39.66"
/>
<path stroke="#d9e680" vector-effect="non-scaling-stroke" d="
  M 79.75 32.54
  L 76.75 33.96"
/>
<path stroke="#badc82" vector-effect="non-scaling-stroke" d="
  M 76.75 33.96
  Q 72.96 35.48 69.96 38.25"
/>
<path stroke="#80c78e" vector-effect="non-scaling-stroke" d="
  M 69.96 38.25
  Q 66.30 40.97 63.84 44.61
  Q 62.68 46.31 64.54 47.21
  Q 71.01 50.32 76.52 55.34"
/>
<path stroke="#a1da84" vector-effect="non-scaling-stroke" d="
  M 76.52 55.34
  L 78.28 56.96"
/>
<path stroke="#badc82" vector-effect="non-scaling-stroke" d="
  M 78.28 56.96
  L 80.96 59.75"
/>
<path stroke="#d9e680" vector-effect="non-scaling-stroke" d="
  M 80.96 59.75
  Q 83.11 62.30 85.32 60.84
  Q 93.98 55.14 100.91 53.09
  C 104.58 52.00 98.19 48.63 97.25 47.46"
/>
<path stroke="#badc82" vector-effect="non-scaling-stroke" d="
  M 97.25 47.46
  L 96.04 44.25"
/>
<path stroke="#a1da84" vector-effect="non-scaling-stroke" d="
  M 96.04 44.25
  L 95.54 42.25"
/>
<path stroke="#80c78e" vector-effect="non-scaling-stroke" d="
  M 95.54 42.25
  L 96.21 32.75"
/>
<path stroke="#f4ef80" vector-effect="non-scaling-stroke" d="
  M 96.21 32.75
  C 97.32 26.36 83.01 31.23 79.75 32.54"
/>
<path stroke="#75b70f" vector-effect="non-scaling-stroke" d="
  M 96.21 32.75
  Q 89.41 34.06 83.25 37.21"
/>
<path stroke="#ced600" vector-effect="non-scaling-stroke" d="
  M 83.25 37.21
  Q 80.10 35.98 79.75 32.54"
/>
<path stroke="#22a213" vector-effect="non-scaling-stroke" d="
  M 95.54 42.25
  C 92.27 42.98 88.89 42.52 86.05 44.07
  Q 79.30 47.74 76.52 55.34"
/>
<path stroke="#3ba411" vector-effect="non-scaling-stroke" d="
  M 69.96 38.25
  Q 70.43 42.02 73.56 43.77
  A 0.79 0.65 -47.3 0 0 74.35 43.66
  L 80.50 38.79"
/>
<path stroke="#59ae0f" vector-effect="non-scaling-stroke" d="
  M 83.25 37.21
  L 80.50 38.79"
/>
<path stroke="#94c203" vector-effect="non-scaling-stroke" d="
  M 80.50 38.79
  Q 77.47 37.30 76.75 33.96"
/>
<path stroke="#5cb607" vector-effect="non-scaling-stroke" d="
  M 96.04 44.25
  Q 88.46 44.98 86.74 46.21
  Q 80.98 50.33 78.28 56.96"
/>
<path stroke="#94c203" vector-effect="non-scaling-stroke" d="
  M 97.25 47.46
  Q 83.48 46.37 80.96 59.75"
/>
<path stroke="#80c78e" vector-effect="non-scaling-stroke" d="
  M 137.54 33.01
  C 131.75 36.41 130.94 43.84 133.84 49.28
  A 0.37 0.37 52.7 0 0 134.43 49.36
  C 138.86 44.59 141.71 39.58 138.53 33.30
  A 0.71 0.71 -28.6 0 0 137.54 33.01"
/>
<path stroke="#80c78e" vector-effect="non-scaling-stroke" d="
  M 144.50 40.71
  Q 137.46 45.87 135.05 54.39
  A 0.40 0.39 -80.8 0 0 135.41 54.90
  C 145.50 55.41 157.07 51.89 160.75 41.29"
/>
<path stroke="#95d687" vector-effect="non-scaling-stroke" d="
  M 160.75 41.29
  Q 161.48 39.74 161.46 38.06
  A 0.68 0.66 7.0 0 0 160.95 37.43
  Q 151.91 35.20 144.50 40.71"
/>
<path stroke="#159e16" vector-effect="non-scaling-stroke" d="
  M 160.75 41.29
  Q 152.65 40.49 144.50 40.71"
/>
<path stroke="#afe181" vector-effect="non-scaling-stroke" d="
  M 55.54 64.75
  Q 54.06 70.56 56.79 75.75"
/>
<path stroke="#ffbd80" vector-effect="non-scaling-stroke" d="
  M 56.79 75.75
  Q 56.47 80.29 60.79 79.75"
/>
<path stroke="#c0eb80" vector-effect="non-scaling-stroke" d="
  M 60.79 79.75
  Q 62.60 79.73 63.50 81.21"
/>
<path stroke="#dab480" vector-effect="non-scaling-stroke" d="
  M 63.50 81.21
  L 59.83 81.20
  A 1.34 1.13 0.2 0 0 58.48 82.33
  C 58.49 85.20 61.08 89.31 64.00 93.96"
/>
<path stroke="#d2f880" vector-effect="non-scaling-stroke" d="
  M 64.00 93.96
  Q 61.09 93.13 59.33 89.68"
/>
<path stroke="#ffbd80" vector-effect="non-scaling-stroke" d="
  M 59.33 89.68
  Q 55.76 90.45 55.00 94.46"
/>
<path stroke="#d2f880" vector-effect="non-scaling-stroke" d="
  M 55.00 94.46
  Q 54.63 94.90 54.56 95.44
  A 1.39 0.93 36.6 0 0 54.88 96.34
  Q 57.44 99.50 61.25 101.04"
/>
<path stroke="#fea483" vector-effect="non-scaling-stroke" d="
  M 61.25 101.04
  Q 60.27 102.29 60.78 103.56
  A 0.71 0.63 -13.2 0 0 61.50 103.95
  Q 64.52 103.57 67.25 102.21"
/>
<path stroke="#d2f880" vector-effect="non-scaling-stroke" d="
  M 67.25 102.21
  Q 69.33 101.42 71.50 101.96"
/>
<path stroke="#d2ad80" vector-effect="non-scaling-stroke" d="
  M 71.50 101.96
  Q 74.25 104.92 77.81 103.79
  A 1.42 0.40 -55.5 0 0 78.48 103.23
  L 85.95 94.19
  A 1.47 1.08 -33.7 0 0 86.29 93.25
  Q 86.01 89.90 83.54 87.75"
/>
<path stroke="#d2f880" vector-effect="non-scaling-stroke" d="
  M 83.54 87.75
  L 83.29 87.25"
/>
<path stroke="#c0eb80" vector-effect="non-scaling-stroke" d="
  M 83.29 87.25
  L 81.46 82.75"
/>
<path stroke="#f4ef80" vector-effect="non-scaling-stroke" d="
  M 81.46 82.75
  Q 82.28 77.47 77.50 78.54"
/>
<path stroke="#c0eb80" vector-effect="non-scaling-stroke" d="
  M 77.50 78.54
  L 74.75 77.21"
/>
<path stroke="#ffc980" vector-effect="non-scaling-stroke" d="
  M 74.75 77.21
  L 79.76 76.10
  A 1.04 0.84 2.4 0 0 80.46 75.58
  C 81.46 73.25 81.16 71.00 81.86 68.58
  Q 82.69 65.70 82.17 62.60"
/>
<path stroke="#a1da84" vector-effect="non-scaling-stroke" d="
  M 82.17 62.60
  L 77.00 58.21"
/>
<path stroke="#ffbd80" vector-effect="non-scaling-stroke" d="
  M 77.00 58.21
  Q 73.54 54.27 68.79 52.00"
/>
<path stroke="#ffcf80" vector-effect="non-scaling-stroke" d="
  M 68.79 52.00
  L 62.55 48.75
  A 1.59 1.52 29.4 0 0 60.50 49.27
  Q 56.09 56.38 55.54 64.75"
/>
<path stroke="#ff8c00" vector-effect="non-scaling-stroke" d="
  M 68.79 52.00
  Q 66.69 54.29 67.25 57.29"
/>
<path stroke="#a1a905" vector-effect="non-scaling-stroke" d="
  M 67.25 57.29
  Q 60.28 58.24 56.46 64.00"
/>
<path stroke="#afb102" vector-effect="non-scaling-stroke" d="
  M 56.46 64.00
  L 55.54 64.75"
/>
<path stroke="#a1a405" vector-effect="non-scaling-stroke" d="
  M 82.17 62.60
  L 76.89 67.43
  A 0.50 0.48 49.0 0 1 76.19 67.37
  Q 71.95 62.24 65.73 65.55"
/>
<path stroke="#51bc06" vector-effect="non-scaling-stroke" d="
  M 65.73 65.55
  Q 61.34 66.67 56.89 65.56
  A 0.63 0.61 -82.0 0 1 56.43 64.93
  L 56.46 64.00"
/>
<path stroke="#70cd02" vector-effect="non-scaling-stroke" d="
  M 68.17 74.18
  Q 67.42 76.47 65.01 75.37
  Q 63.47 74.67 60.24 75.47
  Q 58.80 75.83 58.46 77.25"
/>
<path stroke="#af9f02" vector-effect="non-scaling-stroke" d="
  M 58.46 77.25
  L 56.79 75.75"
/>
<path stroke="#a19705" vector-effect="non-scaling-stroke" d="
  M 77.00 58.21
  Q 72.19 57.03 67.25 57.29"
/>
<path stroke="#c0b501" vector-effect="non-scaling-stroke" d="
  M 74.75 77.21
  L 68.17 74.18"
/>
<path stroke="#afab02" vector-effect="non-scaling-stroke" d="
  M 68.17 74.18
  Q 61.74 71.22 65.73 65.55"
/>
<path stroke="#b5db00" vector-effect="non-scaling-stroke" d="
  M 77.50 78.54
  L 81.46 82.75"
/>
<path stroke="#93e400" vector-effect="non-scaling-stroke" d="
  M 83.29 87.25
  L 82.51 88.31
  A 1.06 0.77 -66.2 0 1 81.75 88.75
  L 74.29 88.75"
/>
<path stroke="#939900" vector-effect="non-scaling-stroke" d="
  M 74.29 88.75
  Q 72.94 85.57 69.75 84.21"
/>
<path stroke="#9aa000" vector-effect="non-scaling-stroke" d="
  M 69.75 84.21
  L 63.50 81.21"
/>
<path stroke="#c0a900" vector-effect="non-scaling-stroke" d="
  M 60.79 79.75
  C 61.33 78.86 59.04 78.37 58.46 77.25"
/>
<path stroke="#ad6200" vector-effect="non-scaling-stroke" d="
  M 69.75 84.21
  Q 70.60 88.34 74.00 90.79"
/>
<path stroke="#adad00" vector-effect="non-scaling-stroke" d="
  M 74.00 90.79
  C 72.78 94.90 67.25 95.50 64.00 93.96"
/>
<path stroke="#a5a500" vector-effect="non-scaling-stroke" d="
  M 83.54 87.75
  Q 82.91 99.52 71.50 101.96"
/>
<path stroke="#d19c03" vector-effect="non-scaling-stroke" d="
  M 67.25 102.21
  L 61.25 101.04"
/>
<path stroke="#d2b500" vector-effect="non-scaling-stroke" d="
  M 55.00 94.46
  Q 57.41 92.57 59.33 89.68"
/>
<path stroke="#a5a500" vector-effect="non-scaling-stroke" d="
  M 74.29 88.75
  L 74.00 90.79"
/>
<path stroke="#ffac80" vector-effect="non-scaling-stroke" d="
  M 53.33 53.72
  Q 47.18 54.53 42.41 57.39
  Q 40.53 58.52 42.32 59.70
  L 50.92 65.36
  Q 52.60 66.47 52.97 64.24
  L 54.50 55.00
  A 1.10 1.05 -88.6 0 0 53.33 53.72"
/>
<path stroke="#b7e680" vector-effect="non-scaling-stroke" d="
  M 86.96 68.75
  Q 84.25 73.65 84.79 79.25"
/>
<path stroke="#c0eb80" vector-effect="non-scaling-stroke" d="
  M 84.79 79.25
  Q 84.67 82.76 86.04 86.00"
/>
<path stroke="#d2f880" vector-effect="non-scaling-stroke" d="
  M 86.04 86.00
  Q 88.03 93.05 93.50 97.96"
/>
<path stroke="#82b6d2" vector-effect="non-scaling-stroke" d="
  M 93.50 97.96
  Q 91.40 97.62 90.04 96.14
  Q 88.21 94.12 86.58 96.05
  L 82.25 101.21"
/>
<path stroke="#85bbe0" vector-effect="non-scaling-stroke" d="
  M 82.25 101.21
  L 78.80 104.80
  A 1.23 1.17 32.3 0 0 79.29 106.73
  Q 88.32 110.35 97.98 111.06
  Q 100.47 111.24 100.91 108.66
  L 101.46 105.50"
/>
<path stroke="#82b6d2" vector-effect="non-scaling-stroke" d="
  M 101.46 105.50
  Q 101.84 104.12 102.38 102.79
  C 102.69 102.04 103.38 101.94 103.29 103.00"
/>
<path stroke="#87b6c6" vector-effect="non-scaling-stroke" d="
  M 103.29 103.00
  L 103.29 104.50"
/>
<path stroke="#81b3df" vector-effect="non-scaling-stroke" d="
  M 103.29 104.50
  L 102.69 109.39
  A 1.28 1.16 89.4 0 0 104.02 110.83
  C 120.65 107.97 134.48 97.63 131.21 78.75"
/>
<path stroke="#9fc9d6" vector-effect="non-scaling-stroke" d="
  M 131.21 78.75
  Q 130.59 72.56 127.04 67.50"
/>
<path stroke="#a1da84" vector-effect="non-scaling-stroke" d="
  M 127.04 67.50
  C 117.16 52.56 96.24 54.37 86.96 68.75"
/>
<path stroke="#41a45b" vector-effect="non-scaling-stroke" d="
  M 127.04 67.50
  Q 124.51 68.94 122.75 71.29"
/>
<path stroke="#2eae09" vector-effect="non-scaling-stroke" d="
  M 122.75 71.29
  Q 118.17 64.95 110.50 63.82
  A 0.76 0.63 15.3 0 0 109.73 64.17
  L 109.25 65.21"
/>
<path stroke="#a1da84" vector-effect="non-scaling-stroke" d="
  M 109.25 65.21
  Q 101.66 63.84 96.79 69.50"
/>
<path stroke="#59c005" vector-effect="non-scaling-stroke" d="
  M 96.79 69.50
  L 86.96 68.75"
/>
<path stroke="#2c9e5a" vector-effect="non-scaling-stroke" d="
  M 122.75 71.29
  L 123.88 73.38"
/>
<path stroke="#138a4b" vector-effect="non-scaling-stroke" d="
  M 123.88 73.38
  Q 122.20 74.04 120.50 73.54"
/>
<path stroke="#8cd484" vector-effect="non-scaling-stroke" d="
  M 120.50 73.54
  Q 117.40 66.04 109.25 65.21"
/>
<path stroke="#77d201" vector-effect="non-scaling-stroke" d="
  M 93.96 78.25
  Q 89.45 79.27 84.79 79.25"
/>
<path stroke="#87b6c6" vector-effect="non-scaling-stroke" d="
  M 120.50 73.54
  L 120.44 74.21"
/>
<path stroke="#bbe980" vector-effect="non-scaling-stroke" d="
  M 120.44 74.21
  C 111.96 71.00 99.28 71.78 100.90 84.09
  Q 101.29 87.04 104.02 87.26
  Q 108.95 87.65 109.21 82.72
  A 1.04 0.91 20.3 0 0 108.74 81.86
  Q 107.58 81.07 107.16 80.52
  Q 106.61 79.80 107.89 79.37
  Q 112.67 77.79 117.00 80.79"
/>
<path stroke="#c6ef80" vector-effect="non-scaling-stroke" d="
  M 117.00 80.79
  Q 120.16 84.91 117.15 89.78"
/>
<path stroke="#d2f880" vector-effect="non-scaling-stroke" d="
  M 117.15 89.78
  Q 103.03 98.98 94.71 85.00"
/>
<path stroke="#c0eb80" vector-effect="non-scaling-stroke" d="
  M 94.71 85.00
  L 93.96 78.25"
/>
<path stroke="#b7e680" vector-effect="non-scaling-stroke" d="
  M 93.96 78.25
  Q 94.37 73.54 96.79 69.50"
/>
<path stroke="#217db5" vector-effect="non-scaling-stroke" d="
  M 131.21 78.75
  Q 129.51 79.31 128.75 80.88
  C 128.23 81.96 127.73 82.56 126.54 81.75"
/>
<path stroke="#27809d" vector-effect="non-scaling-stroke" d="
  M 126.54 81.75
  Q 125.96 77.11 123.88 73.38"
/>
<path stroke="#086aa6" vector-effect="non-scaling-stroke" d="
  M 126.54 81.75
  Q 126.77 97.01 112.94 102.44
  Q 110.95 103.22 103.29 104.50"
/>
<path stroke="#0a6c99" vector-effect="non-scaling-stroke" d="
  M 103.29 103.00
  L 103.50 101.54"
/>
<path stroke="#5aae47" vector-effect="non-scaling-stroke" d="
  M 103.50 101.54
  C 111.45 102.56 120.39 99.36 123.29 91.25"
/>
<path stroke="#4da647" vector-effect="non-scaling-stroke" d="
  M 123.29 91.25
  Q 125.70 85.67 123.75 79.96"
/>
<path stroke="#93e400" vector-effect="non-scaling-stroke" d="
  M 94.71 85.00
  L 86.04 86.00"
/>
<path stroke="#55ae53" vector-effect="non-scaling-stroke" d="
  M 103.50 101.54
  Q 98.04 101.05 93.50 97.96"
/>
<path stroke="#439f47" vector-effect="non-scaling-stroke" d="
  M 120.44 74.21
  Q 122.81 76.56 123.75 79.96"
/>
<path stroke="#82d900" vector-effect="non-scaling-stroke" d="
  M 123.75 79.96
  Q 120.23 79.40 117.00 80.79"
/>
<path stroke="#99e800" vector-effect="non-scaling-stroke" d="
  M 123.29 91.25
  Q 122.49 90.00 121.06 89.93
  Q 120.54 89.90 120.11 89.71
  Q 118.44 88.96 117.15 89.78"
/>
<path stroke="#0871b3" vector-effect="non-scaling-stroke" d="
  M 101.46 105.50
  L 93.25 104.04"
/>
<path stroke="#1979b7" vector-effect="non-scaling-stroke" d="
  M 93.25 104.04
  L 83.25 101.71"
/>
<path stroke="#0871b3" vector-effect="non-scaling-stroke" d="
  M 83.25 101.71
  L 82.25 101.21"
/>
<path stroke="#1c7ec4" vector-effect="non-scaling-stroke" d="
  M 83.25 101.71
  L 82.16 102.46
  A 0.86 0.43 74.0 0 0 82.01 103.24
  Q 82.13 103.87 81.79 104.31
  A 0.95 0.91 -57.2 0 0 82.06 105.70
  Q 86.49 108.02 91.51 107.58
  A 1.45 1.16 14.2 0 0 92.37 107.19
  Q 93.60 105.90 93.25 104.04"
/>
<path stroke="#bbe980" vector-effect="non-scaling-stroke" d="
  M 15.04 75.25
  L 15.04 84.75"
/>
<path stroke="#d2f880" vector-effect="non-scaling-stroke" d="
  M 15.04 84.75
  L 15.01 100.22
  A 0.48 0.48 0.6 0 0 15.48 100.70
  C 28.51 101.03 43.90 103.26 50.71 89.00"
/>
<path stroke="#c0eb80" vector-effect="non-scaling-stroke" d="
  M 50.71 89.00
  L 51.29 88.25"
/>
<path stroke="#ffac80" vector-effect="non-scaling-stroke" d="
  M 51.29 88.25
  L 57.20 88.54
  A 0.75 0.63 77.7 0 0 57.74 87.50
  L 55.61 82.43
  A 0.62 0.52 59.6 0 0 54.74 82.12
  L 52.29 84.25"
/>
<path stroke="#c0eb80" vector-effect="non-scaling-stroke" d="
  M 52.29 84.25
  Q 51.83 82.61 52.54 81.00"
/>
<path stroke="#fea483" vector-effect="non-scaling-stroke" d="
  M 52.54 81.00
  Q 54.09 81.41 54.36 80.59
  A 2.92 2.88 46.7 0 0 54.40 78.83
  Q 53.10 74.34 52.29 74.50"
/>
<path stroke="#c0eb80" vector-effect="non-scaling-stroke" d="
  M 52.29 74.50
  L 51.96 73.75"
/>
<path stroke="#fea483" vector-effect="non-scaling-stroke" d="
  M 51.96 73.75
  L 52.46 73.08
  A 1.46 0.59 -44.8 0 0 52.82 72.24
  L 52.77 67.27
  A 0.66 0.62 89.1 0 0 52.14 66.62
  Q 50.63 66.65 49.50 67.54"
/>
<path stroke="#a6dc83" vector-effect="non-scaling-stroke" d="
  M 49.50 67.54
  C 41.30 56.62 28.25 58.05 15.62 58.20
  A 0.52 0.51 0.6 0 0 15.10 58.70
  L 15.04 75.25"
/>
<path stroke="#a58107" vector-effect="non-scaling-stroke" d="
  M 49.50 67.54
  L 51.54 73.00"
/>
<path stroke="#67c804" vector-effect="non-scaling-stroke" d="
  M 51.54 73.00
  Q 52.05 75.31 50.96 74.97
  Q 50.44 74.80 50.00 74.82
  L 42.54 75.00"
/>
<path stroke="#a6dc83" vector-effect="non-scaling-stroke" d="
  M 42.54 75.00
  C 40.66 66.05 31.81 65.56 24.48 66.26
  A 0.54 0.47 87.7 0 0 24.05 66.79
  L 24.00 73.54"
/>
<path stroke="#62c604" vector-effect="non-scaling-stroke" d="
  M 24.00 73.54
  Q 23.44 74.83 22.00 74.50
  Q 18.93 73.80 15.04 75.25"
/>
<path stroke="#be9003" vector-effect="non-scaling-stroke" d="
  M 52.29 74.50
  L 52.54 81.00"
/>
<path stroke="#bf9801" vector-effect="non-scaling-stroke" d="
  M 52.29 84.25
  L 51.29 88.25"
/>
<path stroke="#93e400" vector-effect="non-scaling-stroke" d="
  M 50.71 89.00
  L 50.43 88.24
  A 0.73 0.59 -11.6 0 0 49.70 87.86
  Q 45.51 88.25 41.70 86.96"
/>
<path stroke="#8ee100" vector-effect="non-scaling-stroke" d="
  M 24.20 85.14
  Q 19.74 83.96 15.04 84.75"
/>
<path stroke="#be9003" vector-effect="non-scaling-stroke" d="
  M 51.96 73.75
  L 51.54 73.00"
/>
<path stroke="#c0eb80" vector-effect="non-scaling-stroke" d="
  M 42.54 75.00
  Q 43.94 80.88 41.70 86.96"
/>
<path stroke="#d2f880" vector-effect="non-scaling-stroke" d="
  M 41.70 86.96
  C 38.53 93.29 30.79 93.70 24.61 93.15
  A 0.55 0.54 3.4 0 1 24.11 92.60
  L 24.20 85.14"
/>
<path stroke="#bbe980" vector-effect="non-scaling-stroke" d="
  M 24.20 85.14
  L 24.00 73.54"
/>
<path stroke="#b7e680" vector-effect="non-scaling-stroke" d="
  M 141.42 68.31
  L 136.76 80.33"
/>
<path stroke="#ccf380" vector-effect="non-scaling-stroke" d="
  M 136.76 80.33
  L 129.20 100.02
  A 0.55 0.40 -76.3 0 0 129.50 100.75
  L 138.25 100.75
  A 0.99 0.75 -78.9 0 0 139.03 100.05
  L 141.64 92.09
  A 0.82 0.72 8.5 0 1 142.39 91.60
  L 158.25 91.79"
/>
<path stroke="#d2f880" vector-effect="non-scaling-stroke" d="
  M 158.25 91.79
  L 161.60 100.27
  A 0.76 0.67 77.9 0 0 162.25 100.75
  L 181.00 100.75
  A 0.69 0.66 -81.1 0 0 181.64 100.26
  L 184.25 91.83"
/>
<path stroke="#ccf380" vector-effect="non-scaling-stroke" d="
  M 184.25 91.83
  L 200.59 91.50"
/>
<path stroke="#d2f880" vector-effect="non-scaling-stroke" d="
  M 200.59 91.50
  L 204.34 100.22
  A 0.85 0.65 75.6 0 0 205.00 100.74
  L 214.44 100.73
  A 0.34 0.34 78.8 0 0 214.75 100.26
  L 210.79 90.36"
/>
<path stroke="#ccf380" vector-effect="non-scaling-stroke" d="
  M 210.79 90.36
  L 207.50 81.96"
/>
<path stroke="#bbe980" vector-effect="non-scaling-stroke" d="
  M 207.50 81.96
  L 203.29 71.00"
/>
<path stroke="#a6dc83" vector-effect="non-scaling-stroke" d="
  M 203.29 71.00
  L 198.72 58.86
  A 0.99 0.68 76.4 0 0 198.00 58.22
  L 188.56 58.13
  A 0.77 0.54 -76.4 0 0 187.98 58.64
  L 184.54 67.50"
/>
<path stroke="#b7e680" vector-effect="non-scaling-stroke" d="
  M 184.54 67.50
  L 177.95 84.66"
/>
<path stroke="#ccf380" vector-effect="non-scaling-stroke" d="
  M 177.95 84.66
  L 175.54 91.00"
/>
<path stroke="#d2f880" vector-effect="non-scaling-stroke" d="
  M 175.54 91.00
  L 172.42 99.18
  Q 172.00 100.29 171.56 99.19
  L 168.46 91.38"
/>
<path stroke="#ccf380" vector-effect="non-scaling-stroke" d="
  M 168.46 91.38
  L 165.50 83.96"
/>
<path stroke="#b7e680" vector-effect="non-scaling-stroke" d="
  M 165.50 83.96
  L 158.29 65.25"
/>
<path stroke="#a1da84" vector-effect="non-scaling-stroke" d="
  M 158.29 65.25
  L 155.85 58.74
  A 0.81 0.58 76.4 0 0 155.25 58.22
  L 145.99 58.13
  A 0.91 0.72 8.1 0 0 145.18 58.60
  L 141.42 68.31"
/>
<path stroke="#59c005" vector-effect="non-scaling-stroke" d="
  M 158.29 65.25
  L 150.52 67.59"
/>
<path stroke="#a1da84" vector-effect="non-scaling-stroke" d="
  M 150.52 67.59
  Q 150.00 64.63 149.46 69.25"
/>
<path stroke="#59c005" vector-effect="non-scaling-stroke" d="
  M 149.46 69.25
  L 141.42 68.31"
/>
<path stroke="#83da01" vector-effect="non-scaling-stroke" d="
  M 145.13 82.07
  Q 140.61 82.19 136.76 80.33"
/>
<path stroke="#83da01" vector-effect="non-scaling-stroke" d="
  M 165.50 83.96
  Q 160.79 84.87 156.00 84.46"
/>
<path stroke="#b7e680" vector-effect="non-scaling-stroke" d="
  M 156.00 84.46
  L 150.52 67.59"
/>
<path stroke="#ccf380" vector-effect="non-scaling-stroke" d="
  M 156.00 84.46
  L 144.93 84.56
  A 0.44 0.38 7.7 0 1 144.49 84.06
  L 145.13 82.07"
/>
<path stroke="#b7e680" vector-effect="non-scaling-stroke" d="
  M 145.13 82.07
  L 149.46 69.25"
/>
<path stroke="#9fec00" vector-effect="non-scaling-stroke" d="
  M 168.46 91.38
  Q 163.42 92.29 158.25 91.79"
/>
<path stroke="#9fec00" vector-effect="non-scaling-stroke" d="
  M 210.79 90.36
  Q 205.72 91.64 200.59 91.50"
/>
<path stroke="#9fec00" vector-effect="non-scaling-stroke" d="
  M 184.25 91.83
  L 175.54 91.00"
/>
<path stroke="#83da01" vector-effect="non-scaling-stroke" d="
  M 187.19 84.28
  L 177.95 84.66"
/>
<path stroke="#88dd00" vector-effect="non-scaling-stroke" d="
  M 207.50 81.96
  Q 202.98 83.11 198.29 83.00"
/>
<path stroke="#bbe980" vector-effect="non-scaling-stroke" d="
  M 194.54 71.75
  L 198.29 83.00"
/>
<path stroke="#ccf380" vector-effect="non-scaling-stroke" d="
  M 198.29 83.00
  Q 198.79 83.62 198.66 84.21
  A 0.73 0.59 6.3 0 1 197.95 84.67
  L 187.19 84.28"
/>
<path stroke="#b7e680" vector-effect="non-scaling-stroke" d="
  M 187.19 84.28
  L 192.21 68.75"
/>
<path stroke="#62c604" vector-effect="non-scaling-stroke" d="
  M 203.29 71.00
  Q 200.23 72.06 196.99 72.01
  A 1.38 0.94 -58.7 0 0 196.17 72.38
  Q 195.30 73.19 194.54 71.75"
/>
<path stroke="#a6dc83" vector-effect="non-scaling-stroke" d="
  M 194.54 71.75
  L 193.10 66.73
  Q 192.94 66.19 192.80 66.70
  L 192.21 68.75"
/>
<path stroke="#5ec304" vector-effect="non-scaling-stroke" d="
  M 192.21 68.75
  C 190.12 66.95 187.41 68.07 184.54 67.50"
/>
<path stroke="#ffb280" vector-effect="non-scaling-stroke" d="
  M 73.56 106.09
  A 0.53 0.53 0.0 0 0 73.59 105.18
  L 69.60 102.62
  A 0.53 0.53 -69.7 0 0 68.79 103.02
  L 68.34 108.11
  A 0.53 0.53 -14.1 0 0 69.13 108.61
  L 73.56 106.09"
/>
<path stroke="#ffcf80" vector-effect="non-scaling-stroke" d="
  M 124.76 102.99
  Q 123.96 103.56 124.68 104.05
  A 0.87 0.72 36.9 0 0 125.75 104.00
  Q 126.16 103.52 125.82 103.20
  A 0.99 0.69 46.0 0 0 124.76 102.99"
/>
<path stroke="#ffbd80" vector-effect="non-scaling-stroke" d="
  M 121.90 106.11
  C 124.79 108.15 124.08 103.82 121.99 104.89
  A 0.72 0.71 -40.9 0 0 121.90 106.11"
/>
<path stroke="#ffb280" vector-effect="non-scaling-stroke" d="
  M 80.22 109.52
  A 0.53 0.53 -52.5 0 0 80.11 108.61
  L 75.69 106.65
  A 0.53 0.53 10.3 0 0 74.95 107.18
  L 75.36 112.23
  A 0.53 0.53 68.9 0 0 76.21 112.61
  L 80.22 109.52"
/>
<path stroke="#ffb280" vector-effect="non-scaling-stroke" d="
  M 117.66 108.03
  A 0.48 0.48 0.0 0 0 117.66 108.87
  L 119.86 110.06
  A 0.48 0.48 -78.2 0 0 120.56 109.59
  L 120.36 107.33
  A 0.48 0.48 -16.7 0 0 119.66 106.95
  L 117.66 108.03"
/>
<path stroke="#ffb280" vector-effect="non-scaling-stroke" d="
  M 115.15 109.36
  C 109.87 110.41 117.55 115.55 115.99 109.87
  A 0.72 0.72 -13.7 0 0 115.15 109.36"
/>
<path stroke="#ffb280" vector-effect="non-scaling-stroke" d="
  M 82.10 109.46
  A 0.48 0.48 -3.0 0 0 81.55 110.09
  L 83.29 115.11
  A 0.48 0.48 -34.7 0 0 84.11 115.27
  L 87.46 111.29
  A 0.48 0.48 -63.5 0 0 87.19 110.51
  L 82.10 109.46"
/>
<path stroke="#ffb280" vector-effect="non-scaling-stroke" d="
  M 89.39 111.14
  A 0.42 0.42 -3.6 0 0 88.90 111.68
  L 90.35 115.81
  A 0.42 0.42 -35.3 0 0 91.07 115.93
  L 93.63 112.72
  A 0.42 0.42 -64.1 0 0 93.40 112.05
  L 89.39 111.14"
/>
<path stroke="#ffb280" vector-effect="non-scaling-stroke" d="
  M 109.68 114.57
  A 0.79 0.74 20.4 0 0 110.87 114.07
  L 111.14 111.94
  A 0.52 0.46 0.6 0 0 110.57 111.42
  Q 105.47 111.91 109.68 114.57"
/>
<path stroke="#ffb280" vector-effect="non-scaling-stroke" d="
  M 97.95 115.73
  Q 101.52 111.72 96.06 112.58
  A 0.62 0.44 -15.3 0 0 95.51 113.25
  L 96.92 115.82
  A 0.73 0.53 -41.2 0 0 97.95 115.73"
/>
<path stroke="#ffb280" vector-effect="non-scaling-stroke" d="
  M 101.94 112.82
  A 0.37 0.37 69.0 0 0 101.68 113.41
  L 103.65 116.05
  A 0.37 0.37 -53.2 0 0 104.29 115.97
  L 105.46 113.04
  A 0.37 0.37 -83.4 0 0 105.08 112.53
  L 101.94 112.82"
/>
<path stroke="#bcda96" vector-effect="non-scaling-stroke" d="
  M 30.50 130.00
  L 31.11 125.94
  A 0.56 0.31 -86.1 0 0 30.80 125.28
  Q 30.09 125.40 29.46 128.38
  Q 29.26 129.35 28.72 128.48
  L 26.93 125.55
  Q 26.01 124.04 25.72 125.75
  L 24.88 130.77
  A 0.45 0.43 2.4 0 0 25.36 131.27
  C 27.08 131.13 25.38 124.37 28.81 131.03
  A 0.78 0.51 65.9 0 0 29.52 131.49
  Q 30.73 131.12 31.99 131.56
  A 0.76 0.54 -69.0 0 0 32.74 131.06
  Q 34.16 127.52 34.73 127.36
  Q 35.22 127.22 34.86 128.03
  Q 33.23 131.66 37.27 131.55
  A 0.74 0.53 -76.8 0 0 37.82 131.07
  L 38.51 129.25
  A 0.97 0.16 -71.3 0 1 38.88 128.55
  C 40.07 127.86 39.97 135.23 42.00 129.21
  Q 42.26 128.46 42.85 128.78
  A 0.85 0.74 -78.0 0 1 43.25 129.50
  L 43.25 131.00
  A 0.55 0.52 -11.2 0 0 44.00 131.47
  Q 44.97 131.09 45.99 131.55
  A 0.54 0.41 -76.4 0 0 46.59 131.07
  L 47.26 126.00
  A 0.84 0.63 -76.8 0 0 46.89 125.16
  C 45.13 124.44 46.22 130.46 45.16 130.53
  A 0.48 0.37 88.2 0 1 44.77 130.05
  C 44.77 128.92 45.29 124.70 43.32 125.20
  A 0.91 0.56 -5.3 0 0 42.69 125.67
  Q 41.21 130.53 40.11 126.14
  A 1.30 0.97 -89.6 0 0 39.53 125.35
  C 37.16 124.22 36.52 136.50 35.71 126.45
  C 35.33 121.68 31.80 129.90 31.74 130.06
  A 0.78 0.47 -82.8 0 1 31.44 130.44
  Q 31.23 130.54 31.01 130.50
  A 0.60 0.41 10.2 0 1 30.50 130.00"
/>
<path stroke="#f7feed" vector-effect="non-scaling-stroke" d="
  M 196.96 126.25
  L 196.71 127.25"
/>
<path stroke="#b7d98d" vector-effect="non-scaling-stroke" d="
  M 196.71 127.25
  Q 195.30 128.85 195.10 130.94
  A 0.39 0.37 86.2 0 0 195.56 131.37
  Q 196.50 131.12 196.79 130.00"
/>
<path stroke="#f7feed" vector-effect="non-scaling-stroke" d="
  M 196.79 130.00
  L 197.71 130.00"
/>
<path stroke="#bcda96" vector-effect="non-scaling-stroke" d="
  M 197.71 130.00
  L 199.04 131.08
  A 1.38 0.89 55.4 0 0 199.81 131.40
  L 212.25 131.48
  A 1.01 0.33 3.9 0 0 213.05 131.28
  Q 214.70 128.99 212.13 127.85
  A 0.95 0.82 9.9 0 1 211.59 127.19
  C 211.31 125.47 213.55 127.30 214.09 126.31
  A 0.65 0.46 24.8 0 0 213.67 125.58
  L 212.24 125.01
  A 1.02 0.17 -29.0 0 0 211.39 125.31
  C 209.51 126.30 207.33 124.16 205.77 125.77
  A 1.13 0.07 -81.0 0 0 205.55 126.76
  L 204.95 130.49
  A 0.59 0.50 -75.2 0 1 204.25 130.98
  Q 203.29 130.59 202.25 130.77
  A 0.65 0.42 -86.6 0 1 201.82 130.01
  L 202.48 125.75
  A 0.44 0.27 -83.4 0 0 202.25 125.25
  L 201.75 125.25
  A 0.58 0.45 -85.0 0 0 201.29 125.75
  L 200.73 130.00
  A 0.93 0.52 -89.0 0 1 200.32 130.71
  C 199.53 130.98 199.07 126.58 199.01 126.03
  A 0.88 0.75 -84.1 0 0 198.52 125.32
  Q 197.32 124.88 196.96 126.25"
/>
<path stroke="#b4d983" vector-effect="non-scaling-stroke" d="
  M 197.71 130.00
  Q 198.30 127.98 196.96 126.25"
/>
<path stroke="#afd87b" vector-effect="non-scaling-stroke" d="
  M 196.79 130.00
  Q 197.26 128.59 196.71 127.25"
/>
<path stroke="#b7d98d" vector-effect="non-scaling-stroke" d="
  M 16.13 130.84
  A 0.41 0.37 12.8 0 0 16.43 131.26
  Q 22.47 132.94 21.74 127.31
  A 2.50 1.93 6.7 0 0 19.95 125.56
  C 15.56 124.38 16.53 128.23 16.13 130.84"
/>
<path stroke="#b7d98d" vector-effect="non-scaling-stroke" d="
  M 24.3949 125.6630
  A 0.30 0.30 0.0 0 0 24.1401 125.3237
  L 23.6847 125.2589
  A 0.30 0.30 0.0 0 0 23.3454 125.5137
  L 22.5451 131.1370
  A 0.30 0.30 0.0 0 0 22.7999 131.4763
  L 23.2553 131.5411
  A 0.30 0.30 0.0 0 0 23.5946 131.2863
  L 24.3949 125.6630"
/>
<path stroke="#b7d98d" vector-effect="non-scaling-stroke" d="
  M 56.66 128.07
  L 56.80 130.52
  A 1.03 0.86 19.2 0 0 57.24 131.25
  Q 57.60 131.50 57.99 131.51
  A 0.73 0.40 83.6 0 0 58.33 130.69
  L 57.72 126.25
  A 1.34 0.79 -85.2 0 0 57.34 125.46
  C 55.75 124.20 54.32 129.03 53.90 129.99
  A 0.70 0.54 -71.7 0 1 53.25 130.43
  Q 51.89 130.18 50.50 130.56
  A 1.01 0.76 58.7 0 1 49.60 130.20
  C 47.82 128.15 50.15 126.11 52.54 126.46
  A 0.90 0.61 15.5 0 0 53.37 126.18
  Q 53.69 125.67 52.66 125.52
  Q 47.87 124.78 47.79 129.41
  Q 47.74 131.67 49.72 131.59
  L 54.00 131.43
  A 1.20 1.00 -76.2 0 0 54.94 130.74
  L 56.27 127.80
  Q 56.61 127.06 56.66 128.07"
/>
<path stroke="#b7d98d" vector-effect="non-scaling-stroke" d="
  M 65.93 125.82
  Q 64.30 125.09 62.51 125.26
  A 0.89 0.74 -87.2 0 0 61.82 126.01
  L 61.18 130.74
  A 0.68 0.57 9.4 0 0 61.74 131.39
  Q 67.90 132.64 66.71 126.74
  A 1.36 1.23 7.5 0 0 65.93 125.82"
/>
<path stroke="#b7d98d" vector-effect="non-scaling-stroke" d="
  M 68.84 130.26
  Q 68.97 128.54 71.00 128.89
  A 0.77 0.18 -42.7 0 0 71.56 128.57
  Q 71.84 128.34 71.56 128.18
  A 1.23 0.52 37.5 0 0 70.76 127.97
  Q 68.97 128.37 69.39 126.94
  A 0.83 0.64 10.7 0 1 70.26 126.50
  Q 71.27 126.64 72.07 126.08
  Q 72.63 125.68 71.79 125.40
  Q 70.34 124.91 68.83 125.45
  A 1.07 0.88 87.3 0 0 68.23 126.25
  L 67.56 130.76
  A 0.66 0.53 -82.5 0 0 68.01 131.51
  L 71.49 131.79
  A 0.29 0.24 -88.2 0 0 71.75 131.50
  L 71.75 131.25
  A 0.51 0.50 89.4 0 0 71.25 130.75
  L 69.50 130.75
  A 0.65 0.46 1.2 0 1 68.84 130.26"
/>
<path stroke="#b7d98d" vector-effect="non-scaling-stroke" d="
  M 76.45 130.55
  Q 74.11 129.97 74.63 131.14
  A 0.82 0.70 -12.1 0 0 75.39 131.55
  Q 80.81 131.32 76.47 127.41
  C 75.09 126.16 78.26 126.57 78.79 126.27
  Q 79.28 125.99 78.78 125.71
  C 77.11 124.78 73.66 125.54 74.99 128.03
  A 1.24 1.04 -0.5 0 0 75.66 128.58
  Q 76.89 129.00 77.03 130.23
  A 0.46 0.33 6.8 0 1 76.45 130.55"
/>
<path stroke="#b7d98d" vector-effect="non-scaling-stroke" d="
  M 80.29 131.00
  Q 88.27 132.55 83.01 127.08
  Q 82.45 126.50 83.26 126.50
  L 87.25 126.50
  A 0.62 0.42 -81.7 0 1 87.61 127.24
  C 87.44 128.06 86.95 130.82 87.37 131.48
  C 88.32 132.95 88.71 127.42 88.73 127.26
  A 0.99 0.56 -86.8 0 1 89.25 126.45
  Q 90.11 126.29 91.00 126.53
  A 0.50 0.34 -79.2 0 1 91.23 127.06
  L 90.62 130.82
  A 0.64 0.59 4.2 0 0 91.26 131.50
  L 96.01 131.51
  A 0.75 0.67 -83.1 0 0 96.68 130.92
  L 97.16 128.68
  A 1.07 0.63 -85.6 0 1 97.67 127.95
  C 98.67 127.62 98.57 135.33 100.76 129.16
  A 1.18 0.74 -80.7 0 1 101.37 128.47
  C 102.85 128.02 100.75 132.67 104.49 131.40
  A 1.22 0.77 -7.7 0 0 105.21 130.80
  L 105.96 128.75"
/>
<path stroke="#f7feed" vector-effect="non-scaling-stroke" d="
  M 105.96 128.75
  L 106.50 129.29"
/>
<path stroke="#b7d98d" vector-effect="non-scaling-stroke" d="
  M 106.50 129.29
  L 107.29 131.00"
/>
<path stroke="#e7f9cd" vector-effect="non-scaling-stroke" d="
  M 107.29 131.00
  Q 107.78 131.79 108.50 131.21"
/>
<path stroke="#b7d98d" vector-effect="non-scaling-stroke" d="
  M 108.50 131.21
  Q 113.39 132.85 112.71 129.10
  A 1.38 0.66 26.8 0 0 112.16 128.39
  Q 109.34 126.29 113.01 126.50
  Q 113.63 126.53 113.23 125.98
  C 111.49 123.55 107.11 127.35 110.93 129.01
  A 0.97 0.81 9.7 0 1 111.50 129.68
  Q 111.79 131.68 109.25 130.21"
/>
<path stroke="#e7f9cd" vector-effect="non-scaling-stroke" d="
  M 109.25 130.21
  L 108.29 129.75"
/>
<path stroke="#b7d98d" vector-effect="non-scaling-stroke" d="
  M 108.29 129.75
  C 108.18 129.24 107.68 122.28 105.75 126.33
  Q 104.89 128.15 104.04 129.97
  A 0.45 0.22 -70.1 0 1 103.75 130.25
  L 103.49 130.26
  A 0.59 0.26 -86.9 0 1 103.26 129.64
  Q 103.38 127.29 102.91 126.07
  C 101.33 121.96 99.82 133.67 98.72 126.25
  C 98.63 125.62 98.29 125.13 97.62 125.24
  A 1.03 0.85 -83.5 0 0 96.91 125.93
  L 95.59 130.09
  Q 95.17 131.41 92.81 130.65
  Q 91.47 130.21 92.34 129.08
  A 1.33 0.53 3.4 0 1 93.27 128.77
  Q 96.23 128.64 93.16 127.85
  A 0.78 0.73 5.7 0 1 92.58 127.19
  Q 92.49 126.00 94.39 126.48
  A 0.95 0.64 -47.3 0 0 95.06 126.32
  Q 95.24 126.20 95.24 126.00
  A 0.65 0.51 -88.1 0 0 94.77 125.36
  C 92.77 125.24 83.32 124.69 81.77 126.32
  A 0.82 0.82 46.1 0 0 81.75 127.44
  Q 83.89 129.78 83.42 130.52
  A 0.92 0.45 19.6 0 1 82.53 130.62
  Q 81.40 130.29 80.29 130.75"
/>
<path stroke="#bcda96" vector-effect="non-scaling-stroke" d="
  M 80.29 130.75
  L 81.02 126.28
  A 1.12 1.06 -60.8 0 0 80.81 125.45
  Q 80.58 125.16 80.26 125.25
  A 0.89 0.78 88.7 0 0 79.67 125.96
  L 78.99 130.44
  A 1.04 0.36 -77.7 0 0 79.10 131.35
  Q 79.71 131.80 80.29 131.00"
/>
<path stroke="#73b424" vector-effect="non-scaling-stroke" d="
  M 80.29 130.75
  L 80.29 131.00"
/>
<path stroke="#9ed25b" vector-effect="non-scaling-stroke" d="
  M 108.29 129.75
  L 107.29 131.00"
/>
<path stroke="#afd87b" vector-effect="non-scaling-stroke" d="
  M 106.50 129.29
  Q 107.35 128.46 106.97 127.45
  A 0.36 0.35 55.8 0 0 106.37 127.33
  Q 105.88 127.89 105.96 128.75"
/>
<path stroke="#9ed25b" vector-effect="non-scaling-stroke" d="
  M 108.50 131.21
  L 109.25 130.21"
/>
<path stroke="#b7d98d" vector-effect="non-scaling-stroke" d="
  M 120.79 131.14
  C 121.26 130.34 121.37 127.79 119.49 128.26
  A 0.57 0.30 71.4 0 0 119.38 128.92
  Q 120.45 131.78 117.73 130.24
  A 1.26 0.96 10.7 0 1 117.19 129.64
  C 116.08 126.30 119.79 126.64 121.74 126.26
  A 0.43 0.33 -19.4 0 0 122.09 125.72
  Q 121.95 125.50 121.61 125.44
  Q 115.24 124.38 115.86 130.18
  A 0.99 0.86 12.3 0 0 116.40 130.90
  Q 118.10 131.70 120.00 131.63
  A 0.95 0.94 -76.4 0 0 120.79 131.14"
/>
<path stroke="#bcda96" vector-effect="non-scaling-stroke" d="
  M 123.82 127.45
  Q 124.09 126.60 126.28 126.19
  Q 127.62 125.93 126.37 125.39
  Q 124.63 124.63 122.94 125.72
  A 1.13 0.89 81.3 0 0 122.50 126.50
  L 122.03 130.75
  A 0.57 0.55 8.5 0 0 122.49 131.35
  C 123.22 131.50 126.48 131.96 126.28 131.22
  A 0.64 0.52 80.7 0 0 125.75 130.75
  L 124.00 130.75
  A 0.70 0.66 -7.8 0 1 123.34 130.28
  Q 122.97 129.05 124.35 129.06
  Q 124.95 129.07 125.30 128.89
  Q 126.94 128.02 124.32 127.95
  A 0.50 0.38 7.6 0 1 123.82 127.45"
/>
<path stroke="#b7d98d" vector-effect="non-scaling-stroke" d="
  M 132.9064 126.3283
  A 3.37 3.12 -38.8 0 0 128.3250 126.0085
  A 3.37 3.12 -38.8 0 0 127.6536 130.5517
  A 3.37 3.12 -38.8 0 0 132.2350 130.8715
  A 3.37 3.12 -38.8 0 0 132.9064 126.3283"
/>
<path stroke="#b7d98d" vector-effect="non-scaling-stroke" d="
  M 137.02 127.74
  Q 137.47 128.39 137.01 129.03
  A 1.05 0.16 -53.1 0 0 136.58 129.83
  Q 136.79 131.16 138.14 131.39
  A 0.54 0.37 2.6 0 0 138.78 130.99
  L 137.77 125.74
  A 1.04 0.39 11.3 0 0 136.99 125.25
  Q 136.77 125.19 136.57 125.34
  A 1.07 0.12 -34.1 0 0 135.90 125.91
  L 133.69 130.94
  A 0.44 0.42 -75.2 0 0 134.03 131.55
  C 135.49 131.67 135.92 129.12 136.19 128.05
  Q 136.47 126.96 137.02 127.74"
/>
<path stroke="#e7f9cd" vector-effect="non-scaling-stroke" d="
  M 145.00 131.21
  L 145.25 131.21"
/>
<path stroke="#b7d98d" vector-effect="non-scaling-stroke" d="
  M 145.25 131.21
  Q 146.83 131.66 146.80 129.95
  A 0.61 0.52 85.1 0 1 147.24 129.34
  C 149.12 129.04 148.23 131.75 149.80 131.47
  A 0.50 0.32 67.5 0 0 149.92 130.81
  Q 149.54 130.08 149.49 129.25
  A 1.65 0.98 -41.0 0 1 149.78 128.37
  C 152.00 124.98 144.55 122.99 145.96 128.75"
/>
<path stroke="#e7f9cd" vector-effect="non-scaling-stroke" d="
  M 145.96 128.75
  L 144.79 128.50"
/>
<path stroke="#bcda96" vector-effect="non-scaling-stroke" d="
  M 144.79 128.50
  Q 141.30 127.38 143.01 129.96
  Q 143.69 130.99 142.51 130.76
  Q 140.74 130.40 140.21 128.78
  A 1.25 0.42 -50.1 0 1 140.58 127.83
  Q 141.83 126.08 144.00 126.53
  A 0.89 0.87 25.9 0 0 144.87 126.24
  C 145.99 124.88 140.21 124.67 139.16 127.91
  C 137.86 131.91 142.80 131.67 145.00 131.21"
/>
<path stroke="#a3d463" vector-effect="non-scaling-stroke" d="
  M 144.79 128.50
  Q 143.72 130.12 145.00 131.21"
/>
<path stroke="#9ed25b" vector-effect="non-scaling-stroke" d="
  M 145.25 131.21
  L 145.96 128.75"
/>
<path stroke="#b7d98d" vector-effect="non-scaling-stroke" d="
  M 156.5939 126.2902
  A 3.36 3.09 -40.0 0 0 152.0338 126.0829
  A 3.36 3.09 -40.0 0 0 151.4461 130.6098
  A 3.36 3.09 -40.0 0 0 156.0062 130.8171
  A 3.36 3.09 -40.0 0 0 156.5939 126.2902"
/>
<path stroke="#f7feed" vector-effect="non-scaling-stroke" d="
  M 159.79 129.75
  L 160.46 130.00"
/>
<path stroke="#b7d98d" vector-effect="non-scaling-stroke" d="
  M 160.46 130.00
  Q 163.28 133.61 164.59 129.25
  C 165.82 125.14 166.23 137.08 167.71 129.00"
/>
<path stroke="#bcda96" vector-effect="non-scaling-stroke" d="
  M 167.71 129.00
  Q 168.45 128.46 168.96 128.86
  A 1.21 0.56 -82.8 0 1 169.24 129.75
  L 169.25 130.74
  A 0.76 0.63 5.2 0 0 169.89 131.38
  Q 173.05 131.86 176.00 130.96"
/>
<path stroke="#e7f9cd" vector-effect="non-scaling-stroke" d="
  M 176.00 130.96
  L 176.71 131.00"
/>
<path stroke="#bcda96" vector-effect="non-scaling-stroke" d="
  M 176.71 131.00
  Q 178.49 132.43 178.04 130.49
  Q 177.82 129.52 178.65 126.22
  A 0.60 0.51 -78.5 0 0 178.25 125.50
  Q 177.89 125.45 177.56 125.56
  A 0.94 0.47 80.0 0 0 177.28 126.49
  Q 177.50 128.10 176.71 129.50"
/>
<path stroke="#e7f9cd" vector-effect="non-scaling-stroke" d="
  M 176.71 129.50
  L 176.04 129.50"
/>
<path stroke="#bcda96" vector-effect="non-scaling-stroke" d="
  M 176.04 129.50
  L 175.70 126.54
  A 1.23 0.48 89.0 0 0 175.33 125.63
  Q 174.17 124.97 172.74 125.29
  A 1.01 0.68 -85.6 0 0 172.15 126.03
  C 172.09 126.30 171.64 130.77 171.31 130.75
  A 0.75 0.49 85.7 0 1 170.83 130.13
  C 170.65 128.97 170.70 124.65 169.18 125.47
  A 1.22 0.89 87.7 0 0 168.67 126.23
  Q 168.32 127.82 166.79 128.25"
/>
<path stroke="#b7d98d" vector-effect="non-scaling-stroke" d="
  M 166.79 128.25
  L 165.92 125.95
  A 1.02 0.49 72.4 0 0 165.26 125.24
  L 164.74 125.25
  A 0.95 0.34 -74.8 0 0 164.22 125.99
  L 163.04 129.76
  A 0.70 0.60 -85.6 0 1 162.58 130.22
  C 161.81 130.39 161.77 126.86 161.73 126.31
  A 1.48 1.00 -79.0 0 0 161.36 125.44
  C 159.96 124.18 158.08 129.16 157.41 130.86
  A 0.38 0.37 -78.4 0 0 157.74 131.38
  Q 159.21 131.39 159.79 129.75"
/>
<path stroke="#73b424" vector-effect="non-scaling-stroke" d="
  M 166.79 128.25
  L 167.71 129.00"
/>
<path stroke="#afd87b" vector-effect="non-scaling-stroke" d="
  M 160.46 130.00
  Q 161.19 128.88 160.76 127.93
  Q 160.52 127.39 160.17 127.88
  Q 159.61 128.67 159.79 129.75"
/>
<path stroke="#a3d463" vector-effect="non-scaling-stroke" d="
  M 176.04 129.50
  L 176.00 130.96"
/>
<path stroke="#a3d463" vector-effect="non-scaling-stroke" d="
  M 176.71 131.00
  L 176.71 129.50"
/>
<path stroke="#bcda96" vector-effect="non-scaling-stroke" d="
  M 188.11 128.66
  L 186.24 125.75
  A 1.05 0.65 65.3 0 0 185.47 125.24
  C 184.20 125.30 184.15 129.18 184.00 130.20
  A 0.61 0.59 -87.0 0 1 183.44 130.72
  C 182.88 130.75 179.17 131.16 180.41 129.37
  A 1.27 0.89 7.2 0 1 181.24 128.93
  C 185.15 128.43 180.39 128.23 180.75 126.90
  A 0.67 0.65 -79.1 0 1 181.45 126.41
  Q 182.52 126.52 183.57 126.08
  Q 184.11 125.85 183.59 125.61
  Q 181.96 124.87 180.17 125.41
  A 1.04 0.26 -81.7 0 0 179.82 126.27
  L 179.02 130.76
  A 0.61 0.36 -82.8 0 0 179.32 131.46
  L 184.50 131.46
  A 0.85 0.54 -83.9 0 0 185.08 130.73
  Q 185.86 125.50 187.63 130.87
  A 1.15 0.72 7.8 0 0 188.31 131.44
  Q 188.76 131.59 189.17 131.43
  A 0.95 0.93 77.5 0 0 189.75 130.50
  Q 189.67 128.82 190.29 127.26
  A 0.99 0.29 -71.4 0 1 190.77 126.58
  C 194.06 125.87 192.30 128.46 192.18 129.97
  Q 191.96 132.68 193.18 131.21
  A 1.74 1.36 72.3 0 0 193.51 130.32
  C 193.58 129.28 193.44 126.37 195.01 126.44
  A 1.36 0.56 10.4 0 0 195.92 126.25
  C 197.78 124.71 189.93 125.37 189.67 125.38
  A 0.74 0.67 -87.3 0 0 189.03 126.02
  L 188.74 128.50
  Q 188.62 129.46 188.11 128.66"
/>
<path stroke="#85bbe0" vector-effect="non-scaling-stroke" d="
  M 113.25 35.79
  L 112.75 36.04"
/>
<path stroke="#1c7ec4" vector-effect="non-scaling-stroke" d="
  M 112.75 36.04
  L 107.55 35.72
  A 0.47 0.47 -74.8 0 0 107.10 35.98
  C 106.82 36.50 107.06 36.33 106.47 36.63
  C 102.56 38.58 99.22 44.41 103.96 47.74
  Q 109.17 51.40 114.50 50.46"
/>
<path stroke="#85bbe0" vector-effect="non-scaling-stroke" d="
  M 114.50 50.46
  C 124.59 53.03 129.75 40.15 119.50 35.21"
/>
<path stroke="#177dc4" vector-effect="non-scaling-stroke" d="
  M 119.50 35.21
  Q 119.31 34.00 118.71 33.07
  Q 116.73 29.96 116.19 29.55
  Q 110.94 25.56 105.01 27.88
  C 102.01 29.05 101.52 31.47 105.38 31.90
  C 107.28 32.12 113.51 33.50 113.25 35.79"
/>
<path stroke="#91c2e3" vector-effect="non-scaling-stroke" d="
  M 119.50 35.21
  Q 116.25 34.43 113.25 35.79"
/>
<path stroke="#96c3e4" vector-effect="non-scaling-stroke" d="
  M 114.50 50.46
  C 108.22 47.67 107.05 40.17 112.75 36.04"
/>
<path stroke="#82b6d2" vector-effect="non-scaling-stroke" d="
  M 122.31 45.54
  A 3.25 3.25 0.0 0 0 119.06 42.29
  A 3.25 3.25 0.0 0 0 115.81 45.54
  A 3.25 3.25 0.0 0 0 119.06 48.79
  A 3.25 3.25 0.0 0 0 122.31 45.54"
/>
<path stroke="#1979b7" vector-effect="non-scaling-stroke" d="
  M 97.14 102.58
  Q 97.14 100.57 95.28 100.46
  Q 94.52 100.42 94.24 100.27
  L 89.78 97.95
  A 1.41 0.37 30.4 0 0 88.69 97.64
  Q 86.83 98.41 85.50 100.02
  A 0.50 0.34 20.5 0 0 85.92 100.61
  L 96.48 102.87
  A 0.56 0.35 8.5 0 0 97.14 102.58"
/>
<path stroke="#bcda96" vector-effect="non-scaling-stroke" d="
  M 208.77 128.45
  C 208.73 129.25 205.98 128.11 206.32 130.31
  A 0.57 0.53 -7.2 0 0 206.93 130.75
  C 207.23 130.72 214.20 130.99 211.82 129.39
  Q 210.27 128.34 209.99 126.77
  A 0.63 0.41 80.9 0 0 209.49 126.22
  L 207.75 126.53
  A 1.12 0.13 -9.5 0 0 206.73 126.82
  Q 206.26 128.51 208.25 127.95
  A 0.48 0.41 84.6 0 1 208.77 128.45"
/>
<path stroke="#b7d98d" vector-effect="non-scaling-stroke" d="
  M 17.43 129.01
  A 1.33 1.13 -85.9 0 0 18.64 130.66
  Q 20.77 130.32 20.77 128.26
  A 1.36 0.55 -82.0 0 0 20.55 127.38
  Q 18.40 124.98 17.43 129.01"
/>
<path stroke="#b7d98d" vector-effect="non-scaling-stroke" d="
  M 63.59 126.44
  A 0.90 0.85 -87.0 0 0 62.74 127.25
  L 62.47 129.99
  A 0.62 0.57 8.0 0 0 62.98 130.61
  C 66.06 131.16 67.12 126.44 63.59 126.44"
/>
<path stroke="#b7d98d" vector-effect="non-scaling-stroke" d="
  M 131.8855 127.0414
  A 2.12 1.95 -42.0 0 0 129.0052 127.0109
  A 2.12 1.95 -42.0 0 0 128.7345 129.8786
  A 2.12 1.95 -42.0 0 0 131.6148 129.9091
  A 2.12 1.95 -42.0 0 0 131.8855 127.0414"
/>
<path stroke="#b7d98d" vector-effect="non-scaling-stroke" d="
  M 148.74 127.01
  Q 148.45 126.13 147.71 126.41
  A 1.11 0.60 89.7 0 0 147.23 127.31
  Q 147.10 128.58 148.38 127.84
  A 0.76 0.68 -24.9 0 0 148.74 127.01"
/>
<path stroke="#b7d98d" vector-effect="non-scaling-stroke" d="
  M 152.9723 130.3287
  A 2.15 1.87 120.7 0 0 155.6779 129.4347
  A 2.15 1.87 120.7 0 0 155.1677 126.6313
  A 2.15 1.87 120.7 0 0 152.4621 127.5253
  A 2.15 1.87 120.7 0 0 152.9723 130.3287"
/>
<path stroke="#b4d983" vector-effect="non-scaling-stroke" d="
  M 173.25 127.28
  Q 173.21 127.83 173.74 128.00
  A 0.79 0.44 -66.7 0 0 174.42 127.48
  Q 175.20 125.80 173.88 126.45
  A 1.11 0.96 -12.1 0 0 173.25 127.28"
/>
<path stroke="#bcda96" vector-effect="non-scaling-stroke" d="
  M 173.79 130.74
  L 174.69 130.19
  A 0.55 0.43 48.0 0 0 174.63 129.40
  Q 172.74 127.73 173.09 130.06
  A 0.72 0.43 75.0 0 0 173.79 130.74"
/>
</g>
<path fill="#ffffff" d="
  M 0.00 0.00
  L 229.00 0.00
  L 229.00 143.00
  L 0.00 143.00
  L 0.00 0.00
  Z
  M 98.33 23.50
  C 99.96 35.63 92.75 48.92 109.75 52.50
  Q 118.90 54.43 128.27 54.23
  Q 130.58 54.18 130.73 51.88
  C 131.87 35.03 120.95 20.33 104.76 15.93
  Q 101.56 15.06 97.50 15.68
  A 0.75 0.71 2.1 0 0 96.88 16.23
  C 96.17 19.33 98.00 21.04 98.33 23.50
  Z
  M 88.92 26.80
  C 88.40 25.39 86.18 23.40 84.62 22.99
  A 0.60 0.54 11.1 0 0 83.88 23.44
  L 83.31 28.51
  A 0.55 0.53 -6.3 0 0 84.03 29.06
  L 88.57 27.57
  A 0.60 0.58 70.4 0 0 88.92 26.80
  Z
  M 94.47 27.51
  A 0.41 0.41 71.0 0 0 94.81 26.88
  L 92.54 23.42
  A 0.41 0.41 43.6 0 0 91.82 23.48
  L 90.34 26.93
  A 0.41 0.41 -79.0 0 0 90.71 27.50
  L 94.47 27.51
  Z
  M 81.82 29.00
  A 0.60 0.60 49.6 0 0 81.90 27.95
  L 76.18 24.18
  A 0.60 0.60 -70.8 0 0 75.25 24.68
  L 75.17 31.02
  A 0.60 0.60 76.7 0 0 76.02 31.57
  L 81.82 29.00
  Z
  M 64.04 39.66
  C 67.37 38.66 70.63 35.40 73.47 33.55
  Q 75.82 32.02 73.29 30.95
  L 64.30 27.16
  Q 60.54 25.58 61.43 29.54
  L 63.39 38.27
  A 0.37 0.32 -0.3 0 1 62.96 38.64
  C 60.93 38.34 47.92 36.05 45.18 39.57
  A 0.72 0.60 -44.9 0 0 45.11 40.36
  L 53.37 52.35
  Q 54.92 54.58 56.35 52.17
  C 57.32 50.52 63.74 41.28 63.65 40.31
  A 0.63 0.57 79.0 0 1 64.04 39.66
  Z
  M 79.75 32.54
  L 76.75 33.96
  Q 72.96 35.48 69.96 38.25
  Q 66.30 40.97 63.84 44.61
  Q 62.68 46.31 64.54 47.21
  Q 71.01 50.32 76.52 55.34
  L 78.28 56.96
  L 80.96 59.75
  Q 83.11 62.30 85.32 60.84
  Q 93.98 55.14 100.91 53.09
  C 104.58 52.00 98.19 48.63 97.25 47.46
  L 96.04 44.25
  L 95.54 42.25
  L 96.21 32.75
  C 97.32 26.36 83.01 31.23 79.75 32.54
  Z
  M 137.54 33.01
  C 131.75 36.41 130.94 43.84 133.84 49.28
  A 0.37 0.37 52.7 0 0 134.43 49.36
  C 138.86 44.59 141.71 39.58 138.53 33.30
  A 0.71 0.71 -28.6 0 0 137.54 33.01
  Z
  M 144.50 40.71
  Q 137.46 45.87 135.05 54.39
  A 0.40 0.39 -80.8 0 0 135.41 54.90
  C 145.50 55.41 157.07 51.89 160.75 41.29
  Q 161.48 39.74 161.46 38.06
  A 0.68 0.66 7.0 0 0 160.95 37.43
  Q 151.91 35.20 144.50 40.71
  Z
  M 55.54 64.75
  Q 54.06 70.56 56.79 75.75
  Q 56.47 80.29 60.79 79.75
  Q 62.60 79.73 63.50 81.21
  L 59.83 81.20
  A 1.34 1.13 0.2 0 0 58.48 82.33
  C 58.49 85.20 61.08 89.31 64.00 93.96
  Q 61.09 93.13 59.33 89.68
  Q 55.76 90.45 55.00 94.46
  Q 54.63 94.90 54.56 95.44
  A 1.39 0.93 36.6 0 0 54.88 96.34
  Q 57.44 99.50 61.25 101.04
  Q 60.27 102.29 60.78 103.56
  A 0.71 0.63 -13.2 0 0 61.50 103.95
  Q 64.52 103.57 67.25 102.21
  Q 69.33 101.42 71.50 101.96
  Q 74.25 104.92 77.81 103.79
  A 1.42 0.40 -55.5 0 0 78.48 103.23
  L 85.95 94.19
  A 1.47 1.08 -33.7 0 0 86.29 93.25
  Q 86.01 89.90 83.54 87.75
  L 83.29 87.25
  L 81.46 82.75
  Q 82.28 77.47 77.50 78.54
  L 74.75 77.21
  L 79.76 76.10
  A 1.04 0.84 2.4 0 0 80.46 75.58
  C 81.46 73.25 81.16 71.00 81.86 68.58
  Q 82.69 65.70 82.17 62.60
  L 77.00 58.21
  Q 73.54 54.27 68.79 52.00
  L 62.55 48.75
  A 1.59 1.52 29.4 0 0 60.50 49.27
  Q 56.09 56.38 55.54 64.75
  Z
  M 53.33 53.72
  Q 47.18 54.53 42.41 57.39
  Q 40.53 58.52 42.32 59.70
  L 50.92 65.36
  Q 52.60 66.47 52.97 64.24
  L 54.50 55.00
  A 1.10 1.05 -88.6 0 0 53.33 53.72
  Z
  M 86.96 68.75
  Q 84.25 73.65 84.79 79.25
  Q 84.67 82.76 86.04 86.00
  Q 88.03 93.05 93.50 97.96
  Q 91.40 97.62 90.04 96.14
  Q 88.21 94.12 86.58 96.05
  L 82.25 101.21
  L 78.80 104.80
  A 1.23 1.17 32.3 0 0 79.29 106.73
  Q 88.32 110.35 97.98 111.06
  Q 100.47 111.24 100.91 108.66
  L 101.46 105.50
  Q 101.84 104.12 102.38 102.79
  C 102.69 102.04 103.38 101.94 103.29 103.00
  L 103.29 104.50
  L 102.69 109.39
  A 1.28 1.16 89.4 0 0 104.02 110.83
  C 120.65 107.97 134.48 97.63 131.21 78.75
  Q 130.59 72.56 127.04 67.50
  C 117.16 52.56 96.24 54.37 86.96 68.75
  Z
  M 15.04 75.25
  L 15.04 84.75
  L 15.01 100.22
  A 0.48 0.48 0.6 0 0 15.48 100.70
  C 28.51 101.03 43.90 103.26 50.71 89.00
  L 51.29 88.25
  L 57.20 88.54
  A 0.75 0.63 77.7 0 0 57.74 87.50
  L 55.61 82.43
  A 0.62 0.52 59.6 0 0 54.74 82.12
  L 52.29 84.25
  Q 51.83 82.61 52.54 81.00
  Q 54.09 81.41 54.36 80.59
  A 2.92 2.88 46.7 0 0 54.40 78.83
  Q 53.10 74.34 52.29 74.50
  L 51.96 73.75
  L 52.46 73.08
  A 1.46 0.59 -44.8 0 0 52.82 72.24
  L 52.77 67.27
  A 0.66 0.62 89.1 0 0 52.14 66.62
  Q 50.63 66.65 49.50 67.54
  C 41.30 56.62 28.25 58.05 15.62 58.20
  A 0.52 0.51 0.6 0 0 15.10 58.70
  L 15.04 75.25
  Z
  M 141.42 68.31
  L 136.76 80.33
  L 129.20 100.02
  A 0.55 0.40 -76.3 0 0 129.50 100.75
  L 138.25 100.75
  A 0.99 0.75 -78.9 0 0 139.03 100.05
  L 141.64 92.09
  A 0.82 0.72 8.5 0 1 142.39 91.60
  L 158.25 91.79
  L 161.60 100.27
  A 0.76 0.67 77.9 0 0 162.25 100.75
  L 181.00 100.75
  A 0.69 0.66 -81.1 0 0 181.64 100.26
  L 184.25 91.83
  L 200.59 91.50
  L 204.34 100.22
  A 0.85 0.65 75.6 0 0 205.00 100.74
  L 214.44 100.73
  A 0.34 0.34 78.8 0 0 214.75 100.26
  L 210.79 90.36
  L 207.50 81.96
  L 203.29 71.00
  L 198.72 58.86
  A 0.99 0.68 76.4 0 0 198.00 58.22
  L 188.56 58.13
  A 0.77 0.54 -76.4 0 0 187.98 58.64
  L 184.54 67.50
  L 177.95 84.66
  L 175.54 91.00
  L 172.42 99.18
  Q 172.00 100.29 171.56 99.19
  L 168.46 91.38
  L 165.50 83.96
  L 158.29 65.25
  L 155.85 58.74
  A 0.81 0.58 76.4 0 0 155.25 58.22
  L 145.99 58.13
  A 0.91 0.72 8.1 0 0 145.18 58.60
  L 141.42 68.31
  Z
  M 73.56 106.09
  A 0.53 0.53 0.0 0 0 73.59 105.18
  L 69.60 102.62
  A 0.53 0.53 -69.7 0 0 68.79 103.02
  L 68.34 108.11
  A 0.53 0.53 -14.1 0 0 69.13 108.61
  L 73.56 106.09
  Z
  M 124.76 102.99
  Q 123.96 103.56 124.68 104.05
  A 0.87 0.72 36.9 0 0 125.75 104.00
  Q 126.16 103.52 125.82 103.20
  A 0.99 0.69 46.0 0 0 124.76 102.99
  Z
  M 121.90 106.11
  C 124.79 108.15 124.08 103.82 121.99 104.89
  A 0.72 0.71 -40.9 0 0 121.90 106.11
  Z
  M 80.22 109.52
  A 0.53 0.53 -52.5 0 0 80.11 108.61
  L 75.69 106.65
  A 0.53 0.53 10.3 0 0 74.95 107.18
  L 75.36 112.23
  A 0.53 0.53 68.9 0 0 76.21 112.61
  L 80.22 109.52
  Z
  M 117.66 108.03
  A 0.48 0.48 0.0 0 0 117.66 108.87
  L 119.86 110.06
  A 0.48 0.48 -78.2 0 0 120.56 109.59
  L 120.36 107.33
  A 0.48 0.48 -16.7 0 0 119.66 106.95
  L 117.66 108.03
  Z
  M 115.15 109.36
  C 109.87 110.41 117.55 115.55 115.99 109.87
  A 0.72 0.72 -13.7 0 0 115.15 109.36
  Z
  M 82.10 109.46
  A 0.48 0.48 -3.0 0 0 81.55 110.09
  L 83.29 115.11
  A 0.48 0.48 -34.7 0 0 84.11 115.27
  L 87.46 111.29
  A 0.48 0.48 -63.5 0 0 87.19 110.51
  L 82.10 109.46
  Z
  M 89.39 111.14
  A 0.42 0.42 -3.6 0 0 88.90 111.68
  L 90.35 115.81
  A 0.42 0.42 -35.3 0 0 91.07 115.93
  L 93.63 112.72
  A 0.42 0.42 -64.1 0 0 93.40 112.05
  L 89.39 111.14
  Z
  M 109.68 114.57
  A 0.79 0.74 20.4 0 0 110.87 114.07
  L 111.14 111.94
  A 0.52 0.46 0.6 0 0 110.57 111.42
  Q 105.47 111.91 109.68 114.57
  Z
  M 97.95 115.73
  Q 101.52 111.72 96.06 112.58
  A 0.62 0.44 -15.3 0 0 95.51 113.25
  L 96.92 115.82
  A 0.73 0.53 -41.2 0 0 97.95 115.73
  Z
  M 101.94 112.82
  A 0.37 0.37 69.0 0 0 101.68 113.41
  L 103.65 116.05
  A 0.37 0.37 -53.2 0 0 104.29 115.97
  L 105.46 113.04
  A 0.37 0.37 -83.4 0 0 105.08 112.53
  L 101.94 112.82
  Z
  M 30.50 130.00
  L 31.11 125.94
  A 0.56 0.31 -86.1 0 0 30.80 125.28
  Q 30.09 125.40 29.46 128.38
  Q 29.26 129.35 28.72 128.48
  L 26.93 125.55
  Q 26.01 124.04 25.72 125.75
  L 24.88 130.77
  A 0.45 0.43 2.4 0 0 25.36 131.27
  C 27.08 131.13 25.38 124.37 28.81 131.03
  A 0.78 0.51 65.9 0 0 29.52 131.49
  Q 30.73 131.12 31.99 131.56
  A 0.76 0.54 -69.0 0 0 32.74 131.06
  Q 34.16 127.52 34.73 127.36
  Q 35.22 127.22 34.86 128.03
  Q 33.23 131.66 37.27 131.55
  A 0.74 0.53 -76.8 0 0 37.82 131.07
  L 38.51 129.25
  A 0.97 0.16 -71.3 0 1 38.88 128.55
  C 40.07 127.86 39.97 135.23 42.00 129.21
  Q 42.26 128.46 42.85 128.78
  A 0.85 0.74 -78.0 0 1 43.25 129.50
  L 43.25 131.00
  A 0.55 0.52 -11.2 0 0 44.00 131.47
  Q 44.97 131.09 45.99 131.55
  A 0.54 0.41 -76.4 0 0 46.59 131.07
  L 47.26 126.00
  A 0.84 0.63 -76.8 0 0 46.89 125.16
  C 45.13 124.44 46.22 130.46 45.16 130.53
  A 0.48 0.37 88.2 0 1 44.77 130.05
  C 44.77 128.92 45.29 124.70 43.32 125.20
  A 0.91 0.56 -5.3 0 0 42.69 125.67
  Q 41.21 130.53 40.11 126.14
  A 1.30 0.97 -89.6 0 0 39.53 125.35
  C 37.16 124.22 36.52 136.50 35.71 126.45
  C 35.33 121.68 31.80 129.90 31.74 130.06
  A 0.78 0.47 -82.8 0 1 31.44 130.44
  Q 31.23 130.54 31.01 130.50
  A 0.60 0.41 10.2 0 1 30.50 130.00
  Z
  M 196.96 126.25
  L 196.71 127.25
  Q 195.30 128.85 195.10 130.94
  A 0.39 0.37 86.2 0 0 195.56 131.37
  Q 196.50 131.12 196.79 130.00
  L 197.71 130.00
  L 199.04 131.08
  A 1.38 0.89 55.4 0 0 199.81 131.40
  L 212.25 131.48
  A 1.01 0.33 3.9 0 0 213.05 131.28
  Q 214.70 128.99 212.13 127.85
  A 0.95 0.82 9.9 0 1 211.59 127.19
  C 211.31 125.47 213.55 127.30 214.09 126.31
  A 0.65 0.46 24.8 0 0 213.67 125.58
  L 212.24 125.01
  A 1.02 0.17 -29.0 0 0 211.39 125.31
  C 209.51 126.30 207.33 124.16 205.77 125.77
  A 1.13 0.07 -81.0 0 0 205.55 126.76
  L 204.95 130.49
  A 0.59 0.50 -75.2 0 1 204.25 130.98
  Q 203.29 130.59 202.25 130.77
  A 0.65 0.42 -86.6 0 1 201.82 130.01
  L 202.48 125.75
  A 0.44 0.27 -83.4 0 0 202.25 125.25
  L 201.75 125.25
  A 0.58 0.45 -85.0 0 0 201.29 125.75
  L 200.73 130.00
  A 0.93 0.52 -89.0 0 1 200.32 130.71
  C 199.53 130.98 199.07 126.58 199.01 126.03
  A 0.88 0.75 -84.1 0 0 198.52 125.32
  Q 197.32 124.88 196.96 126.25
  Z
  M 16.13 130.84
  A 0.41 0.37 12.8 0 0 16.43 131.26
  Q 22.47 132.94 21.74 127.31
  A 2.50 1.93 6.7 0 0 19.95 125.56
  C 15.56 124.38 16.53 128.23 16.13 130.84
  Z
  M 24.3949 125.6630
  A 0.30 0.30 0.0 0 0 24.1401 125.3237
  L 23.6847 125.2589
  A 0.30 0.30 0.0 0 0 23.3454 125.5137
  L 22.5451 131.1370
  A 0.30 0.30 0.0 0 0 22.7999 131.4763
  L 23.2553 131.5411
  A 0.30 0.30 0.0 0 0 23.5946 131.2863
  L 24.3949 125.6630
  Z
  M 56.66 128.07
  L 56.80 130.52
  A 1.03 0.86 19.2 0 0 57.24 131.25
  Q 57.60 131.50 57.99 131.51
  A 0.73 0.40 83.6 0 0 58.33 130.69
  L 57.72 126.25
  A 1.34 0.79 -85.2 0 0 57.34 125.46
  C 55.75 124.20 54.32 129.03 53.90 129.99
  A 0.70 0.54 -71.7 0 1 53.25 130.43
  Q 51.89 130.18 50.50 130.56
  A 1.01 0.76 58.7 0 1 49.60 130.20
  C 47.82 128.15 50.15 126.11 52.54 126.46
  A 0.90 0.61 15.5 0 0 53.37 126.18
  Q 53.69 125.67 52.66 125.52
  Q 47.87 124.78 47.79 129.41
  Q 47.74 131.67 49.72 131.59
  L 54.00 131.43
  A 1.20 1.00 -76.2 0 0 54.94 130.74
  L 56.27 127.80
  Q 56.61 127.06 56.66 128.07
  Z
  M 65.93 125.82
  Q 64.30 125.09 62.51 125.26
  A 0.89 0.74 -87.2 0 0 61.82 126.01
  L 61.18 130.74
  A 0.68 0.57 9.4 0 0 61.74 131.39
  Q 67.90 132.64 66.71 126.74
  A 1.36 1.23 7.5 0 0 65.93 125.82
  Z
  M 68.84 130.26
  Q 68.97 128.54 71.00 128.89
  A 0.77 0.18 -42.7 0 0 71.56 128.57
  Q 71.84 128.34 71.56 128.18
  A 1.23 0.52 37.5 0 0 70.76 127.97
  Q 68.97 128.37 69.39 126.94
  A 0.83 0.64 10.7 0 1 70.26 126.50
  Q 71.27 126.64 72.07 126.08
  Q 72.63 125.68 71.79 125.40
  Q 70.34 124.91 68.83 125.45
  A 1.07 0.88 87.3 0 0 68.23 126.25
  L 67.56 130.76
  A 0.66 0.53 -82.5 0 0 68.01 131.51
  L 71.49 131.79
  A 0.29 0.24 -88.2 0 0 71.75 131.50
  L 71.75 131.25
  A 0.51 0.50 89.4 0 0 71.25 130.75
  L 69.50 130.75
  A 0.65 0.46 1.2 0 1 68.84 130.26
  Z
  M 76.45 130.55
  Q 74.11 129.97 74.63 131.14
  A 0.82 0.70 -12.1 0 0 75.39 131.55
  Q 80.81 131.32 76.47 127.41
  C 75.09 126.16 78.26 126.57 78.79 126.27
  Q 79.28 125.99 78.78 125.71
  C 77.11 124.78 73.66 125.54 74.99 128.03
  A 1.24 1.04 -0.5 0 0 75.66 128.58
  Q 76.89 129.00 77.03 130.23
  A 0.46 0.33 6.8 0 1 76.45 130.55
  Z
  M 80.29 131.00
  Q 88.27 132.55 83.01 127.08
  Q 82.45 126.50 83.26 126.50
  L 87.25 126.50
  A 0.62 0.42 -81.7 0 1 87.61 127.24
  C 87.44 128.06 86.95 130.82 87.37 131.48
  C 88.32 132.95 88.71 127.42 88.73 127.26
  A 0.99 0.56 -86.8 0 1 89.25 126.45
  Q 90.11 126.29 91.00 126.53
  A 0.50 0.34 -79.2 0 1 91.23 127.06
  L 90.62 130.82
  A 0.64 0.59 4.2 0 0 91.26 131.50
  L 96.01 131.51
  A 0.75 0.67 -83.1 0 0 96.68 130.92
  L 97.16 128.68
  A 1.07 0.63 -85.6 0 1 97.67 127.95
  C 98.67 127.62 98.57 135.33 100.76 129.16
  A 1.18 0.74 -80.7 0 1 101.37 128.47
  C 102.85 128.02 100.75 132.67 104.49 131.40
  A 1.22 0.77 -7.7 0 0 105.21 130.80
  L 105.96 128.75
  L 106.50 129.29
  L 107.29 131.00
  Q 107.78 131.79 108.50 131.21
  Q 113.39 132.85 112.71 129.10
  A 1.38 0.66 26.8 0 0 112.16 128.39
  Q 109.34 126.29 113.01 126.50
  Q 113.63 126.53 113.23 125.98
  C 111.49 123.55 107.11 127.35 110.93 129.01
  A 0.97 0.81 9.7 0 1 111.50 129.68
  Q 111.79 131.68 109.25 130.21
  L 108.29 129.75
  C 108.18 129.24 107.68 122.28 105.75 126.33
  Q 104.89 128.15 104.04 129.97
  A 0.45 0.22 -70.1 0 1 103.75 130.25
  L 103.49 130.26
  A 0.59 0.26 -86.9 0 1 103.26 129.64
  Q 103.38 127.29 102.91 126.07
  C 101.33 121.96 99.82 133.67 98.72 126.25
  C 98.63 125.62 98.29 125.13 97.62 125.24
  A 1.03 0.85 -83.5 0 0 96.91 125.93
  L 95.59 130.09
  Q 95.17 131.41 92.81 130.65
  Q 91.47 130.21 92.34 129.08
  A 1.33 0.53 3.4 0 1 93.27 128.77
  Q 96.23 128.64 93.16 127.85
  A 0.78 0.73 5.7 0 1 92.58 127.19
  Q 92.49 126.00 94.39 126.48
  A 0.95 0.64 -47.3 0 0 95.06 126.32
  Q 95.24 126.20 95.24 126.00
  A 0.65 0.51 -88.1 0 0 94.77 125.36
  C 92.77 125.24 83.32 124.69 81.77 126.32
  A 0.82 0.82 46.1 0 0 81.75 127.44
  Q 83.89 129.78 83.42 130.52
  A 0.92 0.45 19.6 0 1 82.53 130.62
  Q 81.40 130.29 80.29 130.75
  L 81.02 126.28
  A 1.12 1.06 -60.8 0 0 80.81 125.45
  Q 80.58 125.16 80.26 125.25
  A 0.89 0.78 88.7 0 0 79.67 125.96
  L 78.99 130.44
  A 1.04 0.36 -77.7 0 0 79.10 131.35
  Q 79.71 131.80 80.29 131.00
  Z
  M 120.79 131.14
  C 121.26 130.34 121.37 127.79 119.49 128.26
  A 0.57 0.30 71.4 0 0 119.38 128.92
  Q 120.45 131.78 117.73 130.24
  A 1.26 0.96 10.7 0 1 117.19 129.64
  C 116.08 126.30 119.79 126.64 121.74 126.26
  A 0.43 0.33 -19.4 0 0 122.09 125.72
  Q 121.95 125.50 121.61 125.44
  Q 115.24 124.38 115.86 130.18
  A 0.99 0.86 12.3 0 0 116.40 130.90
  Q 118.10 131.70 120.00 131.63
  A 0.95 0.94 -76.4 0 0 120.79 131.14
  Z
  M 123.82 127.45
  Q 124.09 126.60 126.28 126.19
  Q 127.62 125.93 126.37 125.39
  Q 124.63 124.63 122.94 125.72
  A 1.13 0.89 81.3 0 0 122.50 126.50
  L 122.03 130.75
  A 0.57 0.55 8.5 0 0 122.49 131.35
  C 123.22 131.50 126.48 131.96 126.28 131.22
  A 0.64 0.52 80.7 0 0 125.75 130.75
  L 124.00 130.75
  A 0.70 0.66 -7.8 0 1 123.34 130.28
  Q 122.97 129.05 124.35 129.06
  Q 124.95 129.07 125.30 128.89
  Q 126.94 128.02 124.32 127.95
  A 0.50 0.38 7.6 0 1 123.82 127.45
  Z
  M 132.9064 126.3283
  A 3.37 3.12 -38.8 0 0 128.3250 126.0085
  A 3.37 3.12 -38.8 0 0 127.6536 130.5517
  A 3.37 3.12 -38.8 0 0 132.2350 130.8715
  A 3.37 3.12 -38.8 0 0 132.9064 126.3283
  Z
  M 137.02 127.74
  Q 137.47 128.39 137.01 129.03
  A 1.05 0.16 -53.1 0 0 136.58 129.83
  Q 136.79 131.16 138.14 131.39
  A 0.54 0.37 2.6 0 0 138.78 130.99
  L 137.77 125.74
  A 1.04 0.39 11.3 0 0 136.99 125.25
  Q 136.77 125.19 136.57 125.34
  A 1.07 0.12 -34.1 0 0 135.90 125.91
  L 133.69 130.94
  A 0.44 0.42 -75.2 0 0 134.03 131.55
  C 135.49 131.67 135.92 129.12 136.19 128.05
  Q 136.47 126.96 137.02 127.74
  Z
  M 145.00 131.21
  L 145.25 131.21
  Q 146.83 131.66 146.80 129.95
  A 0.61 0.52 85.1 0 1 147.24 129.34
  C 149.12 129.04 148.23 131.75 149.80 131.47
  A 0.50 0.32 67.5 0 0 149.92 130.81
  Q 149.54 130.08 149.49 129.25
  A 1.65 0.98 -41.0 0 1 149.78 128.37
  C 152.00 124.98 144.55 122.99 145.96 128.75
  L 144.79 128.50
  Q 141.30 127.38 143.01 129.96
  Q 143.69 130.99 142.51 130.76
  Q 140.74 130.40 140.21 128.78
  A 1.25 0.42 -50.1 0 1 140.58 127.83
  Q 141.83 126.08 144.00 126.53
  A 0.89 0.87 25.9 0 0 144.87 126.24
  C 145.99 124.88 140.21 124.67 139.16 127.91
  C 137.86 131.91 142.80 131.67 145.00 131.21
  Z
  M 156.5939 126.2902
  A 3.36 3.09 -40.0 0 0 152.0338 126.0829
  A 3.36 3.09 -40.0 0 0 151.4461 130.6098
  A 3.36 3.09 -40.0 0 0 156.0062 130.8171
  A 3.36 3.09 -40.0 0 0 156.5939 126.2902
  Z
  M 159.79 129.75
  L 160.46 130.00
  Q 163.28 133.61 164.59 129.25
  C 165.82 125.14 166.23 137.08 167.71 129.00
  Q 168.45 128.46 168.96 128.86
  A 1.21 0.56 -82.8 0 1 169.24 129.75
  L 169.25 130.74
  A 0.76 0.63 5.2 0 0 169.89 131.38
  Q 173.05 131.86 176.00 130.96
  L 176.71 131.00
  Q 178.49 132.43 178.04 130.49
  Q 177.82 129.52 178.65 126.22
  A 0.60 0.51 -78.5 0 0 178.25 125.50
  Q 177.89 125.45 177.56 125.56
  A 0.94 0.47 80.0 0 0 177.28 126.49
  Q 177.50 128.10 176.71 129.50
  L 176.04 129.50
  L 175.70 126.54
  A 1.23 0.48 89.0 0 0 175.33 125.63
  Q 174.17 124.97 172.74 125.29
  A 1.01 0.68 -85.6 0 0 172.15 126.03
  C 172.09 126.30 171.64 130.77 171.31 130.75
  A 0.75 0.49 85.7 0 1 170.83 130.13
  C 170.65 128.97 170.70 124.65 169.18 125.47
  A 1.22 0.89 87.7 0 0 168.67 126.23
  Q 168.32 127.82 166.79 128.25
  L 165.92 125.95
  A 1.02 0.49 72.4 0 0 165.26 125.24
  L 164.74 125.25
  A 0.95 0.34 -74.8 0 0 164.22 125.99
  L 163.04 129.76
  A 0.70 0.60 -85.6 0 1 162.58 130.22
  C 161.81 130.39 161.77 126.86 161.73 126.31
  A 1.48 1.00 -79.0 0 0 161.36 125.44
  C 159.96 124.18 158.08 129.16 157.41 130.86
  A 0.38 0.37 -78.4 0 0 157.74 131.38
  Q 159.21 131.39 159.79 129.75
  Z
  M 188.11 128.66
  L 186.24 125.75
  A 1.05 0.65 65.3 0 0 185.47 125.24
  C 184.20 125.30 184.15 129.18 184.00 130.20
  A 0.61 0.59 -87.0 0 1 183.44 130.72
  C 182.88 130.75 179.17 131.16 180.41 129.37
  A 1.27 0.89 7.2 0 1 181.24 128.93
  C 185.15 128.43 180.39 128.23 180.75 126.90
  A 0.67 0.65 -79.1 0 1 181.45 126.41
  Q 182.52 126.52 183.57 126.08
  Q 184.11 125.85 183.59 125.61
  Q 181.96 124.87 180.17 125.41
  A 1.04 0.26 -81.7 0 0 179.82 126.27
  L 179.02 130.76
  A 0.61 0.36 -82.8 0 0 179.32 131.46
  L 184.50 131.46
  A 0.85 0.54 -83.9 0 0 185.08 130.73
  Q 185.86 125.50 187.63 130.87
  A 1.15 0.72 7.8 0 0 188.31 131.44
  Q 188.76 131.59 189.17 131.43
  A 0.95 0.93 77.5 0 0 189.75 130.50
  Q 189.67 128.82 190.29 127.26
  A 0.99 0.29 -71.4 0 1 190.77 126.58
  C 194.06 125.87 192.30 128.46 192.18 129.97
  Q 191.96 132.68 193.18 131.21
  A 1.74 1.36 72.3 0 0 193.51 130.32
  C 193.58 129.28 193.44 126.37 195.01 126.44
  A 1.36 0.56 10.4 0 0 195.92 126.25
  C 197.78 124.71 189.93 125.37 189.67 125.38
  A 0.74 0.67 -87.3 0 0 189.03 126.02
  L 188.74 128.50
  Q 188.62 129.46 188.11 128.66
  Z"
/>
<path fill="#0b76c0" d="
  M 109.75 52.50
  C 92.75 48.92 99.96 35.63 98.33 23.50
  C 98.00 21.04 96.17 19.33 96.88 16.23
  A 0.75 0.71 2.1 0 1 97.50 15.68
  Q 101.56 15.06 104.76 15.93
  C 120.95 20.33 131.87 35.03 130.73 51.88
  Q 130.58 54.18 128.27 54.23
  Q 118.90 54.43 109.75 52.50
  Z
  M 113.25 35.79
  L 112.75 36.04
  L 107.55 35.72
  A 0.47 0.47 -74.8 0 0 107.10 35.98
  C 106.82 36.50 107.06 36.33 106.47 36.63
  C 102.56 38.58 99.22 44.41 103.96 47.74
  Q 109.17 51.40 114.50 50.46
  C 124.59 53.03 129.75 40.15 119.50 35.21
  Q 119.31 34.00 118.71 33.07
  Q 116.73 29.96 116.19 29.55
  Q 110.94 25.56 105.01 27.88
  C 102.01 29.05 101.52 31.47 105.38 31.90
  C 107.28 32.12 113.51 33.50 113.25 35.79
  Z"
/>
<path fill="#fe6400" d="
  M 84.62 22.99
  C 86.18 23.40 88.40 25.39 88.92 26.80
  A 0.60 0.58 70.4 0 1 88.57 27.57
  L 84.03 29.06
  A 0.55 0.53 -6.3 0 1 83.31 28.51
  L 83.88 23.44
  A 0.60 0.54 11.1 0 1 84.62 22.99
  Z"
/>
<path fill="#fe5901" d="
  M 94.47 27.51
  L 90.71 27.50
  A 0.41 0.41 -82.8 0 1 90.34 26.93
  L 91.82 23.48
  A 0.41 0.41 50.6 0 1 92.54 23.42
  L 94.81 26.88
  A 0.41 0.41 71.5 0 1 94.47 27.51
  Z"
/>
<path fill="#fe6400" d="
  M 81.82 29.00
  L 76.02 31.57
  A 0.60 0.60 -81.3 0 1 75.17 31.02
  L 75.25 24.68
  A 0.60 0.60 -66.9 0 1 76.18 24.18
  L 81.90 27.95
  A 0.60 0.60 44.5 0 1 81.82 29.00
  Z"
/>
<path fill="#fe5901" d="
  M 63.65 40.31
  C 63.74 41.28 57.32 50.52 56.35 52.17
  Q 54.92 54.58 53.37 52.35
  L 45.11 40.36
  A 0.72 0.60 -44.9 0 1 45.18 39.57
  C 47.92 36.05 60.93 38.34 62.96 38.64
  A 0.37 0.32 -0.3 0 0 63.39 38.27
  L 61.43 29.54
  Q 60.54 25.58 64.30 27.16
  L 73.29 30.95
  Q 75.82 32.02 73.47 33.55
  C 70.63 35.40 67.37 38.66 64.04 39.66
  A 0.63 0.57 79.0 0 0 63.65 40.31
  Z"
/>
<path fill="#2384c7" d="
  M 119.50 35.21
  Q 116.25 34.43 113.25 35.79
  C 113.51 33.50 107.28 32.12 105.38 31.90
  C 101.52 31.47 102.01 29.05 105.01 27.88
  Q 110.94 25.56 116.19 29.55
  Q 116.73 29.96 118.71 33.07
  Q 119.31 34.00 119.50 35.21
  Z"
/>
<path fill="#e9df00" d="
  M 96.21 32.75
  Q 89.41 34.06 83.25 37.21
  Q 80.10 35.98 79.75 32.54
  C 83.01 31.23 97.32 26.36 96.21 32.75
  Z"
/>
<path fill="#b2cc00" d="
  M 79.75 32.54
  Q 80.10 35.98 83.25 37.21
  L 80.50 38.79
  Q 77.47 37.30 76.75 33.96
  L 79.75 32.54
  Z"
/>
<path fill="#008f1d" d="
  M 96.21 32.75
  L 95.54 42.25
  C 92.27 42.98 88.89 42.52 86.05 44.07
  Q 79.30 47.74 76.52 55.34
  Q 71.01 50.32 64.54 47.21
  Q 62.68 46.31 63.84 44.61
  Q 66.30 40.97 69.96 38.25
  Q 70.43 42.02 73.56 43.77
  A 0.79 0.65 -47.3 0 0 74.35 43.66
  L 80.50 38.79
  L 83.25 37.21
  Q 89.41 34.06 96.21 32.75
  Z"
/>
<path fill="#008f1d" d="
  M 133.84 49.28
  C 130.94 43.84 131.75 36.41 137.54 33.01
  A 0.71 0.71 -28.6 0 1 138.53 33.30
  C 141.71 39.58 138.86 44.59 134.43 49.36
  A 0.37 0.37 52.7 0 1 133.84 49.28
  Z"
/>
<path fill="#75b805" d="
  M 76.75 33.96
  Q 77.47 37.30 80.50 38.79
  L 74.35 43.66
  A 0.79 0.65 -47.3 0 1 73.56 43.77
  Q 70.43 42.02 69.96 38.25
  Q 72.96 35.48 76.75 33.96
  Z"
/>
<path fill="#ffffff" d="
  M 119.50 35.21
  C 129.75 40.15 124.59 53.03 114.50 50.46
  C 108.22 47.67 107.05 40.17 112.75 36.04
  L 113.25 35.79
  Q 116.25 34.43 119.50 35.21
  Z
  M 122.31 45.54
  A 3.25 3.25 0.0 0 0 119.06 42.29
  A 3.25 3.25 0.0 0 0 115.81 45.54
  A 3.25 3.25 0.0 0 0 119.06 48.79
  A 3.25 3.25 0.0 0 0 122.31 45.54
  Z"
/>
<path fill="#2d86c8" d="
  M 112.75 36.04
  C 107.05 40.17 108.22 47.67 114.50 50.46
  Q 109.17 51.40 103.96 47.74
  C 99.22 44.41 102.56 38.58 106.47 36.63
  C 107.06 36.33 106.82 36.50 107.10 35.98
  A 0.47 0.47 -74.8 0 1 107.55 35.72
  L 112.75 36.04
  Z"
/>
<path fill="#2aac0e" d="
  M 160.75 41.29
  Q 152.65 40.49 144.50 40.71
  Q 151.91 35.20 160.95 37.43
  A 0.68 0.66 7.0 0 1 161.46 38.06
  Q 161.48 39.74 160.75 41.29
  Z"
/>
<path fill="#008f1d" d="
  M 144.50 40.71
  Q 152.65 40.49 160.75 41.29
  C 157.07 51.89 145.50 55.41 135.41 54.90
  A 0.40 0.39 -80.8 0 1 135.05 54.39
  Q 137.46 45.87 144.50 40.71
  Z"
/>
<path fill="#43b409" d="
  M 95.54 42.25
  L 96.04 44.25
  Q 88.46 44.98 86.74 46.21
  Q 80.98 50.33 78.28 56.96
  L 76.52 55.34
  Q 79.30 47.74 86.05 44.07
  C 88.89 42.52 92.27 42.98 95.54 42.25
  Z"
/>
<circle fill="#056ca5" cx="119.06" cy="45.54" r="3.25"/>
<path fill="#75b805" d="
  M 96.04 44.25
  L 97.25 47.46
  Q 83.48 46.37 80.96 59.75
  L 78.28 56.96
  Q 80.98 50.33 86.74 46.21
  Q 88.46 44.98 96.04 44.25
  Z"
/>
<path fill="#b2cc00" d="
  M 97.25 47.46
  C 98.19 48.63 104.58 52.00 100.91 53.09
  Q 93.98 55.14 85.32 60.84
  Q 83.11 62.30 80.96 59.75
  Q 83.48 46.37 97.25 47.46
  Z"
/>
<path fill="#ff9e00" d="
  M 68.79 52.00
  Q 66.69 54.29 67.25 57.29
  Q 60.28 58.24 56.46 64.00
  L 55.54 64.75
  Q 56.09 56.38 60.50 49.27
  A 1.59 1.52 29.4 0 1 62.55 48.75
  L 68.79 52.00
  Z"
/>
<path fill="#ff7a00" d="
  M 68.79 52.00
  Q 73.54 54.27 77.00 58.21
  Q 72.19 57.03 67.25 57.29
  Q 66.69 54.29 68.79 52.00
  Z"
/>
<path fill="#fe5901" d="
  M 53.33 53.72
  A 1.10 1.05 -88.6 0 1 54.50 55.00
  L 52.97 64.24
  Q 52.60 66.47 50.92 65.36
  L 42.32 59.70
  Q 40.53 58.52 42.41 57.39
  Q 47.18 54.53 53.33 53.72
  Z"
/>
<path fill="#43b409" d="
  M 67.25 57.29
  Q 72.19 57.03 77.00 58.21
  L 82.17 62.60
  L 76.89 67.43
  A 0.50 0.48 49.0 0 1 76.19 67.37
  Q 71.95 62.24 65.73 65.55
  Q 61.34 66.67 56.89 65.56
  A 0.63 0.61 -82.0 0 1 56.43 64.93
  L 56.46 64.00
  Q 60.28 58.24 67.25 57.29
  Z"
/>
<path fill="#43b409" d="
  M 127.04 67.50
  Q 124.51 68.94 122.75 71.29
  Q 118.17 64.95 110.50 63.82
  A 0.76 0.63 15.3 0 0 109.73 64.17
  L 109.25 65.21
  Q 101.66 63.84 96.79 69.50
  L 86.96 68.75
  C 96.24 54.37 117.16 52.56 127.04 67.50
  Z"
/>
<path fill="#4db907" d="
  M 49.50 67.54
  L 51.54 73.00
  Q 52.05 75.31 50.96 74.97
  Q 50.44 74.80 50.00 74.82
  L 42.54 75.00
  C 40.66 66.05 31.81 65.56 24.48 66.26
  A 0.54 0.47 87.7 0 0 24.05 66.79
  L 24.00 73.54
  Q 23.44 74.83 22.00 74.50
  Q 18.93 73.80 15.04 75.25
  L 15.10 58.70
  A 0.52 0.51 0.6 0 1 15.62 58.20
  C 28.25 58.05 41.30 56.62 49.50 67.54
  Z"
/>
<path fill="#43b409" d="
  M 158.29 65.25
  L 150.52 67.59
  Q 150.00 64.63 149.46 69.25
  L 141.42 68.31
  L 145.18 58.60
  A 0.91 0.72 8.1 0 1 145.99 58.13
  L 155.25 58.22
  A 0.81 0.58 76.4 0 1 155.85 58.74
  L 158.29 65.25
  Z"
/>
<path fill="#4db907" d="
  M 203.29 71.00
  Q 200.23 72.06 196.99 72.01
  A 1.38 0.94 -58.7 0 0 196.17 72.38
  Q 195.30 73.19 194.54 71.75
  L 193.10 66.73
  Q 192.94 66.19 192.80 66.70
  L 192.21 68.75
  C 190.12 66.95 187.41 68.07 184.54 67.50
  L 187.98 58.64
  A 0.77 0.54 -76.4 0 1 188.56 58.13
  L 198.00 58.22
  A 0.99 0.68 76.4 0 1 198.72 58.86
  L 203.29 71.00
  Z"
/>
<path fill="#ff9301" d="
  M 82.17 62.60
  Q 82.69 65.70 81.86 68.58
  C 81.16 71.00 81.46 73.25 80.46 75.58
  A 1.04 0.84 2.4 0 1 79.76 76.10
  L 74.75 77.21
  L 68.17 74.18
  Q 61.74 71.22 65.73 65.55
  Q 71.95 62.24 76.19 67.37
  A 0.50 0.48 49.0 0 0 76.89 67.43
  L 82.17 62.60
  Z"
/>
<path fill="#18a808" d="
  M 122.75 71.29
  L 123.88 73.38
  Q 122.20 74.04 120.50 73.54
  Q 117.40 66.04 109.25 65.21
  L 109.73 64.17
  A 0.76 0.63 15.3 0 1 110.50 63.82
  Q 118.17 64.95 122.75 71.29
  Z"
/>
<path fill="#5fc303" d="
  M 56.46 64.00
  L 56.43 64.93
  A 0.63 0.61 -82.0 0 0 56.89 65.56
  Q 61.34 66.67 65.73 65.55
  Q 61.74 71.22 68.17 74.18
  Q 67.42 76.47 65.01 75.37
  Q 63.47 74.67 60.24 75.47
  Q 58.80 75.83 58.46 77.25
  L 56.79 75.75
  Q 54.06 70.56 55.54 64.75
  L 56.46 64.00
  Z"
/>
<path fill="#ffffff" d="
  M 109.25 65.21
  Q 117.40 66.04 120.50 73.54
  L 120.44 74.21
  C 111.96 71.00 99.28 71.78 100.90 84.09
  Q 101.29 87.04 104.02 87.26
  Q 108.95 87.65 109.21 82.72
  A 1.04 0.91 20.3 0 0 108.74 81.86
  Q 107.58 81.07 107.16 80.52
  Q 106.61 79.80 107.89 79.37
  Q 112.67 77.79 117.00 80.79
  Q 120.16 84.91 117.15 89.78
  Q 103.03 98.98 94.71 85.00
  L 93.96 78.25
  Q 94.37 73.54 96.79 69.50
  Q 101.66 63.84 109.25 65.21
  Z"
/>
<path fill="#6ecc01" d="
  M 158.29 65.25
  L 165.50 83.96
  Q 160.79 84.87 156.00 84.46
  L 150.52 67.59
  L 158.29 65.25
  Z"
/>
<path fill="#ffffff" d="
  M 42.54 75.00
  Q 43.94 80.88 41.70 86.96
  C 38.53 93.29 30.79 93.70 24.61 93.15
  A 0.55 0.54 3.4 0 1 24.11 92.60
  L 24.20 85.14
  L 24.00 73.54
  L 24.05 66.79
  A 0.54 0.47 87.7 0 1 24.48 66.26
  C 31.81 65.56 40.66 66.05 42.54 75.00
  Z"
/>
<path fill="#ffffff" d="
  M 150.52 67.59
  L 156.00 84.46
  L 144.93 84.56
  A 0.44 0.38 7.7 0 1 144.49 84.06
  L 145.13 82.07
  L 149.46 69.25
  Q 150.00 64.63 150.52 67.59
  Z"
/>
<path fill="#ffffff" d="
  M 194.54 71.75
  L 198.29 83.00
  Q 198.79 83.62 198.66 84.21
  A 0.73 0.59 6.3 0 1 197.95 84.67
  L 187.19 84.28
  L 192.21 68.75
  L 192.80 66.70
  Q 192.94 66.19 193.10 66.73
  L 194.54 71.75
  Z"
/>
<path fill="#fc4806" d="
  M 51.96 73.75
  L 51.54 73.00
  L 49.50 67.54
  Q 50.63 66.65 52.14 66.62
  A 0.66 0.62 89.1 0 1 52.77 67.27
  L 52.82 72.24
  A 1.46 0.59 -44.8 0 1 52.46 73.08
  L 51.96 73.75
  Z"
/>
<path fill="#3f93ac" d="
  M 127.04 67.50
  Q 130.59 72.56 131.21 78.75
  Q 129.51 79.31 128.75 80.88
  C 128.23 81.96 127.73 82.56 126.54 81.75
  Q 125.96 77.11 123.88 73.38
  L 122.75 71.29
  Q 124.51 68.94 127.04 67.50
  Z"
/>
<path fill="#6ecc01" d="
  M 184.54 67.50
  C 187.41 68.07 190.12 66.95 192.21 68.75
  L 187.19 84.28
  L 177.95 84.66
  L 184.54 67.50
  Z"
/>
<path fill="#6ecc01" d="
  M 141.42 68.31
  L 149.46 69.25
  L 145.13 82.07
  Q 140.61 82.19 136.76 80.33
  L 141.42 68.31
  Z"
/>
<path fill="#6ecc01" d="
  M 86.96 68.75
  L 96.79 69.50
  Q 94.37 73.54 93.96 78.25
  Q 89.45 79.27 84.79 79.25
  Q 84.25 73.65 86.96 68.75
  Z"
/>
<path fill="#77d200" d="
  M 203.29 71.00
  L 207.50 81.96
  Q 202.98 83.11 198.29 83.00
  L 194.54 71.75
  Q 195.30 73.19 196.17 72.38
  A 1.38 0.94 -58.7 0 1 196.99 72.01
  Q 200.23 72.06 203.29 71.00
  Z"
/>
<path fill="#77d200" d="
  M 120.44 74.21
  Q 122.81 76.56 123.75 79.96
  Q 120.23 79.40 117.00 80.79
  Q 112.67 77.79 107.89 79.37
  Q 106.61 79.80 107.16 80.52
  Q 107.58 81.07 108.74 81.86
  A 1.04 0.91 20.3 0 1 109.21 82.72
  Q 108.95 87.65 104.02 87.26
  Q 101.29 87.04 100.90 84.09
  C 99.28 71.78 111.96 71.00 120.44 74.21
  Z"
/>
<path fill="#80d700" d="
  M 51.54 73.00
  L 51.96 73.75
  L 52.29 74.50
  L 52.54 81.00
  Q 51.83 82.61 52.29 84.25
  L 51.29 88.25
  L 50.71 89.00
  L 50.43 88.24
  A 0.73 0.59 -11.6 0 0 49.70 87.86
  Q 45.51 88.25 41.70 86.96
  Q 43.94 80.88 42.54 75.00
  L 50.00 74.82
  Q 50.44 74.80 50.96 74.97
  Q 52.05 75.31 51.54 73.00
  Z"
/>
<path fill="#0e6c8d" d="
  M 123.88 73.38
  Q 125.96 77.11 126.54 81.75
  Q 126.77 97.01 112.94 102.44
  Q 110.95 103.22 103.29 104.50
  L 103.29 103.00
  L 103.50 101.54
  C 111.45 102.56 120.39 99.36 123.29 91.25
  Q 125.70 85.67 123.75 79.96
  Q 122.81 76.56 120.44 74.21
  L 120.50 73.54
  Q 122.20 74.04 123.88 73.38
  Z"
/>
<path fill="#77d200" d="
  M 24.00 73.54
  L 24.20 85.14
  Q 19.74 83.96 15.04 84.75
  L 15.04 75.25
  Q 18.93 73.80 22.00 74.50
  Q 23.44 74.83 24.00 73.54
  Z"
/>
<path fill="#80d700" d="
  M 68.17 74.18
  L 74.75 77.21
  L 77.50 78.54
  L 81.46 82.75
  L 83.29 87.25
  L 82.51 88.31
  A 1.06 0.77 -66.2 0 1 81.75 88.75
  L 74.29 88.75
  Q 72.94 85.57 69.75 84.21
  L 63.50 81.21
  Q 62.60 79.73 60.79 79.75
  C 61.33 78.86 59.04 78.37 58.46 77.25
  Q 58.80 75.83 60.24 75.47
  Q 63.47 74.67 65.01 75.37
  Q 67.42 76.47 68.17 74.18
  Z"
/>
<path fill="#fc4806" d="
  M 52.29 74.50
  Q 53.10 74.34 54.40 78.83
  A 2.92 2.88 46.7 0 1 54.36 80.59
  Q 54.09 81.41 52.54 81.00
  L 52.29 74.50
  Z"
/>
<path fill="#ff7a00" d="
  M 56.79 75.75
  L 58.46 77.25
  C 59.04 78.37 61.33 78.86 60.79 79.75
  Q 56.47 80.29 56.79 75.75
  Z"
/>
<path fill="#e9df00" d="
  M 81.46 82.75
  L 77.50 78.54
  Q 82.28 77.47 81.46 82.75
  Z"
/>
<path fill="#80d700" d="
  M 93.96 78.25
  L 94.71 85.00
  L 86.04 86.00
  Q 84.67 82.76 84.79 79.25
  Q 89.45 79.27 93.96 78.25
  Z"
/>
<path fill="#0267be" d="
  M 131.21 78.75
  C 134.48 97.63 120.65 107.97 104.02 110.83
  A 1.28 1.16 89.4 0 1 102.69 109.39
  L 103.29 104.50
  Q 110.95 103.22 112.94 102.44
  Q 126.77 97.01 126.54 81.75
  C 127.73 82.56 128.23 81.96 128.75 80.88
  Q 129.51 79.31 131.21 78.75
  Z"
/>
<path fill="#8cdf00" d="
  M 123.75 79.96
  Q 125.70 85.67 123.29 91.25
  Q 122.49 90.00 121.06 89.93
  Q 120.54 89.90 120.11 89.71
  Q 118.44 88.96 117.15 89.78
  Q 120.16 84.91 117.00 80.79
  Q 120.23 79.40 123.75 79.96
  Z"
/>
<path fill="#98e700" d="
  M 136.76 80.33
  Q 140.61 82.19 145.13 82.07
  L 144.49 84.06
  A 0.44 0.38 7.7 0 0 144.93 84.56
  L 156.00 84.46
  Q 160.79 84.87 165.50 83.96
  L 168.46 91.38
  Q 163.42 92.29 158.25 91.79
  L 142.39 91.60
  A 0.82 0.72 8.5 0 0 141.64 92.09
  L 139.03 100.05
  A 0.99 0.75 -78.9 0 1 138.25 100.75
  L 129.50 100.75
  A 0.55 0.40 -76.3 0 1 129.20 100.02
  L 136.76 80.33
  Z"
/>
<path fill="#b46900" d="
  M 63.50 81.21
  L 69.75 84.21
  Q 70.60 88.34 74.00 90.79
  C 72.78 94.90 67.25 95.50 64.00 93.96
  C 61.08 89.31 58.49 85.20 58.48 82.33
  A 1.34 1.13 0.2 0 1 59.83 81.20
  L 63.50 81.21
  Z"
/>
<path fill="#fe5901" d="
  M 51.29 88.25
  L 52.29 84.25
  L 54.74 82.12
  A 0.62 0.52 59.6 0 1 55.61 82.43
  L 57.74 87.50
  A 0.75 0.63 77.7 0 1 57.20 88.54
  L 51.29 88.25
  Z"
/>
<path fill="#98e700" d="
  M 207.50 81.96
  L 210.79 90.36
  Q 205.72 91.64 200.59 91.50
  L 184.25 91.83
  L 175.54 91.00
  L 177.95 84.66
  L 187.19 84.28
  L 197.95 84.67
  A 0.73 0.59 6.3 0 0 198.66 84.21
  Q 198.79 83.62 198.29 83.00
  Q 202.98 83.11 207.50 81.96
  Z"
/>
<path fill="#a55a00" d="
  M 69.75 84.21
  Q 72.94 85.57 74.29 88.75
  L 74.00 90.79
  Q 70.60 88.34 69.75 84.21
  Z"
/>
<path fill="#a5f000" d="
  M 24.20 85.14
  L 24.11 92.60
  A 0.55 0.54 3.4 0 0 24.61 93.15
  C 30.79 93.70 38.53 93.29 41.70 86.96
  Q 45.51 88.25 49.70 87.86
  A 0.73 0.59 -11.6 0 1 50.43 88.24
  L 50.71 89.00
  C 43.90 103.26 28.51 101.03 15.48 100.70
  A 0.48 0.48 0.6 0 1 15.01 100.22
  L 15.04 84.75
  Q 19.74 83.96 24.20 85.14
  Z"
/>
<path fill="#a5f000" d="
  M 94.71 85.00
  Q 103.03 98.98 117.15 89.78
  Q 118.44 88.96 120.11 89.71
  Q 120.54 89.90 121.06 89.93
  Q 122.49 90.00 123.29 91.25
  C 120.39 99.36 111.45 102.56 103.50 101.54
  Q 98.04 101.05 93.50 97.96
  Q 88.03 93.05 86.04 86.00
  L 94.71 85.00
  Z"
/>
<path fill="#a5f000" d="
  M 83.29 87.25
  L 83.54 87.75
  Q 82.91 99.52 71.50 101.96
  Q 69.33 101.42 67.25 102.21
  L 61.25 101.04
  Q 57.44 99.50 54.88 96.34
  A 1.39 0.93 36.6 0 1 54.56 95.44
  Q 54.63 94.90 55.00 94.46
  Q 57.41 92.57 59.33 89.68
  Q 61.09 93.13 64.00 93.96
  C 67.25 95.50 72.78 94.90 74.00 90.79
  L 74.29 88.75
  L 81.75 88.75
  A 1.06 0.77 -66.2 0 0 82.51 88.31
  L 83.29 87.25
  Z"
/>
<path fill="#a55a00" d="
  M 83.54 87.75
  Q 86.01 89.90 86.29 93.25
  A 1.47 1.08 -33.7 0 1 85.95 94.19
  L 78.48 103.23
  A 1.42 0.40 -55.5 0 1 77.81 103.79
  Q 74.25 104.92 71.50 101.96
  Q 82.91 99.52 83.54 87.75
  Z"
/>
<path fill="#ff7a00" d="
  M 59.33 89.68
  Q 57.41 92.57 55.00 94.46
  Q 55.76 90.45 59.33 89.68
  Z"
/>
<path fill="#a5f000" d="
  M 210.79 90.36
  L 214.75 100.26
  A 0.34 0.34 78.8 0 1 214.44 100.73
  L 205.00 100.74
  A 0.85 0.65 75.6 0 1 204.34 100.22
  L 200.59 91.50
  Q 205.72 91.64 210.79 90.36
  Z"
/>
<path fill="#a5f000" d="
  M 175.54 91.00
  L 184.25 91.83
  L 181.64 100.26
  A 0.69 0.66 -81.1 0 1 181.00 100.75
  L 162.25 100.75
  A 0.76 0.67 77.9 0 1 161.60 100.27
  L 158.25 91.79
  Q 163.42 92.29 168.46 91.38
  L 171.56 99.19
  Q 172.00 100.29 172.42 99.18
  L 175.54 91.00
  Z"
/>
<path fill="#056ca5" d="
  M 93.50 97.96
  Q 98.04 101.05 103.50 101.54
  L 103.29 103.00
  C 103.38 101.94 102.69 102.04 102.38 102.79
  Q 101.84 104.12 101.46 105.50
  L 93.25 104.04
  L 83.25 101.71
  L 82.25 101.21
  L 86.58 96.05
  Q 88.21 94.12 90.04 96.14
  Q 91.40 97.62 93.50 97.96
  Z
  M 97.14 102.58
  Q 97.14 100.57 95.28 100.46
  Q 94.52 100.42 94.24 100.27
  L 89.78 97.95
  A 1.41 0.37 30.4 0 0 88.69 97.64
  Q 86.83 98.41 85.50 100.02
  A 0.50 0.34 20.5 0 0 85.92 100.61
  L 96.48 102.87
  A 0.56 0.35 8.5 0 0 97.14 102.58
  Z"
/>
<path fill="#2d86c8" d="
  M 97.14 102.58
  A 0.56 0.35 8.5 0 1 96.48 102.87
  L 85.92 100.61
  A 0.50 0.34 20.5 0 1 85.50 100.02
  Q 86.83 98.41 88.69 97.64
  A 1.41 0.37 30.4 0 1 89.78 97.95
  L 94.24 100.27
  Q 94.52 100.42 95.28 100.46
  Q 97.14 100.57 97.14 102.58
  Z"
/>
<path fill="#fc4806" d="
  M 61.25 101.04
  L 67.25 102.21
  Q 64.52 103.57 61.50 103.95
  A 0.71 0.63 -13.2 0 1 60.78 103.56
  Q 60.27 102.29 61.25 101.04
  Z"
/>
<path fill="#0b76c0" d="
  M 82.25 101.21
  L 83.25 101.71
  L 82.16 102.46
  A 0.86 0.43 74.0 0 0 82.01 103.24
  Q 82.13 103.87 81.79 104.31
  A 0.95 0.91 -57.2 0 0 82.06 105.70
  Q 86.49 108.02 91.51 107.58
  A 1.45 1.16 14.2 0 0 92.37 107.19
  Q 93.60 105.90 93.25 104.04
  L 101.46 105.50
  L 100.91 108.66
  Q 100.47 111.24 97.98 111.06
  Q 88.32 110.35 79.29 106.73
  A 1.23 1.17 32.3 0 1 78.80 104.80
  L 82.25 101.21
  Z"
/>
<path fill="#2d86c8" d="
  M 83.25 101.71
  L 93.25 104.04
  Q 93.60 105.90 92.37 107.19
  A 1.45 1.16 14.2 0 1 91.51 107.58
  Q 86.49 108.02 82.06 105.70
  A 0.95 0.91 -57.2 0 1 81.79 104.31
  Q 82.13 103.87 82.01 103.24
  A 0.86 0.43 74.0 0 1 82.16 102.46
  L 83.25 101.71
  Z"
/>
<path fill="#fe6400" d="
  M 73.56 106.09
  L 69.13 108.61
  A 0.53 0.53 -12.0 0 1 68.34 108.11
  L 68.79 103.02
  A 0.53 0.53 -56.9 0 1 69.60 102.62
  L 73.59 105.18
  A 0.53 0.53 0.0 0 1 73.56 106.09
  Z"
/>
<path fill="#ff9e00" d="
  M 125.82 103.20
  Q 126.16 103.52 125.75 104.00
  A 0.87 0.72 36.9 0 1 124.68 104.05
  Q 123.96 103.56 124.76 102.99
  A 0.99 0.69 46.0 0 1 125.82 103.20
  Z"
/>
<path fill="#ff7a00" d="
  M 121.90 106.11
  A 0.72 0.71 -40.9 0 1 121.99 104.89
  C 124.08 103.82 124.79 108.15 121.90 106.11
  Z"
/>
<path fill="#fe6400" d="
  M 80.22 109.52
  L 76.21 112.61
  A 0.53 0.53 68.8 0 1 75.36 112.23
  L 74.95 107.18
  A 0.53 0.53 11.5 0 1 75.69 106.65
  L 80.11 108.61
  A 0.53 0.53 -55.8 0 1 80.22 109.52
  Z"
/>
<path fill="#fe6400" d="
  M 117.66 108.03
  L 119.66 106.95
  A 0.48 0.48 -16.1 0 1 120.36 107.33
  L 120.56 109.59
  A 0.48 0.48 -77.2 0 1 119.86 110.06
  L 117.66 108.87
  A 0.48 0.48 -43.7 0 1 117.66 108.03
  Z"
/>
<path fill="#fe6400" d="
  M 115.99 109.87
  C 117.55 115.55 109.87 110.41 115.15 109.36
  A 0.72 0.72 -13.7 0 1 115.99 109.87
  Z"
/>
<path fill="#fe6400" d="
  M 82.10 109.46
  L 87.19 110.51
  A 0.48 0.48 -64.9 0 1 87.46 111.29
  L 84.11 115.27
  A 0.48 0.48 -46.8 0 1 83.29 115.11
  L 81.55 110.09
  A 0.48 0.48 -3.3 0 1 82.10 109.46
  Z"
/>
<path fill="#fe6400" d="
  M 89.39 111.14
  L 93.40 112.05
  A 0.42 0.42 -66.6 0 1 93.63 112.72
  L 91.07 115.93
  A 0.42 0.42 -33.9 0 1 90.35 115.81
  L 88.90 111.68
  A 0.42 0.42 -3.9 0 1 89.39 111.14
  Z"
/>
<path fill="#fe6400" d="
  M 109.68 114.57
  Q 105.47 111.91 110.57 111.42
  A 0.52 0.46 0.6 0 1 111.14 111.94
  L 110.87 114.07
  A 0.79 0.74 20.4 0 1 109.68 114.57
  Z"
/>
<path fill="#fe6400" d="
  M 97.95 115.73
  A 0.73 0.53 -41.2 0 1 96.92 115.82
  L 95.51 113.25
  A 0.62 0.44 -15.3 0 1 96.06 112.58
  Q 101.52 111.72 97.95 115.73
  Z"
/>
<path fill="#fe6400" d="
  M 101.94 112.82
  L 105.08 112.53
  A 0.37 0.37 -83.6 0 1 105.46 113.04
  L 104.29 115.97
  A 0.37 0.37 -52.5 0 1 103.65 116.05
  L 101.68 113.41
  A 0.37 0.37 68.9 0 1 101.94 112.82
  Z"
/>
<path fill="#78b52c" d="
  M 31.01 130.50
  Q 31.23 130.54 31.44 130.44
  A 0.78 0.47 -82.8 0 0 31.74 130.06
  C 31.80 129.90 35.33 121.68 35.71 126.45
  C 36.52 136.50 37.16 124.22 39.53 125.35
  A 1.30 0.97 -89.6 0 1 40.11 126.14
  Q 41.21 130.53 42.69 125.67
  A 0.91 0.56 -5.3 0 1 43.32 125.20
  C 45.29 124.70 44.77 128.92 44.77 130.05
  A 0.48 0.37 88.2 0 0 45.16 130.53
  C 46.22 130.46 45.13 124.44 46.89 125.16
  A 0.84 0.63 -76.8 0 1 47.26 126.00
  L 46.59 131.07
  A 0.54 0.41 -76.4 0 1 45.99 131.55
  Q 44.97 131.09 44.00 131.47
  A 0.55 0.52 -11.2 0 1 43.25 131.00
  L 43.25 129.50
  A 0.85 0.74 -78.0 0 0 42.85 128.78
  Q 42.26 128.46 42.00 129.21
  C 39.97 135.23 40.07 127.86 38.88 128.55
  A 0.97 0.16 -71.3 0 0 38.51 129.25
  L 37.82 131.07
  A 0.74 0.53 -76.8 0 1 37.27 131.55
  Q 33.23 131.66 34.86 128.03
  Q 35.22 127.22 34.73 127.36
  Q 34.16 127.52 32.74 131.06
  A 0.76 0.54 -69.0 0 1 31.99 131.56
  Q 30.73 131.12 29.52 131.49
  A 0.78 0.51 65.9 0 1 28.81 131.03
  C 25.38 124.37 27.08 131.13 25.36 131.27
  A 0.45 0.43 2.4 0 1 24.88 130.77
  L 25.72 125.75
  Q 26.01 124.04 26.93 125.55
  L 28.72 128.48
  Q 29.26 129.35 29.46 128.38
  Q 30.09 125.40 30.80 125.28
  A 0.56 0.31 -86.1 0 1 31.11 125.94
  L 30.50 130.00
  A 0.60 0.41 10.2 0 0 31.01 130.50
  Z"
/>
<path fill="#78b52c" d="
  M 197.71 130.00
  Q 198.30 127.98 196.96 126.25
  Q 197.32 124.88 198.52 125.32
  A 0.88 0.75 -84.1 0 1 199.01 126.03
  C 199.07 126.58 199.53 130.98 200.32 130.71
  A 0.93 0.52 -89.0 0 0 200.73 130.00
  L 201.29 125.75
  A 0.58 0.45 -85.0 0 1 201.75 125.25
  L 202.25 125.25
  A 0.44 0.27 -83.4 0 1 202.48 125.75
  L 201.82 130.01
  A 0.65 0.42 -86.6 0 0 202.25 130.77
  Q 203.29 130.59 204.25 130.98
  A 0.59 0.50 -75.2 0 0 204.95 130.49
  L 205.55 126.76
  A 1.13 0.07 -81.0 0 1 205.77 125.77
  C 207.33 124.16 209.51 126.30 211.39 125.31
  A 1.02 0.17 -29.0 0 1 212.24 125.01
  L 213.67 125.58
  A 0.65 0.46 24.8 0 1 214.09 126.31
  C 213.55 127.30 211.31 125.47 211.59 127.19
  A 0.95 0.82 9.9 0 0 212.13 127.85
  Q 214.70 128.99 213.05 131.28
  A 1.01 0.33 3.9 0 1 212.25 131.48
  L 199.81 131.40
  A 1.38 0.89 55.4 0 1 199.04 131.08
  L 197.71 130.00
  Z
  M 208.77 128.45
  C 208.73 129.25 205.98 128.11 206.32 130.31
  A 0.57 0.53 -7.2 0 0 206.93 130.75
  C 207.23 130.72 214.20 130.99 211.82 129.39
  Q 210.27 128.34 209.99 126.77
  A 0.63 0.41 80.9 0 0 209.49 126.22
  L 207.75 126.53
  A 1.12 0.13 -9.5 0 0 206.73 126.82
  Q 206.26 128.51 208.25 127.95
  A 0.48 0.41 84.6 0 1 208.77 128.45
  Z"
/>
<path fill="#6eb21b" d="
  M 16.13 130.84
  C 16.53 128.23 15.56 124.38 19.95 125.56
  A 2.50 1.93 6.7 0 1 21.74 127.31
  Q 22.47 132.94 16.43 131.26
  A 0.41 0.37 12.8 0 1 16.13 130.84
  Z
  M 17.43 129.01
  A 1.33 1.13 -85.9 0 0 18.64 130.66
  Q 20.77 130.32 20.77 128.26
  A 1.36 0.55 -82.0 0 0 20.55 127.38
  Q 18.40 124.98 17.43 129.01
  Z"
/>
<rect fill="#6eb21b" x="-0.53" y="-3.14" transform="translate(23.47,128.40) rotate(8.1)" width="1.06" height="6.28" rx="0.30"/>
<path fill="#6eb21b" d="
  M 56.27 127.80
  L 54.94 130.74
  A 1.20 1.00 -76.2 0 1 54.00 131.43
  L 49.72 131.59
  Q 47.74 131.67 47.79 129.41
  Q 47.87 124.78 52.66 125.52
  Q 53.69 125.67 53.37 126.18
  A 0.90 0.61 15.5 0 1 52.54 126.46
  C 50.15 126.11 47.82 128.15 49.60 130.20
  A 1.01 0.76 58.7 0 0 50.50 130.56
  Q 51.89 130.18 53.25 130.43
  A 0.70 0.54 -71.7 0 0 53.90 129.99
  C 54.32 129.03 55.75 124.20 57.34 125.46
  A 1.34 0.79 -85.2 0 1 57.72 126.25
  L 58.33 130.69
  A 0.73 0.40 83.6 0 1 57.99 131.51
  Q 57.60 131.50 57.24 131.25
  A 1.03 0.86 19.2 0 1 56.80 130.52
  L 56.66 128.07
  Q 56.61 127.06 56.27 127.80
  Z"
/>
<path fill="#6eb21b" d="
  M 65.93 125.82
  A 1.36 1.23 7.5 0 1 66.71 126.74
  Q 67.90 132.64 61.74 131.39
  A 0.68 0.57 9.4 0 1 61.18 130.74
  L 61.82 126.01
  A 0.89 0.74 -87.2 0 1 62.51 125.26
  Q 64.30 125.09 65.93 125.82
  Z
  M 63.59 126.44
  A 0.90 0.85 -87.0 0 0 62.74 127.25
  L 62.47 129.99
  A 0.62 0.57 8.0 0 0 62.98 130.61
  C 66.06 131.16 67.12 126.44 63.59 126.44
  Z"
/>
<path fill="#6eb21b" d="
  M 69.50 130.75
  L 71.25 130.75
  A 0.51 0.50 89.4 0 1 71.75 131.25
  L 71.75 131.50
  A 0.29 0.24 -88.2 0 1 71.49 131.79
  L 68.01 131.51
  A 0.66 0.53 -82.5 0 1 67.56 130.76
  L 68.23 126.25
  A 1.07 0.88 87.3 0 1 68.83 125.45
  Q 70.34 124.91 71.79 125.40
  Q 72.63 125.68 72.07 126.08
  Q 71.27 126.64 70.26 126.50
  A 0.83 0.64 10.7 0 0 69.39 126.94
  Q 68.97 128.37 70.76 127.97
  A 1.23 0.52 37.5 0 1 71.56 128.18
  Q 71.84 128.34 71.56 128.57
  A 0.77 0.18 -42.7 0 1 71.00 128.89
  Q 68.97 128.54 68.84 130.26
  A 0.65 0.46 1.2 0 0 69.50 130.75
  Z"
/>
<path fill="#6eb21b" d="
  M 77.03 130.23
  Q 76.89 129.00 75.66 128.58
  A 1.24 1.04 -0.5 0 1 74.99 128.03
  C 73.66 125.54 77.11 124.78 78.78 125.71
  Q 79.28 125.99 78.79 126.27
  C 78.26 126.57 75.09 126.16 76.47 127.41
  Q 80.81 131.32 75.39 131.55
  A 0.82 0.70 -12.1 0 1 74.63 131.14
  Q 74.11 129.97 76.45 130.55
  A 0.46 0.33 6.8 0 0 77.03 130.23
  Z"
/>
<path fill="#78b52c" d="
  M 80.29 130.75
  L 80.29 131.00
  Q 79.71 131.80 79.10 131.35
  A 1.04 0.36 -77.7 0 1 78.99 130.44
  L 79.67 125.96
  A 0.89 0.78 88.7 0 1 80.26 125.25
  Q 80.58 125.16 80.81 125.45
  A 1.12 1.06 -60.8 0 1 81.02 126.28
  L 80.29 130.75
  Z"
/>
<path fill="#6eb21b" d="
  M 108.29 129.75
  L 107.29 131.00
  L 106.50 129.29
  Q 107.35 128.46 106.97 127.45
  A 0.36 0.35 55.8 0 0 106.37 127.33
  Q 105.88 127.89 105.96 128.75
  L 105.21 130.80
  A 1.22 0.77 -7.7 0 1 104.49 131.40
  C 100.75 132.67 102.85 128.02 101.37 128.47
  A 1.18 0.74 -80.7 0 0 100.76 129.16
  C 98.57 135.33 98.67 127.62 97.67 127.95
  A 1.07 0.63 -85.6 0 0 97.16 128.68
  L 96.68 130.92
  A 0.75 0.67 -83.1 0 1 96.01 131.51
  L 91.26 131.50
  A 0.64 0.59 4.2 0 1 90.62 130.82
  L 91.23 127.06
  A 0.50 0.34 -79.2 0 0 91.00 126.53
  Q 90.11 126.29 89.25 126.45
  A 0.99 0.56 -86.8 0 0 88.73 127.26
  C 88.71 127.42 88.32 132.95 87.37 131.48
  C 86.95 130.82 87.44 128.06 87.61 127.24
  A 0.62 0.42 -81.7 0 0 87.25 126.50
  L 83.26 126.50
  Q 82.45 126.50 83.01 127.08
  Q 88.27 132.55 80.29 131.00
  L 80.29 130.75
  Q 81.40 130.29 82.53 130.62
  A 0.92 0.45 19.6 0 0 83.42 130.52
  Q 83.89 129.78 81.75 127.44
  A 0.82 0.82 46.1 0 1 81.77 126.32
  C 83.32 124.69 92.77 125.24 94.77 125.36
  A 0.65 0.51 -88.1 0 1 95.24 126.00
  Q 95.24 126.20 95.06 126.32
  A 0.95 0.64 -47.3 0 1 94.39 126.48
  Q 92.49 126.00 92.58 127.19
  A 0.78 0.73 5.7 0 0 93.16 127.85
  Q 96.23 128.64 93.27 128.77
  A 1.33 0.53 3.4 0 0 92.34 129.08
  Q 91.47 130.21 92.81 130.65
  Q 95.17 131.41 95.59 130.09
  L 96.91 125.93
  A 1.03 0.85 -83.5 0 1 97.62 125.24
  C 98.29 125.13 98.63 125.62 98.72 126.25
  C 99.82 133.67 101.33 121.96 102.91 126.07
  Q 103.38 127.29 103.26 129.64
  A 0.59 0.26 -86.9 0 0 103.49 130.26
  L 103.75 130.25
  A 0.45 0.22 -70.1 0 0 104.04 129.97
  Q 104.89 128.15 105.75 126.33
  C 107.68 122.28 108.18 129.24 108.29 129.75
  Z"
/>
<path fill="#6eb21b" d="
  M 108.50 131.21
  L 109.25 130.21
  Q 111.79 131.68 111.50 129.68
  A 0.97 0.81 9.7 0 0 110.93 129.01
  C 107.11 127.35 111.49 123.55 113.23 125.98
  Q 113.63 126.53 113.01 126.50
  Q 109.34 126.29 112.16 128.39
  A 1.38 0.66 26.8 0 1 112.71 129.10
  Q 113.39 132.85 108.50 131.21
  Z"
/>
<path fill="#6eb21b" d="
  M 119.49 128.26
  C 121.37 127.79 121.26 130.34 120.79 131.14
  A 0.95 0.94 -76.4 0 1 120.00 131.63
  Q 118.10 131.70 116.40 130.90
  A 0.99 0.86 12.3 0 1 115.86 130.18
  Q 115.24 124.38 121.61 125.44
  Q 121.95 125.50 122.09 125.72
  A 0.43 0.33 -19.4 0 1 121.74 126.26
  C 119.79 126.64 116.08 126.30 117.19 129.64
  A 1.26 0.96 10.7 0 0 117.73 130.24
  Q 120.45 131.78 119.38 128.92
  A 0.57 0.30 71.4 0 1 119.49 128.26
  Z"
/>
<path fill="#78b52c" d="
  M 124.32 127.95
  Q 126.94 128.02 125.30 128.89
  Q 124.95 129.07 124.35 129.06
  Q 122.97 129.05 123.34 130.28
  A 0.70 0.66 -7.8 0 0 124.00 130.75
  L 125.75 130.75
  A 0.64 0.52 80.7 0 1 126.28 131.22
  C 126.48 131.96 123.22 131.50 122.49 131.35
  A 0.57 0.55 8.5 0 1 122.03 130.75
  L 122.50 126.50
  A 1.13 0.89 81.3 0 1 122.94 125.72
  Q 124.63 124.63 126.37 125.39
  Q 127.62 125.93 126.28 126.19
  Q 124.09 126.60 123.82 127.45
  A 0.50 0.38 7.6 0 0 124.32 127.95
  Z"
/>
<path fill="#6eb21b" d="
  M 132.9064 126.3283
  A 3.37 3.12 -38.8 0 1 132.2350 130.8715
  A 3.37 3.12 -38.8 0 1 127.6536 130.5517
  A 3.37 3.12 -38.8 0 1 128.3250 126.0085
  A 3.37 3.12 -38.8 0 1 132.9064 126.3283
  Z
  M 131.8855 127.0414
  A 2.12 1.95 -42.0 0 0 129.0052 127.0109
  A 2.12 1.95 -42.0 0 0 128.7345 129.8786
  A 2.12 1.95 -42.0 0 0 131.6148 129.9091
  A 2.12 1.95 -42.0 0 0 131.8855 127.0414
  Z"
/>
<path fill="#6eb21b" d="
  M 136.19 128.05
  C 135.92 129.12 135.49 131.67 134.03 131.55
  A 0.44 0.42 -75.2 0 1 133.69 130.94
  L 135.90 125.91
  A 1.07 0.12 -34.1 0 1 136.57 125.34
  Q 136.77 125.19 136.99 125.25
  A 1.04 0.39 11.3 0 1 137.77 125.74
  L 138.78 130.99
  A 0.54 0.37 2.6 0 1 138.14 131.39
  Q 136.79 131.16 136.58 129.83
  A 1.05 0.16 -53.1 0 1 137.01 129.03
  Q 137.47 128.39 137.02 127.74
  Q 136.47 126.96 136.19 128.05
  Z"
/>
<path fill="#78b52c" d="
  M 144.79 128.50
  Q 143.72 130.12 145.00 131.21
  C 142.80 131.67 137.86 131.91 139.16 127.91
  C 140.21 124.67 145.99 124.88 144.87 126.24
  A 0.89 0.87 25.9 0 1 144.00 126.53
  Q 141.83 126.08 140.58 127.83
  A 1.25 0.42 -50.1 0 0 140.21 128.78
  Q 140.74 130.40 142.51 130.76
  Q 143.69 130.99 143.01 129.96
  Q 141.30 127.38 144.79 128.50
  Z"
/>
<path fill="#6eb21b" d="
  M 145.25 131.21
  L 145.96 128.75
  C 144.55 122.99 152.00 124.98 149.78 128.37
  A 1.65 0.98 -41.0 0 0 149.49 129.25
  Q 149.54 130.08 149.92 130.81
  A 0.50 0.32 67.5 0 1 149.80 131.47
  C 148.23 131.75 149.12 129.04 147.24 129.34
  A 0.61 0.52 85.1 0 0 146.80 129.95
  Q 146.83 131.66 145.25 131.21
  Z
  M 148.74 127.01
  Q 148.45 126.13 147.71 126.41
  A 1.11 0.60 89.7 0 0 147.23 127.31
  Q 147.10 128.58 148.38 127.84
  A 0.76 0.68 -24.9 0 0 148.74 127.01
  Z"
/>
<path fill="#6eb21b" d="
  M 156.5939 126.2902
  A 3.36 3.09 -40.0 0 1 156.0062 130.8171
  A 3.36 3.09 -40.0 0 1 151.4461 130.6098
  A 3.36 3.09 -40.0 0 1 152.0338 126.0829
  A 3.36 3.09 -40.0 0 1 156.5939 126.2902
  Z
  M 152.9723 130.3287
  A 2.15 1.87 120.7 0 0 155.6779 129.4347
  A 2.15 1.87 120.7 0 0 155.1677 126.6313
  A 2.15 1.87 120.7 0 0 152.4621 127.5253
  A 2.15 1.87 120.7 0 0 152.9723 130.3287
  Z"
/>
<path fill="#6eb21b" d="
  M 166.79 128.25
  L 167.71 129.00
  C 166.23 137.08 165.82 125.14 164.59 129.25
  Q 163.28 133.61 160.46 130.00
  Q 161.19 128.88 160.76 127.93
  Q 160.52 127.39 160.17 127.88
  Q 159.61 128.67 159.79 129.75
  Q 159.21 131.39 157.74 131.38
  A 0.38 0.37 -78.4 0 1 157.41 130.86
  C 158.08 129.16 159.96 124.18 161.36 125.44
  A 1.48 1.00 -79.0 0 1 161.73 126.31
  C 161.77 126.86 161.81 130.39 162.58 130.22
  A 0.70 0.60 -85.6 0 0 163.04 129.76
  L 164.22 125.99
  A 0.95 0.34 -74.8 0 1 164.74 125.25
  L 165.26 125.24
  A 1.02 0.49 72.4 0 1 165.92 125.95
  L 166.79 128.25
  Z"
/>
<path fill="#78b52c" d="
  M 176.04 129.50
  L 176.00 130.96
  Q 173.05 131.86 169.89 131.38
  A 0.76 0.63 5.2 0 1 169.25 130.74
  L 169.24 129.75
  A 1.21 0.56 -82.8 0 0 168.96 128.86
  Q 168.45 128.46 167.71 129.00
  L 166.79 128.25
  Q 168.32 127.82 168.67 126.23
  A 1.22 0.89 87.7 0 1 169.18 125.47
  C 170.70 124.65 170.65 128.97 170.83 130.13
  A 0.75 0.49 85.7 0 0 171.31 130.75
  C 171.64 130.77 172.09 126.30 172.15 126.03
  A 1.01 0.68 -85.6 0 1 172.74 125.29
  Q 174.17 124.97 175.33 125.63
  A 1.23 0.48 89.0 0 1 175.70 126.54
  L 176.04 129.50
  Z
  M 173.25 127.28
  Q 173.21 127.83 173.74 128.00
  A 0.79 0.44 -66.7 0 0 174.42 127.48
  Q 175.20 125.80 173.88 126.45
  A 1.11 0.96 -12.1 0 0 173.25 127.28
  Z
  M 173.79 130.74
  L 174.69 130.19
  A 0.55 0.43 48.0 0 0 174.63 129.40
  Q 172.74 127.73 173.09 130.06
  A 0.72 0.43 75.0 0 0 173.79 130.74
  Z"
/>
<path fill="#78b52c" d="
  M 188.11 128.66
  Q 188.62 129.46 188.74 128.50
  L 189.03 126.02
  A 0.74 0.67 -87.3 0 1 189.67 125.38
  C 189.93 125.37 197.78 124.71 195.92 126.25
  A 1.36 0.56 10.4 0 1 195.01 126.44
  C 193.44 126.37 193.58 129.28 193.51 130.32
  A 1.74 1.36 72.3 0 1 193.18 131.21
  Q 191.96 132.68 192.18 129.97
  C 192.30 128.46 194.06 125.87 190.77 126.58
  A 0.99 0.29 -71.4 0 0 190.29 127.26
  Q 189.67 128.82 189.75 130.50
  A 0.95 0.93 77.5 0 1 189.17 131.43
  Q 188.76 131.59 188.31 131.44
  A 1.15 0.72 7.8 0 1 187.63 130.87
  Q 185.86 125.50 185.08 130.73
  A 0.85 0.54 -83.9 0 1 184.50 131.46
  L 179.32 131.46
  A 0.61 0.36 -82.8 0 1 179.02 130.76
  L 179.82 126.27
  A 1.04 0.26 -81.7 0 1 180.17 125.41
  Q 181.96 124.87 183.59 125.61
  Q 184.11 125.85 183.57 126.08
  Q 182.52 126.52 181.45 126.41
  A 0.67 0.65 -79.1 0 0 180.75 126.90
  C 180.39 128.23 185.15 128.43 181.24 128.93
  A 1.27 0.89 7.2 0 0 180.41 129.37
  C 179.17 131.16 182.88 130.75 183.44 130.72
  A 0.61 0.59 -87.0 0 0 184.00 130.20
  C 184.15 129.18 184.20 125.30 185.47 125.24
  A 1.05 0.65 65.3 0 1 186.24 125.75
  L 188.11 128.66
  Z"
/>
<path fill="#78b52c" d="
  M 176.71 131.00
  L 176.71 129.50
  Q 177.50 128.10 177.28 126.49
  A 0.94 0.47 80.0 0 1 177.56 125.56
  Q 177.89 125.45 178.25 125.50
  A 0.60 0.51 -78.5 0 1 178.65 126.22
  Q 177.82 129.52 178.04 130.49
  Q 178.49 132.43 176.71 131.00
  Z"
/>
<path fill="#effdda" d="
  M 173.88 126.45
  Q 175.20 125.80 174.42 127.48
  A 0.79 0.44 -66.7 0 1 173.74 128.00
  Q 173.21 127.83 173.25 127.28
  A 1.11 0.96 -12.1 0 1 173.88 126.45
  Z"
/>
<path fill="#ffffff" d="
  M 17.43 129.01
  Q 18.40 124.98 20.55 127.38
  A 1.36 0.55 -82.0 0 1 20.77 128.26
  Q 20.77 130.32 18.64 130.66
  A 1.33 1.13 -85.9 0 1 17.43 129.01
  Z"
/>
<path fill="#ffffff" d="
  M 63.59 126.44
  C 67.12 126.44 66.06 131.16 62.98 130.61
  A 0.62 0.57 8.0 0 1 62.47 129.99
  L 62.74 127.25
  A 0.90 0.85 -87.0 0 1 63.59 126.44
  Z"
/>
<path fill="#ffffff" d="
  M 148.38 127.84
  Q 147.10 128.58 147.23 127.31
  A 1.11 0.60 89.7 0 1 147.71 126.41
  Q 148.45 126.13 148.74 127.01
  A 0.76 0.68 -24.9 0 1 148.38 127.84
  Z"
/>
<path fill="#effdda" d="
  M 196.96 126.25
  Q 198.30 127.98 197.71 130.00
  L 196.79 130.00
  Q 197.26 128.59 196.71 127.25
  L 196.96 126.25
  Z"
/>
<path fill="#ffffff" d="
  M 208.25 127.95
  Q 206.26 128.51 206.73 126.82
  A 1.12 0.13 -9.5 0 1 207.75 126.53
  L 209.49 126.22
  A 0.63 0.41 80.9 0 1 209.99 126.77
  Q 210.27 128.34 211.82 129.39
  C 214.20 130.99 207.23 130.72 206.93 130.75
  A 0.57 0.53 -7.2 0 1 206.32 130.31
  C 205.98 128.11 208.73 129.25 208.77 128.45
  A 0.48 0.41 84.6 0 0 208.25 127.95
  Z"
/>
<ellipse fill="#ffffff" cx="0.00" cy="0.00" transform="translate(130.31,128.46) rotate(-42.0)" rx="2.12" ry="1.95"/>
<ellipse fill="#ffffff" cx="0.00" cy="0.00" transform="translate(154.07,128.48) rotate(120.7)" rx="2.15" ry="1.87"/>
<path fill="#effdda" d="
  M 106.50 129.29
  L 105.96 128.75
  Q 105.88 127.89 106.37 127.33
  A 0.36 0.35 55.8 0 1 106.97 127.45
  Q 107.35 128.46 106.50 129.29
  Z"
/>
<path fill="#6eb21b" d="
  M 196.71 127.25
  Q 197.26 128.59 196.79 130.00
  Q 196.50 131.12 195.56 131.37
  A 0.39 0.37 86.2 0 1 195.10 130.94
  Q 195.30 128.85 196.71 127.25
  Z"
/>
<path fill="#effdda" d="
  M 160.46 130.00
  L 159.79 129.75
  Q 159.61 128.67 160.17 127.88
  Q 160.52 127.39 160.76 127.93
  Q 161.19 128.88 160.46 130.00
  Z"
/>
<path fill="#cef29a" d="
  M 144.79 128.50
  L 145.96 128.75
  L 145.25 131.21
  L 145.00 131.21
  Q 143.72 130.12 144.79 128.50
  Z"
/>
<path fill="#ffffff" d="
  M 173.09 130.06
  Q 172.74 127.73 174.63 129.40
  A 0.55 0.43 48.0 0 1 174.69 130.19
  L 173.79 130.74
  A 0.72 0.43 75.0 0 1 173.09 130.06
  Z"
/>
<path fill="#cef29a" d="
  M 176.04 129.50
  L 176.71 129.50
  L 176.71 131.00
  L 176.00 130.96
  L 176.04 129.50
  Z"
/>
<path fill="#cef29a" d="
  M 108.29 129.75
  L 109.25 130.21
  L 108.50 131.21
  Q 107.78 131.79 107.29 131.00
  L 108.29 129.75
  Z"
/>
</svg>
