<?xml version="1.0" encoding="UTF-8"?>
<svg id="Capa_1" xmlns="http://www.w3.org/2000/svg" viewBox="0 0 1773.03 1205.29">
  <defs>
    <style>
      .cls-1 {
        stroke: #12a502;
      }

      .cls-1, .cls-2, .cls-3, .cls-4, .cls-5, .cls-6, .cls-7, .cls-8, .cls-9, .cls-10, .cls-11, .cls-12, .cls-13, .cls-14, .cls-15, .cls-16, .cls-17, .cls-18, .cls-19, .cls-20, .cls-21, .cls-22, .cls-23, .cls-24, .cls-25, .cls-26, .cls-27, .cls-28, .cls-29, .cls-30, .cls-31, .cls-32, .cls-33, .cls-34, .cls-35, .cls-36, .cls-37 {
        fill: none;
      }

      .cls-1, .cls-2, .cls-3, .cls-4, .cls-5, .cls-6, .cls-7, .cls-8, .cls-9, .cls-10, .cls-11, .cls-12, .cls-14, .cls-15, .cls-16, .cls-17, .cls-18, .cls-19, .cls-20, .cls-21, .cls-22, .cls-24, .cls-25, .cls-26, .cls-27, .cls-28, .cls-30, .cls-31, .cls-33, .cls-34, .cls-35, .cls-36, .cls-37 {
        stroke-width: 2px;
      }

      .cls-38 {
        fill: #2cad02;
      }

      .cls-39 {
        fill: #007824;
      }

      .cls-2 {
        stroke: #47aa00;
      }

      .cls-3 {
        stroke: #65bb01;
      }

      .cls-40 {
        fill: #57b700;
      }

      .cls-41 {
        fill: #008b17;
      }

      .cls-4 {
        stroke: #028d13;
      }

      .cls-42 {
        fill: #017d1f;
      }

      .cls-5 {
        stroke: #209e0c;
      }

      .cls-6 {
        stroke: #4bb401;
      }

      .cls-43, .cls-44 {
        fill: #7c4b22;
      }

      .cls-43, .cls-44, .cls-45, .cls-46, .cls-47, .cls-48 {
        font-family: LucidaBright-Demi, 'Lucida Bright';
        font-weight: 300;
      }

      .cls-43, .cls-46, .cls-47 {
        font-size: 60px;
      }

      .cls-7 {
        stroke: #23a704;
      }

      .cls-49 {
        fill: #009211;
      }

      .cls-8 {
        stroke: #17a504;
      }

      .cls-9 {
        stroke: #7e5027;
      }

      .cls-50 {
        fill: #43b202;
      }

      .cls-10 {
        stroke: #1c8c01;
      }

      .cls-51 {
        fill: #0062c1;
      }

      .cls-11 {
        stroke: #00821e;
      }

      .cls-12 {
        stroke: #754d29;
      }

      .cls-44, .cls-45, .cls-48 {
        font-size: 24px;
      }

      .cls-52 {
        fill: #73bf01;
      }

      .cls-45, .cls-46 {
        fill: #49af0d;
      }

      .cls-53 {
        fill: #0075c7;
      }

      .cls-13 {
        stroke: #005dbd;
      }

      .cls-13, .cls-23, .cls-29, .cls-32 {
        stroke-linecap: round;
        stroke-miterlimit: 10;
        stroke-width: 4px;
      }

      .cls-13, .cls-29 {
        stroke-dasharray: 1 10;
      }

      .cls-14 {
        stroke: #794e28;
      }

      .cls-15 {
        stroke: #209513;
      }

      .cls-54 {
        fill: #017c01;
      }

      .cls-55 {
        fill: #379c00;
      }

      .cls-16 {
        stroke: #59b801;
      }

      .cls-17 {
        stroke: #018e02;
      }

      .cls-18 {
        stroke: #137eca;
      }

      .cls-19 {
        stroke: #20a802;
      }

      .cls-56 {
        fill: #005bbe;
      }

      .cls-57 {
        fill: #825126;
      }

      .cls-47, .cls-48 {
        fill: #005dbd;
      }

      .cls-20 {
        stroke: #1c9e02;
      }

      .cls-21 {
        stroke: #3ba701;
      }

      .cls-22 {
        stroke: #32ae01;
      }

      .cls-58 {
        fill: #7a4e27;
      }

      .cls-23, .cls-32 {
        stroke: #7c4b22;
      }

      .cls-59 {
        fill: #009f03;
      }

      .cls-24 {
        stroke: #00950d;
      }

      .cls-60 {
        fill: #029c06;
      }

      .cls-61 {
        fill: #3fb101;
      }

      .cls-25 {
        stroke: #3a9e01;
      }

      .cls-26 {
        stroke: #16a603;
      }

      .cls-27 {
        stroke: #00990a;
      }

      .cls-28 {
        stroke: #008c14;
      }

      .cls-29 {
        stroke: #49af0d;
      }

      .cls-30 {
        stroke: #01840c;
      }

      .cls-31 {
        stroke: #2ea400;
      }

      .cls-62 {
        fill: #24ab00;
      }

      .cls-32 {
        stroke-dasharray: 1 10.02;
      }

      .cls-33 {
        stroke: #006cc4;
      }

      .cls-63 {
        fill: #2586cc;
      }

      .cls-34 {
        stroke: #209701;
      }

      .cls-35 {
        stroke: #00851b;
      }

      .cls-64 {
        fill: #6f4b2a;
      }

      .cls-36 {
        stroke: #55ae01;
      }

      .cls-37 {
        stroke: #38b002;
      }
    </style>
  </defs>
  <g>
    <path class="cls-33" d="M934.16,192.53c-2.57,1.07-5.06.6-7.46-1.41-13.82-11.63-29.52-14.3-47.09-8-2.47.88-4.72,3.08-6.72,6.59-.25.42-.71.83-1.32,1.19-.67.39-1,.91-1,1.56.01.68-.14,1.26-.41,1.58-3.65,4.26-4.12,9.19-9.3,13.09" vector-effect="non-scaling-stroke"/>
    <path class="cls-4" d="M790.62,210.82c-2.55-.3-4.1.63-4.65,2.79-.15.59-.45,1.13-.89,1.56-1.48,1.51-1.7,3.22-.66,5.14" vector-effect="non-scaling-stroke"/>
    <path class="cls-7" d="M826.95,233.97c-1.08,2.9-1.46,5.88-1.15,8.93.07.63-.14,1.23-.57,1.58l-1.26,1.05c-.35.27-.9.19-1.3-.19-.57-.54-1.21-.54-1.92,0" vector-effect="non-scaling-stroke"/>
    <path class="cls-37" d="M897.04,297.46c-6.06,3.52-11.09,1.58-18.72-.04-1.37-.29-1.98.26-1.83,1.66.04.29.32.83.85,1.62.4.6.24,1.12-.47,1.54" vector-effect="non-scaling-stroke"/>
    <path class="cls-26" d="M926.81,302.55c-5.45-.65-9.88-.13-13.3,1.58-2.76,1.38-5.27,2.03-7.53,1.96-.61-.02-1.21.13-1.71.43-5.69,3.52-15.54.55-22.88,1.83" vector-effect="non-scaling-stroke"/>
    <path class="cls-8" d="M954.9,272.26c-2.05-3.11-1.64-6.24,1.21-9.38,3.11-3.44,3.18-6.96.19-10.55" vector-effect="non-scaling-stroke"/>
    <path class="cls-4" d="M1004.47,234.44c-4.18-2.64-4.18-6.71-7.68-9.42" vector-effect="non-scaling-stroke"/>
    <path class="cls-35" d="M756.32,243.39c-1.86.74-2.24,1.88-1.13,3.41,6,8.3,12,16.61,18.01,24.92" vector-effect="non-scaling-stroke"/>
    <path class="cls-28" d="M773.2,271.71l13.11,19.7" vector-effect="non-scaling-stroke"/>
    <path class="cls-15" d="M786.31,291.41l2.98,5.18" vector-effect="non-scaling-stroke"/>
    <path class="cls-11" d="M789.28,296.59c-.43,7.7-7.48,5.91-12.17,8.78-2.96,1.81-4.82,2.84-5.56,3.11-5.35,1.92-14.47,4.56-16.86,10.15-.66,1.57-2.31,2.49-3.99,2.22-4.02-.64-6,1.04-5.93,5.05,0,.28.19.85.57,1.73.26.65,0,1.14-.79,1.45" vector-effect="non-scaling-stroke"/>
    <path class="cls-19" d="M828.85,286.74c-13.59,2.26-27.27,2.9-41.06,1.92-.64-.05-1.18.32-1.24.83l-.24,1.92" vector-effect="non-scaling-stroke"/>
    <path class="cls-27" d="M806.63,268.27c-2.17.74-3.67.31-4.48-1.28-.16-.3-.46-.48-.67-.39-.03.01-.06.03-.08.05l-.49.4c-.6.52-1.14.87-1.34.87l-24.03.89c-.7.02-1.3.26-1.62.64-.51.62-.75,1.37-.72,2.28" vector-effect="non-scaling-stroke"/>
    <path class="cls-16" d="M849.01,307.82c-4.14-4.01-6.78-1.77-10.74-1.86-12.54-.25-25.09-.3-37.65-.13-1.29.01-1.98.7-2.07,2.07" vector-effect="non-scaling-stroke"/>
    <path class="cls-34" d="M798.55,307.89l-2.67-2.35" vector-effect="non-scaling-stroke"/>
    <path class="cls-5" d="M795.87,305.54l-6.59-8.95" vector-effect="non-scaling-stroke"/>
    <path class="cls-30" d="M795.87,305.54c4.11,11.92,15.5,27.63,21.79,35.99" vector-effect="non-scaling-stroke"/>
    <path class="cls-24" d="M817.67,341.53c-4.66,6.2-10.57,9.86-17.74,10.98-7.31,1.11-8.27,6.72-15.31,6.84-.45,0-.84.39-.94.92-.6,3.13-13.96,3.54-17.22,9.3-.27.48-.75.84-1.34,1-2.31.63-3.41,2.34-3.3,5.12" vector-effect="non-scaling-stroke"/>
    <path class="cls-10" d="M859.44,359.69c-.24,1.41.21,2.19,1.34,2.35.77.11,1.38.31,1.68.57,7.93,6.55-21.15,4.77-24.56,4.07" vector-effect="non-scaling-stroke"/>
    <path class="cls-17" d="M837.89,366.68c-7.53-7.79-14.28-16.17-20.23-25.14" vector-effect="non-scaling-stroke"/>
    <path class="cls-36" d="M903.44,378.75c-15.55-4.12-30.21-10.47-44-19.06" vector-effect="non-scaling-stroke"/>
    <path class="cls-25" d="M859.44,359.69c-23.24-13.82-43.54-31.09-60.89-51.8" vector-effect="non-scaling-stroke"/>
    <path class="cls-20" d="M837.89,366.68c2.4,1.13,3.99,3.16,4.77,6.1" vector-effect="non-scaling-stroke"/>
    <path class="cls-1" d="M842.66,372.78c-11.69,5.88-23.34,11.61-34.96,17.2-2.34,1.12-4.66,2.24-6.99,3.35-5.73,2.73-12,4.26-17.23,9.68" vector-effect="non-scaling-stroke"/>
    <path class="cls-2" d="M920.11,395.4c-1.91.67-3.82.73-5.74.21-.55-.15-1.13.07-1.43.55-3.5,5.52-15.65,9.7-21.45,12.02-1.55.62-3.27.63-4.82.04-5.96-2.31-11.29-5.48-15.99-9.51" vector-effect="non-scaling-stroke"/>
    <path class="cls-21" d="M870.67,398.7l-17.59-15.43" vector-effect="non-scaling-stroke"/>
    <path class="cls-31" d="M853.08,383.27l-10.42-10.49" vector-effect="non-scaling-stroke"/>
    <path class="cls-22" d="M853.08,383.27c-12.19,5.45-24.29,11.13-36.29,17.05-3.99,1.96-10.43,3.88-15.09,7.72-.44.38-.99.62-1.64.73-2.69.48-4.11,2.19-4.26,5.14" vector-effect="non-scaling-stroke"/>
    <path class="cls-6" d="M870.67,398.7c-2.56.16-4.49,1.29-5.78,3.39-.31.48-.83.78-1.39.79-1.49.04-2.91.36-4.24.96-12.28,5.64-24.44,11.51-36.48,17.63-2.98,1.51-6.93.92-7.27,6.03" vector-effect="non-scaling-stroke"/>
    <path class="cls-3" d="M936.59,407.64c-.99.62-1.76.6-2.3-.06-.33-.38-.82-.51-1.09-.28,0,0-.01.01-.02.02-.21.2-.36.45-.45.73-.18.66-.52,1.15-.9,1.32-5.98,2.52-11.29,5.56-15.93,9.12-2.75,2.11-2.49,3.74.77,4.88,18.29,6.39,47.18,10.15,65.7,3.07.54-.21,1.16-.26,1.77-.15,2.86.49,4.6-.65,5.2-3.43" vector-effect="non-scaling-stroke"/>
    <path class="cls-14" d="M1052.5,248.57c-2.08.67-3.26,1.94-3.54,3.82-1.9,13.32-10.13,30.1-15.84,42.4" vector-effect="non-scaling-stroke"/>
    <path class="cls-9" d="M1033.12,294.79c-2.1.97-3.68.59-4.75-1.13-.31-.5-.85-.77-1.37-.68-7.63,1.34-12.54,5.59-19.68,6.05-8.68.57-24.09.96-32.11,6.05-1.21.77-2.89,1.13-5.05,1.09-.58,0-1.1.32-1.36.83-1.04,2.12-1.61,1.84-1.71-.85-.01-.43-.41-.84-.96-.98l-3.64-.94c-.57-.15-1.12-.15-1.66,0-.77.2-.68-.75.24-2.84" vector-effect="non-scaling-stroke"/>
    <path class="cls-14" d="M1050.94,334.73c-1.26-1.63-2.61-1.98-4.05-1.05-4.54,2.94-6.2,2.05-10.98,2.75-9.28,1.34-18.57,2.59-27.88,3.73-.59.07-1.13.38-1.49.85-19.8,25.54-48.25,43.04-80.99,42.59-3.3-.05-3.54.78-.72,2.49,2.08,1.27,3.49,3.75,4.22,7.44" vector-effect="non-scaling-stroke"/>
    <path class="cls-12" d="M938.47,323.83c-1.91,4.22-1.25,5.88,1.98,4.97,3.26-.92,5.14-.3,8.08-.58,1.02-.1,1.22-.55.6-1.36-1.62-2.15-1.22-2.94,1.21-2.39,7.03,1.6,11.21-1.9,16.57-2.58,7.87-1.02,15.56.08,22.88-1.45,7.89-1.66,19.59-6.42,27.22-6.12.66.02,1.27-.11,1.73-.4,1.52-.92,2.74-2.14,3.67-3.67.27-.42.8-.64,1.36-.55,3.99.64,8.1-11.81,9.34-14.92" vector-effect="non-scaling-stroke"/>
    <path class="cls-18" d="M919.24,207.64c-4.87-7.32-11.84-10.99-20.91-11.02-4.27-.03-9.22,1.48-14.84,4.5-10.06,5.42-12,12.47-12.39,23.54-.24,6.78,2.09,12.43,6.99,16.95,11.73,10.84,24.03,11.9,36.9,3.18,1.29-.87,2.37-1.95,3.22-3.26,7.21-11.07,8.36-21.65,3.47-31.72-.24-.49-.58-.85-1.02-1.09-.72-.4-1.19-.77-1.41-1.09" vector-effect="non-scaling-stroke"/>
  </g>
  <path class="cls-51" d="M934.16,192.53c-2.57,1.07-5.06.6-7.46-1.41-13.82-11.63-29.52-14.3-47.09-8-2.47.88-4.72,3.08-6.72,6.59-.25.42-.71.83-1.32,1.19-.67.39-1,.91-1,1.56.01.68-.14,1.26-.41,1.58-3.65,4.26-4.12,9.19-9.3,13.09,9.88-27.7,23.17-53.65,39.87-77.84.21-.3.62-.37.91-.17.07.05.12.1.17.17,13.11,19.89,23.9,40.97,32.36,63.25Z"/>
  <path class="cls-53" d="M934.16,192.53c9.4,23.34,13.37,49.95-6.87,68.39-13.73,12.53-37.09,13.22-52.06,2.37-17.67-12.81-22.23-35.92-14.37-56.17,5.18-3.9,5.65-8.83,9.3-13.09.28-.32.43-.9.41-1.58,0-.65.33-1.17,1-1.56.61-.36,1.07-.77,1.32-1.19,2.01-3.52,4.25-5.71,6.72-6.59,17.57-6.29,33.26-3.62,47.09,8,2.4,2.01,4.88,2.48,7.46,1.41ZM919.24,207.64c-4.87-7.32-11.84-10.99-20.91-11.02-4.27-.03-9.22,1.48-14.84,4.5-10.06,5.42-12,12.47-12.39,23.54-.24,6.78,2.09,12.43,6.99,16.95,11.73,10.84,24.03,11.9,36.9,3.18,1.29-.87,2.37-1.95,3.22-3.26,7.21-11.07,8.36-21.65,3.47-31.72-.24-.49-.58-.85-1.02-1.09-.72-.4-1.19-.77-1.41-1.09Z"/>
  <path class="cls-42" d="M790.62,210.82c-2.55-.3-4.1.63-4.65,2.79-.15.59-.45,1.13-.89,1.56-1.48,1.51-1.7,3.22-.66,5.14-26.32-16.02-52.39-28.86-78.2-38.5-.72-.26-1.2-.59-1.45-.98-.43-.65-.18-.9.73-.73,30.14,5.39,58.51,15.63,85.11,30.72Z"/>
  <path class="cls-42" d="M1004.47,234.44c-4.18-2.64-4.18-6.71-7.68-9.42,31.93-19.74,66.51-32.31,103.72-37.71,2.69-.39,3.01-.22.96.51-34.02,12.03-66.35,27.57-97,46.62Z"/>
  <path class="cls-63" d="M920.65,208.73c.44.24.78.6,1.02,1.09,4.9,10.07,3.74,20.64-3.47,31.72-.85,1.31-1.93,2.39-3.22,3.26-12.87,8.71-25.17,7.65-36.9-3.18-4.9-4.52-7.23-10.17-6.99-16.95.4-11.07,2.34-18.12,12.39-23.54,5.63-3.03,10.57-4.53,14.84-4.5,9.07.03,16.03,3.7,20.91,11.02.23.33.7.69,1.41,1.09Z"/>
  <path class="cls-60" d="M790.62,210.82c12.66,6.86,24.77,14.57,36.33,23.15-1.08,2.9-1.46,5.88-1.15,8.93.07.63-.14,1.23-.57,1.58l-1.26,1.05c-.35.27-.9.19-1.3-.19-.57-.54-1.21-.54-1.92,0l-36.33-25.03c-1.04-1.92-.82-3.64.66-5.14.43-.43.74-.97.89-1.56.55-2.16,2.1-3.09,4.65-2.79Z"/>
  <path class="cls-60" d="M996.79,225.02c3.5,2.71,3.5,6.78,7.68,9.42-17.44,11.29-33.97,23.9-49.57,37.82-2.05-3.11-1.64-6.24,1.21-9.38,3.11-3.44,3.18-6.96.19-10.55,12.86-10.06,26.36-19.16,40.49-27.31Z"/>
  <path class="cls-50" d="M826.95,233.97c25.95,18.31,49.32,39.47,70.08,63.49-6.06,3.52-11.09,1.58-18.72-.04-1.37-.29-1.98.26-1.83,1.66.04.29.32.83.85,1.62.4.6.24,1.12-.47,1.54-16.25-21.37-34.95-40.34-56.11-56.9.72-.54,1.36-.54,1.92,0,.4.38.95.46,1.3.19l1.26-1.05c.42-.35.64-.95.57-1.58-.31-3.05.07-6.03,1.15-8.93Z"/>
  <path class="cls-39" d="M756.32,243.39c-1.86.74-2.24,1.88-1.13,3.41,6,8.3,12,16.61,18.01,24.92l13.11,19.7,2.98,5.18c-.43,7.7-7.48,5.91-12.17,8.78-2.96,1.81-4.82,2.84-5.56,3.11-5.35,1.92-14.47,4.56-16.86,10.15-.66,1.57-2.31,2.49-3.99,2.22-4.02-.64-6,1.04-5.93,5.05,0,.28.19.85.57,1.73.26.65,0,1.14-.79,1.45-4.68-29.18-2.49-57.8,6.57-85.87.19-.58.69-.97,1.24-1,1.41-.05,2.72.34,3.96,1.17Z"/>
  <path class="cls-49" d="M756.32,243.39c18.21,5.4,34.98,13.69,50.31,24.88-2.17.74-3.67.31-4.48-1.28-.16-.3-.46-.48-.67-.39-.03.01-.06.03-.08.05l-.49.4c-.6.52-1.14.87-1.34.87l-24.03.89c-.7.02-1.3.26-1.62.64-.51.62-.75,1.37-.72,2.28-6-8.31-12-16.62-18.01-24.92-1.1-1.53-.73-2.67,1.13-3.41Z"/>
  <path class="cls-57" d="M1052.5,248.57c-2.08.67-3.26,1.94-3.54,3.82-1.9,13.32-10.13,30.1-15.84,42.4-2.1.97-3.68.59-4.75-1.13-.31-.5-.85-.77-1.37-.68-7.63,1.34-12.54,5.59-19.68,6.05-8.68.57-24.09.96-32.11,6.05-1.21.77-2.89,1.13-5.05,1.09-.58,0-1.1.32-1.36.83-1.04,2.12-1.61,1.84-1.71-.85-.01-.43-.41-.84-.96-.98l-3.64-.94c-.57-.15-1.12-.15-1.66,0-.77.2-.68-.75.24-2.84,24.41-23.39,55.66-48.82,88.52-57.05,2.79-.7,3.75.71,2.9,4.24Z"/>
  <path class="cls-64" d="M1052.5,248.57c6.17,28.86,5.64,57.58-1.56,86.17-1.26-1.63-2.61-1.98-4.05-1.05-4.54,2.94-6.2,2.05-10.98,2.75-9.28,1.34-18.57,2.59-27.88,3.73-.59.07-1.13.38-1.49.85-19.8,25.54-48.25,43.04-80.99,42.59-3.3-.05-3.54.78-.72,2.49,2.08,1.27,3.49,3.75,4.22,7.44-10.42-8.11-19.01-17.82-25.77-29.12-.29-.5-.25-1.12.11-1.54,11.05-13.57,22.74-26.58,35.07-39.03-1.91,4.22-1.25,5.88,1.98,4.97,3.26-.92,5.14-.3,8.08-.58,1.02-.1,1.22-.55.6-1.36-1.62-2.15-1.22-2.94,1.21-2.39,7.03,1.6,11.21-1.9,16.57-2.58,7.87-1.02,15.56.08,22.88-1.45,7.89-1.66,19.59-6.42,27.22-6.12.66.02,1.27-.11,1.73-.4,1.52-.92,2.74-2.14,3.67-3.67.27-.42.8-.64,1.36-.55,3.99.64,8.1-11.81,9.34-14.92,5.71-12.3,13.94-29.08,15.84-42.4.28-1.88,1.46-3.16,3.54-3.82Z"/>
  <path class="cls-38" d="M956.29,252.33c2.99,3.59,2.93,7.11-.19,10.55-2.85,3.14-3.25,6.27-1.21,9.38-9.96,9.62-19.32,19.71-28.08,30.29-5.45-.65-9.88-.13-13.3,1.58-2.76,1.38-5.27,2.03-7.53,1.96-.61-.02-1.21.13-1.71.43-5.69,3.52-15.54.55-22.88,1.83l-4.52-6.1c.72-.43.87-.94.47-1.54-.53-.79-.81-1.33-.85-1.62-.15-1.39.46-1.95,1.83-1.66,7.63,1.62,12.66,3.56,18.72.04l2.66,2.52c1.2,1.14,2.96,1.24,3.92.22,0,0,0,0,.01-.01,16.64-17.72,34.19-33.67,52.66-47.86Z"/>
  <path class="cls-59" d="M806.63,268.27c7.84,5.05,15.24,11.21,22.23,18.48-13.59,2.26-27.27,2.9-41.06,1.92-.64-.05-1.18.32-1.24.83l-.24,1.92-13.11-19.7c-.04-.9.2-1.66.72-2.28.32-.38.92-.62,1.62-.64l24.03-.89c.2,0,.73-.34,1.34-.87l.49-.4c.17-.15.48-.06.68.22.03.04.05.08.08.12.82,1.59,2.31,2.02,4.48,1.28Z"/>
  <path class="cls-61" d="M828.85,286.74c7.23,6,13.95,13.03,20.15,21.08-4.14-4.01-6.78-1.77-10.74-1.86-12.54-.25-25.09-.3-37.65-.13-1.29.01-1.98.7-2.07,2.07l-2.67-2.35-6.59-8.95-2.98-5.18.24-1.92c.06-.51.61-.88,1.24-.83,13.79.98,27.47.34,41.06-1.92Z"/>
  <path class="cls-58" d="M1033.12,294.79c-1.24,3.11-5.35,15.56-9.34,14.92-.56-.09-1.09.12-1.36.55-.93,1.53-2.15,2.76-3.67,3.67-.47.28-1.07.42-1.73.4-7.63-.3-19.32,4.46-27.22,6.12-7.33,1.53-15.01.43-22.88,1.45-5.37.68-9.55,4.18-16.57,2.58-2.42-.55-2.83.24-1.21,2.39.62.8.41,1.26-.6,1.36-2.94.28-4.82-.34-8.08.58-3.23.9-3.89-.75-1.98-4.97l22.6-22.45c-.93,2.1-1.01,3.04-.24,2.84.54-.15,1.09-.15,1.66,0l3.64.94c.56.14.95.54.96.98.1,2.69.67,2.97,1.71.85.26-.51.78-.83,1.36-.83,2.16.04,3.84-.33,5.05-1.09,8.02-5.09,23.43-5.48,32.11-6.05,7.14-.45,12.05-4.71,19.68-6.05.52-.09,1.07.18,1.37.68,1.07,1.72,2.65,2.1,4.75,1.13Z"/>
  <path class="cls-41" d="M789.28,296.59l6.59,8.95c4.11,11.92,15.5,27.63,21.79,35.99-4.66,6.2-10.57,9.86-17.74,10.98-7.31,1.11-8.27,6.72-15.31,6.84-.45,0-.84.39-.94.92-.6,3.13-13.96,3.54-17.22,9.3-.27.48-.75.84-1.34,1-2.31.63-3.41,2.34-3.3,5.12-8.76-14.41-14.52-29.95-17.27-46.62.79-.31,1.05-.8.79-1.45-.38-.88-.57-1.46-.57-1.73-.06-4.01,1.91-5.69,5.93-5.05,1.68.26,3.33-.65,3.99-2.22,2.39-5.59,11.51-8.23,16.86-10.15.74-.26,2.59-1.3,5.56-3.11,4.69-2.86,11.73-1.07,12.17-8.78Z"/>
  <path class="cls-59" d="M926.81,302.55c-9.82,12.57-18.15,26.25-24.99,41.04-.44.97-.88.96-1.32-.02-5.74-12.64-12.11-24.38-19.12-35.22,7.35-1.28,17.2,1.7,22.88-1.83.5-.31,1.1-.46,1.71-.43,2.26.08,4.77-.58,7.53-1.96,3.42-1.71,7.85-2.24,13.3-1.58Z"/>
  <path class="cls-52" d="M849.01,307.82c19.42,22.24,36.54,47.05,54.43,70.93-15.55-4.12-30.21-10.47-44-19.06-23.24-13.82-43.54-31.09-60.89-51.8.09-1.37.78-2.06,2.07-2.07,12.56-.16,25.11-.12,37.65.13,3.96.09,6.59-2.15,10.74,1.86Z"/>
  <path class="cls-54" d="M795.87,305.54l2.67,2.35c17.35,20.71,37.65,37.97,60.89,51.8-.24,1.41.21,2.19,1.34,2.35.77.11,1.38.31,1.68.57,7.93,6.55-21.15,4.77-24.56,4.07-7.53-7.79-14.28-16.17-20.23-25.14-6.29-8.36-17.69-24.07-21.79-35.99Z"/>
  <path class="cls-57" d="M1050.94,334.73c-6.81,28.32-20.08,53.78-39.84,76.39-2.91,3.34-6.26,5.21-10.04,5.61-27.64,2.94-51.64-4.8-72.01-23.22-.73-3.69-2.13-6.17-4.22-7.44-2.83-1.71-2.59-2.54.72-2.49,32.74.45,61.19-17.05,80.99-42.59.36-.47.9-.78,1.49-.85,9.3-1.14,18.6-2.39,27.88-3.73,4.78-.7,6.44.19,10.98-2.75,1.44-.93,2.79-.58,4.05,1.05Z"/>
  <path class="cls-59" d="M817.67,341.53c5.95,8.98,12.69,17.36,20.23,25.14,2.4,1.13,3.99,3.16,4.77,6.1-11.69,5.88-23.34,11.61-34.96,17.2-2.34,1.12-4.66,2.24-6.99,3.35-5.73,2.73-12,4.26-17.23,9.68-8.39-8.17-15.61-17.28-21.66-27.31-.11-2.79.99-4.5,3.3-5.12.59-.16,1.07-.52,1.34-1,3.26-5.76,16.61-6.18,17.22-9.3.1-.53.49-.92.94-.92,7.04-.11,8-5.73,15.31-6.84,7.17-1.12,13.08-4.78,17.74-10.98Z"/>
  <path class="cls-55" d="M859.44,359.69c13.79,8.59,28.45,14.94,44,19.06l16.67,16.65c-1.91.67-3.82.73-5.74.21-.55-.15-1.13.07-1.43.55-3.5,5.52-15.65,9.7-21.45,12.02-1.55.62-3.27.63-4.82.04-5.96-2.31-11.29-5.48-15.99-9.51l-17.59-15.43-10.42-10.49c-.78-2.94-2.37-4.97-4.77-6.1,3.41.7,32.49,2.49,24.56-4.07-.3-.25-.91-.46-1.68-.57-1.13-.16-1.58-.95-1.34-2.35Z"/>
  <path class="cls-62" d="M842.66,372.78l10.42,10.49c-12.19,5.45-24.29,11.13-36.29,17.05-3.99,1.96-10.43,3.88-15.09,7.72-.44.38-.99.62-1.64.73-2.69.48-4.11,2.19-4.26,5.14l-12.32-10.91c5.24-5.42,11.51-6.95,17.23-9.68,2.32-1.12,4.65-2.24,6.99-3.35,11.61-5.59,23.27-11.32,34.96-17.2Z"/>
  <path class="cls-61" d="M853.08,383.27l17.59,15.43c-2.56.16-4.49,1.29-5.78,3.39-.31.48-.83.78-1.39.79-1.49.04-2.91.36-4.24.96-12.28,5.64-24.44,11.51-36.48,17.63-2.98,1.51-6.93.92-7.27,6.03-6.96-3.96-13.52-8.48-19.7-13.58.15-2.95,1.57-4.66,4.26-5.14.65-.11,1.2-.36,1.64-.73,4.65-3.84,11.09-5.76,15.09-7.72,12-5.91,24.1-11.6,36.29-17.05Z"/>
  <path class="cls-40" d="M920.11,395.4l16.48,12.24c-.99.62-1.76.6-2.3-.06-.33-.38-.82-.51-1.09-.28,0,0-.01.01-.02.02-.21.2-.36.45-.45.73-.18.66-.52,1.15-.9,1.32-5.98,2.52-11.29,5.56-15.93,9.12-2.75,2.11-2.49,3.74.77,4.88,18.29,6.39,47.18,10.15,65.7,3.07.54-.21,1.16-.26,1.77-.15,2.86.49,4.6-.65,5.2-3.43,2.94-.55,5.75-.34,8.44.64.28.11.42.43.31.72-.03.09-.09.16-.16.23-30.32,26.01-76.45,34.86-114.53,28.48-23.53-3.94-46.16-12.42-67.88-25.43.34-5.1,4.29-4.52,7.27-6.03,12.04-6.12,24.2-11.99,36.48-17.63,1.33-.6,2.74-.92,4.24-.96.56-.01,1.09-.31,1.39-.79,1.29-2.1,3.22-3.23,5.78-3.39,4.7,4.03,10.03,7.2,15.99,9.51,1.55.59,3.27.58,4.82-.04,5.8-2.32,17.95-6.5,21.45-12.02.3-.48.89-.7,1.43-.55,1.92.53,3.84.46,5.74-.21Z"/>
  <path class="cls-52" d="M936.59,407.64c16.16,9.82,33.74,14.89,52.74,15.22-.6,2.77-2.34,3.92-5.2,3.43-.62-.11-1.23-.06-1.77.15-18.51,7.08-47.41,3.31-65.7-3.07-3.26-1.14-3.52-2.77-.77-4.88,4.65-3.55,9.96-6.59,15.93-9.12.39-.16.73-.66.9-1.32.09-.29.24-.53.45-.73.26-.24.74-.14,1.09.24,0,0,.02.02.02.03.54.65,1.31.67,2.3.06Z"/>
  <path class="cls-56" d="M632.29,600.31h-45.2c-33.04-.57-46.5-22.62-48.39-52.85v-4.24c3.3-64.43,44.66-58.29,93.14-57.8.58.01,1.04.48,1.04,1.05v17.74c0,.54-.44.98-.98.98h0c-13.41,0-46.65-3.41-56.37,5.52-13.11,12.07-15.67,58.9,2.6,67.35,2.81,1.31,7.4,2.05,13.77,2.22,12.59.34,25.66.41,39.2.21.9,0,1.65.66,1.66,1.49,0,.02,0,.05,0,.07l-.45,18.25Z"/>
  <path class="cls-56" d="M737.3,600.31h-45.2c-24.64-.38-39.98-11.83-46.03-34.37-4.84-18.01-3.07-44.05,6.55-59.59,8.07-13.05,21.11-19.87,39.12-20.47,14.87-.5,29.74-.62,44.62-.36.55.01,1,.42,1.07.96.87,5.99.8,11.97-.21,17.93-.09.53-.55.92-1.11.94-17.67.6-29.16.71-34.49.32-18.42-1.36-28.64,7.07-30.64,25.28-.07.72.45,1.37,1.16,1.44.05,0,.09,0,.14,0l64.08-.24c.53,0,.99.4,1.05.94.79,6.05.8,12.1.02,18.14-.08.54-.53.95-1.07.94l-64.42.11c-.69,0-1.24.56-1.24,1.24,0,.02,0,.04,0,.06.58,14.6,5.54,24.94,21.45,26.54,14.39,1.43,28.12.09,44.45.73.53.02.97.44,1.02.98.59,6.18.48,12.34-.32,18.48Z"/>
  <path class="cls-56" d="M859.63,600.31h-27.69l-47.58-83.76c-1.44-2.55-2.15-2.35-2.11.58l.98,83.17h-24.28l-.36-113.24c0-.92.74-1.66,1.66-1.66h27.82c.66,0,1.27.35,1.58.92l45.11,79.26c1.03,1.81,1.53,1.67,1.51-.41l-.92-78.54c-.01-.67.53-1.21,1.21-1.22,0,0,.01,0,.02,0h22c.7,0,1.26.56,1.26,1.24h0l-.21,113.65Z"/>
  <path class="cls-56" d="M908.05,600.31h-24.79l.11-113.63c0-.7.56-1.26,1.26-1.26h22.64c.58,0,1.05.46,1.05,1.04h0l-.28,113.86Z"/>
  <path class="cls-56" d="M1030.65,600.31l-56.45-.21c-42.13.41-54.04-37.2-47.67-72.14,5.37-29.4,22.04-41.74,51.48-42.47,17.32-.43,34.63-.35,51.95.24.56.02,1.01.46,1,.98l-.09,17.54c0,.52-.46.93-1.02.92,0,0,0,0,0,0-24.03-.26-59.46-3.07-68.39,6.01-12.07,12.3-13.96,54.17,1.77,64.55,9.53,6.29,29.46,3.86,41.44,3.86.86,0,1.56-.68,1.56-1.53l-.24-24.49c-.01-.53-.44-.95-.98-.96l-29.93-.68c-.56-.01-1.02-.45-1.02-.98l.02-17.63c0-.53.45-.96,1-.96h0l54.19-.32c1.07,0,1.94.86,1.94,1.92,0,0,0,.01,0,.02l-.55,66.32Z"/>
  <path class="cls-56" d="M1273.26,598.54v1.77h-26.01l-10.51-26.18c-.27-.68-.89-1.13-1.56-1.13l-47.99.11c-.53,0-1.03.35-1.24.89l-10.27,26.31h-44.26l-10.47-26.33c-.2-.52-.73-.87-1.32-.87h-47.77c-.56,0-1.06.35-1.26.89l-10.28,26.31-24.88-.17,47.84-113.63c.27-.66.92-1.09,1.64-1.09h23.51c.54,0,1.02.32,1.22.81l43.81,103.18c.64,1.51,1.29,1.5,1.94-.02l43.45-102.76c.23-.55.74-.91,1.3-.9l22.43-.24c1.34,0,2.58.85,3.15,2.18l47.54,110.88ZM1079.23,551.52c-.12.33.04.7.37.83.07.03.15.04.23.04l32.11-.23c.35,0,.64-.29.63-.65,0-.08-.02-.16-.05-.24l-16.35-41.36c-.14-.33-.51-.48-.84-.34-.16.07-.28.2-.35.36l-15.76,41.59ZM1194.46,551.56c-.11.29.03.62.32.73.07.03.14.04.21.04l32.34-.11c.31,0,.57-.25.57-.56,0-.07-.01-.14-.04-.21l-16.31-41.81c-.11-.29-.44-.44-.73-.32-.15.06-.27.18-.32.32l-16.03,41.93Z"/>
  <g>
    <line class="cls-23" x1="1066.81" y1="318" x2="1067.31" y2="318"/>
    <path class="cls-32" d="M1077.34,318h108.99c3.8,0,23.85.36,39.99,16.5,15.47,15.47,16.4,34.45,16.5,38.5v58c.69,4.95,3.56,21.03,17.5,34.5,15.03,14.51,32.77,16.2,37.5,16.5h111.57"/>
    <path class="cls-23" d="M1414.39,482h.5"/>
  </g>
  <path class="cls-29" d="M726.81,350h-185c-4.58-.18-22.71-1.42-38-16-17.04-16.24-17.91-37-18-41V99c.15-3.51.64-23.55-15-40-15.97-16.8-36.55-17.02-40-17h-185.53"/>
  <polyline class="cls-13" points="594.81 629 594.81 716.43 594.81 720.29"/>
  <text class="cls-46" transform="translate(15.69 57.84)"><tspan x="0" y="0">Verde</tspan></text>
  <text class="cls-45" transform="translate(6.81 116.36)"><tspan x="0" y="0">El color verde está asociado </tspan><tspan x="0" y="28.8">con la naturaleza, la salud, la </tspan><tspan x="0" y="57.6">paz y el equilibrio. Es </tspan><tspan x="0" y="86.4">considerado el color más </tspan><tspan x="0" y="115.2">relajante para el ojo humano </tspan><tspan x="0" y="144">debido a su capacidad para </tspan><tspan x="0" y="172.8">transmitir estabilidad, </tspan><tspan x="0" y="201.6">resistencia y curación. El </tspan><tspan x="0" y="230.4">verder sugiere renovación y </tspan><tspan x="0" y="259.2">crecimiento, por lo que es </tspan><tspan x="0" y="288">usado para indicar equilibrio </tspan><tspan x="0" y="316.8">en mensajes, o promocionar </tspan><tspan x="0" y="345.6">productos y servicios que </tspan><tspan x="0" y="374.4">generan un impacto positivo </tspan><tspan x="0" y="403.2">en el medio ambiente. En el </tspan><tspan x="0" y="432">contexto del diseño, el </tspan><tspan x="0" y="460.8">verde, refuerza una </tspan><tspan x="0" y="489.6">sensación de armonía y </tspan><tspan x="0" y="518.4">restauración, simbolizando </tspan><tspan x="0" y="547.2">un enfoque orgánico y </tspan><tspan x="0" y="576">sostenible. </tspan></text>
  <text class="cls-47" transform="translate(533.33 777.49)"><tspan x="0" y="0">Azul</tspan></text>
  <text class="cls-48" transform="translate(535.48 826)"><tspan x="0" y="0">El azul representa </tspan><tspan x="0" y="28.8">inteligencia, confianza, </tspan><tspan x="0" y="57.6">seguridad y serenidad. Es un </tspan><tspan x="0" y="86.4">color que se asocia con la </tspan><tspan x="0" y="115.2">calma y la claridad mental, </tspan><tspan x="0" y="144">promoviendo la tranquilidad </tspan><tspan x="0" y="172.8">y la reflexión. El azul se </tspan><tspan x="0" y="201.6">relaciona con el agua y la </tspan><tspan x="0" y="230.4">pureza, lo que lo convierte </tspan><tspan x="0" y="259.2">en un color que inspira </tspan><tspan x="0" y="288">confianza y estabilidad. </tspan></text>
  <text class="cls-48" transform="translate(904.71 821.5)"><tspan x="0" y="0">También está vinculado a </tspan><tspan x="0" y="28.8">la ciencia y la tecnología, y </tspan><tspan x="0" y="57.6">se utiliza frecuentemente </tspan><tspan x="0" y="86.4">en contextos que </tspan><tspan x="0" y="115.2">requieren transmitir </tspan><tspan x="0" y="144">profesionalismo y </tspan><tspan x="0" y="172.8">fiabilidad. Su efecto </tspan><tspan x="0" y="201.6">calmante sobre el cuerpo y </tspan><tspan x="0" y="230.4">la mente lo convierte en </tspan><tspan x="0" y="259.2">uno de los colores más </tspan><tspan x="0" y="288">completos y versátiles.</tspan></text>
  <text class="cls-43" transform="translate(1442.51 497.56)"><tspan x="0" y="0">Marrón</tspan></text>
  <text class="cls-44" transform="translate(1436.69 571.23)"><tspan x="0" y="0">El color marrón simboliza </tspan><tspan x="0" y="28.8">sencillez, lealtad y </tspan><tspan x="0" y="57.6">confianza, evocando una </tspan><tspan x="0" y="86.4">sensación de fiabilidad y </tspan><tspan x="0" y="115.2">calidez. Es un color </tspan><tspan x="0" y="144">asociado con la tierra, lo </tspan><tspan x="0" y="172.8">que le confiere una </tspan><tspan x="0" y="201.6">cualidad natural y </tspan><tspan x="0" y="230.4">acogedora. En su lado </tspan><tspan x="0" y="259.2">positivo, el marrón </tspan><tspan x="0" y="288">transmite solidez y </tspan><tspan x="0" y="316.8">estabilidad, brindando una </tspan><tspan x="0" y="345.6">sensación de seguridad y </tspan><tspan x="0" y="374.4">confort. Es un color que </tspan><tspan x="0" y="403.2">rara vez se percibe como </tspan><tspan x="0" y="432">agresivo, sino más bien </tspan><tspan x="0" y="460.8">como amigable y accesible, </tspan><tspan x="0" y="489.6">lo que lo hace ideal para </tspan><tspan x="0" y="518.4">reflejar honestidad y una </tspan><tspan x="0" y="547.2">fuerte conexión con lo </tspan><tspan x="0" y="576">práctico y lo tradicional.</tspan></text>
</svg>