<?xml version="1.0" encoding="utf-8"?>
<!-- Generator: Adobe Illustrator 26.0.0, SVG Export Plug-In . SVG Version: 6.00 Build 0)  -->
<svg version="1.1" id="Capa_1" xmlns="http://www.w3.org/2000/svg" xmlns:xlink="http://www.w3.org/1999/xlink" x="0px" y="0px"
	 viewBox="0 0 850 560" style="enable-background:new 0 0 850 560;" xml:space="preserve">
<style type="text/css">
	.st0{fill:#F70AF2;}
	.st1{fill:#8EEADA;}
	.st2{fill:#7A02AC;}
	.st3{fill:#1ED0C1;}
	.st4{fill:#0AD9C0;}
	.st5{fill:#2FCDCE;}
	.st6{fill:#E199E1;}
	.st7{fill:#8C0CB0;}
	.st8{fill:#CA61C7;}
	.st9{fill:#B2D8E0;}
	.st10{fill:#AF21B3;}
	.st11{fill:#E86EE5;}
	.st12{fill:#9ED5E4;}
	.st13{fill:#E2B2ED;}
	.st14{fill:#FE94FA;}
	.st15{fill:#F118EE;}
	.st16{fill:#3AD8C6;}
	.st17{fill:#7D04B4;}
	.st18{fill:#7B05B0;}
	.st19{fill:#06BBA5;}
	.st20{fill:#26CDB8;}
</style>
<path class="st0" d="M521.7,36.8c-26.4-6.8-53.7-9.6-82-8.8c-31.7,0.9-62.1,6.2-91.1,15.8c-1.8,0.6-3,2-5,0.2
	c24.7-34.7,59-49.1,101.2-39.2C472.2,11.1,497.8,21.7,521.7,36.8z"/>
<ellipse transform="matrix(0.314 -0.9494 0.9494 0.314 108.4719 190.3082)" class="st1" cx="185.9" cy="20.1" rx="1" ry="0.9"/>
<path class="st2" d="M521.7,36.8l7.9,4c14.8,9.8,28.7,20.7,41.6,32.6c11.9,10.9,22.6,22.9,32.2,36c1.3,1.5,2.2,3.1,2.6,5
	c3.4,14.3,4.9,29,4.6,43.8c-0.3,12.4-2.1,25.6-5.2,39.6c-6.4,29.3-14.8,56.7-25,82.3c-0.3,0.7,0,1.3,0.9,1.6l-3.8,4.4l-15.3,12.3
	c-36,27.9-74.6,52.5-117.1,69.2h-1c-0.8-0.2-0.8-0.7,0-1.5c0.6-0.9,1.5-1.6,2.6-2.2c0.5-0.2,0.7-0.5,0.7-0.8l0.2-1.7
	c1.6-1.8,2.9-4,3.7-6.3c0.8-1.1,1.6-2.3,2.1-3.6c1.8-4.1,4-5.4,3.2-10.9c-0.1-0.5,0-0.9,0.2-1.5l6.3-15.4c3.1-4.1,5.9-8.7,8.3-13.7
	c0.2-0.5,0.1-0.7-0.5-0.6c-4.2,0.6-8.4,1.8-12.5,3.8c-1.6,0.7-2.4,1.7-2.5,3l-0.5,6.2c-0.6,4.5-5.5,10.6-8.3,13.2
	c-4.9,2.2-8.3,5.9-9.9,10.9c-0.1,0.3-0.3,0.6-0.7,0.8c-0.9,0.6-2,1.6-3,3.1c-3.1,4.2-5.4,7.6-6.8,10c-0.9,1.5-2.4,2.8-2.9,4.8
	c-0.8,3.7-1.6,6-2.4,9.1c-7.3,2.1-14.8,3.4-22.4,4.1l-1.1-0.1l-14.6-11.2c2.4-6.2,5.4-11.9,8.9-17.4c3-4.6,5-8,6-10.2
	c1.7-3.9,3.2-7.8,4.5-11.9c2.8-2.1,13.7-8.7,7.9-12.3c-2.3-1.5-5.5-2.3-9.6-2.6c-7.5-0.6-7.7,10.3-7.2,15.1
	c-2.2,3.4-4.2,6.9-6.2,10.4c-2.6,4.8-4.6,8.4-6,10.7c-2.1,3.6-4,7.1-6,10.8c-0.9-0.1-1.7-0.6-2.6-1.4c-17.9-15.8-32.5-35.6-45-56.2
	c-17.2-28.8-31.6-59.1-42.8-90.8c-0.5-1.3-0.6-2.6-0.3-4.1c3.6-22.9,8.4-45.6,14.3-67.9c8.1-28.6,19.6-57.6,35.3-83.2
	c1.8-2.8,6.3-7.8,4.4-8.4l4.4-3.7c2,1.8,3.1,0.5,5-0.2c29-9.6,59.4-14.9,91.1-15.8C468,27,495.3,30,521.7,36.8z M478.6,59.4
	c-3.7-1.8-7.5-2-11.4-0.1c-0.6,0.2-0.8,1-0.6,1.6l0,0c2.9,5.3,5.6,10.7,8.6,15.9c1.8,3.4,3.7,4.2,7.3,3.2c0.9-0.2,1.4-1,1.3-2
	l-2.8-15.5C480.9,61.2,480.1,60.1,478.6,59.4z M456.3,79.9c-1.1-5.5-16.3-18.6-21.8-19.5c-3.4-0.6-14.6,2.8-7.5,7.5
	c7.6,4.9,14,9.4,19.4,13.4c3.4,2.5,6.9,3.4,9.6-0.2C456.3,80.7,456.3,80.3,456.3,79.9z M501.4,67.9c-1.3,4.8-2,10-2.3,15.4
	c0,0.3,0.1,0.8,0.3,1c1.4,1.8,3.2,2.8,5.6,2.5c0.3,0,0.7-0.2,0.9-0.5c3.6-4.4,6-9.2,7.5-14.2c0.5-1.5,0-2.6-1.3-3.4
	c-2.2-1.4-4.8-2.3-7.9-2.8C502.7,65.7,501.8,66.4,501.4,67.9z M385,81.2c-1.3,2.2-1.1,4.4,0.5,6.4c4.8,6.4,2,10.8-2.4,16.9
	c-3.1,4.4-6.5,8.1-10.3,11.6c-1.6,1.5-3.4,2.5-5.4,3.3c-9.1,3.6-18,7.2-27,10.9c-3.3,1.4-7.9,4.7-7.3,8.7c0.5,3.1,3,2.8,5.5,2.1
	c10.9-3.6,21.8-7,32.7-10.7c8.6-2.8,12.4-9.1,18.8-18.2c2.9-4,5.7-8.1,8.6-12.2c4.4-6.3,8-10.1,2.2-16.3
	C396.4,79.2,389.8,73.1,385,81.2z M534.2,82c-4.9-2.9-7.5,6-8.5,9.2c-1.6,4.8-0.6,7.8,2,11.9c4.7,7.7,11,18.8,19.2,33.4
	c3.3,5.9,13.4,8.9,19.5,10.2c0.9,0.2,1.8-0.3,2.2-1.1c4.5-9.9-7.9-12.6-14.6-14.1c-1.8-0.5-3-1.4-3.6-2.8l-3.4-8.9
	c-0.2-0.7,0-1.4,0.7-1.8c2.8-2,5.7-3.4,9.2-4.5c1.4-0.3,2-1.3,2-2.6c-0.3-7.2-11.9-4.8-16.2-4c-1.4,0.2-2.6-0.1-3.6-1.1
	C530.5,96.6,544,87.6,534.2,82z M398.6,175.7c-0.5,1-1.1,2-2.2,2.8c-0.3,0.2-0.5,0.6-0.5,0.9l1.7,13.5c-8,6.5-17.3,14.6-27.7,24
	c-2.2,2-3.7,4.1-4.4,6.5c-6,1.8-10.3,5.4-12.7,11c-1.5,3.2-1.8,8.1-2.9,12c-1.5,5.6-2,11.4-1.1,17c0.6,4,2.1,11,6.4,11.9
	c0.2,0.1,0.5,0.3,0.5,0.6c0.1,3.2-2.6,8.3,2.9,8c1.4,0,2.2,0.6,2.5,1.8c0.3,1.4,1,2.5,2,3.4c0.2,0.2,0.6,0.3,1,0.3
	c0.5,0.1,0.7,0.3,0.5,0.7c-0.1,0.3-0.1,0.7,0.1,0.9c4.7,4.4,8.6,4.1,14.2,5.9c3,1,6.9,0.5,9.1,0.6c3.3,0.2,5.7,0.1,7.3-0.2
	c2.3-0.5,3.8-2.1,4.4-4.6c6.9-2.5,10.2-7.5,10.2-14.8c2.3-3.3,5.3-6.3,8.9-8.8c1.1-0.8,1.5-2.1,1.7-3.3c0-0.3,0.2-0.7,0.5-1
	c1-1.4,1.6-2.9,1.6-4.5c0.1-2.1,0.9-3.7,2.4-5c8.3-7.3,14.8-15.9,19.7-25.9c2.1-4.2,1.3-7.5-2.3-9.8c4.8-5,9.8-1.1,14.2,1.5
	c0.8,0.5,1,1.4,0.6,2.2c0,0,0,0.1-0.1,0.1c-14.5,21.1-28.9,42-43.6,62.6c-4.1,5.7-17.4,20.8-1.1,23.3c6.8,1,10.2-2.2,13.7-8
	c9.5-16.3,18.8-32.7,27.8-49.3c2.8-5.2,6.5-12.9,11.6-15.8c0.6-0.3,1.4-0.1,1.7,0.5c0.1,0.2,0.1,0.3,0.1,0.6
	c0.6,10.8-2.4,24.1-4.4,34.8c-1.5,8.5-4.2,19.7-6.1,29.7c-0.5,2.3,0.6,3.7,2.9,3.9c5.5,0.7,10.1-1,13.9-4.9c3.4-3.6,3-9.4,3.3-14.3
	c1.7-24.9,2.9-43.8,3.4-56.8c0.1-3.8,0.6-7.1,4.4-8.9c4.2-2.1,11.5-5.9,14.3,0.2c2.6,5.5,5,11,7.5,16.8c-2,1.5-2.2,3.2-0.8,5
	c0.2,0.3,0.5,0.7,0.5,1c0.2,2.2-0.5,3.8-1.8,4.9c-1,0.8-1.5,2-1.4,3.2c0.5,5.7,2.3,12.3,7.2,15c0.2,0.1,0.5,0.5,0.3,0.8
	c-0.1,0.6,0.1,0.7,0.6,0.7c0.8-0.1,1.5-0.1,2.3,0.1c8,2.4,14.7,1.3,20.1-3.6c0.7-0.6,1.1-1.4,1.5-2.2c3.1-8,6-12.4-0.6-19.8
	c-2.8-3.1-6.3-4.9-10.8-5.4c-3.6-8.7-6.9-17.4-10.1-26.2c-1-2.8-0.3-4.9,2.1-6.7c8.8-6.1,31.6-23.1,30.7-35.2
	c-1.4-21.8-9.1-44.9-24.9-60.5c-10.2-10.1-31.3-26.4-46.8-23.2c-22.7,4.8-41.4,28.5-51.7,47.3c-3.6,6.4-5.3,12.6,1.5,17.2
	c13.1,8.9,28.5,18.2,46.1,27.8c6.4,3.6,12.9,4.7,19.2,3.4c12.2-2.4,24.7-16.1,31.6-26.5c1.5-2.3,1.6-4.6,0.2-6.9
	c-5-8.9-24.8-33.7-37.1-28.8c-7,2.8-11.4,17.1-12.9,23.6c-0.5,2.1-0.9,3.3-1.4,4c-3.4,4.4-16.8-5.3-20.3-8.1
	c-0.3-0.2-0.5-0.6-0.6-0.9c-0.5-3.6,0.7-6.9,3.4-10c9.3-10.4,17.1-18.6,23.5-24.7c8.5-7.9,18.5,1.4,24.9,6.9
	c14.3,12.3,47.4,52.3,22.4,69.6c-9.3,6.4-21.6,12.5-36.6,18.2c-5.5,2.1-10.1,3.3-13.8,3.6c-0.3,0-0.8-0.1-1.1-0.2
	c-19-10.7-36.9-23.6-54.8-36c-8.4-5.7-17.9-14-15.6-24.8c0.6-2.8,2.9-7.2,6.8-13.7c6.8-11,14.8-21.1,24.2-30.1
	c1.3-1.3,2.5-2.5,3.7-4.1c0.9-1.3,0.7-2.2-0.7-2.9c-9.3-4.2-19.3,4.1-24.8,11c-11,13.5-21.1,28-27.9,44.6c-2.6,6.4-2.3,11.9,1,16.5
	C387.2,165.6,394,171.6,398.6,175.7z M375.2,102.6c-7.7-7.2-15.4-3.2-20,5.3c-0.5,0.9-0.2,1.3,0.8,1.1c5.7-0.5,14-0.6,18.8-3.6
	C376.1,104.7,376.3,103.8,375.2,102.6z M345.2,162.3c-5.4,2.6-23.8,10.7-14.8,18.9c0.2,0.2,0.7,0.3,1,0.2c2.1-0.5,4-1.3,5.7-2.3
	c9.6-5.7,19.3-11.5,29-17.1c2.5-1.5,10-6.2,5.3-9.3c-1.1-0.7-2.3-0.9-3.6-0.3C359.8,155.4,352.3,158.7,345.2,162.3z M553.5,164.9
	c-1.7,7.6,6.5,17.1,11.2,23.3c0.2,0.2,0.6,0.3,0.9,0.2c2.6-1,3.4-2.9,2.5-5.7c-2.4-7.7-6.9-13.8-13.5-18.2c-0.3-0.2-0.8-0.1-1,0.2
	C553.5,164.8,553.5,164.9,553.5,164.9z M332.4,207.3c-4,3.4-5.5,8.6-0.9,11.1c3.7,2.1,7.6,0.1,10.4-2.3c11.6-9.6,23.5-20.3,36-32.1
	c2.9-2.8,5.6-5.3,5.2-8.6c-0.3-2.5-1.8-3.4-4.2-2.8c-4.1,1.1-6.3,3-9.5,5.5C356.7,187.4,344.5,197.2,332.4,207.3z M544.9,186.7
	c-2.1,3.9,8.4,28.8,10.4,34.2c0.8,2.2,1.8,2.8,3.2,1.8c7.6-5.6-5.7-31.3-8.9-36.5C548,183.8,546.4,183.9,544.9,186.7z M467.6,196
	c-0.2,0.3-0.1,0.8,0.2,1C471.8,199.6,469,193.5,467.6,196z M529.7,204.3c-2.2,4-1,6.3,0,10.3c1.7,6.5,3.6,13,5.5,19.3
	c0.7,2.1,2,2.6,3.9,1.7c3.7-1.8,4.9-4.7,3.7-8.6c-2.3-7.7-5.3-15.1-8.7-22.4C532.8,201.5,531.3,201.4,529.7,204.3z M487.8,256.7
	c-2.1,5-2.9,10.3-2.4,15.8c0,0.6,0.6,1,1.1,0.9c0.1,0,0.3-0.1,0.5-0.1c5.6-3.3,14.2-12.5,5-18C490.1,254.2,488.7,254.7,487.8,256.7z
	"/>
<path class="st3" d="M529.7,40.8c33.3,9.8,63.1,34.8,73.8,68.5c-9.5-13.1-20.3-25-32.2-36C558.2,61.4,544.3,50.5,529.7,40.8z"/>
<path class="st4" d="M339.3,47.7c2,0.6-2.5,5.6-4.4,8.4l-1.7,0.1c-0.3,0-0.7,0.2-0.8,0.5c-1.4,3-3.9,5.3-5.3,7.8
	c-7,11.9-11.1,19.7-12.4,23.3c-4.7,13.3-9.4,26.6-14,39.9c0,0.1-0.7,1.4-1.8,3.9c-1.3,2.8-0.9,5.4,1,8
	c-6.1,22.4-10.9,45.1-14.3,67.9c-7.9-23.6-11.4-47.7-10.3-72.3C276.8,94.7,298.8,59.6,339.3,47.7z"/>
<path class="st5" d="M334.9,56.1c-15.7,25.6-27.2,54.6-35.1,83.5c-2-2.6-2.3-5.3-1-8c1.1-2.5,1.8-3.8,1.8-3.9
	c4.7-13.3,9.3-26.6,14-39.9c1.3-3.7,5.4-11.5,12.4-23.3c1.5-2.5,3.9-4.7,5.3-7.8c0.1-0.2,0.5-0.5,0.8-0.5L334.9,56.1z"/>
<path class="st6" d="M465.9,100.7c0.1-0.3,0.3-0.7,0.7-0.8c3.3-0.9,6.8-1,10.4-0.2c1.1,0.2,1.3,0.8,0.3,1.5
	c-5.7,4.4-9.9,8.9-14.7,14c-4.7,4.8-9.3,9.8-13.5,14.7c-0.9,1-1.5,0.9-1.7-0.3l-1-5.9c-0.1-0.9,0.6-1.8,1.6-2.1
	c5.6-1.1,10.8-3.7,8.3-10.7c-0.2-0.8,0.2-1.6,1-2c0.1,0,0.2,0,0.2-0.1l7.3-1.3c1.6-0.2,2.1-1.1,1.5-2.8
	C465.6,103.4,465.5,102.1,465.9,100.7z"/>
<path class="st0" d="M606.1,114.3c12.5,18.1,19.8,37.1,22,56.8c4.7,43.5-15.8,81.2-46.7,110.4c-0.9-0.3-1.3-0.8-0.9-1.6
	c10.2-25.6,18.6-53,25-82.3c3.1-14,4.8-27.2,5.2-39.6C611,143.4,609.5,128.8,606.1,114.3z"/>
<path class="st2" d="M492.8,136.9c0.3-0.5,1-0.6,1.5-0.2c0,0,0,0,0.1,0.1c4.8,4.2,8.1,9.2,10.1,15c0.6,1.7,0,3-1.5,3.8
	c-5.5,2.8-11,3.1-16.8,0.9c-2.8-1-3.4-2.8-2.1-5.3C486.7,146.2,489.6,141.5,492.8,136.9z"/>
<path class="st7" d="M398.6,175.7c8.5,7.2,17,14.3,25.7,21.3c5.2,4.1,6,5.9,1.3,10.9c-12.2,13.2-24.6,26.3-37.1,39.1
	c-2.1-0.2-3.3-0.8-5,0.3c-11.8,7.3-4.7,25.1,9.4,21.2c0.3-0.1,0.6-0.3,0.9-0.7c0.6-0.8,1.4-1.3,2.3-1.5c0.5-0.1,0.8-0.2,1-0.5
	c4.4-3.4,2.1-6.4,3.3-10.8l42.2-35.6c3.6,2.3,4.4,5.6,2.3,9.8c-4.9,9.9-11.5,18.6-19.7,25.9c-1.5,1.4-2.3,3-2.4,5
	c0,1.5-0.6,3-1.6,4.5c-0.2,0.3-0.3,0.7-0.5,1c-0.1,1.4-0.5,2.5-1.7,3.3c-3.7,2.5-6.7,5.5-8.9,8.8c-8.8-0.9-18.4,5.5-10.2,14.8
	c-0.6,2.5-2.1,4.1-4.4,4.6c-1.6,0.3-4,0.5-7.3,0.2c-2.1-0.1-6,0.5-9.1-0.6c-5.6-1.8-9.5-1.5-14.2-5.9c-0.2-0.2-0.2-0.6-0.1-0.9
	s0-0.6-0.5-0.7c-0.5-0.1-0.8-0.2-1-0.3c-0.9-0.9-1.6-2.1-2-3.4c-0.3-1.3-1.1-2-2.5-1.8c-5.6,0.2-2.9-4.8-2.9-8
	c0-0.3-0.2-0.6-0.5-0.6c-4.4-0.9-5.9-7.9-6.4-11.9c-0.8-5.7-0.5-11.4,1.1-17c1-3.9,1.4-8.8,2.9-12c2.5-5.5,6.8-9.2,12.7-11
	c1.6,7.8,9.3,6.1,13.4,2.2c7.1-6.7,14.7-14.3,22.7-23.2c1.8-2.1,3.1-4,3.7-5.7c0.1-0.3,0.1-0.7,0-1c-1.5-3.2-4-4.1-7.7-2.6
	l-1.7-13.5c0-0.3,0.1-0.7,0.5-0.9C397.5,177.7,398.2,176.8,398.6,175.7z"/>
<path class="st8" d="M467.6,196c1.4-2.5,4.4,3.4,0.2,1C467.5,196.9,467.4,196.5,467.6,196z"/>
<path class="st4" d="M227.7,210.1c19.5-2.1,50.4,7.7,37.9,34.4c-6.2,13.2-25.1,39.6-42.2,22.1C212.4,255.5,203.5,212.7,227.7,210.1z
	"/>
<path class="st0" d="M285.7,211.6c11.4,31.7,25.6,62,42.8,90.8c12.4,20.8,27.1,40.5,45,56.2c-2.5,6.7-5.7,13-9.4,19
	c-51.5-9.9-74.9-56.5-79.5-104.3C282.4,251.2,282.7,230.6,285.7,211.6z"/>
<path class="st9" d="M519.2,239.2c0-0.7-0.7-1.3-1.5-1.3c-6.8,0.3,2.6-12.7-5.6-11.6c-1.7,0.2-2.5-0.5-2.4-2.1l0.6-9.1
	c0.1-1.7,0.7-1.8,1.6-0.3c5,7.6,10.1,21.5,10.1,29.9c0,0.5-0.1,0.8-0.3,1c-0.6,0.6-1.1,0.7-1.8,0.2c-0.2-0.1-0.3-0.5-0.5-0.9
	L519.2,239.2z"/>
<path class="st6" d="M416.2,239.6c0.5-1.1,0.1-1.6-1.1-1.4c2.5-2.4,3.9-5.5,4.1-9.1c0.1-1.7,1-2.5,2.6-2.5
	c7.1-0.1,11.4,0.5,12.3-8.3c0.2-1.8,1-2.8,2.5-2.8l5,0.2c1,0,1.3,0.5,0.5,1.4c-3.6,4.1-7.7,6.8-11.5,10.6
	C426.4,232.1,421,235.8,416.2,239.6z"/>
<path class="st10" d="M506.8,237.6l2.8,6.7c-1.8,0.1-2.6,1.1-2.4,2.9c0.1,0.3,0,0.8,0,1c-4.4,14.1,8.5,24.8,21.7,18.1l2.9-3.2
	c0.9-1.1,1.8-2.3,2.6-3.6c0.2-0.3,1.6-3.2,0.1-2.1c-0.2,0.1-0.3,0.5-0.6,0.9c-0.2,0.6-0.7,0.9-1.3,1.1l-0.1-1.4
	c0-0.5,0.1-0.8,0.3-1.1c1.7-7.2-0.9-12.4-7.9-15.1l-1-4.2c4.5,0.5,8,2.3,10.8,5.4c6.4,7.5,3.7,11.7,0.6,19.8
	c-0.3,0.8-0.8,1.6-1.5,2.2c-5.3,4.8-11.9,6-20.1,3.6c-0.7-0.2-1.5-0.2-2.3-0.1c-0.5,0.1-0.7-0.1-0.6-0.7c0-0.3-0.1-0.7-0.3-0.8
	c-4.9-2.8-6.8-9.3-7.2-15c-0.1-1.4,0.3-2.4,1.4-3.2c1.4-1.1,2.1-2.8,1.8-4.9c0-0.3-0.2-0.7-0.5-1
	C504.6,240.9,504.9,239.2,506.8,237.6z"/>
<path class="st6" d="M415,238.1c1.3-0.1,1.6,0.3,1.1,1.4l-11,9.4c-0.8,0.7-1.3,0.5-1.4-0.6C402.1,236.8,410.3,242.3,415,238.1z"/>
<path class="st6" d="M525.1,241.9c7,2.9,9.6,7.9,7.9,15.1c0.2-1.3,0.2-2.6,0.2-4.1c-0.1-1.6-0.1-1.6-0.2,0c-0.3,4.1-2,7.2-4.8,9.4
	c1.1-1.1,1.8-2.4,2.2-3.8c-0.1-2-0.8,0.9-2.3,1.5c-2.9,1.1-6.9,4.1-9.4,0.9c2.9,1,5.3,0.8,7.1-0.6c7.1-5.6-6.7,3.9-0.6-1.6
	c1.6-1.4,3.2-2.3,2.8-4.6c-0.2-0.8-0.3-0.8-0.6,0c-0.8,3.4-2.8,5-5.6,4.8c-0.2,0-0.2,0,0-0.1c0.9-0.1,1.7-0.5,2.6-1.1l-5.2-0.7
	C526.9,254.7,528.9,249.6,525.1,241.9z M530.8,255.6c-0.2,0.5-0.3,0.8-0.2,1.3c0,0.5,0.1,0.5,0.3,0.1c0.9-1.5,1-3,0.7-4.7
	c-0.1-0.5-0.2-0.5-0.2,0l-0.2,2.2C531.1,254.9,531,255.2,530.8,255.6z"/>
<path class="st10" d="M509.7,244.2c0.3,0.5,0.6,0.9,0.6,1.4c-6.3,12.3,3.8,25,17,19.6l3.2-2.5c0.2-0.2,0.6-0.3,0.9-0.2
	c-1.6,2.1-3.6,3.4-6,4.2l-4.6,0.5c-0.7,0.1-0.7,0.1,0,0.2c2.8,0.2,5.5,0,8.1-0.8c-13.1,6.8-25.9-4-21.7-18.1c0.1-0.3,0.1-0.7,0-1
	C507.1,245.4,507.9,244.3,509.7,244.2z"/>
<path class="st8" d="M510.3,245.6c2.2,4.7,3.4,7.6,3.6,8.7c0.3,3.1,2,5.3,4.8,6.5c2.6,3.3,6.5,0.2,9.4-0.9c-0.3,0.8-0.9,1.5-1.7,2
	l-0.6,0.3l-5.5,0.9c-1,0.2-1,0.3,0,0.5c1.6,0.1,3.4-0.1,5.5-0.9l2.4-0.5c2.9-2.2,4.5-5.3,4.8-9.4c0.1-1.6,0.2-1.6,0.2,0
	c0.1,1.5,0,2.9-0.2,4.1c-0.2,0.3-0.5,0.7-0.3,1.1c-2.6,4.2-6.4,6.5-11.5,7.1c-7,0.6,6-0.2,6-0.2C514,270.5,504,257.9,510.3,245.6z"
	/>
<path class="st6" d="M388.6,247.1c-4,4.7-10.2,9.8,0.2,13.4c2,0.7,3.8,0.5,5.3-0.6l6.3-4.6c-1.3,4.4,1,7.3-3.3,10.8
	c-0.2,0.2-0.6,0.3-1,0.5c-0.9,0.2-1.7,0.7-2.3,1.5c-0.2,0.3-0.6,0.6-0.9,0.7c-14.1,3.9-21.2-13.9-9.4-21.2
	C385.3,246.3,386.6,246.9,388.6,247.1z"/>
<path class="st11" d="M531.1,254.4l0.2-2.2c0-0.6,0.1-0.6,0.2,0c0.5,1.6,0.2,3.2-0.7,4.7c-0.2,0.3-0.3,0.3-0.3-0.1s0.1-0.9,0.2-1.3
	C531,255.2,531.1,254.9,531.1,254.4z"/>
<path class="st9" d="M519.2,257l5.2,0.7C521.6,258.8,519.9,258.6,519.2,257z"/>
<path class="st10" d="M531.7,263.2c-1.8,1.8-4,3-6.5,3.4c2.4-0.8,4.5-2.2,6-4.2c1.1-0.6,1.6-1.4,1.5-2.6c0.6-0.2,1-0.7,1.3-1.1
	c0.2-0.5,0.3-0.8,0.6-0.9c1.5-1.3,0.2,1.6-0.1,2.1C533.6,260.9,532.6,262,531.7,263.2z"/>
<path class="st11" d="M530.3,258.6c-0.8,1.7-2.2,2.9-4,3.4c0.8-0.5,1.4-1,1.7-2C529.4,259.5,530.2,256.6,530.3,258.6z"/>
<path class="st8" d="M532.6,258.2l0.1,1.4c0.1,1.3-0.3,2.1-1.5,2.6c-0.3-0.1-0.6,0-0.9,0.2c-2.9,1.6-6,2.5-9.2,2.8
	C526.2,264.9,530,262.5,532.6,258.2z"/>
<path class="st11" d="M530.3,258.6c-0.3,1.4-1,2.6-2.2,3.8l-2.4,0.5v-0.5l0.6-0.3C528.2,261.4,529.4,260.3,530.3,258.6z"/>
<path class="st12" d="M475.3,276.5c-1.8-1.1-3-2.6-3.6-4.7c-0.1-0.3-0.1-0.8,0.1-1l4.1-8.1c0.1-0.3,0.5-0.6,0.9-0.6
	c1.3-0.1-0.2,12.3-0.3,13.9c0,0.5-0.3,0.8-0.8,0.8C475.5,276.6,475.4,276.5,475.3,276.5z"/>
<path class="st11" d="M525.8,262.3v0.5c-2.1,0.8-3.8,1-5.5,0.9c-1-0.1-1.1-0.2,0-0.5L525.8,262.3z"/>
<path class="st8" d="M530.3,262.6l-3.2,2.5c-0.1,0-13.1,0.8-6,0.2C524.4,265.1,527.5,264.2,530.3,262.6z"/>
<path class="st10" d="M531.7,263.2l-2.9,3.2c-2.6,0.8-5.4,1-8.1,0.8c-0.8-0.1-0.8-0.1,0-0.2l4.6-0.5
	C527.7,266.1,529.9,265,531.7,263.2z"/>
<path class="st4" d="M577.6,285.9c-21.7,54.8-71.3,121.6-139.4,108c1.7-3,3-6.2,4-9.4c1.5-4.9,3.8-10.2,4.5-15.5
	c0-0.3,0.2-0.7,0.5-0.9c1.1-0.9,2.3-1,3.4-0.5c0.9,0.5,2,0.6,2.9,0.1c8.3-4.1,16.6-7.3,24.3-11.5c3.7-2,7.5-3.9,11.1-5.7
	c11.7-6,22.9-12.6,33.6-20.1c12.3-8.5,25.5-16.1,37.1-26.5c2-1.7,3.7-2.1,2.8-5.5L577.6,285.9z"/>
<path class="st0" d="M604.7,370.3c-20-8.8-40.7-45.7-25.8-65.9c9.8-13.2,31.4-17,47.3-18.5c16.4-1.5,38,3,37.9,24.1
	c-0.1,17.9-13.8,36.6-26,49.1C629.4,368,617.2,375.8,604.7,370.3z"/>
<path class="st12" d="M425.9,289.9c1.6-1.7,3.7-2.5,6.1-2.8c0.5,0,0.6,0.1,0.3,0.5l-5.3,8.3c-0.7,1-1,0.9-1.1-0.2l-0.5-4.7
	C425.5,290.6,425.6,290.2,425.9,289.9z"/>
<path class="st5" d="M562.5,298.4c0.9,3.4-0.8,3.7-2.8,5.5c-11.6,10.3-24.8,17.9-37.1,26.5c-10.7,7.5-21.9,14.2-33.6,20.1
	c-3.8,2-7.5,3.8-11.1,5.7c-7.7,4-16.1,7.3-24.3,11.5c-0.9,0.5-2,0.5-2.9-0.1c-1-0.7-2.2-0.5-3.4,0.5c-0.2,0.2-0.5,0.6-0.5,0.9
	c-0.7,5.4-3,10.7-4.5,15.5c-0.9,3.2-2.3,6.4-4,9.4l-3.3-0.7c5.2-7.9,8.6-16.4,10.3-25.6C487.9,350.9,526.4,326.3,562.5,298.4z"/>
<path class="st6" d="M455.8,322.8l1.5,4c0.6,1.7,1.6,2,2.9,0.6l3.2-3.4l-6.3,15.4c-0.2,0.5-0.2,1-0.2,1.5c0.8,5.5-1.4,6.7-3.2,10.9
	c-0.6,1.3-1.3,2.4-2.1,3.6c0.5-1.6,3.3-5.7,1.1-4.4c2.6-4.1,2.3-4.2-0.9-0.2h-0.6c0.1-0.7,1.6-3.2,1.4-3.4c-0.1-0.1-0.5-0.1-0.7,0.1
	l-0.1,0.1l-3,5.2l1.7-4.2c0.1-0.2,0-0.3-0.2-0.2c-1.7,0.6-2.9,1.6-3.3,2.9c-0.1,0.2,0,0.6,0.3,0.9c0.6,0.6,0.7,1.3,0.5,2.2l-0.1,0.6
	c-2.5,3.3-3.7,7.2-3.4,11.5c-0.8,0.7-0.8,1.3,0,1.5l-12,4.5c0-1.6,0.5-2.9,1.5-4c0.5-0.7,1-1.1,1.6-1.6c0.3-0.1,0.5-0.5,0.6-0.8
	c0.1-1.1,0.5-2,1.3-2.8c0.3-0.2,0.6-0.6,0.6-0.9l0.5-4.6l0.1-0.2c1.4-0.7,2.1-1.8,2-3.4l2.1-2.9c1.3-1,2.1-2.4,2.5-4
	c2-5.7,1.4-5.5-1.7,0.6h-0.2c0.1-0.3,0-0.7-0.3-0.9v-1.7c0.2-1.1,0.9-2,1.8-2.6c0.3-0.2,0.6-0.6,0.6-0.8l-0.1-1.5
	c0.3-1.6,1.3-2.9,2.6-4C450.3,333.5,455.2,327.3,455.8,322.8z"/>
<path class="st13" d="M403.2,328c-1.3,4-2.8,8-4.5,11.9c-1,2.2-3,5.6-6,10.2c-3.6,5.4-6.5,11.2-8.9,17.4c-0.3-0.5-0.7-0.3-1,0.6
	c-2.1-1.1-3.9-0.8-5.5,0.9c-3.9,4.2-5.3-2-3.4-4.4c0.2-0.3,0.3-0.7,0.3-1c0-1.6,0.6-2.8,1.8-3.4c2-3.7,4-7.2,6-10.8
	c1.4-2.3,3.3-5.9,6-10.7c2-3.6,4-7,6.2-10.4C396.2,330.8,400.8,328.8,403.2,328z"/>
<path class="st7" d="M447.5,336c-1.4,1.1-2.3,2.4-2.6,4l-3.4,4.8l-1.5,1.5c-0.5,0.5-0.5,0.5-0.1-0.1c3.8-5.9,3.3-5.7-1.4,0.5
	c-0.1,0.2-0.1,0.5,0.1,0.6c0,0,0.1,0,0.1,0.1c0.8,0.2,0.7,0.9-0.2,1.8l-0.1,0.2c-2.3,3.4-6.1,9.6-11.1,18.6c-1,1.7-1.1,3.3-0.6,4.8
	c-0.7,0-1,0.3-1.1,0.9l-1.6,0.7l-1.8,0.1c0.8-3.1,1.6-5.4,2.4-9.1c0.5-2.1,2-3.2,2.9-4.8c1.4-2.4,3.7-5.7,6.8-10
	c1-1.5,2.1-2.5,3-3.1c0.3-0.2,0.6-0.5,0.7-0.8C439.2,341.9,442.6,338.2,447.5,336z"/>
<path class="st10" d="M444.9,340l0.1,1.5c0,0.3-0.2,0.7-0.6,0.8c-0.9,0.6-1.6,1.5-1.8,2.6l-4.4,6.9l-2.2,4.4l-0.1,0.6
	c-4,4.5-5.6,10-8.8,16.6c-0.6,0.3-1.1,0.6-1.7,0.6c0.1-0.6,0.5-0.8,1.1-0.9c3.2-7.6,5.3-11.9,6.1-13.1c2.3-3.2,4.2-6.7,5.6-10.4
	l0.1-0.2c1.5-1,2.5-2.5,3.1-4.4L444.9,340z"/>
<path class="st7" d="M441.4,345c-0.5,1.8-1.5,3.2-3.1,4.4c0.9-1,1-1.6,0.2-1.8c-0.2-0.1-0.3-0.3-0.2-0.6c0,0,0-0.1,0.1-0.1
	c4.7-6.2,5.2-6.3,1.4-0.5c-0.3,0.6-0.3,0.6,0.1,0.1L441.4,345z"/>
<path class="st8" d="M444.9,346.9c-1.4,0.9-2.3,2.3-2.5,4l-2.1,2.9l2.9-6.3C446.1,341.4,446.7,341.2,444.9,346.9z"/>
<path class="st10" d="M442.6,345v1.7c-1.6,1.4-2.4,3.1-2.5,5.2l-0.7,0.9c-0.5,0.1-0.8,0.2-1,0.6l-0.1-1.4L442.6,345z"/>
<path class="st6" d="M448.9,352.6l-1.1,1.5c0.2-0.9,0.1-1.7-0.5-2.2c-0.2-0.2-0.3-0.7-0.3-0.9c0.5-1.3,1.6-2.2,3.3-2.9
	c0.2-0.1,0.3,0,0.2,0.2L448.9,352.6z"/>
<path class="st8" d="M442.6,346.6c0.2,0.2,0.3,0.5,0.3,0.9l-2.9,4.4C440.2,349.7,441,347.9,442.6,346.6z"/>
<path class="st6" d="M444.9,346.9c-0.3,1.6-1.3,3-2.5,4C442.6,349.2,443.4,347.8,444.9,346.9z"/>
<path class="st8" d="M451.2,350.6c-1.5,2.3-2.9,4.8-4,7.3c-0.8,1.7,0.5-3.1,0.6-3.3l0.1-0.6l1.1-1.5l3-5.2c0.1-0.2,0.5-0.5,0.7-0.3
	c0,0,0.1,0,0.1,0.1C452.8,347.4,451.3,349.9,451.2,350.6z"/>
<path class="st8" d="M442.9,347.5h0.2l-2.9,6.3c-1.1,0.8-1.8,2-2,3.4l-0.1,0.2l-0.6,0.9l-2.1,2.2l3.7-8l0.7-0.9L442.9,347.5z"/>
<path class="st10" d="M452.7,350.9l-3.8,7.8l-2.1,2.6c-0.5,0.6-0.6,0.6-0.2-0.1l5.2-10.6C455,346.7,455.2,346.8,452.7,350.9z"/>
<path class="st10" d="M438.2,349.5c-1.4,3.7-3.3,7.2-5.6,10.4c-0.8,1.1-2.9,5.5-6.1,13.1c-0.6-1.5-0.5-3.1,0.6-4.8
	C432.1,359.2,435.9,352.9,438.2,349.5z"/>
<path class="st10" d="M451.5,355.3c-0.8,2.3-2.1,4.5-3.7,6.3l1-2.9l3.8-7.8C454.8,349.5,452,353.7,451.5,355.3z"/>
<path class="st8" d="M451.2,350.6h0.6l-5.2,10.7c-0.3,0.7-0.2,0.7,0.2,0.1l2.1-2.6l-1,2.9l-0.2,1.7c0,0.2-0.3,0.6-0.7,0.8
	c-1.1,0.6-2,1.3-2.6,2.2c-0.3-4.4,0.8-8.1,3.4-11.5c-0.1,0.2-1.4,4.9-0.6,3.3C448.3,355.4,449.7,353,451.2,350.6z"/>
<path class="st10" d="M438.2,351.8l0.1,1.4l-0.1,0.6l-2.2,2.3L438.2,351.8z"/>
<path class="st8" d="M439.4,352.6l-3.7,8l-2.1,2.4l-0.2-0.1c0.5-2.5,2.4-3.9,3.3-5.7c0.6-1.1,1-2.3,1.5-3.4l0.1-0.6
	C438.6,352.9,439,352.8,439.4,352.6z"/>
<path class="st10" d="M438.2,353.8c-0.5,1.1-1,2.3-1.5,3.4c-0.9,1.8-2.9,3.2-3.3,5.7c-1.1,1.5-1.8,3.1-2.3,4.9
	c-0.1,0.3-2.5,3.4-1,0.5c1.8-3.9,3.8-7.8,5.9-11.6l0.1-0.6L438.2,353.8z"/>
<path class="st8" d="M440.3,353.8c0.1,1.6-0.6,2.8-2,3.4C438.4,355.7,439.1,354.6,440.3,353.8z"/>
<path class="st8" d="M435.9,356.7c-2.1,3.8-4,7.7-5.9,11.6c-1.5,3.1,1-0.1,1-0.5c0.3-1.8,1.1-3.4,2.3-4.9l0.2,0.1
	c-1.1,4.4,0.8,0.1,1.7,0l-1.7,5.2c-1,1-1.5,2.4-1.5,4l-4.4,1.1c-0.3,0.1-0.6,0.1-0.9,0C430.3,366.6,431.9,361.1,435.9,356.7z"/>
<path class="st6" d="M438.2,357.6l-0.5,4.6c0,0.3-0.2,0.7-0.6,0.9c-0.8,0.7-1.3,1.6-1.3,2.8c0,0.3-0.2,0.7-0.6,0.8
	c-0.7,0.3-1.3,0.9-1.6,1.6l1.7-5.2l2.3-4.6L438.2,357.6z"/>
<path class="st8" d="M437.6,358.4l-2.3,4.6c-0.9,0.1-2.9,4.4-1.7,0l2.1-2.4L437.6,358.4z"/>
<path class="st14" d="M373.5,358.7c0.9,0.9,1.8,1.4,2.6,1.4c-1.3,0.7-1.8,1.8-1.8,3.4c0,0.3-0.1,0.7-0.3,1c-2,2.4-0.5,8.6,3.4,4.4
	c1.6-1.7,3.3-2,5.5-0.9c-1.4,1.7-2.3,3.3-2.8,4.9c-0.1,0.3-0.3,0.7-0.6,0.8c-2,1.3-2.4,3.1-1.5,5.5l-14-1.5
	C367.8,371.7,371,365.3,373.5,358.7z"/>
<path class="st15" d="M383.8,367.6l14.6,11.2c-6.8,1-13.5,1.3-20.4,0.6c-0.9-2.4-0.5-4.2,1.5-5.5c0.3-0.2,0.6-0.5,0.6-0.8
	c0.5-1.6,1.4-3.2,2.8-4.9C383.1,367.2,383.6,367,383.8,367.6z"/>
<path class="st1" d="M444.3,367.6h1c-1.7,9.2-5.2,17.8-10.3,25.6c-1.6-0.1-3.6-0.7-6.1-1.8c5.2-4.2,9.1-9.4,11.7-15.5
	c0.1-0.3,0.1-0.3-0.1-0.1l-5.6,6.1c-0.9,0.9-2,1.5-3.3,1.7c-7.7,1.3-4.7-6.8-3.6-10.4l4.4-1.1L444.3,367.6z"/>
<path class="st1" d="M427.1,373.3c0.2,0.1,0.6,0.1,0.9,0c-1.1,3.7-4.1,11.7,3.6,10.4c1.3-0.2,2.4-0.8,3.3-1.7l5.6-6.1
	c0.2-0.2,0.3-0.2,0.1,0.1c-2.5,6-6.4,11.1-11.7,15.5c-3.4-0.6-7.1-1.8-11-3.7c2.6-4.1,4.6-8.5,6-13.1l1.6-0.7
	C425.9,373.8,426.5,373.6,427.1,373.3z"/>
<path class="st16" d="M423.8,374.6c-1.3,4.6-3.3,8.9-6,13.1c-5.5-1.8-10.6-4.4-15.4-7.6c-0.9-0.6-1.8-1-2.9-1.3
	c7.6-0.7,15-2.1,22.4-4.1L423.8,374.6z"/>
<path class="st17" d="M238.5,430.4c-0.9-11-3.4-42.7,9.5-47.5c8-3,8.2,6.4,8.1,12.1c0,11.1,0.1,22,0.5,33.1c0,0.3,0.2,0.5,0.5,0.5
	l0,0c7.8-0.3,15.4-1.4,22.9-3.4c0.3-0.1,0.5-0.3,0.6-0.6c0.9-2.7,1.5-5.7,1.7-9.3c0.6-7.2,1.2-14.6,1.6-21.8
	c0.3-5.1,1.3-13.1,8.5-11.9c3.2,0.4,4.5,3.5,4.6,6.6c0.1,8.7,0.1,17.5,0,26.2c0,3.5-0.3,7.8,1.1,10.5c1.2,2.2,0.9,4.2-1,5.9
	c-0.9,0.9-1.4,1.9-1.5,3.1c-1.3,11.1-1.8,22.1-1.8,33.4c0,6.9-0.3,11.1-0.9,12.6c-1.9,5.2-7,5.7-10.6,2.1c-3-2.9-2.4-5.9-2.3-10.9
	c0.4-12.1,0.4-24.1,0.2-36c0-0.4-0.3-0.6-0.6-0.6c0,0,0,0-0.1,0l-21.8,3c-0.3,0-0.5,0.3-0.5,0.6c0.2,8,0.6,19.6-3.7,26.6
	c-0.9,1.4-2,1.9-3.6,1.5c-9-2.2-10.8-18.1-11.1-25.5c0-0.6-0.5-1.2-1.2-1.2l0,0c-2.8,0.2-8.2-0.4-7.3-4.6c0.6-2.9,5.3-3.7,7.7-3.9
	C238.3,431,238.5,430.7,238.5,430.4z"/>
<path class="st17" d="M397.1,462.8c-10.6,7.1-18.8-8.4-19.5-17.2c-1.2-18.2,0.6-36,5.5-53.5c1.1-3.6,1.4-6.6,4.7-8.7
	c10.2-6.6,8.5,13.3,8.4,17.5c-0.9,18.3-2.3,36.2,1.9,54.3C398.9,458,400.1,460.9,397.1,462.8z"/>
<path class="st4" d="M587.1,482.3c-3.5-10.4-15.4-21.8-27.4-17c-5.2,2.1-10.1,4.8-13.6-1.1c-8.8-14.8-10.2-34.2-5.7-50.6
	c7.6-28.3,45.5-37.7,68.8-25.2c18.3,9.7,30.2,31.8,27.3,52.5c-1.8,12.1-8,23.5-16.5,32.3c-7.9,8.1-15.3,11.5-26.5,11.3
	c-2.3,0-4.2-0.5-5.6-1.4C587.5,483,587.3,482.6,587.1,482.3z M569.6,419.3c-17.2,20.7,14.3,52.1,34.7,31.9c0.5,1.8,1.6,2.4,3.1,2
	c3.7-1.2,7.5-2,11-3.6c1-0.4,1.4-1.5,1.1-2.4c-3.7-11.9-1.2-19.8,1.3-31.7c0.1-0.3-0.2-0.7-0.5-0.7c0,0,0,0-0.1,0
	c-7.1-0.5-15.3-1.1-19.6-7.8c-1.2-1.8-2.3-3.6-3.5-5.5c-0.4-0.7-1.4-1-2.1-0.6c-3.3,1.7-6.7,3.5-10.1,5.4c-5.7,3.2-6.6,1.6-11.9-0.7
	c-0.7-0.3-1.5,0-1.9,0.6c-1.2,2.3-2.1,4.7-3.3,7C566.5,415.8,567.1,417.8,569.6,419.3z"/>
<ellipse transform="matrix(0.314 -0.9494 0.9494 0.314 -132.3842 624.6094)" class="st18" cx="366" cy="403.9" rx="10.6" ry="7"/>
<path class="st19" d="M604.3,451.2c12.2-12.5,11.7-30.8-4.8-39.1c-9.9-5-22.4-0.2-29.9,7.1c-2.4-1.5-3.1-3.5-1.8-6
	c1.2-2.3,2.1-4.7,3.3-7c0.3-0.6,1.2-1,1.9-0.6c5.3,2.3,6.2,4,11.9,0.7c3.4-1.9,6.8-3.7,10.1-5.4c0.7-0.4,1.7-0.1,2.1,0.6
	c1.2,1.9,2.3,3.7,3.5,5.5c4.3,6.7,12.5,7.1,19.6,7.8c0.3,0,0.6,0.3,0.5,0.7c0,0,0,0,0,0.1c-2.4,11.9-5,19.8-1.3,31.7
	c0.3,1-0.2,2-1.1,2.4c-3.6,1.6-7.2,2.3-11,3.6C605.9,453.7,604.8,453,604.3,451.2z"/>
<path class="st17" d="M409.9,462.5c-16.2-14.5-6.7-52.9,19.3-44.6c0.5,0.2,1.2-0.1,1.5-0.6c1.6-3.4,3.2-8.1,5.5-10.9
	c3.1-3.5,8.1-2.7,9,2.2c1.2,5.6-0.4,12.8-1,17.7c-1.9,17.4-3.2,28.8-3.8,34.3c-0.3,2.7-2.8,4.3-5.4,3.3c-3.8-1.3-5.5-5.5-7-9
	c-0.7-1.7-1.8-1.9-3.2-0.6C420.4,458.5,417.7,469.4,409.9,462.5z M424.7,428.7c-7.7,3.2-11.9,13.7-11.1,21.7
	c0.4,3.7,2.4,2.8,3.7,0.4c3.4-6.7,6.5-13.5,9.2-20.4C427.2,428.4,426.6,427.9,424.7,428.7z"/>
<path class="st17" d="M308.2,463c-13.1-8-1.7-54.5,7.3-46.2c5.4,5-3.7,19.3,2.1,27.5c4,5.7,8.5-1.3,10.4-5.1c2.6-5,5-10,7.3-15
	c2.2-4.7,9.3-9.6,11.4-0.9c1.4,6,10,42.9-4.6,39.8c-4.5-1-5-7.5-6.3-11.2c-0.6-1.8-1.4-1.9-2.4-0.3C329,459,317.1,468.5,308.2,463z"
	/>
<path class="st17" d="M364.1,462.7c-4.3-0.6-6.2-5-7.1-8.8c-2.3-9.4-3.2-21.9,0.9-30.8c3.3-7,10.9-7.2,12.2,1.3
	C371.1,429.8,375.4,464.3,364.1,462.7z"/>
<path class="st4" d="M520.7,449.8c-3.6,1.1-6.5-2.8-8.9-4.7c-2.2-1.7-3.2-1.2-3.1,1.5l0.6,8.3c0.1,1.3,0.9,1.8,2.2,1.6
	c3.5-0.4,10.1-3.7,11,2.4c0.3,2.4,0.7,4.6,1.2,6.6c0.4,1.5,1.3,1.9,2.7,1.3c4.3-1.8,6.9-0.7,8.2,3.3c0.1,0.3,0.1,0.6,0,1.1
	c-0.4,1.4-0.5,2.8-0.3,4.3c0.2,1.4,1,2.1,2.3,2.4c3.5,0.7,6-0.4,7.3-3.6c1,1.2,1.4,2,1.3,2.8c-2.2,8.1-3.8,19.8,3.1,26
	c4.9,4.4,10.6,6.5,17.1,6.4c3.3-0.1,16-4.3,13,4.4c-2,6.1-5.5,11-10.5,14.8c-1.2,0.9-2.3,1.1-3.7,0.6c-4.5-1.5-8.3-4.2-11.5-8.2
	c-0.9-1.1-1.9-1.3-3.2-0.6c-6,3.1-11.8,9.5-18.9,17.7c-1.6,1.8-6.9,7.6-16.1,17.2c-3.1,3.2-6.4,3.8-10.5,2
	c-8.8-3.8-10.1-11.8-10.4-21.1c-0.7-18.4-1.1-36.8-1.1-55.2c0-4.5-0.3-10.2,0-16.1c0.5-9.8,7.1-19.1,14.5-25c0.7-0.6,1.9-0.6,2.6,0
	L520.7,449.8z M516,515.1c0.4,0.2,0.9,0.2,1.3,0c6-2.4,10.9-6.4,14.6-11.7c0.7-1.2,0.7-2.2-0.1-3.3c-4.6-6.2-10-12-16.3-17.5
	c-0.4-0.4-1.1-0.3-1.5,0.1c0,0.1-0.1,0.1-0.1,0.2c-1,1.8-1.7,3.6-1.9,5.7C511.6,493.1,511.6,513,516,515.1z"/>
<path class="st17" d="M448,474.1c-13.6-0.3-7.2-8.1,0.6-8.5c1,0,1.9-0.6,2.3-1.6c2.1-4.9,8.8-23,16.1-21.3
	c6.1,1.5,3.5,16.7,2.6,20.9c-0.1,0.5,0.2,1.1,0.7,1.2c0.1,0,0.1,0,0.2,0c3,0,7.5,0,9.8,1.9c1.9,1.5,1.9,3,0.3,4.5
	c-2.6,2.3-7,2-10.4,1.8c-1-0.1-1.8,0.5-2,1.5c-3.5,15-3.5,29.9-0.1,44.6c0.7,3.2,1,5.5,0.6,6.8c-1.4,5.2-8.1,4.4-11.5,1.1
	c-10.1-10.1-11.3-32.5-9.4-45.7c0.3-2.2,0.5-4.5,0.7-6.8C448.5,474.4,448.3,474.2,448,474.1C448,474.2,448,474.2,448,474.1z"/>
<path class="st19" d="M520.7,449.8c6.5,6.4,13,12.9,19.5,19.4c1.8,1.8,3.1,3.5,3.7,5c-1.5,3.2-3.9,4.4-7.3,3.6
	c-1.4-0.3-2.1-1.2-2.3-2.4c-0.2-1.5-0.1-2.9,0.3-4.3c0.1-0.3,0.1-0.7,0-1.1c-1.3-3.9-4-5-8.2-3.3c-1.4,0.6-2.3,0.1-2.7-1.3
	c-0.5-1.9-1-4.2-1.2-6.6c-0.7-6.2-7.3-2.9-11-2.4c-1.4,0.2-2.1-0.4-2.2-1.6l-0.6-8.3c-0.2-2.7,0.9-3.1,3.1-1.5
	C514.2,447.1,517.1,450.9,520.7,449.8z"/>
<path class="st17" d="M319.2,480.8l-4.4,0.1c-0.4,0-0.7-0.1-1-0.2c-2.4-1.8-3-3.7-1.6-5.7c5.1-7.1,52.8-11,54.8,0
	c0.6,3.3-2.3,4.4-5.1,4.2c-8.2-0.6-16.5-0.5-24.8,0.1c-0.7,0.1-1.4,0.7-1.4,1.5c0,5.7,0.4,11.5,1.4,17.1c0.1,0.6,0.6,1.1,1.3,1l0,0
	c5.6-1.1,11.1-1.7,16.4-1.9c8.4-0.3,6.9,6.8,0.9,9.2c-5.5,2.2-11.3,3.4-17.2,3.5c-0.3,0-0.5,0.2-0.5,0.5
	c-0.2,10.4,0.2,20.8,1.4,31.1c0.7,6.5,1.7,16.2-6.7,18.1c-13.2,3.1-11.8-41.4-12.6-47.9c-0.1-0.6-0.6-1.2-1.4-1.3l-4.4-1.1
	c-0.3-0.1-0.5-0.3-0.6-0.7c-0.7-2.6,0.7-4.5,4.5-5.6c1.4-0.4,2.1-1.4,2.3-2.9c0.5-5.6,0.3-11.8-0.6-18.4
	C319.7,481,319.5,480.8,319.2,480.8z"/>
<path class="st17" d="M581.1,489.6c-1.1,13.2-27.6,17.8-30.3,4.6c-2.2-10.9,3.7-22.9,16.3-22.1C575.9,472.5,581.8,481.2,581.1,489.6
	z"/>
<path class="st17" d="M383,502.4c-0.7,3.6,0.2,7.1,2.9,10.5c0.6,0.7,1.7,0.9,2.4,0.3l0,0c2.1-1.8,3.8-4.2,5.1-6.9
	c2-4.5,3.7-8.4,9-5.1c0.3,0.2,0.5,0.4,0.5,0.9c3.9,18.9-30.3,30.9-36.2,7.1c-2.8-11.1,0-26.5,10.5-32.6c11.3-6.6,30.4-0.2,21.9,16.3
	c-2.8,5.4-7.8,8.2-15,8.3C383.7,501.3,383.2,501.8,383,502.4z M391.4,482.3c-1.6-1.4-3-1.2-4,0.6c-2,3-3,6.5-3.2,10.4
	c0,0.5,0.4,1,1,1c0.1,0,0.1,0,0.1,0C390,493.5,396.9,486.9,391.4,482.3z"/>
<path class="st18" d="M421.2,501.3c-6.8,1.9-17.2-0.3-16.4-9.7c1.3-13.2,21.1-23.5,31.2-12.7c1.1,1.2,1.2,2.4,0.4,3.7
	c-1.6,2.8-4,3.3-7.1,1.6c-4.8-2.7-8.9,1.6-10.5,5.6c-0.7,1.8-0.1,2.8,1.9,2.8c10,0,22.1-1.7,21.5,13.1c-0.5,10.6-8.7,16.4-18.6,16.5
	c-6.5,0.1-15.4-2.1-16.9-9.7c-1.3-6.6,6.4-6.2,7.7,0.3c0.2,0.7,0.7,1.4,1.6,1.6c4.4,1,9-1.6,12.1-4.6c3-2.9,3.6-7.7-1.3-8.8
	C424.8,500.7,423,500.7,421.2,501.3z"/>
<path class="st9" d="M257.3,493.7c-0.4-1.5,3.3,0.6,0.6,0.5C257.6,494.1,257.4,493.9,257.3,493.7z"/>
<path class="st20" d="M362.1,535.9h0.5c0.9,0,1.6,0.7,1.6,1.6v14.9c0,0.9-0.7,1.6-1.6,1.6h-0.5c-0.9,0-1.6-0.7-1.6-1.6v-14.9
	C360.6,536.6,361.3,535.9,362.1,535.9z"/>
<path class="st20" d="M462.3,547.6c-0.6-2.6-2.6-13.2,1.5-11.7c0.3,0.1,0.5,0.4,0.5,0.7c0.2,1.4,0.9,12.5-1.5,11.7
	C462.6,548.2,462.4,547.9,462.3,547.6z"/>
<ellipse transform="matrix(0.859 -0.512 0.512 0.859 -215.6527 292.4463)" class="st19" cx="423.1" cy="537.7" rx="1.5" ry="1.3"/>
<circle class="st20" cx="351.8" cy="542.6" r="1.7"/>
<path class="st3" d="M376.9,543.1c-6.7,0.9-1.2,11.3-5.3,10.9c-0.9-0.1-1.5-0.9-1.6-1.7c0-2.9-1.7-14.4,3.3-10.4
	c0.2,0.2,0.6,0.2,0.9,0.1c8.6-4.7,8.3,6.5,7.6,11.1c-0.1,0.3-0.3,0.6-0.5,0.7c-3.9,1.3-2.1-8.2-3.5-10.3
	C377.7,543.3,377.2,543.1,376.9,543.1z"/>
<path class="st3" d="M388.3,546.4c-4.3-4.5,4.9-7.6,8.8-3.7c0.2,0.2,0.4,0.5,0.4,0.9c0.1,2.7-1.7,1.2-2.6,0.4
	c-1.1-1-2.3-1.3-3.9-0.7c-2.2,0.6-2.1,1.4,0.2,2.2l5.7,2c1.9,0.6,2.2,1.9,1.2,3.7c-2.2,3.8-11,3.7-10.9-0.3c0.1-2.1,0.7-2.3,2.1-0.7
	c1.5,1.8,3.2,2.2,5.2,1.2c0.3-0.2,0.5-0.5,0.5-0.7c0-1.1-1.3-1.8-3.6-2.3C390.3,548,389.1,547.4,388.3,546.4z"/>
<path class="st3" d="M406.2,541.5c0.3,0.5,1.1,0.7,1.6,0.4c11.3-6.2,11.7,17.2-0.1,11.2c-0.3-0.2-0.7,0-1,0.3c0,0.1-0.1,0.2-0.1,0.3
	l-0.1,3.8c0,0.3-0.2,0.6-0.5,0.9c-1.5,1.2-2.2-0.3-2.2-1.7c0-4.9,0-9.9,0-14.8c0-0.3,0.2-0.7,0.4-0.9
	C405,540.5,405.6,540.6,406.2,541.5z M410,551.6c1.8,0,3.3-1.8,3.3-4.2c0-2.3-1.4-4.3-3.2-4.3l0,0c-1.8,0-3.3,1.8-3.3,4.2
	C406.8,549.7,408.2,551.6,410,551.6z"/>
<path class="st3" d="M422.7,541h1.1c0.5,0,1,0.4,1,1l0.1,11.1c0,0.5-0.4,1-1,1h-1.1c-0.5,0-1-0.4-1-1l-0.1-11.1
	C421.7,541.4,422.1,541,422.7,541z"/>
<path class="st20" d="M434.6,544.7c-0.6,1.7-0.7,3.9-0.5,6.7c0.1,1.1-0.3,2.1-1.3,2.8c-0.5,0.3-1.1,0.2-1.8-0.5
	c-0.2-0.2-0.3-0.5-0.4-1c-0.2-2.3-0.3-4.8-0.2-7.2c0-2.2-0.6-6.1,3.3-3.9c0.3,0.1,0.6,0.2,1,0.1c1.8-0.6,5.4-1.3,4.7,1.7
	c-0.1,0.3-0.4,0.4-0.7,0.4c-1.2-0.1-2.2,0-3.4,0.3C435,544.1,434.7,544.4,434.6,544.7z"/>
<path class="st3" d="M450.7,543.4c-2-0.7-3.6-0.3-5,1.3c-0.3,0.3-0.5,0.5-0.9,0.5c-1,0.2-1.4-0.2-1.3-1.4c0-0.3,0.2-0.6,0.4-0.9
	c2.4-2.4,5.5-2.9,8.9-1.4c0.9,0.4,1.5,1.3,1.5,2.1c0.2,2.6,0.3,5.2,0.5,7.9c0,0.9,1,2.6-1.1,2.1c-0.3-0.1-0.5-0.3-0.9-0.5
	c-0.6-0.7-1.3-1-2-0.4c-1.1,0.7-2.2,1.1-3.5,1.1c-3.2,0-4.7-1.4-4.5-4.2c0.1-1.4,0.7-2.2,2.1-2.7c1.6-0.4,7.2-0.7,6.3-3
	C451.3,543.8,451,543.5,450.7,543.4z M450.9,547.9c-12,0,1.2,8.6,0.5,0.5C451.5,548.1,451.2,547.9,450.9,547.9z"/>
<path class="st20" d="M351,558.6c-0.5-0.2-1-0.9-1-1.4l0.5-9.6c0-0.4,0.2-0.7,0.4-1c2.7-2.2,2.4,9.3,2.4,10
	C353.5,558.3,352.5,559.3,351,558.6z"/>
<circle class="st20" cx="463" cy="552.4" r="1.7"/>
</svg>
