<?xml version="1.0" encoding="UTF-8" standalone="no"?>
<!DOCTYPE svg PUBLIC "-//W3C//DTD SVG 1.1//EN" "http://www.w3.org/Graphics/SVG/1.1/DTD/svg11.dtd">
<svg xmlns="http://www.w3.org/2000/svg" version="1.1" viewBox="0 0 266 93">
<g stroke-width="2.00" fill="none" stroke-linecap="butt">
<path stroke="#a5a5a6" vector-effect="non-scaling-stroke" d="
  M 151.62 41.20
  C 140.82 39.55 145.30 20.83 154.47 19.22
  Q 159.48 18.33 161.75 23.77
  A 0.84 0.72 -10.2 0 0 162.51 24.22
  L 172.51 24.04
  A 1.15 1.06 85.1 0 0 173.53 22.73
  C 171.61 9.55 158.20 7.01 147.32 10.86
  C 134.34 15.45 129.85 31.74 135.07 43.68
  A 1.11 0.88 75.5 0 0 135.93 44.33
  Q 144.02 44.37 151.70 42.00
  Q 153.40 41.47 151.62 41.20"
/>
<path stroke="#bfd880" vector-effect="non-scaling-stroke" d="
  M 168.94 47.77
  L 172.66 28.79
  A 0.47 0.42 -84.5 0 0 172.25 28.23
  L 156.25 28.72
  A 0.65 0.53 -83.9 0 0 155.72 29.24
  L 154.27 36.50
  A 0.47 0.46 3.8 0 0 154.76 37.05
  L 159.50 36.75
  Q 160.58 36.68 159.96 37.55
  C 154.78 44.91 147.68 46.44 139.53 48.69
  Q 139.03 48.82 139.47 49.05
  C 145.54 52.25 154.80 52.62 159.85 47.12
  Q 160.29 46.65 160.31 47.24
  L 160.37 49.79
  A 0.54 0.38 89.3 0 0 160.75 50.32
  L 180.50 50.27
  A 0.99 0.84 11.8 0 0 181.33 49.82
  L 183.86 45.09
  A 1.01 0.49 -68.1 0 1 184.50 44.51
  L 197.25 44.18
  A 0.58 0.55 -3.7 0 1 197.85 44.68
  L 198.25 49.25
  A 0.78 0.75 87.0 0 0 199.00 49.95
  L 219.75 49.79
  A 1.03 0.72 -70.6 0 0 220.50 49.25
  L 223.00 44.75
  A 1.04 0.76 -71.9 0 1 223.75 44.21
  L 236.50 44.10
  A 0.72 0.71 -2.1 0 1 237.22 44.76
  L 237.54 48.99
  A 0.69 0.69 87.4 0 0 238.24 49.63
  L 249.75 49.53
  A 0.43 0.40 84.6 0 0 250.14 49.02
  L 243.38 10.32
  A 0.62 0.61 -5.4 0 0 242.76 9.82
  L 231.00 9.96
  A 1.07 0.52 -66.3 0 0 230.32 10.54
  L 210.55 44.28
  Q 210.20 44.88 210.08 44.18
  L 204.25 10.70
  A 0.55 0.50 84.5 0 0 203.75 10.25
  L 192.00 10.25
  A 1.01 0.56 -67.4 0 0 191.32 10.79
  L 169.45 47.94
  Q 168.63 49.33 168.94 47.77"
/>
<path stroke="#a5a5a6" vector-effect="non-scaling-stroke" d="
  M 125.28 28.66
  Q 131.97 26.29 131.84 18.95
  C 131.72 12.48 126.13 10.72 121.00 10.55
  Q 110.60 10.18 98.43 10.86
  A 0.66 0.64 -85.8 0 0 97.84 11.39
  L 90.09 49.54
  Q 89.89 50.53 89.71 49.50
  L 83.12 11.52
  A 0.63 0.63 -4.9 0 0 82.50 11.00
  L 71.00 11.00
  A 1.15 0.81 -69.6 0 0 70.17 11.57
  L 51.60 43.13
  Q 51.36 43.55 51.29 43.07
  L 51.04 41.18
  A 0.58 0.54 85.3 0 0 50.49 40.68
  L 33.75 41.02
  A 0.45 0.42 5.0 0 1 33.29 40.51
  L 39.08 12.31
  A 0.88 0.86 -84.2 0 0 38.24 11.26
  L 27.00 11.25
  A 0.70 0.67 -84.2 0 0 26.34 11.82
  L 18.44 50.74
  A 0.41 0.34 -83.1 0 0 18.75 51.23
  L 59.50 50.92
  A 0.88 0.80 13.1 0 0 60.25 50.50
  L 62.77 45.76
  A 0.95 0.74 -72.7 0 1 63.50 45.25
  L 76.00 45.25
  A 0.79 0.58 -2.8 0 1 76.76 45.75
  L 77.44 50.51
  A 0.63 0.54 -4.2 0 0 78.06 50.97
  Q 93.68 50.64 109.30 50.72
  C 118.13 50.76 131.35 49.05 130.63 36.77
  Q 130.33 31.68 125.25 29.04
  Q 124.83 28.82 125.28 28.66"
/>
<path stroke="#e3f6c7" vector-effect="non-scaling-stroke" d="
  M 234.21 68.50
  L 233.54 68.50"
/>
<path stroke="#bfd880" vector-effect="non-scaling-stroke" d="
  M 233.54 68.50
  Q 233.89 67.49 233.62 66.48
  A 0.65 0.57 -7.5 0 0 233.00 66.06
  L 226.99 66.22
  A 0.63 0.57 -85.1 0 1 226.42 65.48
  L 228.62 54.27
  A 0.66 0.43 -82.2 0 0 228.26 53.50
  L 223.75 53.50
  A 0.62 0.46 -82.7 0 0 223.27 54.00
  L 220.08 70.06
  A 0.52 0.50 -84.5 0 0 220.58 70.68
  L 233.25 70.46"
/>
<path stroke="#e3f6c7" vector-effect="non-scaling-stroke" d="
  M 233.25 70.46
  L 234.21 70.25"
/>
<path stroke="#bfd880" vector-effect="non-scaling-stroke" d="
  M 234.21 70.25
  L 248.33 70.40
  A 0.67 0.45 2.8 0 0 248.99 70.00
  L 249.46 66.32
  A 0.65 0.35 -0.8 0 0 248.76 65.96
  L 241.25 66.29
  A 0.72 0.53 -1.1 0 1 240.50 65.76
  L 240.55 64.31
  A 0.96 0.32 0.2 0 1 241.50 64.00
  L 248.50 63.99
  A 0.75 0.58 3.5 0 0 249.22 63.50
  L 249.78 60.01
  A 0.73 0.40 1.0 0 0 249.01 59.57
  L 242.50 59.72
  A 0.73 0.46 0.1 0 1 241.75 59.25
  L 241.80 58.06
  A 0.99 0.33 -1.3 0 1 242.75 57.72
  L 250.75 57.54
  A 0.70 0.43 -81.5 0 0 251.22 56.99
  L 251.93 53.93
  A 0.68 0.55 -82.2 0 0 251.43 53.10
  L 237.75 53.24
  A 0.67 0.58 -83.7 0 0 237.18 53.77
  L 234.21 68.50"
/>
<path stroke="#a3cf47" vector-effect="non-scaling-stroke" d="
  M 234.21 70.25
  L 234.21 68.50"
/>
<path stroke="#a3cf47" vector-effect="non-scaling-stroke" d="
  M 233.54 68.50
  L 233.25 70.46"
/>
<path stroke="#bfd880" vector-effect="non-scaling-stroke" d="
  M 193.19 54.75
  C 184.85 50.70 177.10 56.81 178.49 65.77
  C 180.30 77.38 201.20 70.05 195.31 56.94
  Q 194.65 55.46 193.19 54.75"
/>
<path stroke="#bfd880" vector-effect="non-scaling-stroke" d="
  M 211.14 61.07
  Q 214.09 59.87 213.24 56.19
  Q 212.71 53.94 209.72 53.72
  Q 204.64 53.35 199.49 54.05
  A 0.78 0.63 0.1 0 0 198.84 54.57
  L 195.72 70.25
  A 0.39 0.38 6.1 0 0 196.10 70.71
  C 201.17 70.82 214.88 73.03 212.67 63.26
  A 0.99 0.53 83.7 0 0 212.19 62.56
  Q 211.55 62.37 211.06 61.94
  A 0.54 0.49 53.2 0 1 211.14 61.07"
/>
<path stroke="#bfd880" vector-effect="non-scaling-stroke" d="
  M 216.32 53.82
  L 213.14 69.82
  A 0.60 0.59 13.6 0 0 213.57 70.51
  Q 215.50 71.03 217.64 70.68
  A 0.92 0.56 -4.0 0 0 218.36 70.17
  L 221.55 54.26
  A 0.64 0.58 -83.8 0 0 221.00 53.50
  L 216.75 53.50
  A 0.45 0.41 5.6 0 0 216.32 53.82"
/>
<path stroke="#bfd880" vector-effect="non-scaling-stroke" d="
  M 165.99 62.26
  L 166.00 55.01
  A 0.76 0.50 -90.0 0 0 165.50 54.25
  L 158.75 54.25
  A 0.73 0.62 -83.3 0 0 158.12 54.83
  L 154.83 71.02
  A 0.44 0.41 -85.7 0 0 155.26 71.55
  L 159.25 71.23
  A 0.88 0.86 -87.8 0 0 160.02 70.50
  L 161.77 60.51
  Q 162.11 58.53 162.23 60.50
  L 162.82 70.25
  A 0.86 0.41 88.2 0 0 163.24 71.06
  L 166.75 71.22
  A 1.09 0.44 -67.7 0 0 167.45 70.51
  L 172.17 60.71
  Q 172.46 60.13 172.32 60.78
  L 170.36 70.47
  A 0.56 0.38 -81.4 0 0 170.68 71.13
  L 174.74 71.23
  A 0.92 0.56 -81.0 0 0 175.38 70.48
  L 178.69 54.49
  A 0.44 0.40 5.7 0 0 178.25 54.00
  L 171.50 54.00
  A 0.95 0.65 -71.7 0 0 170.81 54.53
  L 166.82 62.31
  Q 165.99 63.92 165.99 62.26"
/>
<path stroke="#e3f6c7" vector-effect="non-scaling-stroke" d="
  M 183.75 75.76
  Q 183.70 76.10 183.82 76.45
  A 0.65 0.21 -29.8 0 0 184.52 76.30
  Q 185.91 75.46 184.54 75.21
  A 0.68 0.66 9.2 0 0 183.75 75.76"
/>
<path stroke="#bbd883" vector-effect="non-scaling-stroke" d="
  M 52.06 83.48
  Q 53.22 82.54 54.71 82.49
  A 0.96 0.81 69.1 0 1 55.47 82.91
  Q 57.07 85.25 57.00 81.21
  A 3.71 0.73 -88.3 0 0 56.55 78.49
  L 55.57 77.18
  A 0.68 0.45 -46.7 0 0 54.69 77.39
  C 54.15 78.06 50.48 83.09 51.23 83.65
  A 0.82 0.50 -42.6 0 0 52.06 83.48"
/>
<path stroke="#bcd988" vector-effect="non-scaling-stroke" d="
  M 134.82 79.19
  C 135.12 77.71 140.46 78.54 137.30 77.23
  Q 136.98 77.10 136.35 77.14
  L 134.02 77.30
  A 0.70 0.41 -0.8 0 0 133.39 77.68
  L 132.48 83.25
  A 0.54 0.44 5.5 0 0 133.00 83.77
  L 136.50 83.98
  A 1.02 0.44 6.3 0 0 137.44 83.69
  Q 137.59 83.25 137.44 82.81
  A 0.86 0.44 -18.5 0 0 136.49 82.67
  Q 134.23 83.40 134.15 81.56
  A 0.68 0.68 -3.0 0 1 134.79 80.85
  Q 140.10 80.55 135.29 79.59
  A 0.53 0.30 10.8 0 1 134.82 79.19"
/>
<path stroke="#bbd883" vector-effect="non-scaling-stroke" d="
  M 199.6595 77.8811
  A 0.65 0.65 0.0 0 0 199.1375 77.1244
  L 199.0589 77.1100
  A 0.65 0.65 0.0 0 0 198.3022 77.6319
  L 197.2805 83.1989
  A 0.65 0.65 0.0 0 0 197.8025 83.9556
  L 197.8811 83.9700
  A 0.65 0.65 0.0 0 0 198.6378 83.4481
  L 199.6595 77.8811"
/>
<path stroke="#bcd988" vector-effect="non-scaling-stroke" d="
  M 217.74 82.22
  Q 217.87 80.16 220.00 80.81
  Q 220.20 80.87 220.74 80.75
  Q 221.02 80.68 221.21 80.42
  Q 221.70 79.75 220.51 79.91
  Q 217.83 80.27 218.60 78.49
  A 0.97 0.57 22.0 0 1 219.69 78.33
  Q 221.94 79.19 221.60 77.27
  A 0.86 0.30 -3.7 0 0 220.76 77.04
  L 217.75 77.22
  A 0.80 0.71 2.6 0 0 217.03 77.81
  L 216.02 83.26
  A 0.51 0.44 -83.6 0 0 216.44 83.87
  L 220.57 83.87
  A 0.37 0.18 90.0 0 0 220.75 83.50
  L 220.75 83.25
  A 0.51 0.50 89.4 0 0 220.25 82.75
  L 218.25 82.75
  A 0.51 0.49 2.1 0 1 217.74 82.22"
/>
<path stroke="#bbd883" vector-effect="non-scaling-stroke" d="
  M 242.75 78.50
  Q 243.69 78.61 243.93 77.67
  A 0.49 0.44 -88.0 0 0 243.42 77.05
  Q 241.91 77.42 240.31 77.17
  A 1.11 0.38 11.0 0 0 239.25 77.32
  Q 238.64 78.62 240.28 78.49
  A 0.47 0.35 -86.9 0 1 240.64 79.03
  C 240.56 79.55 238.88 85.00 240.68 83.84
  A 1.38 1.21 82.4 0 0 241.24 83.00
  L 242.15 78.93
  A 0.56 0.56 9.4 0 1 242.75 78.50"
/>
<path stroke="#bbd883" vector-effect="non-scaling-stroke" d="
  M 17.98 82.25
  L 18.69 78.24
  A 0.95 0.71 -70.5 0 0 18.43 77.39
  C 16.82 76.22 16.52 82.19 16.43 82.57
  A 1.03 1.03 8.7 0 0 17.34 83.81
  Q 21.55 84.21 20.65 82.87
  A 0.87 0.30 -5.8 0 0 19.94 82.70
  L 18.50 82.74
  A 0.50 0.42 3.1 0 1 17.98 82.25"
/>
<path stroke="#bbd883" vector-effect="non-scaling-stroke" d="
  M 24.79 78.30
  C 24.39 78.86 21.08 83.54 22.34 83.80
  A 0.93 0.86 -64.5 0 0 23.21 83.45
  Q 25.10 80.99 26.53 83.70
  A 0.58 0.51 -14.9 0 0 27.07 83.97
  L 27.34 83.95
  A 0.69 0.42 84.3 0 0 27.70 83.21
  L 27.23 78.80
  Q 26.87 75.35 24.79 78.30"
/>
<path stroke="#bcd988" vector-effect="non-scaling-stroke" d="
  M 34.59 77.64
  Q 32.48 76.95 30.31 77.34
  A 0.84 0.67 -88.3 0 0 29.75 78.00
  L 28.81 83.01
  A 0.57 0.56 -79.1 0 0 29.25 83.67
  Q 31.92 84.17 34.35 83.20
  A 0.90 0.74 75.5 0 0 34.79 82.25
  Q 34.49 80.63 35.21 79.25
  A 1.15 1.11 -66.9 0 0 34.59 77.64"
/>
<path stroke="#bcd988" vector-effect="non-scaling-stroke" d="
  M 42.9268 78.4991
  A 3.67 3.26 -33.6 0 0 38.0659 77.8147
  A 3.67 3.26 -33.6 0 0 36.8132 82.5609
  A 3.67 3.26 -33.6 0 0 41.6741 83.2453
  A 3.67 3.26 -33.6 0 0 42.9268 78.4991"
/>
<path stroke="#bcd988" vector-effect="non-scaling-stroke" d="
  M 47.78 77.02
  Q 45.72 76.35 45.02 78.40
  C 44.88 78.80 43.31 84.08 44.88 83.98
  A 1.03 0.48 -75.5 0 0 45.49 83.24
  L 46.00 81.75
  A 0.81 0.72 7.8 0 1 46.75 81.25
  Q 48.58 81.24 48.24 82.99
  A 0.92 0.63 -74.4 0 0 48.56 83.93
  Q 49.21 84.22 49.50 83.76
  A 1.60 1.27 66.0 0 0 49.71 82.94
  C 49.66 80.04 52.51 78.56 47.78 77.02"
/>
<path stroke="#bbd883" vector-effect="non-scaling-stroke" d="
  M 59.37 79.06
  C 59.33 79.32 57.50 85.18 59.59 83.52
  A 1.50 0.91 88.7 0 0 60.03 82.76
  L 60.97 79.00
  A 0.96 0.50 -10.0 0 1 61.61 78.51
  Q 62.19 78.34 62.54 77.88
  Q 63.02 77.25 62.24 77.25
  L 58.75 77.25
  A 0.73 0.41 -3.7 0 0 57.97 77.76
  Q 58.18 78.54 59.01 78.49
  A 0.49 0.36 -85.8 0 1 59.37 79.06"
/>
<path stroke="#bbd883" vector-effect="non-scaling-stroke" d="
  M 69.4398 78.4683
  A 3.64 3.25 -34.5 0 0 64.5992 77.8516
  A 3.64 3.25 -34.5 0 0 63.4402 82.5917
  A 3.64 3.25 -34.5 0 0 68.2808 83.2084
  A 3.64 3.25 -34.5 0 0 69.4398 78.4683"
/>
<path stroke="#bcd988" vector-effect="non-scaling-stroke" d="
  M 74.90 82.00
  Q 74.53 84.33 76.31 83.72
  A 0.95 0.44 78.7 0 0 76.54 82.75
  Q 76.23 81.00 76.89 79.42
  A 1.18 0.64 -62.7 0 0 76.87 78.31
  Q 74.99 76.53 72.24 77.37
  A 1.02 0.70 -8.6 0 0 71.54 78.02
  L 70.69 83.19
  A 0.75 0.45 -80.4 0 0 71.01 84.00
  Q 71.23 84.04 71.43 83.93
  A 1.37 0.71 -22.6 0 0 72.13 83.10
  Q 72.33 80.92 74.31 81.37
  A 0.73 0.52 11.3 0 1 74.90 82.00"
/>
<path stroke="#bcd988" vector-effect="non-scaling-stroke" d="
  M 80.3254 78.1328
  A 0.74 0.74 0.0 0 0 79.7236 77.2766
  L 79.6448 77.2629
  A 0.74 0.74 0.0 0 0 78.7886 77.8646
  L 77.8946 82.9872
  A 0.74 0.74 0.0 0 0 78.4964 83.8434
  L 78.5752 83.8571
  A 0.74 0.74 0.0 0 0 79.4314 83.2554
  L 80.3254 78.1328"
/>
<path stroke="#bcd988" vector-effect="non-scaling-stroke" d="
  M 87.6323 78.5752
  A 3.67 3.24 -32.0 0 0 82.8031 77.7723
  A 3.67 3.24 -32.0 0 0 81.4077 82.4648
  A 3.67 3.24 -32.0 0 0 86.2369 83.2677
  A 3.67 3.24 -32.0 0 0 87.6323 78.5752"
/>
<path stroke="#bcd988" vector-effect="non-scaling-stroke" d="
  M 96.04 82.25
  L 96.29 82.00"
/>
<path stroke="#e3f6c7" vector-effect="non-scaling-stroke" d="
  M 96.29 82.00
  L 97.04 82.50"
/>
<path stroke="#bcd988" vector-effect="non-scaling-stroke" d="
  M 97.04 82.50
  Q 96.95 84.09 97.99 83.89
  A 0.78 0.69 -89.4 0 0 98.56 83.26
  L 99.43 78.23
  A 0.85 0.37 -81.7 0 0 99.18 77.30
  L 97.74 77.25
  A 0.90 0.52 -80.4 0 0 97.13 77.99
  Q 96.75 79.86 95.29 81.00"
/>
<path stroke="#bbd883" vector-effect="non-scaling-stroke" d="
  M 95.29 81.00
  L 94.96 78.04
  A 0.87 0.40 84.7 0 0 94.50 77.25
  L 93.25 77.25
  A 0.90 0.75 -84.2 0 0 92.49 78.00
  L 91.56 83.26
  A 0.55 0.54 9.9 0 0 92.01 83.89
  C 93.25 84.09 93.49 76.10 94.25 83.31
  A 0.60 0.55 86.1 0 0 94.81 83.85
  Q 95.99 83.83 96.04 82.25"
/>
<path stroke="#78b20c" vector-effect="non-scaling-stroke" d="
  M 95.29 81.00
  L 96.04 82.25"
/>
<path stroke="#a0d050" vector-effect="non-scaling-stroke" d="
  M 97.04 82.50
  Q 98.94 77.23 96.29 82.00"
/>
<path stroke="#bbd883" vector-effect="non-scaling-stroke" d="
  M 106.6234 78.2880
  A 3.61 3.22 -38.8 0 0 101.7923 78.0405
  A 3.61 3.22 -38.8 0 0 100.9966 82.8120
  A 3.61 3.22 -38.8 0 0 105.8277 83.0595
  A 3.61 3.22 -38.8 0 0 106.6234 78.2880"
/>
<path stroke="#bcd988" vector-effect="non-scaling-stroke" d="
  M 110.08 80.84
  Q 109.23 79.87 109.54 78.44
  A 1.06 0.45 -72.9 0 0 109.45 77.56
  Q 108.75 76.87 108.05 77.56
  A 1.11 0.34 75.6 0 0 108.01 78.50
  L 108.91 83.02
  A 0.99 0.79 -88.8 0 0 109.44 83.71
  C 110.88 84.26 112.85 79.27 113.34 78.21
  A 1.00 0.68 -55.5 0 0 113.34 77.31
  C 112.54 76.22 110.94 79.78 110.60 80.72
  A 0.32 0.30 -56.5 0 1 110.08 80.84"
/>
<path stroke="#bcd988" vector-effect="non-scaling-stroke" d="
  M 115.55 77.34
  C 114.37 77.12 113.89 81.95 113.76 82.79
  A 1.32 0.81 -70.2 0 0 113.95 83.71
  C 115.30 85.35 115.93 79.46 115.98 78.04
  A 0.72 0.54 -84.7 0 0 115.55 77.34"
/>
<path stroke="#bbd883" vector-effect="non-scaling-stroke" d="
  M 118.37 82.18
  C 118.42 81.85 120.25 75.57 117.98 77.61
  A 1.73 1.02 86.4 0 0 117.53 78.50
  L 116.57 83.07
  A 0.64 0.46 -83.5 0 0 117.00 83.84
  L 121.32 83.58
  A 0.34 0.19 89.2 0 0 121.50 83.25
  L 121.50 83.00
  A 0.49 0.24 0.4 0 0 121.00 82.75
  L 118.75 82.75
  A 0.51 0.40 -85.7 0 1 118.37 82.18"
/>
<path stroke="#bbd883" vector-effect="non-scaling-stroke" d="
  M 125.55 83.53
  C 133.40 85.71 133.82 75.09 126.58 77.47
  A 1.06 0.81 -89.7 0 0 125.98 78.25
  L 125.10 82.81
  A 0.63 0.62 13.6 0 0 125.55 83.53"
/>
<path stroke="#bbd883" vector-effect="non-scaling-stroke" d="
  M 143.83 81.32
  L 145.44 81.31
  A 0.75 0.48 -78.3 0 1 145.80 82.25
  Q 145.24 84.13 146.79 83.89
  A 0.74 0.62 77.7 0 0 147.26 83.00
  Q 146.84 81.40 147.77 80.00
  Q 149.07 78.02 146.77 77.45
  Q 144.97 77.01 143.18 77.39
  A 0.90 0.72 -87.6 0 0 142.59 78.07
  L 141.74 82.00
  A 1.30 0.15 -77.4 0 0 141.62 83.17
  Q 143.19 85.17 143.25 81.95
  A 0.64 0.59 -90.0 0 1 143.83 81.32"
/>
<path stroke="#bcd988" vector-effect="non-scaling-stroke" d="
  M 151.25 79.22
  Q 152.01 77.73 154.00 78.19
  A 0.56 0.46 11.7 0 0 154.65 77.85
  C 154.85 76.81 151.02 77.27 150.50 77.38
  A 0.79 0.67 -2.7 0 0 149.90 77.94
  L 148.94 82.75
  A 1.05 0.90 -89.8 0 0 150.02 84.01
  Q 151.37 83.65 152.73 84.03
  A 0.67 0.49 -72.9 0 0 153.39 83.54
  Q 153.83 82.17 151.17 82.66
  A 0.63 0.45 -2.6 0 1 150.41 82.17
  Q 150.90 80.06 153.26 80.84
  A 0.68 0.11 -35.6 0 0 153.81 80.57
  Q 153.98 80.45 154.00 80.25
  A 0.72 0.46 1.4 0 0 153.25 79.75
  L 151.51 79.77
  A 0.38 0.33 -75.1 0 1 151.25 79.22"
/>
<path stroke="#bbd883" vector-effect="non-scaling-stroke" d="
  M 159.30 83.05
  Q 159.57 83.80 160.24 83.82
  A 0.53 0.53 -2.9 0 0 160.77 83.24
  L 160.22 78.00
  A 0.87 0.74 -87.8 0 0 159.63 77.25
  C 157.73 76.81 154.03 84.03 155.70 83.79
  A 1.36 0.86 -68.0 0 0 156.48 83.23
  Q 157.32 82.00 158.76 82.54
  A 0.96 0.75 5.5 0 1 159.30 83.05"
/>
<path stroke="#bbd883" vector-effect="non-scaling-stroke" d="
  M 164.74 82.78
  A 1.95 1.44 -85.8 0 1 163.41 80.68
  Q 163.65 78.11 166.25 78.51
  A 1.22 0.14 46.7 0 1 167.05 79.19
  Q 167.81 79.97 168.35 79.08
  A 0.88 0.67 43.3 0 0 168.20 78.17
  C 165.62 75.11 161.56 78.35 162.13 82.03
  A 1.45 1.35 -75.4 0 0 162.59 82.88
  C 164.23 84.29 169.22 83.73 167.58 81.76
  A 0.51 0.48 -46.8 0 0 166.80 81.81
  Q 166.05 82.82 164.74 82.78"
/>
<path stroke="#bbd883" vector-effect="non-scaling-stroke" d="
  M 170.77 81.98
  Q 169.91 78.67 173.23 78.41
  A 1.05 0.66 60.6 0 1 173.95 78.80
  Q 175.54 80.70 175.58 78.52
  A 0.98 0.70 17.9 0 0 175.03 77.78
  C 167.96 74.28 166.93 87.04 174.46 83.14
  Q 174.55 83.09 175.00 82.50
  Q 175.55 81.76 174.75 81.50
  A 1.23 0.43 -50.3 0 0 173.81 82.06
  Q 172.90 83.05 171.57 82.67
  A 1.22 0.88 5.0 0 1 170.77 81.98"
/>
<path stroke="#bbd883" vector-effect="non-scaling-stroke" d="
  M 178.9094 77.9276
  A 0.52 0.52 0.0 0 0 178.5121 77.3088
  L 178.1408 77.2278
  A 0.52 0.52 0.0 0 0 177.5220 77.6251
  L 176.2906 83.2724
  A 0.52 0.52 0.0 0 0 176.6879 83.8912
  L 177.0592 83.9722
  A 0.52 0.52 0.0 0 0 177.6780 83.5749
  L 178.9094 77.9276"
/>
<path stroke="#bbd883" vector-effect="non-scaling-stroke" d="
  M 185.6697 78.0935
  A 3.65 3.24 -42.3 0 0 180.7894 78.1536
  A 3.65 3.24 -42.3 0 0 180.2703 83.0065
  A 3.65 3.24 -42.3 0 0 185.1506 82.9464
  A 3.65 3.24 -42.3 0 0 185.6697 78.0935"
/>
<path stroke="#bbd883" vector-effect="non-scaling-stroke" d="
  M 191.84 81.08
  Q 190.62 79.76 190.14 77.99
  A 1.09 0.73 86.2 0 0 189.59 77.28
  C 187.50 76.52 186.96 83.95 187.71 84.01
  A 0.73 0.68 -81.6 0 0 188.44 83.43
  L 189.01 80.50
  A 0.70 0.56 81.9 0 1 189.26 80.08
  C 190.44 79.31 190.39 84.32 192.36 83.74
  A 1.09 0.83 -87.5 0 0 192.99 82.99
  L 194.17 78.18
  A 0.81 0.49 -74.5 0 0 193.93 77.31
  Q 193.51 77.16 193.05 77.31
  A 1.09 0.22 -83.4 0 0 192.74 78.25
  L 192.34 81.01
  Q 192.26 81.54 191.84 81.08"
/>
<path stroke="#bcd988" vector-effect="non-scaling-stroke" d="
  M 202.06 80.31
  Q 202.23 79.23 202.75 80.28
  L 204.22 83.27
  Q 205.46 85.78 205.99 83.01
  L 207.00 77.75
  A 0.42 0.29 -82.3 0 0 206.75 77.25
  L 206.25 77.25
  A 0.94 0.21 -72.3 0 0 205.80 78.02
  L 204.91 80.68
  Q 204.60 81.61 204.15 80.58
  L 202.71 77.30
  Q 201.88 75.41 201.44 77.47
  L 200.27 83.00
  A 0.82 0.70 -71.1 0 0 200.60 83.84
  C 201.65 84.41 201.99 80.77 202.06 80.31"
/>
<path stroke="#e3f6c7" vector-effect="non-scaling-stroke" d="
  M 212.04 82.00
  L 213.25 82.04"
/>
<path stroke="#bcd988" vector-effect="non-scaling-stroke" d="
  M 213.25 82.04
  Q 212.82 84.09 213.98 83.69
  A 0.93 0.68 -9.7 0 0 214.58 83.07
  L 215.28 77.75
  A 0.62 0.46 7.5 0 0 214.73 77.21
  C 212.90 76.99 212.27 79.63 211.96 81.00"
/>
<path stroke="#e3f6c7" vector-effect="non-scaling-stroke" d="
  M 211.96 81.00
  L 211.29 81.00"
/>
<path stroke="#bcd988" vector-effect="non-scaling-stroke" d="
  M 211.29 81.00
  L 210.96 78.04
  A 0.86 0.41 85.3 0 0 210.50 77.25
  L 209.00 77.25
  A 0.92 0.46 -81.9 0 0 208.46 78.03
  C 208.31 78.83 207.23 83.45 207.80 83.82
  A 0.58 0.51 -59.5 0 0 208.57 83.57
  Q 209.35 82.13 209.25 80.50
  Q 209.20 79.78 209.75 80.08
  C 210.43 80.45 209.98 87.41 212.04 82.00"
/>
<path stroke="#a0d050" vector-effect="non-scaling-stroke" d="
  M 211.29 81.00
  L 212.04 82.00"
/>
<path stroke="#a0d050" vector-effect="non-scaling-stroke" d="
  M 213.25 82.04
  Q 214.85 78.36 212.75 81.25
  Q 212.27 81.91 211.96 81.00"
/>
<path stroke="#bbd883" vector-effect="non-scaling-stroke" d="
  M 222.77 83.83
  C 230.90 85.22 230.24 75.04 223.83 77.44
  A 0.96 0.65 -10.4 0 0 223.26 78.00
  L 222.20 82.99
  A 0.71 0.70 -79.4 0 0 222.77 83.83"
/>
<path stroke="#bbd883" vector-effect="non-scaling-stroke" d="
  M 232.0278 78.0382
  A 0.61 0.61 0.0 0 0 231.5567 77.3155
  L 231.3414 77.2702
  A 0.61 0.61 0.0 0 0 230.6187 77.7413
  L 229.4722 83.1818
  A 0.61 0.61 0.0 0 0 229.9433 83.9045
  L 230.1586 83.9498
  A 0.61 0.61 0.0 0 0 230.8813 83.4787
  L 232.0278 78.0382"
/>
<path stroke="#bbd883" vector-effect="non-scaling-stroke" d="
  M 236.59 82.65
  Q 236.85 83.61 237.74 83.77
  A 0.54 0.41 -86.5 0 0 238.22 83.22
  Q 238.20 80.72 237.55 78.30
  C 236.51 74.41 233.28 81.59 232.87 82.22
  Q 231.84 83.83 232.93 83.64
  Q 233.67 83.51 235.32 82.41
  A 0.90 0.68 -26.5 0 1 236.59 82.65"
/>
<path stroke="#bbd883" vector-effect="non-scaling-stroke" d="
  M 246.52 82.76
  Q 247.12 83.59 248.37 83.68
  A 0.57 0.40 -0.3 0 0 249.00 83.24
  L 248.10 77.96
  Q 247.62 75.16 246.14 77.67
  L 243.09 82.83
  A 0.79 0.37 -59.0 0 0 243.00 83.69
  Q 243.58 84.03 245.42 82.61
  A 0.78 0.77 -37.1 0 1 246.52 82.76"
/>
<path stroke="#bfd880" vector-effect="non-scaling-stroke" d="
  M 233.86 24.57
  L 228.42 34.76
  A 0.51 0.32 -69.9 0 0 228.57 35.47
  L 235.26 35.50
  A 0.67 0.52 85.7 0 0 235.75 34.75
  L 234.54 24.76
  Q 234.40 23.57 233.86 24.57"
/>
<path stroke="#bfd880" vector-effect="non-scaling-stroke" d="
  M 194.49 25.01
  L 189.25 34.97
  A 0.55 0.40 -72.1 0 0 189.51 35.75
  L 196.00 35.75
  A 0.69 0.55 86.3 0 0 196.53 34.99
  L 195.45 25.00
  Q 195.29 23.49 194.49 25.01"
/>
<path stroke="#a5a5a6" vector-effect="non-scaling-stroke" d="
  M 117.34 20.34
  L 109.25 20.27
  A 0.76 0.60 4.5 0 0 108.53 20.75
  L 107.48 25.49
  A 0.54 0.39 5.4 0 0 108.02 25.97
  C 112.18 26.09 117.66 26.94 119.01 23.52
  Q 120.26 20.36 117.34 20.34"
/>
<path stroke="#a5a5a6" vector-effect="non-scaling-stroke" d="
  M 73.63 25.06
  L 67.98 35.98
  A 0.54 0.48 11.7 0 0 68.50 36.69
  L 74.76 36.54
  A 0.72 0.61 85.4 0 0 75.33 35.74
  L 74.16 25.27
  Q 74.04 24.25 73.63 25.06"
/>
<path stroke="#a5a5a6" vector-effect="non-scaling-stroke" d="
  M 115.82 34.11
  Q 111.05 33.35 106.24 33.89
  A 0.79 0.50 -83.4 0 0 105.74 34.51
  L 104.47 40.44
  A 0.43 0.38 -81.9 0 0 104.81 40.96
  C 107.27 41.07 122.93 42.01 116.65 34.56
  A 1.43 1.31 -14.2 0 0 115.82 34.11"
/>
<path stroke="#bfd880" vector-effect="non-scaling-stroke" d="
  M 185.7357 67.1741
  A 4.94 3.35 107.0 0 0 190.3836 63.4294
  A 4.94 3.35 107.0 0 0 188.6243 57.7259
  A 4.94 3.35 107.0 0 0 183.9764 61.4706
  A 4.94 3.35 107.0 0 0 185.7357 67.1741"
/>
<path stroke="#bfd880" vector-effect="non-scaling-stroke" d="
  M 207.63 57.99
  Q 203.95 56.52 203.11 59.59
  A 0.79 0.67 12.6 0 0 203.76 60.45
  Q 205.95 60.86 207.75 59.82
  Q 209.58 58.77 207.63 57.99"
/>
<path stroke="#bfd880" vector-effect="non-scaling-stroke" d="
  M 201.85 66.15
  Q 203.10 67.56 204.89 66.98
  Q 207.79 66.05 207.60 64.52
  A 0.74 0.52 86.3 0 0 207.07 63.86
  L 202.99 63.76
  A 1.10 0.27 -57.5 0 0 202.31 64.41
  Q 201.44 65.69 201.85 66.15"
/>
<path stroke="#bbd883" vector-effect="non-scaling-stroke" d="
  M 55.30 80.70
  C 56.11 77.01 52.60 81.30 54.69 81.26
  A 0.70 0.64 -84.7 0 0 55.30 80.70"
/>
<path stroke="#bbd883" vector-effect="non-scaling-stroke" d="
  M 24.93 81.02
  Q 24.92 82.10 25.69 81.43
  Q 26.43 80.78 26.10 79.94
  A 0.46 0.43 62.7 0 0 25.45 79.71
  Q 24.95 80.05 24.93 81.02"
/>
<path stroke="#bcd988" vector-effect="non-scaling-stroke" d="
  M 31.02 78.97
  C 30.71 80.10 33.72 80.36 33.54 79.04
  A 0.62 0.53 85.8 0 0 33.00 78.50
  L 31.75 78.51
  A 0.80 0.61 4.9 0 0 31.02 78.97"
/>
<path stroke="#bcd988" vector-effect="non-scaling-stroke" d="
  M 32.86 81.15
  Q 31.95 80.70 31.07 80.81
  A 0.71 0.62 -7.3 0 0 30.45 81.52
  Q 30.67 83.40 32.58 82.58
  Q 34.26 81.85 32.86 81.15"
/>
<path stroke="#bcd988" vector-effect="non-scaling-stroke" d="
  M 38.5266 82.4040
  A 2.25 1.91 125.4 0 0 41.3869 81.6764
  A 2.25 1.91 125.4 0 0 41.1334 78.7360
  A 2.25 1.91 125.4 0 0 38.2731 79.4636
  A 2.25 1.91 125.4 0 0 38.5266 82.4040"
/>
<path stroke="#bcd988" vector-effect="non-scaling-stroke" d="
  M 46.49 79.06
  Q 46.28 81.04 48.26 79.95
  A 0.87 0.45 -27.7 0 0 48.79 79.20
  Q 48.37 78.08 47.01 78.54
  A 0.78 0.51 -11.8 0 0 46.49 79.06"
/>
<path stroke="#bbd883" vector-effect="non-scaling-stroke" d="
  M 65.3100 82.5519
  A 2.30 1.89 120.0 0 0 68.0968 81.5050
  A 2.30 1.89 120.0 0 0 67.6100 78.5681
  A 2.30 1.89 120.0 0 0 64.8232 79.6150
  A 2.30 1.89 120.0 0 0 65.3100 82.5519"
/>
<path stroke="#bcd988" vector-effect="non-scaling-stroke" d="
  M 73.05 79.31
  C 73.25 82.36 78.27 77.38 73.54 78.67
  A 0.68 0.61 -10.4 0 0 73.05 79.31"
/>
<path stroke="#bcd988" vector-effect="non-scaling-stroke" d="
  M 83.4738 82.5024
  A 2.28 1.84 119.6 0 0 86.1999 81.4289
  A 2.28 1.84 119.6 0 0 85.7262 78.5376
  A 2.28 1.84 119.6 0 0 83.0001 79.6111
  A 2.28 1.84 119.6 0 0 83.4738 82.5024"
/>
<path stroke="#bbd883" vector-effect="non-scaling-stroke" d="
  M 102.8143 82.5760
  A 2.28 1.88 117.3 0 0 105.5306 81.4123
  A 2.28 1.88 117.3 0 0 104.9057 78.5240
  A 2.28 1.88 117.3 0 0 102.1894 79.6877
  A 2.28 1.88 117.3 0 0 102.8143 82.5760"
/>
<path stroke="#bbd883" vector-effect="non-scaling-stroke" d="
  M 126.93 81.11
  C 125.70 83.56 131.04 83.19 129.89 79.23
  A 1.03 0.73 82.9 0 0 129.25 78.53
  Q 126.98 78.08 127.26 80.25
  A 1.13 0.14 -61.8 0 1 126.93 81.11"
/>
<path stroke="#bbd883" vector-effect="non-scaling-stroke" d="
  M 143.90 78.85
  Q 142.51 79.79 143.98 80.21
  Q 145.74 80.71 146.43 79.48
  A 0.64 0.54 -65.2 0 0 146.19 78.59
  Q 144.89 78.18 143.90 78.85"
/>
<path stroke="#bbd883" vector-effect="non-scaling-stroke" d="
  M 158.5561 81.5486
  A 1.03 0.63 93.0 0 0 159.2391 80.5530
  A 1.03 0.63 93.0 0 0 158.6639 79.4914
  A 1.03 0.63 93.0 0 0 157.9809 80.4870
  A 1.03 0.63 93.0 0 0 158.5561 81.5486"
/>
<path stroke="#bbd883" vector-effect="non-scaling-stroke" d="
  M 181.8890 82.5785
  A 2.31 1.89 119.6 0 0 184.6733 81.5036
  A 2.31 1.89 119.6 0 0 184.1710 78.5615
  A 2.31 1.89 119.6 0 0 181.3867 79.6364
  A 2.31 1.89 119.6 0 0 181.8890 82.5785"
/>
<path stroke="#bbd883" vector-effect="non-scaling-stroke" d="
  M 225.23 82.62
  C 228.17 81.60 227.83 77.75 225.16 78.52
  A 0.90 0.73 -9.9 0 0 224.51 79.26
  Q 224.53 80.44 224.06 81.57
  Q 223.36 83.28 225.23 82.62"
/>
<path stroke="#bbd883" vector-effect="non-scaling-stroke" d="
  M 236.30 81.33
  Q 237.21 80.67 236.73 79.81
  A 0.86 0.56 -23.9 0 0 235.77 79.66
  Q 234.49 80.17 235.30 80.99
  A 1.01 0.55 47.4 0 0 236.30 81.33"
/>
<path stroke="#bbd883" vector-effect="non-scaling-stroke" d="
  M 246.94 81.19
  Q 247.48 80.72 247.16 80.08
  A 0.66 0.50 66.2 0 0 246.47 79.70
  Q 245.25 80.13 246.06 80.98
  A 0.78 0.50 46.4 0 0 246.94 81.19"
/>
</g>
<path fill="#ffffff" d="
  M 0.00 0.00
  L 266.00 0.00
  L 266.00 93.00
  L 0.00 93.00
  L 0.00 0.00
  Z
  M 151.62 41.20
  C 140.82 39.55 145.30 20.83 154.47 19.22
  Q 159.48 18.33 161.75 23.77
  A 0.84 0.72 -10.2 0 0 162.51 24.22
  L 172.51 24.04
  A 1.15 1.06 85.1 0 0 173.53 22.73
  C 171.61 9.55 158.20 7.01 147.32 10.86
  C 134.34 15.45 129.85 31.74 135.07 43.68
  A 1.11 0.88 75.5 0 0 135.93 44.33
  Q 144.02 44.37 151.70 42.00
  Q 153.40 41.47 151.62 41.20
  Z
  M 168.94 47.77
  L 172.66 28.79
  A 0.47 0.42 -84.5 0 0 172.25 28.23
  L 156.25 28.72
  A 0.65 0.53 -83.9 0 0 155.72 29.24
  L 154.27 36.50
  A 0.47 0.46 3.8 0 0 154.76 37.05
  L 159.50 36.75
  Q 160.58 36.68 159.96 37.55
  C 154.78 44.91 147.68 46.44 139.53 48.69
  Q 139.03 48.82 139.47 49.05
  C 145.54 52.25 154.80 52.62 159.85 47.12
  Q 160.29 46.65 160.31 47.24
  L 160.37 49.79
  A 0.54 0.38 89.3 0 0 160.75 50.32
  L 180.50 50.27
  A 0.99 0.84 11.8 0 0 181.33 49.82
  L 183.86 45.09
  A 1.01 0.49 -68.1 0 1 184.50 44.51
  L 197.25 44.18
  A 0.58 0.55 -3.7 0 1 197.85 44.68
  L 198.25 49.25
  A 0.78 0.75 87.0 0 0 199.00 49.95
  L 219.75 49.79
  A 1.03 0.72 -70.6 0 0 220.50 49.25
  L 223.00 44.75
  A 1.04 0.76 -71.9 0 1 223.75 44.21
  L 236.50 44.10
  A 0.72 0.71 -2.1 0 1 237.22 44.76
  L 237.54 48.99
  A 0.69 0.69 87.4 0 0 238.24 49.63
  L 249.75 49.53
  A 0.43 0.40 84.6 0 0 250.14 49.02
  L 243.38 10.32
  A 0.62 0.61 -5.4 0 0 242.76 9.82
  L 231.00 9.96
  A 1.07 0.52 -66.3 0 0 230.32 10.54
  L 210.55 44.28
  Q 210.20 44.88 210.08 44.18
  L 204.25 10.70
  A 0.55 0.50 84.5 0 0 203.75 10.25
  L 192.00 10.25
  A 1.01 0.56 -67.4 0 0 191.32 10.79
  L 169.45 47.94
  Q 168.63 49.33 168.94 47.77
  Z
  M 125.28 28.66
  Q 131.97 26.29 131.84 18.95
  C 131.72 12.48 126.13 10.72 121.00 10.55
  Q 110.60 10.18 98.43 10.86
  A 0.66 0.64 -85.8 0 0 97.84 11.39
  L 90.09 49.54
  Q 89.89 50.53 89.71 49.50
  L 83.12 11.52
  A 0.63 0.63 -4.9 0 0 82.50 11.00
  L 71.00 11.00
  A 1.15 0.81 -69.6 0 0 70.17 11.57
  L 51.60 43.13
  Q 51.36 43.55 51.29 43.07
  L 51.04 41.18
  A 0.58 0.54 85.3 0 0 50.49 40.68
  L 33.75 41.02
  A 0.45 0.42 5.0 0 1 33.29 40.51
  L 39.08 12.31
  A 0.88 0.86 -84.2 0 0 38.24 11.26
  L 27.00 11.25
  A 0.70 0.67 -84.2 0 0 26.34 11.82
  L 18.44 50.74
  A 0.41 0.34 -83.1 0 0 18.75 51.23
  L 59.50 50.92
  A 0.88 0.80 13.1 0 0 60.25 50.50
  L 62.77 45.76
  A 0.95 0.74 -72.7 0 1 63.50 45.25
  L 76.00 45.25
  A 0.79 0.58 -2.8 0 1 76.76 45.75
  L 77.44 50.51
  A 0.63 0.54 -4.2 0 0 78.06 50.97
  Q 93.68 50.64 109.30 50.72
  C 118.13 50.76 131.35 49.05 130.63 36.77
  Q 130.33 31.68 125.25 29.04
  Q 124.83 28.82 125.28 28.66
  Z
  M 234.21 68.50
  L 233.54 68.50
  Q 233.89 67.49 233.62 66.48
  A 0.65 0.57 -7.5 0 0 233.00 66.06
  L 226.99 66.22
  A 0.63 0.57 -85.1 0 1 226.42 65.48
  L 228.62 54.27
  A 0.66 0.43 -82.2 0 0 228.26 53.50
  L 223.75 53.50
  A 0.62 0.46 -82.7 0 0 223.27 54.00
  L 220.08 70.06
  A 0.52 0.50 -84.5 0 0 220.58 70.68
  L 233.25 70.46
  L 234.21 70.25
  L 248.33 70.40
  A 0.67 0.45 2.8 0 0 248.99 70.00
  L 249.46 66.32
  A 0.65 0.35 -0.8 0 0 248.76 65.96
  L 241.25 66.29
  A 0.72 0.53 -1.1 0 1 240.50 65.76
  L 240.55 64.31
  A 0.96 0.32 0.2 0 1 241.50 64.00
  L 248.50 63.99
  A 0.75 0.58 3.5 0 0 249.22 63.50
  L 249.78 60.01
  A 0.73 0.40 1.0 0 0 249.01 59.57
  L 242.50 59.72
  A 0.73 0.46 0.1 0 1 241.75 59.25
  L 241.80 58.06
  A 0.99 0.33 -1.3 0 1 242.75 57.72
  L 250.75 57.54
  A 0.70 0.43 -81.5 0 0 251.22 56.99
  L 251.93 53.93
  A 0.68 0.55 -82.2 0 0 251.43 53.10
  L 237.75 53.24
  A 0.67 0.58 -83.7 0 0 237.18 53.77
  L 234.21 68.50
  Z
  M 193.19 54.75
  C 184.85 50.70 177.10 56.81 178.49 65.77
  C 180.30 77.38 201.20 70.05 195.31 56.94
  Q 194.65 55.46 193.19 54.75
  Z
  M 211.14 61.07
  Q 214.09 59.87 213.24 56.19
  Q 212.71 53.94 209.72 53.72
  Q 204.64 53.35 199.49 54.05
  A 0.78 0.63 0.1 0 0 198.84 54.57
  L 195.72 70.25
  A 0.39 0.38 6.1 0 0 196.10 70.71
  C 201.17 70.82 214.88 73.03 212.67 63.26
  A 0.99 0.53 83.7 0 0 212.19 62.56
  Q 211.55 62.37 211.06 61.94
  A 0.54 0.49 53.2 0 1 211.14 61.07
  Z
  M 216.32 53.82
  L 213.14 69.82
  A 0.60 0.59 13.6 0 0 213.57 70.51
  Q 215.50 71.03 217.64 70.68
  A 0.92 0.56 -4.0 0 0 218.36 70.17
  L 221.55 54.26
  A 0.64 0.58 -83.8 0 0 221.00 53.50
  L 216.75 53.50
  A 0.45 0.41 5.6 0 0 216.32 53.82
  Z
  M 165.99 62.26
  L 166.00 55.01
  A 0.76 0.50 -90.0 0 0 165.50 54.25
  L 158.75 54.25
  A 0.73 0.62 -83.3 0 0 158.12 54.83
  L 154.83 71.02
  A 0.44 0.41 -85.7 0 0 155.26 71.55
  L 159.25 71.23
  A 0.88 0.86 -87.8 0 0 160.02 70.50
  L 161.77 60.51
  Q 162.11 58.53 162.23 60.50
  L 162.82 70.25
  A 0.86 0.41 88.2 0 0 163.24 71.06
  L 166.75 71.22
  A 1.09 0.44 -67.7 0 0 167.45 70.51
  L 172.17 60.71
  Q 172.46 60.13 172.32 60.78
  L 170.36 70.47
  A 0.56 0.38 -81.4 0 0 170.68 71.13
  L 174.74 71.23
  A 0.92 0.56 -81.0 0 0 175.38 70.48
  L 178.69 54.49
  A 0.44 0.40 5.7 0 0 178.25 54.00
  L 171.50 54.00
  A 0.95 0.65 -71.7 0 0 170.81 54.53
  L 166.82 62.31
  Q 165.99 63.92 165.99 62.26
  Z
  M 183.75 75.76
  Q 183.70 76.10 183.82 76.45
  A 0.65 0.21 -29.8 0 0 184.52 76.30
  Q 185.91 75.46 184.54 75.21
  A 0.68 0.66 9.2 0 0 183.75 75.76
  Z
  M 52.06 83.48
  Q 53.22 82.54 54.71 82.49
  A 0.96 0.81 69.1 0 1 55.47 82.91
  Q 57.07 85.25 57.00 81.21
  A 3.71 0.73 -88.3 0 0 56.55 78.49
  L 55.57 77.18
  A 0.68 0.45 -46.7 0 0 54.69 77.39
  C 54.15 78.06 50.48 83.09 51.23 83.65
  A 0.82 0.50 -42.6 0 0 52.06 83.48
  Z
  M 134.82 79.19
  C 135.12 77.71 140.46 78.54 137.30 77.23
  Q 136.98 77.10 136.35 77.14
  L 134.02 77.30
  A 0.70 0.41 -0.8 0 0 133.39 77.68
  L 132.48 83.25
  A 0.54 0.44 5.5 0 0 133.00 83.77
  L 136.50 83.98
  A 1.02 0.44 6.3 0 0 137.44 83.69
  Q 137.59 83.25 137.44 82.81
  A 0.86 0.44 -18.5 0 0 136.49 82.67
  Q 134.23 83.40 134.15 81.56
  A 0.68 0.68 -3.0 0 1 134.79 80.85
  Q 140.10 80.55 135.29 79.59
  A 0.53 0.30 10.8 0 1 134.82 79.19
  Z
  M 199.6595 77.8811
  A 0.65 0.65 0.0 0 0 199.1375 77.1244
  L 199.0589 77.1100
  A 0.65 0.65 0.0 0 0 198.3022 77.6319
  L 197.2805 83.1989
  A 0.65 0.65 0.0 0 0 197.8025 83.9556
  L 197.8811 83.9700
  A 0.65 0.65 0.0 0 0 198.6378 83.4481
  L 199.6595 77.8811
  Z
  M 217.74 82.22
  Q 217.87 80.16 220.00 80.81
  Q 220.20 80.87 220.74 80.75
  Q 221.02 80.68 221.21 80.42
  Q 221.70 79.75 220.51 79.91
  Q 217.83 80.27 218.60 78.49
  A 0.97 0.57 22.0 0 1 219.69 78.33
  Q 221.94 79.19 221.60 77.27
  A 0.86 0.30 -3.7 0 0 220.76 77.04
  L 217.75 77.22
  A 0.80 0.71 2.6 0 0 217.03 77.81
  L 216.02 83.26
  A 0.51 0.44 -83.6 0 0 216.44 83.87
  L 220.57 83.87
  A 0.37 0.18 90.0 0 0 220.75 83.50
  L 220.75 83.25
  A 0.51 0.50 89.4 0 0 220.25 82.75
  L 218.25 82.75
  A 0.51 0.49 2.1 0 1 217.74 82.22
  Z
  M 242.75 78.50
  Q 243.69 78.61 243.93 77.67
  A 0.49 0.44 -88.0 0 0 243.42 77.05
  Q 241.91 77.42 240.31 77.17
  A 1.11 0.38 11.0 0 0 239.25 77.32
  Q 238.64 78.62 240.28 78.49
  A 0.47 0.35 -86.9 0 1 240.64 79.03
  C 240.56 79.55 238.88 85.00 240.68 83.84
  A 1.38 1.21 82.4 0 0 241.24 83.00
  L 242.15 78.93
  A 0.56 0.56 9.4 0 1 242.75 78.50
  Z
  M 17.98 82.25
  L 18.69 78.24
  A 0.95 0.71 -70.5 0 0 18.43 77.39
  C 16.82 76.22 16.52 82.19 16.43 82.57
  A 1.03 1.03 8.7 0 0 17.34 83.81
  Q 21.55 84.21 20.65 82.87
  A 0.87 0.30 -5.8 0 0 19.94 82.70
  L 18.50 82.74
  A 0.50 0.42 3.1 0 1 17.98 82.25
  Z
  M 24.79 78.30
  C 24.39 78.86 21.08 83.54 22.34 83.80
  A 0.93 0.86 -64.5 0 0 23.21 83.45
  Q 25.10 80.99 26.53 83.70
  A 0.58 0.51 -14.9 0 0 27.07 83.97
  L 27.34 83.95
  A 0.69 0.42 84.3 0 0 27.70 83.21
  L 27.23 78.80
  Q 26.87 75.35 24.79 78.30
  Z
  M 34.59 77.64
  Q 32.48 76.95 30.31 77.34
  A 0.84 0.67 -88.3 0 0 29.75 78.00
  L 28.81 83.01
  A 0.57 0.56 -79.1 0 0 29.25 83.67
  Q 31.92 84.17 34.35 83.20
  A 0.90 0.74 75.5 0 0 34.79 82.25
  Q 34.49 80.63 35.21 79.25
  A 1.15 1.11 -66.9 0 0 34.59 77.64
  Z
  M 42.9268 78.4991
  A 3.67 3.26 -33.6 0 0 38.0659 77.8147
  A 3.67 3.26 -33.6 0 0 36.8132 82.5609
  A 3.67 3.26 -33.6 0 0 41.6741 83.2453
  A 3.67 3.26 -33.6 0 0 42.9268 78.4991
  Z
  M 47.78 77.02
  Q 45.72 76.35 45.02 78.40
  C 44.88 78.80 43.31 84.08 44.88 83.98
  A 1.03 0.48 -75.5 0 0 45.49 83.24
  L 46.00 81.75
  A 0.81 0.72 7.8 0 1 46.75 81.25
  Q 48.58 81.24 48.24 82.99
  A 0.92 0.63 -74.4 0 0 48.56 83.93
  Q 49.21 84.22 49.50 83.76
  A 1.60 1.27 66.0 0 0 49.71 82.94
  C 49.66 80.04 52.51 78.56 47.78 77.02
  Z
  M 59.37 79.06
  C 59.33 79.32 57.50 85.18 59.59 83.52
  A 1.50 0.91 88.7 0 0 60.03 82.76
  L 60.97 79.00
  A 0.96 0.50 -10.0 0 1 61.61 78.51
  Q 62.19 78.34 62.54 77.88
  Q 63.02 77.25 62.24 77.25
  L 58.75 77.25
  A 0.73 0.41 -3.7 0 0 57.97 77.76
  Q 58.18 78.54 59.01 78.49
  A 0.49 0.36 -85.8 0 1 59.37 79.06
  Z
  M 69.4398 78.4683
  A 3.64 3.25 -34.5 0 0 64.5992 77.8516
  A 3.64 3.25 -34.5 0 0 63.4402 82.5917
  A 3.64 3.25 -34.5 0 0 68.2808 83.2084
  A 3.64 3.25 -34.5 0 0 69.4398 78.4683
  Z
  M 74.90 82.00
  Q 74.53 84.33 76.31 83.72
  A 0.95 0.44 78.7 0 0 76.54 82.75
  Q 76.23 81.00 76.89 79.42
  A 1.18 0.64 -62.7 0 0 76.87 78.31
  Q 74.99 76.53 72.24 77.37
  A 1.02 0.70 -8.6 0 0 71.54 78.02
  L 70.69 83.19
  A 0.75 0.45 -80.4 0 0 71.01 84.00
  Q 71.23 84.04 71.43 83.93
  A 1.37 0.71 -22.6 0 0 72.13 83.10
  Q 72.33 80.92 74.31 81.37
  A 0.73 0.52 11.3 0 1 74.90 82.00
  Z
  M 80.3254 78.1328
  A 0.74 0.74 0.0 0 0 79.7236 77.2766
  L 79.6448 77.2629
  A 0.74 0.74 0.0 0 0 78.7886 77.8646
  L 77.8946 82.9872
  A 0.74 0.74 0.0 0 0 78.4964 83.8434
  L 78.5752 83.8571
  A 0.74 0.74 0.0 0 0 79.4314 83.2554
  L 80.3254 78.1328
  Z
  M 87.6323 78.5752
  A 3.67 3.24 -32.0 0 0 82.8031 77.7723
  A 3.67 3.24 -32.0 0 0 81.4077 82.4648
  A 3.67 3.24 -32.0 0 0 86.2369 83.2677
  A 3.67 3.24 -32.0 0 0 87.6323 78.5752
  Z
  M 96.04 82.25
  L 96.29 82.00
  L 97.04 82.50
  Q 96.95 84.09 97.99 83.89
  A 0.78 0.69 -89.4 0 0 98.56 83.26
  L 99.43 78.23
  A 0.85 0.37 -81.7 0 0 99.18 77.30
  L 97.74 77.25
  A 0.90 0.52 -80.4 0 0 97.13 77.99
  Q 96.75 79.86 95.29 81.00
  L 94.96 78.04
  A 0.87 0.40 84.7 0 0 94.50 77.25
  L 93.25 77.25
  A 0.90 0.75 -84.2 0 0 92.49 78.00
  L 91.56 83.26
  A 0.55 0.54 9.9 0 0 92.01 83.89
  C 93.25 84.09 93.49 76.10 94.25 83.31
  A 0.60 0.55 86.1 0 0 94.81 83.85
  Q 95.99 83.83 96.04 82.25
  Z
  M 106.6234 78.2880
  A 3.61 3.22 -38.8 0 0 101.7923 78.0405
  A 3.61 3.22 -38.8 0 0 100.9966 82.8120
  A 3.61 3.22 -38.8 0 0 105.8277 83.0595
  A 3.61 3.22 -38.8 0 0 106.6234 78.2880
  Z
  M 110.08 80.84
  Q 109.23 79.87 109.54 78.44
  A 1.06 0.45 -72.9 0 0 109.45 77.56
  Q 108.75 76.87 108.05 77.56
  A 1.11 0.34 75.6 0 0 108.01 78.50
  L 108.91 83.02
  A 0.99 0.79 -88.8 0 0 109.44 83.71
  C 110.88 84.26 112.85 79.27 113.34 78.21
  A 1.00 0.68 -55.5 0 0 113.34 77.31
  C 112.54 76.22 110.94 79.78 110.60 80.72
  A 0.32 0.30 -56.5 0 1 110.08 80.84
  Z
  M 115.55 77.34
  C 114.37 77.12 113.89 81.95 113.76 82.79
  A 1.32 0.81 -70.2 0 0 113.95 83.71
  C 115.30 85.35 115.93 79.46 115.98 78.04
  A 0.72 0.54 -84.7 0 0 115.55 77.34
  Z
  M 118.37 82.18
  C 118.42 81.85 120.25 75.57 117.98 77.61
  A 1.73 1.02 86.4 0 0 117.53 78.50
  L 116.57 83.07
  A 0.64 0.46 -83.5 0 0 117.00 83.84
  L 121.32 83.58
  A 0.34 0.19 89.2 0 0 121.50 83.25
  L 121.50 83.00
  A 0.49 0.24 0.4 0 0 121.00 82.75
  L 118.75 82.75
  A 0.51 0.40 -85.7 0 1 118.37 82.18
  Z
  M 125.55 83.53
  C 133.40 85.71 133.82 75.09 126.58 77.47
  A 1.06 0.81 -89.7 0 0 125.98 78.25
  L 125.10 82.81
  A 0.63 0.62 13.6 0 0 125.55 83.53
  Z
  M 143.83 81.32
  L 145.44 81.31
  A 0.75 0.48 -78.3 0 1 145.80 82.25
  Q 145.24 84.13 146.79 83.89
  A 0.74 0.62 77.7 0 0 147.26 83.00
  Q 146.84 81.40 147.77 80.00
  Q 149.07 78.02 146.77 77.45
  Q 144.97 77.01 143.18 77.39
  A 0.90 0.72 -87.6 0 0 142.59 78.07
  L 141.74 82.00
  A 1.30 0.15 -77.4 0 0 141.62 83.17
  Q 143.19 85.17 143.25 81.95
  A 0.64 0.59 -90.0 0 1 143.83 81.32
  Z
  M 151.25 79.22
  Q 152.01 77.73 154.00 78.19
  A 0.56 0.46 11.7 0 0 154.65 77.85
  C 154.85 76.81 151.02 77.27 150.50 77.38
  A 0.79 0.67 -2.7 0 0 149.90 77.94
  L 148.94 82.75
  A 1.05 0.90 -89.8 0 0 150.02 84.01
  Q 151.37 83.65 152.73 84.03
  A 0.67 0.49 -72.9 0 0 153.39 83.54
  Q 153.83 82.17 151.17 82.66
  A 0.63 0.45 -2.6 0 1 150.41 82.17
  Q 150.90 80.06 153.26 80.84
  A 0.68 0.11 -35.6 0 0 153.81 80.57
  Q 153.98 80.45 154.00 80.25
  A 0.72 0.46 1.4 0 0 153.25 79.75
  L 151.51 79.77
  A 0.38 0.33 -75.1 0 1 151.25 79.22
  Z
  M 159.30 83.05
  Q 159.57 83.80 160.24 83.82
  A 0.53 0.53 -2.9 0 0 160.77 83.24
  L 160.22 78.00
  A 0.87 0.74 -87.8 0 0 159.63 77.25
  C 157.73 76.81 154.03 84.03 155.70 83.79
  A 1.36 0.86 -68.0 0 0 156.48 83.23
  Q 157.32 82.00 158.76 82.54
  A 0.96 0.75 5.5 0 1 159.30 83.05
  Z
  M 164.74 82.78
  A 1.95 1.44 -85.8 0 1 163.41 80.68
  Q 163.65 78.11 166.25 78.51
  A 1.22 0.14 46.7 0 1 167.05 79.19
  Q 167.81 79.97 168.35 79.08
  A 0.88 0.67 43.3 0 0 168.20 78.17
  C 165.62 75.11 161.56 78.35 162.13 82.03
  A 1.45 1.35 -75.4 0 0 162.59 82.88
  C 164.23 84.29 169.22 83.73 167.58 81.76
  A 0.51 0.48 -46.8 0 0 166.80 81.81
  Q 166.05 82.82 164.74 82.78
  Z
  M 170.77 81.98
  Q 169.91 78.67 173.23 78.41
  A 1.05 0.66 60.6 0 1 173.95 78.80
  Q 175.54 80.70 175.58 78.52
  A 0.98 0.70 17.9 0 0 175.03 77.78
  C 167.96 74.28 166.93 87.04 174.46 83.14
  Q 174.55 83.09 175.00 82.50
  Q 175.55 81.76 174.75 81.50
  A 1.23 0.43 -50.3 0 0 173.81 82.06
  Q 172.90 83.05 171.57 82.67
  A 1.22 0.88 5.0 0 1 170.77 81.98
  Z
  M 178.9094 77.9276
  A 0.52 0.52 0.0 0 0 178.5121 77.3088
  L 178.1408 77.2278
  A 0.52 0.52 0.0 0 0 177.5220 77.6251
  L 176.2906 83.2724
  A 0.52 0.52 0.0 0 0 176.6879 83.8912
  L 177.0592 83.9722
  A 0.52 0.52 0.0 0 0 177.6780 83.5749
  L 178.9094 77.9276
  Z
  M 185.6697 78.0935
  A 3.65 3.24 -42.3 0 0 180.7894 78.1536
  A 3.65 3.24 -42.3 0 0 180.2703 83.0065
  A 3.65 3.24 -42.3 0 0 185.1506 82.9464
  A 3.65 3.24 -42.3 0 0 185.6697 78.0935
  Z
  M 191.84 81.08
  Q 190.62 79.76 190.14 77.99
  A 1.09 0.73 86.2 0 0 189.59 77.28
  C 187.50 76.52 186.96 83.95 187.71 84.01
  A 0.73 0.68 -81.6 0 0 188.44 83.43
  L 189.01 80.50
  A 0.70 0.56 81.9 0 1 189.26 80.08
  C 190.44 79.31 190.39 84.32 192.36 83.74
  A 1.09 0.83 -87.5 0 0 192.99 82.99
  L 194.17 78.18
  A 0.81 0.49 -74.5 0 0 193.93 77.31
  Q 193.51 77.16 193.05 77.31
  A 1.09 0.22 -83.4 0 0 192.74 78.25
  L 192.34 81.01
  Q 192.26 81.54 191.84 81.08
  Z
  M 202.06 80.31
  Q 202.23 79.23 202.75 80.28
  L 204.22 83.27
  Q 205.46 85.78 205.99 83.01
  L 207.00 77.75
  A 0.42 0.29 -82.3 0 0 206.75 77.25
  L 206.25 77.25
  A 0.94 0.21 -72.3 0 0 205.80 78.02
  L 204.91 80.68
  Q 204.60 81.61 204.15 80.58
  L 202.71 77.30
  Q 201.88 75.41 201.44 77.47
  L 200.27 83.00
  A 0.82 0.70 -71.1 0 0 200.60 83.84
  C 201.65 84.41 201.99 80.77 202.06 80.31
  Z
  M 212.04 82.00
  L 213.25 82.04
  Q 212.82 84.09 213.98 83.69
  A 0.93 0.68 -9.7 0 0 214.58 83.07
  L 215.28 77.75
  A 0.62 0.46 7.5 0 0 214.73 77.21
  C 212.90 76.99 212.27 79.63 211.96 81.00
  L 211.29 81.00
  L 210.96 78.04
  A 0.86 0.41 85.3 0 0 210.50 77.25
  L 209.00 77.25
  A 0.92 0.46 -81.9 0 0 208.46 78.03
  C 208.31 78.83 207.23 83.45 207.80 83.82
  A 0.58 0.51 -59.5 0 0 208.57 83.57
  Q 209.35 82.13 209.25 80.50
  Q 209.20 79.78 209.75 80.08
  C 210.43 80.45 209.98 87.41 212.04 82.00
  Z
  M 222.77 83.83
  C 230.90 85.22 230.24 75.04 223.83 77.44
  A 0.96 0.65 -10.4 0 0 223.26 78.00
  L 222.20 82.99
  A 0.71 0.70 -79.4 0 0 222.77 83.83
  Z
  M 232.0278 78.0382
  A 0.61 0.61 0.0 0 0 231.5567 77.3155
  L 231.3414 77.2702
  A 0.61 0.61 0.0 0 0 230.6187 77.7413
  L 229.4722 83.1818
  A 0.61 0.61 0.0 0 0 229.9433 83.9045
  L 230.1586 83.9498
  A 0.61 0.61 0.0 0 0 230.8813 83.4787
  L 232.0278 78.0382
  Z
  M 236.59 82.65
  Q 236.85 83.61 237.74 83.77
  A 0.54 0.41 -86.5 0 0 238.22 83.22
  Q 238.20 80.72 237.55 78.30
  C 236.51 74.41 233.28 81.59 232.87 82.22
  Q 231.84 83.83 232.93 83.64
  Q 233.67 83.51 235.32 82.41
  A 0.90 0.68 -26.5 0 1 236.59 82.65
  Z
  M 246.52 82.76
  Q 247.12 83.59 248.37 83.68
  A 0.57 0.40 -0.3 0 0 249.00 83.24
  L 248.10 77.96
  Q 247.62 75.16 246.14 77.67
  L 243.09 82.83
  A 0.79 0.37 -59.0 0 0 243.00 83.69
  Q 243.58 84.03 245.42 82.61
  A 0.78 0.77 -37.1 0 1 246.52 82.76
  Z"
/>
<path fill="#4a4b4d" d="
  M 151.62 41.20
  Q 153.40 41.47 151.70 42.00
  Q 144.02 44.37 135.93 44.33
  A 1.11 0.88 75.5 0 1 135.07 43.68
  C 129.85 31.74 134.34 15.45 147.32 10.86
  C 158.20 7.01 171.61 9.55 173.53 22.73
  A 1.15 1.06 85.1 0 1 172.51 24.04
  L 162.51 24.22
  A 0.84 0.72 -10.2 0 1 161.75 23.77
  Q 159.48 18.33 154.47 19.22
  C 145.30 20.83 140.82 39.55 151.62 41.20
  Z"
/>
<path fill="#7eb000" d="
  M 168.94 47.77
  Q 168.63 49.33 169.45 47.94
  L 191.32 10.79
  A 1.01 0.56 -67.4 0 1 192.00 10.25
  L 203.75 10.25
  A 0.55 0.50 84.5 0 1 204.25 10.70
  L 210.08 44.18
  Q 210.20 44.88 210.55 44.28
  L 230.32 10.54
  A 1.07 0.52 -66.3 0 1 231.00 9.96
  L 242.76 9.82
  A 0.62 0.61 -5.4 0 1 243.38 10.32
  L 250.14 49.02
  A 0.43 0.40 84.6 0 1 249.75 49.53
  L 238.24 49.63
  A 0.69 0.69 87.4 0 1 237.54 48.99
  L 237.22 44.76
  A 0.72 0.71 -2.1 0 0 236.50 44.10
  L 223.75 44.21
  A 1.04 0.76 -71.9 0 0 223.00 44.75
  L 220.50 49.25
  A 1.03 0.72 -70.6 0 1 219.75 49.79
  L 199.00 49.95
  A 0.78 0.75 87.0 0 1 198.25 49.25
  L 197.85 44.68
  A 0.58 0.55 -3.7 0 0 197.25 44.18
  L 184.50 44.51
  A 1.01 0.49 -68.1 0 0 183.86 45.09
  L 181.33 49.82
  A 0.99 0.84 11.8 0 1 180.50 50.27
  L 160.75 50.32
  A 0.54 0.38 89.3 0 1 160.37 49.79
  L 160.31 47.24
  Q 160.29 46.65 159.85 47.12
  C 154.80 52.62 145.54 52.25 139.47 49.05
  Q 139.03 48.82 139.53 48.69
  C 147.68 46.44 154.78 44.91 159.96 37.55
  Q 160.58 36.68 159.50 36.75
  L 154.76 37.05
  A 0.47 0.46 3.8 0 1 154.27 36.50
  L 155.72 29.24
  A 0.65 0.53 -83.9 0 1 156.25 28.72
  L 172.25 28.23
  A 0.47 0.42 -84.5 0 1 172.66 28.79
  L 168.94 47.77
  Z
  M 233.86 24.57
  L 228.42 34.76
  A 0.51 0.32 -69.9 0 0 228.57 35.47
  L 235.26 35.50
  A 0.67 0.52 85.7 0 0 235.75 34.75
  L 234.54 24.76
  Q 234.40 23.57 233.86 24.57
  Z
  M 194.49 25.01
  L 189.25 34.97
  A 0.55 0.40 -72.1 0 0 189.51 35.75
  L 196.00 35.75
  A 0.69 0.55 86.3 0 0 196.53 34.99
  L 195.45 25.00
  Q 195.29 23.49 194.49 25.01
  Z"
/>
<path fill="#4a4b4d" d="
  M 125.25 29.04
  Q 130.33 31.68 130.63 36.77
  C 131.35 49.05 118.13 50.76 109.30 50.72
  Q 93.68 50.64 78.06 50.97
  A 0.63 0.54 -4.2 0 1 77.44 50.51
  L 76.76 45.75
  A 0.79 0.58 -2.8 0 0 76.00 45.25
  L 63.50 45.25
  A 0.95 0.74 -72.7 0 0 62.77 45.76
  L 60.25 50.50
  A 0.88 0.80 13.1 0 1 59.50 50.92
  L 18.75 51.23
  A 0.41 0.34 -83.1 0 1 18.44 50.74
  L 26.34 11.82
  A 0.70 0.67 -84.2 0 1 27.00 11.25
  L 38.24 11.26
  A 0.88 0.86 -84.2 0 1 39.08 12.31
  L 33.29 40.51
  A 0.45 0.42 5.0 0 0 33.75 41.02
  L 50.49 40.68
  A 0.58 0.54 85.3 0 1 51.04 41.18
  L 51.29 43.07
  Q 51.36 43.55 51.60 43.13
  L 70.17 11.57
  A 1.15 0.81 -69.6 0 1 71.00 11.00
  L 82.50 11.00
  A 0.63 0.63 -4.9 0 1 83.12 11.52
  L 89.71 49.50
  Q 89.89 50.53 90.09 49.54
  L 97.84 11.39
  A 0.66 0.64 -85.8 0 1 98.43 10.86
  Q 110.60 10.18 121.00 10.55
  C 126.13 10.72 131.72 12.48 131.84 18.95
  Q 131.97 26.29 125.28 28.66
  Q 124.83 28.82 125.25 29.04
  Z
  M 117.34 20.34
  L 109.25 20.27
  A 0.76 0.60 4.5 0 0 108.53 20.75
  L 107.48 25.49
  A 0.54 0.39 5.4 0 0 108.02 25.97
  C 112.18 26.09 117.66 26.94 119.01 23.52
  Q 120.26 20.36 117.34 20.34
  Z
  M 73.63 25.06
  L 67.98 35.98
  A 0.54 0.48 11.7 0 0 68.50 36.69
  L 74.76 36.54
  A 0.72 0.61 85.4 0 0 75.33 35.74
  L 74.16 25.27
  Q 74.04 24.25 73.63 25.06
  Z
  M 115.82 34.11
  Q 111.05 33.35 106.24 33.89
  A 0.79 0.50 -83.4 0 0 105.74 34.51
  L 104.47 40.44
  A 0.43 0.38 -81.9 0 0 104.81 40.96
  C 107.27 41.07 122.93 42.01 116.65 34.56
  A 1.43 1.31 -14.2 0 0 115.82 34.11
  Z"
/>
<path fill="#ffffff" d="
  M 117.34 20.34
  Q 120.26 20.36 119.01 23.52
  C 117.66 26.94 112.18 26.09 108.02 25.97
  A 0.54 0.39 5.4 0 1 107.48 25.49
  L 108.53 20.75
  A 0.76 0.60 4.5 0 1 109.25 20.27
  L 117.34 20.34
  Z"
/>
<path fill="#ffffff" d="
  M 233.86 24.57
  Q 234.40 23.57 234.54 24.76
  L 235.75 34.75
  A 0.67 0.52 85.7 0 1 235.26 35.50
  L 228.57 35.47
  A 0.51 0.32 -69.9 0 1 228.42 34.76
  L 233.86 24.57
  Z"
/>
<path fill="#ffffff" d="
  M 194.49 25.01
  Q 195.29 23.49 195.45 25.00
  L 196.53 34.99
  A 0.69 0.55 86.3 0 1 196.00 35.75
  L 189.51 35.75
  A 0.55 0.40 -72.1 0 1 189.25 34.97
  L 194.49 25.01
  Z"
/>
<path fill="#ffffff" d="
  M 73.63 25.06
  Q 74.04 24.25 74.16 25.27
  L 75.33 35.74
  A 0.72 0.61 85.4 0 1 74.76 36.54
  L 68.50 36.69
  A 0.54 0.48 11.7 0 1 67.98 35.98
  L 73.63 25.06
  Z"
/>
<path fill="#ffffff" d="
  M 116.65 34.56
  C 122.93 42.01 107.27 41.07 104.81 40.96
  A 0.43 0.38 -81.9 0 1 104.47 40.44
  L 105.74 34.51
  A 0.79 0.50 -83.4 0 1 106.24 33.89
  Q 111.05 33.35 115.82 34.11
  A 1.43 1.31 -14.2 0 1 116.65 34.56
  Z"
/>
<path fill="#7eb000" d="
  M 234.21 70.25
  L 234.21 68.50
  L 237.18 53.77
  A 0.67 0.58 -83.7 0 1 237.75 53.24
  L 251.43 53.10
  A 0.68 0.55 -82.2 0 1 251.93 53.93
  L 251.22 56.99
  A 0.70 0.43 -81.5 0 1 250.75 57.54
  L 242.75 57.72
  A 0.99 0.33 -1.3 0 0 241.80 58.06
  L 241.75 59.25
  A 0.73 0.46 0.1 0 0 242.50 59.72
  L 249.01 59.57
  A 0.73 0.40 1.0 0 1 249.78 60.01
  L 249.22 63.50
  A 0.75 0.58 3.5 0 1 248.50 63.99
  L 241.50 64.00
  A 0.96 0.32 0.2 0 0 240.55 64.31
  L 240.50 65.76
  A 0.72 0.53 -1.1 0 0 241.25 66.29
  L 248.76 65.96
  A 0.65 0.35 -0.8 0 1 249.46 66.32
  L 248.99 70.00
  A 0.67 0.45 2.8 0 1 248.33 70.40
  L 234.21 70.25
  Z"
/>
<path fill="#7eb000" d="
  M 193.19 54.75
  Q 194.65 55.46 195.31 56.94
  C 201.20 70.05 180.30 77.38 178.49 65.77
  C 177.10 56.81 184.85 50.70 193.19 54.75
  Z
  M 185.7357 67.1741
  A 4.94 3.35 107.0 0 0 190.3836 63.4294
  A 4.94 3.35 107.0 0 0 188.6243 57.7259
  A 4.94 3.35 107.0 0 0 183.9764 61.4706
  A 4.94 3.35 107.0 0 0 185.7357 67.1741
  Z"
/>
<path fill="#7eb000" d="
  M 211.06 61.94
  Q 211.55 62.37 212.19 62.56
  A 0.99 0.53 83.7 0 1 212.67 63.26
  C 214.88 73.03 201.17 70.82 196.10 70.71
  A 0.39 0.38 6.1 0 1 195.72 70.25
  L 198.84 54.57
  A 0.78 0.63 0.1 0 1 199.49 54.05
  Q 204.64 53.35 209.72 53.72
  Q 212.71 53.94 213.24 56.19
  Q 214.09 59.87 211.14 61.07
  A 0.54 0.49 53.2 0 0 211.06 61.94
  Z
  M 207.63 57.99
  Q 203.95 56.52 203.11 59.59
  A 0.79 0.67 12.6 0 0 203.76 60.45
  Q 205.95 60.86 207.75 59.82
  Q 209.58 58.77 207.63 57.99
  Z
  M 201.85 66.15
  Q 203.10 67.56 204.89 66.98
  Q 207.79 66.05 207.60 64.52
  A 0.74 0.52 86.3 0 0 207.07 63.86
  L 202.99 63.76
  A 1.10 0.27 -57.5 0 0 202.31 64.41
  Q 201.44 65.69 201.85 66.15
  Z"
/>
<path fill="#7eb000" d="
  M 216.32 53.82
  A 0.45 0.41 5.6 0 1 216.75 53.50
  L 221.00 53.50
  A 0.64 0.58 -83.8 0 1 221.55 54.26
  L 218.36 70.17
  A 0.92 0.56 -4.0 0 1 217.64 70.68
  Q 215.50 71.03 213.57 70.51
  A 0.60 0.59 13.6 0 1 213.14 69.82
  L 216.32 53.82
  Z"
/>
<path fill="#7eb000" d="
  M 233.54 68.50
  L 233.25 70.46
  L 220.58 70.68
  A 0.52 0.50 -84.5 0 1 220.08 70.06
  L 223.27 54.00
  A 0.62 0.46 -82.7 0 1 223.75 53.50
  L 228.26 53.50
  A 0.66 0.43 -82.2 0 1 228.62 54.27
  L 226.42 65.48
  A 0.63 0.57 -85.1 0 0 226.99 66.22
  L 233.00 66.06
  A 0.65 0.57 -7.5 0 1 233.62 66.48
  Q 233.89 67.49 233.54 68.50
  Z"
/>
<path fill="#7eb000" d="
  M 165.99 62.26
  Q 165.99 63.92 166.82 62.31
  L 170.81 54.53
  A 0.95 0.65 -71.7 0 1 171.50 54.00
  L 178.25 54.00
  A 0.44 0.40 5.7 0 1 178.69 54.49
  L 175.38 70.48
  A 0.92 0.56 -81.0 0 1 174.74 71.23
  L 170.68 71.13
  A 0.56 0.38 -81.4 0 1 170.36 70.47
  L 172.32 60.78
  Q 172.46 60.13 172.17 60.71
  L 167.45 70.51
  A 1.09 0.44 -67.7 0 1 166.75 71.22
  L 163.24 71.06
  A 0.86 0.41 88.2 0 1 162.82 70.25
  L 162.23 60.50
  Q 162.11 58.53 161.77 60.51
  L 160.02 70.50
  A 0.88 0.86 -87.8 0 1 159.25 71.23
  L 155.26 71.55
  A 0.44 0.41 -85.7 0 1 154.83 71.02
  L 158.12 54.83
  A 0.73 0.62 -83.3 0 1 158.75 54.25
  L 165.50 54.25
  A 0.76 0.50 -90.0 0 1 166.00 55.01
  L 165.99 62.26
  Z"
/>
<ellipse fill="#ffffff" cx="0.00" cy="0.00" transform="translate(187.18,62.45) rotate(107.0)" rx="4.94" ry="3.35"/>
<path fill="#ffffff" d="
  M 207.63 57.99
  Q 209.58 58.77 207.75 59.82
  Q 205.95 60.86 203.76 60.45
  A 0.79 0.67 12.6 0 1 203.11 59.59
  Q 203.95 56.52 207.63 57.99
  Z"
/>
<path fill="#ffffff" d="
  M 201.85 66.15
  Q 201.44 65.69 202.31 64.41
  A 1.10 0.27 -57.5 0 1 202.99 63.76
  L 207.07 63.86
  A 0.74 0.52 86.3 0 1 207.60 64.52
  Q 207.79 66.05 204.89 66.98
  Q 203.10 67.56 201.85 66.15
  Z"
/>
<path fill="#c7ed8e" d="
  M 233.54 68.50
  L 234.21 68.50
  L 234.21 70.25
  L 233.25 70.46
  L 233.54 68.50
  Z"
/>
<path fill="#c7ed8e" d="
  M 184.54 75.21
  Q 185.91 75.46 184.52 76.30
  A 0.65 0.21 -29.8 0 1 183.82 76.45
  Q 183.70 76.10 183.75 75.76
  A 0.68 0.66 9.2 0 1 184.54 75.21
  Z"
/>
<path fill="#76b106" d="
  M 51.23 83.65
  C 50.48 83.09 54.15 78.06 54.69 77.39
  A 0.68 0.45 -46.7 0 1 55.57 77.18
  L 56.55 78.49
  A 3.71 0.73 -88.3 0 1 57.00 81.21
  Q 57.07 85.25 55.47 82.91
  A 0.96 0.81 69.1 0 0 54.71 82.49
  Q 53.22 82.54 52.06 83.48
  A 0.82 0.50 -42.6 0 1 51.23 83.65
  Z
  M 55.30 80.70
  C 56.11 77.01 52.60 81.30 54.69 81.26
  A 0.70 0.64 -84.7 0 0 55.30 80.70
  Z"
/>
<path fill="#79b311" d="
  M 135.29 79.59
  Q 140.10 80.55 134.79 80.85
  A 0.68 0.68 -3.0 0 0 134.15 81.56
  Q 134.23 83.40 136.49 82.67
  A 0.86 0.44 -18.5 0 1 137.44 82.81
  Q 137.59 83.25 137.44 83.69
  A 1.02 0.44 6.3 0 1 136.50 83.98
  L 133.00 83.77
  A 0.54 0.44 5.5 0 1 132.48 83.25
  L 133.39 77.68
  A 0.70 0.41 -0.8 0 1 134.02 77.30
  L 136.35 77.14
  Q 136.98 77.10 137.30 77.23
  C 140.46 78.54 135.12 77.71 134.82 79.19
  A 0.53 0.30 10.8 0 0 135.29 79.59
  Z"
/>
<rect fill="#76b106" x="-0.69" y="-3.48" transform="translate(198.47,80.54) rotate(10.4)" width="1.38" height="6.96" rx="0.65"/>
<path fill="#79b311" d="
  M 218.25 82.75
  L 220.25 82.75
  A 0.51 0.50 89.4 0 1 220.75 83.25
  L 220.75 83.50
  A 0.37 0.18 90.0 0 1 220.57 83.87
  L 216.44 83.87
  A 0.51 0.44 -83.6 0 1 216.02 83.26
  L 217.03 77.81
  A 0.80 0.71 2.6 0 1 217.75 77.22
  L 220.76 77.04
  A 0.86 0.30 -3.7 0 1 221.60 77.27
  Q 221.94 79.19 219.69 78.33
  A 0.97 0.57 22.0 0 0 218.60 78.49
  Q 217.83 80.27 220.51 79.91
  Q 221.70 79.75 221.21 80.42
  Q 221.02 80.68 220.74 80.75
  Q 220.20 80.87 220.00 80.81
  Q 217.87 80.16 217.74 82.22
  A 0.51 0.49 2.1 0 0 218.25 82.75
  Z"
/>
<path fill="#76b106" d="
  M 242.15 78.93
  L 241.24 83.00
  A 1.38 1.21 82.4 0 1 240.68 83.84
  C 238.88 85.00 240.56 79.55 240.64 79.03
  A 0.47 0.35 -86.9 0 0 240.28 78.49
  Q 238.64 78.62 239.25 77.32
  A 1.11 0.38 11.0 0 1 240.31 77.17
  Q 241.91 77.42 243.42 77.05
  A 0.49 0.44 -88.0 0 1 243.93 77.67
  Q 243.69 78.61 242.75 78.50
  A 0.56 0.56 9.4 0 0 242.15 78.93
  Z"
/>
<path fill="#76b106" d="
  M 18.50 82.74
  L 19.94 82.70
  A 0.87 0.30 -5.8 0 1 20.65 82.87
  Q 21.55 84.21 17.34 83.81
  A 1.03 1.03 8.7 0 1 16.43 82.57
  C 16.52 82.19 16.82 76.22 18.43 77.39
  A 0.95 0.71 -70.5 0 1 18.69 78.24
  L 17.98 82.25
  A 0.50 0.42 3.1 0 0 18.50 82.74
  Z"
/>
<path fill="#76b106" d="
  M 24.79 78.30
  Q 26.87 75.35 27.23 78.80
  L 27.70 83.21
  A 0.69 0.42 84.3 0 1 27.34 83.95
  L 27.07 83.97
  A 0.58 0.51 -14.9 0 1 26.53 83.70
  Q 25.10 80.99 23.21 83.45
  A 0.93 0.86 -64.5 0 1 22.34 83.80
  C 21.08 83.54 24.39 78.86 24.79 78.30
  Z
  M 24.93 81.02
  Q 24.92 82.10 25.69 81.43
  Q 26.43 80.78 26.10 79.94
  A 0.46 0.43 62.7 0 0 25.45 79.71
  Q 24.95 80.05 24.93 81.02
  Z"
/>
<path fill="#79b311" d="
  M 34.59 77.64
  A 1.15 1.11 -66.9 0 1 35.21 79.25
  Q 34.49 80.63 34.79 82.25
  A 0.90 0.74 75.5 0 1 34.35 83.20
  Q 31.92 84.17 29.25 83.67
  A 0.57 0.56 -79.1 0 1 28.81 83.01
  L 29.75 78.00
  A 0.84 0.67 -88.3 0 1 30.31 77.34
  Q 32.48 76.95 34.59 77.64
  Z
  M 31.02 78.97
  C 30.71 80.10 33.72 80.36 33.54 79.04
  A 0.62 0.53 85.8 0 0 33.00 78.50
  L 31.75 78.51
  A 0.80 0.61 4.9 0 0 31.02 78.97
  Z
  M 32.86 81.15
  Q 31.95 80.70 31.07 80.81
  A 0.71 0.62 -7.3 0 0 30.45 81.52
  Q 30.67 83.40 32.58 82.58
  Q 34.26 81.85 32.86 81.15
  Z"
/>
<path fill="#79b311" d="
  M 42.9268 78.4991
  A 3.67 3.26 -33.6 0 1 41.6741 83.2453
  A 3.67 3.26 -33.6 0 1 36.8132 82.5609
  A 3.67 3.26 -33.6 0 1 38.0659 77.8147
  A 3.67 3.26 -33.6 0 1 42.9268 78.4991
  Z
  M 38.5266 82.4040
  A 2.25 1.91 125.4 0 0 41.3869 81.6764
  A 2.25 1.91 125.4 0 0 41.1334 78.7360
  A 2.25 1.91 125.4 0 0 38.2731 79.4636
  A 2.25 1.91 125.4 0 0 38.5266 82.4040
  Z"
/>
<path fill="#79b311" d="
  M 47.78 77.02
  C 52.51 78.56 49.66 80.04 49.71 82.94
  A 1.60 1.27 66.0 0 1 49.50 83.76
  Q 49.21 84.22 48.56 83.93
  A 0.92 0.63 -74.4 0 1 48.24 82.99
  Q 48.58 81.24 46.75 81.25
  A 0.81 0.72 7.8 0 0 46.00 81.75
  L 45.49 83.24
  A 1.03 0.48 -75.5 0 1 44.88 83.98
  C 43.31 84.08 44.88 78.80 45.02 78.40
  Q 45.72 76.35 47.78 77.02
  Z
  M 46.49 79.06
  Q 46.28 81.04 48.26 79.95
  A 0.87 0.45 -27.7 0 0 48.79 79.20
  Q 48.37 78.08 47.01 78.54
  A 0.78 0.51 -11.8 0 0 46.49 79.06
  Z"
/>
<path fill="#76b106" d="
  M 59.01 78.49
  Q 58.18 78.54 57.97 77.76
  A 0.73 0.41 -3.7 0 1 58.75 77.25
  L 62.24 77.25
  Q 63.02 77.25 62.54 77.88
  Q 62.19 78.34 61.61 78.51
  A 0.96 0.50 -10.0 0 0 60.97 79.00
  L 60.03 82.76
  A 1.50 0.91 88.7 0 1 59.59 83.52
  C 57.50 85.18 59.33 79.32 59.37 79.06
  A 0.49 0.36 -85.8 0 0 59.01 78.49
  Z"
/>
<path fill="#76b106" d="
  M 69.4398 78.4683
  A 3.64 3.25 -34.5 0 1 68.2808 83.2084
  A 3.64 3.25 -34.5 0 1 63.4402 82.5917
  A 3.64 3.25 -34.5 0 1 64.5992 77.8516
  A 3.64 3.25 -34.5 0 1 69.4398 78.4683
  Z
  M 65.3100 82.5519
  A 2.30 1.89 120.0 0 0 68.0968 81.5050
  A 2.30 1.89 120.0 0 0 67.6100 78.5681
  A 2.30 1.89 120.0 0 0 64.8232 79.6150
  A 2.30 1.89 120.0 0 0 65.3100 82.5519
  Z"
/>
<path fill="#79b311" d="
  M 74.31 81.37
  Q 72.33 80.92 72.13 83.10
  A 1.37 0.71 -22.6 0 1 71.43 83.93
  Q 71.23 84.04 71.01 84.00
  A 0.75 0.45 -80.4 0 1 70.69 83.19
  L 71.54 78.02
  A 1.02 0.70 -8.6 0 1 72.24 77.37
  Q 74.99 76.53 76.87 78.31
  A 1.18 0.64 -62.7 0 1 76.89 79.42
  Q 76.23 81.00 76.54 82.75
  A 0.95 0.44 78.7 0 1 76.31 83.72
  Q 74.53 84.33 74.90 82.00
  A 0.73 0.52 11.3 0 0 74.31 81.37
  Z
  M 73.05 79.31
  C 73.25 82.36 78.27 77.38 73.54 78.67
  A 0.68 0.61 -10.4 0 0 73.05 79.31
  Z"
/>
<rect fill="#79b311" x="-0.78" y="-3.34" transform="translate(79.11,80.56) rotate(9.9)" width="1.56" height="6.68" rx="0.74"/>
<path fill="#79b311" d="
  M 87.6323 78.5752
  A 3.67 3.24 -32.0 0 1 86.2369 83.2677
  A 3.67 3.24 -32.0 0 1 81.4077 82.4648
  A 3.67 3.24 -32.0 0 1 82.8031 77.7723
  A 3.67 3.24 -32.0 0 1 87.6323 78.5752
  Z
  M 83.4738 82.5024
  A 2.28 1.84 119.6 0 0 86.1999 81.4289
  A 2.28 1.84 119.6 0 0 85.7262 78.5376
  A 2.28 1.84 119.6 0 0 83.0001 79.6111
  A 2.28 1.84 119.6 0 0 83.4738 82.5024
  Z"
/>
<path fill="#76b106" d="
  M 95.29 81.00
  L 96.04 82.25
  Q 95.99 83.83 94.81 83.85
  A 0.60 0.55 86.1 0 1 94.25 83.31
  C 93.49 76.10 93.25 84.09 92.01 83.89
  A 0.55 0.54 9.9 0 1 91.56 83.26
  L 92.49 78.00
  A 0.90 0.75 -84.2 0 1 93.25 77.25
  L 94.50 77.25
  A 0.87 0.40 84.7 0 1 94.96 78.04
  L 95.29 81.00
  Z"
/>
<path fill="#79b311" d="
  M 97.04 82.50
  Q 98.94 77.23 96.29 82.00
  L 96.04 82.25
  L 95.29 81.00
  Q 96.75 79.86 97.13 77.99
  A 0.90 0.52 -80.4 0 1 97.74 77.25
  L 99.18 77.30
  A 0.85 0.37 -81.7 0 1 99.43 78.23
  L 98.56 83.26
  A 0.78 0.69 -89.4 0 1 97.99 83.89
  Q 96.95 84.09 97.04 82.50
  Z"
/>
<path fill="#76b106" d="
  M 106.6234 78.2880
  A 3.61 3.22 -38.8 0 1 105.8277 83.0595
  A 3.61 3.22 -38.8 0 1 100.9966 82.8120
  A 3.61 3.22 -38.8 0 1 101.7923 78.0405
  A 3.61 3.22 -38.8 0 1 106.6234 78.2880
  Z
  M 102.8143 82.5760
  A 2.28 1.88 117.3 0 0 105.5306 81.4123
  A 2.28 1.88 117.3 0 0 104.9057 78.5240
  A 2.28 1.88 117.3 0 0 102.1894 79.6877
  A 2.28 1.88 117.3 0 0 102.8143 82.5760
  Z"
/>
<path fill="#79b311" d="
  M 110.60 80.72
  C 110.94 79.78 112.54 76.22 113.34 77.31
  A 1.00 0.68 -55.5 0 1 113.34 78.21
  C 112.85 79.27 110.88 84.26 109.44 83.71
  A 0.99 0.79 -88.8 0 1 108.91 83.02
  L 108.01 78.50
  A 1.11 0.34 75.6 0 1 108.05 77.56
  Q 108.75 76.87 109.45 77.56
  A 1.06 0.45 -72.9 0 1 109.54 78.44
  Q 109.23 79.87 110.08 80.84
  A 0.32 0.30 -56.5 0 0 110.60 80.72
  Z"
/>
<path fill="#79b311" d="
  M 113.76 82.79
  C 113.89 81.95 114.37 77.12 115.55 77.34
  A 0.72 0.54 -84.7 0 1 115.98 78.04
  C 115.93 79.46 115.30 85.35 113.95 83.71
  A 1.32 0.81 -70.2 0 1 113.76 82.79
  Z"
/>
<path fill="#76b106" d="
  M 118.75 82.75
  L 121.00 82.75
  A 0.49 0.24 0.4 0 1 121.50 83.00
  L 121.50 83.25
  A 0.34 0.19 89.2 0 1 121.32 83.58
  L 117.00 83.84
  A 0.64 0.46 -83.5 0 1 116.57 83.07
  L 117.53 78.50
  A 1.73 1.02 86.4 0 1 117.98 77.61
  C 120.25 75.57 118.42 81.85 118.37 82.18
  A 0.51 0.40 -85.7 0 0 118.75 82.75
  Z"
/>
<path fill="#76b106" d="
  M 126.58 77.47
  C 133.82 75.09 133.40 85.71 125.55 83.53
  A 0.63 0.62 13.6 0 1 125.10 82.81
  L 125.98 78.25
  A 1.06 0.81 -89.7 0 1 126.58 77.47
  Z
  M 126.93 81.11
  C 125.70 83.56 131.04 83.19 129.89 79.23
  A 1.03 0.73 82.9 0 0 129.25 78.53
  Q 126.98 78.08 127.26 80.25
  A 1.13 0.14 -61.8 0 1 126.93 81.11
  Z"
/>
<path fill="#76b106" d="
  M 143.25 81.95
  Q 143.19 85.17 141.62 83.17
  A 1.30 0.15 -77.4 0 1 141.74 82.00
  L 142.59 78.07
  A 0.90 0.72 -87.6 0 1 143.18 77.39
  Q 144.97 77.01 146.77 77.45
  Q 149.07 78.02 147.77 80.00
  Q 146.84 81.40 147.26 83.00
  A 0.74 0.62 77.7 0 1 146.79 83.89
  Q 145.24 84.13 145.80 82.25
  A 0.75 0.48 -78.3 0 0 145.44 81.31
  L 143.83 81.32
  A 0.64 0.59 -90.0 0 0 143.25 81.95
  Z
  M 143.90 78.85
  Q 142.51 79.79 143.98 80.21
  Q 145.74 80.71 146.43 79.48
  A 0.64 0.54 -65.2 0 0 146.19 78.59
  Q 144.89 78.18 143.90 78.85
  Z"
/>
<path fill="#79b311" d="
  M 151.51 79.77
  L 153.25 79.75
  A 0.72 0.46 1.4 0 1 154.00 80.25
  Q 153.98 80.45 153.81 80.57
  A 0.68 0.11 -35.6 0 1 153.26 80.84
  Q 150.90 80.06 150.41 82.17
  A 0.63 0.45 -2.6 0 0 151.17 82.66
  Q 153.83 82.17 153.39 83.54
  A 0.67 0.49 -72.9 0 1 152.73 84.03
  Q 151.37 83.65 150.02 84.01
  A 1.05 0.90 -89.8 0 1 148.94 82.75
  L 149.90 77.94
  A 0.79 0.67 -2.7 0 1 150.50 77.38
  C 151.02 77.27 154.85 76.81 154.65 77.85
  A 0.56 0.46 11.7 0 1 154.00 78.19
  Q 152.01 77.73 151.25 79.22
  A 0.38 0.33 -75.1 0 0 151.51 79.77
  Z"
/>
<path fill="#76b106" d="
  M 158.76 82.54
  Q 157.32 82.00 156.48 83.23
  A 1.36 0.86 -68.0 0 1 155.70 83.79
  C 154.03 84.03 157.73 76.81 159.63 77.25
  A 0.87 0.74 -87.8 0 1 160.22 78.00
  L 160.77 83.24
  A 0.53 0.53 -2.9 0 1 160.24 83.82
  Q 159.57 83.80 159.30 83.05
  A 0.96 0.75 5.5 0 0 158.76 82.54
  Z
  M 158.5561 81.5486
  A 1.03 0.63 93.0 0 0 159.2391 80.5530
  A 1.03 0.63 93.0 0 0 158.6639 79.4914
  A 1.03 0.63 93.0 0 0 157.9809 80.4870
  A 1.03 0.63 93.0 0 0 158.5561 81.5486
  Z"
/>
<path fill="#76b106" d="
  M 164.74 82.78
  Q 166.05 82.82 166.80 81.81
  A 0.51 0.48 -46.8 0 1 167.58 81.76
  C 169.22 83.73 164.23 84.29 162.59 82.88
  A 1.45 1.35 -75.4 0 1 162.13 82.03
  C 161.56 78.35 165.62 75.11 168.20 78.17
  A 0.88 0.67 43.3 0 1 168.35 79.08
  Q 167.81 79.97 167.05 79.19
  A 1.22 0.14 46.7 0 0 166.25 78.51
  Q 163.65 78.11 163.41 80.68
  A 1.95 1.44 -85.8 0 0 164.74 82.78
  Z"
/>
<path fill="#76b106" d="
  M 171.57 82.67
  Q 172.90 83.05 173.81 82.06
  A 1.23 0.43 -50.3 0 1 174.75 81.50
  Q 175.55 81.76 175.00 82.50
  Q 174.55 83.09 174.46 83.14
  C 166.93 87.04 167.96 74.28 175.03 77.78
  A 0.98 0.70 17.9 0 1 175.58 78.52
  Q 175.54 80.70 173.95 78.80
  A 1.05 0.66 60.6 0 0 173.23 78.41
  Q 169.91 78.67 170.77 81.98
  A 1.22 0.88 5.0 0 0 171.57 82.67
  Z"
/>
<rect fill="#76b106" x="-0.71" y="-3.41" transform="translate(177.60,80.60) rotate(12.3)" width="1.42" height="6.82" rx="0.52"/>
<path fill="#76b106" d="
  M 185.6697 78.0935
  A 3.65 3.24 -42.3 0 1 185.1506 82.9464
  A 3.65 3.24 -42.3 0 1 180.2703 83.0065
  A 3.65 3.24 -42.3 0 1 180.7894 78.1536
  A 3.65 3.24 -42.3 0 1 185.6697 78.0935
  Z
  M 181.8890 82.5785
  A 2.31 1.89 119.6 0 0 184.6733 81.5036
  A 2.31 1.89 119.6 0 0 184.1710 78.5615
  A 2.31 1.89 119.6 0 0 181.3867 79.6364
  A 2.31 1.89 119.6 0 0 181.8890 82.5785
  Z"
/>
<path fill="#76b106" d="
  M 192.34 81.01
  L 192.74 78.25
  A 1.09 0.22 -83.4 0 1 193.05 77.31
  Q 193.51 77.16 193.93 77.31
  A 0.81 0.49 -74.5 0 1 194.17 78.18
  L 192.99 82.99
  A 1.09 0.83 -87.5 0 1 192.36 83.74
  C 190.39 84.32 190.44 79.31 189.26 80.08
  A 0.70 0.56 81.9 0 0 189.01 80.50
  L 188.44 83.43
  A 0.73 0.68 -81.6 0 1 187.71 84.01
  C 186.96 83.95 187.50 76.52 189.59 77.28
  A 1.09 0.73 86.2 0 1 190.14 77.99
  Q 190.62 79.76 191.84 81.08
  Q 192.26 81.54 192.34 81.01
  Z"
/>
<path fill="#79b311" d="
  M 202.06 80.31
  C 201.99 80.77 201.65 84.41 200.60 83.84
  A 0.82 0.70 -71.1 0 1 200.27 83.00
  L 201.44 77.47
  Q 201.88 75.41 202.71 77.30
  L 204.15 80.58
  Q 204.60 81.61 204.91 80.68
  L 205.80 78.02
  A 0.94 0.21 -72.3 0 1 206.25 77.25
  L 206.75 77.25
  A 0.42 0.29 -82.3 0 1 207.00 77.75
  L 205.99 83.01
  Q 205.46 85.78 204.22 83.27
  L 202.75 80.28
  Q 202.23 79.23 202.06 80.31
  Z"
/>
<path fill="#79b311" d="
  M 211.29 81.00
  L 212.04 82.00
  C 209.98 87.41 210.43 80.45 209.75 80.08
  Q 209.20 79.78 209.25 80.50
  Q 209.35 82.13 208.57 83.57
  A 0.58 0.51 -59.5 0 1 207.80 83.82
  C 207.23 83.45 208.31 78.83 208.46 78.03
  A 0.92 0.46 -81.9 0 1 209.00 77.25
  L 210.50 77.25
  A 0.86 0.41 85.3 0 1 210.96 78.04
  L 211.29 81.00
  Z"
/>
<path fill="#79b311" d="
  M 213.25 82.04
  Q 214.85 78.36 212.75 81.25
  Q 212.27 81.91 211.96 81.00
  C 212.27 79.63 212.90 76.99 214.73 77.21
  A 0.62 0.46 7.5 0 1 215.28 77.75
  L 214.58 83.07
  A 0.93 0.68 -9.7 0 1 213.98 83.69
  Q 212.82 84.09 213.25 82.04
  Z"
/>
<path fill="#76b106" d="
  M 223.83 77.44
  C 230.24 75.04 230.90 85.22 222.77 83.83
  A 0.71 0.70 -79.4 0 1 222.20 82.99
  L 223.26 78.00
  A 0.96 0.65 -10.4 0 1 223.83 77.44
  Z
  M 225.23 82.62
  C 228.17 81.60 227.83 77.75 225.16 78.52
  A 0.90 0.73 -9.9 0 0 224.51 79.26
  Q 224.53 80.44 224.06 81.57
  Q 223.36 83.28 225.23 82.62
  Z"
/>
<rect fill="#76b106" x="-0.72" y="-3.39" transform="translate(230.75,80.61) rotate(11.9)" width="1.44" height="6.78" rx="0.61"/>
<path fill="#76b106" d="
  M 236.59 82.65
  A 0.90 0.68 -26.5 0 0 235.32 82.41
  Q 233.67 83.51 232.93 83.64
  Q 231.84 83.83 232.87 82.22
  C 233.28 81.59 236.51 74.41 237.55 78.30
  Q 238.20 80.72 238.22 83.22
  A 0.54 0.41 -86.5 0 1 237.74 83.77
  Q 236.85 83.61 236.59 82.65
  Z
  M 236.30 81.33
  Q 237.21 80.67 236.73 79.81
  A 0.86 0.56 -23.9 0 0 235.77 79.66
  Q 234.49 80.17 235.30 80.99
  A 1.01 0.55 47.4 0 0 236.30 81.33
  Z"
/>
<path fill="#76b106" d="
  M 246.52 82.76
  A 0.78 0.77 -37.1 0 0 245.42 82.61
  Q 243.58 84.03 243.00 83.69
  A 0.79 0.37 -59.0 0 1 243.09 82.83
  L 246.14 77.67
  Q 247.62 75.16 248.10 77.96
  L 249.00 83.24
  A 0.57 0.40 -0.3 0 1 248.37 83.68
  Q 247.12 83.59 246.52 82.76
  Z
  M 246.94 81.19
  Q 247.48 80.72 247.16 80.08
  A 0.66 0.50 66.2 0 0 246.47 79.70
  Q 245.25 80.13 246.06 80.98
  A 0.78 0.50 46.4 0 0 246.94 81.19
  Z"
/>
<path fill="#ffffff" d="
  M 33.54 79.04
  C 33.72 80.36 30.71 80.10 31.02 78.97
  A 0.80 0.61 4.9 0 1 31.75 78.51
  L 33.00 78.50
  A 0.62 0.53 85.8 0 1 33.54 79.04
  Z"
/>
<ellipse fill="#ffffff" cx="0.00" cy="0.00" transform="translate(39.83,80.57) rotate(125.4)" rx="2.25" ry="1.91"/>
<path fill="#ffffff" d="
  M 47.01 78.54
  Q 48.37 78.08 48.79 79.20
  A 0.87 0.45 -27.7 0 1 48.26 79.95
  Q 46.28 81.04 46.49 79.06
  A 0.78 0.51 -11.8 0 1 47.01 78.54
  Z"
/>
<ellipse fill="#ffffff" cx="0.00" cy="0.00" transform="translate(66.46,80.56) rotate(120.0)" rx="2.30" ry="1.89"/>
<path fill="#ffffff" d="
  M 73.54 78.67
  C 78.27 77.38 73.25 82.36 73.05 79.31
  A 0.68 0.61 -10.4 0 1 73.54 78.67
  Z"
/>
<ellipse fill="#ffffff" cx="0.00" cy="0.00" transform="translate(84.60,80.52) rotate(119.6)" rx="2.28" ry="1.84"/>
<ellipse fill="#ffffff" cx="0.00" cy="0.00" transform="translate(103.86,80.55) rotate(117.3)" rx="2.28" ry="1.88"/>
<path fill="#ffffff" d="
  M 127.26 80.25
  Q 126.98 78.08 129.25 78.53
  A 1.03 0.73 82.9 0 1 129.89 79.23
  C 131.04 83.19 125.70 83.56 126.93 81.11
  A 1.13 0.14 -61.8 0 0 127.26 80.25
  Z"
/>
<path fill="#ffffff" d="
  M 143.90 78.85
  Q 144.89 78.18 146.19 78.59
  A 0.64 0.54 -65.2 0 1 146.43 79.48
  Q 145.74 80.71 143.98 80.21
  Q 142.51 79.79 143.90 78.85
  Z"
/>
<ellipse fill="#ffffff" cx="0.00" cy="0.00" transform="translate(183.03,80.57) rotate(119.6)" rx="2.31" ry="1.89"/>
<path fill="#ffffff" d="
  M 225.16 78.52
  C 227.83 77.75 228.17 81.60 225.23 82.62
  Q 223.36 83.28 224.06 81.57
  Q 224.53 80.44 224.51 79.26
  A 0.90 0.73 -9.9 0 1 225.16 78.52
  Z"
/>
<path fill="#ffffff" d="
  M 54.69 81.26
  C 52.60 81.30 56.11 77.01 55.30 80.70
  A 0.70 0.64 -84.7 0 1 54.69 81.26
  Z"
/>
<path fill="#ffffff" d="
  M 24.93 81.02
  Q 24.95 80.05 25.45 79.71
  A 0.46 0.43 62.7 0 1 26.10 79.94
  Q 26.43 80.78 25.69 81.43
  Q 24.92 82.10 24.93 81.02
  Z"
/>
<ellipse fill="#ffffff" cx="0.00" cy="0.00" transform="translate(158.61,80.52) rotate(93.0)" rx="1.03" ry="0.63"/>
<path fill="#ffffff" d="
  M 235.30 80.99
  Q 234.49 80.17 235.77 79.66
  A 0.86 0.56 -23.9 0 1 236.73 79.81
  Q 237.21 80.67 236.30 81.33
  A 1.01 0.55 47.4 0 1 235.30 80.99
  Z"
/>
<path fill="#ffffff" d="
  M 246.06 80.98
  Q 245.25 80.13 246.47 79.70
  A 0.66 0.50 66.2 0 1 247.16 80.08
  Q 247.48 80.72 246.94 81.19
  A 0.78 0.50 46.4 0 1 246.06 80.98
  Z"
/>
<path fill="#c7ed8e" d="
  M 97.04 82.50
  L 96.29 82.00
  Q 98.94 77.23 97.04 82.50
  Z"
/>
<path fill="#c7ed8e" d="
  M 213.25 82.04
  L 212.04 82.00
  L 211.29 81.00
  L 211.96 81.00
  Q 212.27 81.91 212.75 81.25
  Q 214.85 78.36 213.25 82.04
  Z"
/>
<path fill="#ffffff" d="
  M 32.86 81.15
  Q 34.26 81.85 32.58 82.58
  Q 30.67 83.40 30.45 81.52
  A 0.71 0.62 -7.3 0 1 31.07 80.81
  Q 31.95 80.70 32.86 81.15
  Z"
/>
</svg>
