<?xml version="1.0" encoding="UTF-8" standalone="no"?>
<!DOCTYPE svg PUBLIC "-//W3C//DTD SVG 1.1//EN" "http://www.w3.org/Graphics/SVG/1.1/DTD/svg11.dtd">
<svg xmlns="http://www.w3.org/2000/svg" version="1.1" viewBox="0 0 1536 1008">
<g stroke-width="2.00" fill="none" stroke-linecap="butt">
<path stroke="#006bc4" vector-effect="non-scaling-stroke" d="
  M 825.50 150.67
  Q 821.60 153.11 818.37 150.15
  C 813.69 145.87 810.70 143.61 808.42 137.95
  A 1.64 1.55 -85.7 0 0 807.82 137.21
  C 797.93 130.69 786.55 123.67 775.18 121.06
  C 757.25 116.95 737.16 118.53 719.73 122.85
  A 1.54 1.34 -75.5 0 0 718.94 123.39
  C 718.67 123.75 718.13 124.31 717.70 124.48
  C 712.76 126.41 708.17 127.45 704.46 131.90
  C 701.14 135.89 696.88 138.64 692.70 141.47
  A 1.87 1.39 -88.7 0 0 692.11 142.23
  Q 691.39 143.99 689.54 144.00"
/>
<path stroke="#018d13" vector-effect="non-scaling-stroke" d="
  M 520.00 189.71
  Q 518.48 189.96 517.19 189.19
  A 0.58 0.52 -53.9 0 0 516.49 189.34
  L 515.81 190.15
  Q 515.42 190.61 515.34 190.97
  L 513.89 197.29
  A 1.72 1.71 -16.3 0 1 513.43 198.12
  Q 509.88 201.66 508.01 206.32
  A 1.35 1.14 49.7 0 0 508.01 207.24
  C 509.07 210.18 503.18 204.76 505.25 208.46"
/>
<path stroke="#1ca603" vector-effect="non-scaling-stroke" d="
  M 608.79 246.00
  Q 606.81 247.99 606.34 250.80
  A 1.81 1.44 -24.0 0 1 605.91 251.63
  C 604.46 253.18 604.80 263.19 604.75 265.75
  Q 604.69 269.36 607.52 278.23
  Q 607.88 279.36 607.00 280.04"
/>
<path stroke="#1ba900" vector-effect="non-scaling-stroke" d="
  M 820.75 374.29
  C 816.41 374.20 814.62 376.61 811.63 378.32
  C 800.52 384.64 789.02 387.41 776.20 391.96
  C 772.10 393.42 767.23 393.16 763.62 393.81
  C 755.69 395.25 747.14 397.09 739.06 396.07
  C 730.60 395.01 725.24 395.23 716.21 391.16
  Q 715.89 391.02 715.26 391.02
  L 711.75 391.04"
/>
<path stroke="#1ba702" vector-effect="non-scaling-stroke" d="
  M 875.54 317.50
  Q 876.28 315.91 875.11 315.06
  A 0.91 0.75 24.7 0 1 874.74 314.29
  C 875.36 309.92 878.02 306.74 879.14 303.13
  Q 881.44 295.72 882.83 288.08
  C 883.63 283.61 882.81 279.28 882.27 274.76
  Q 882.19 274.07 881.76 274.62
  Q 881.58 274.85 881.00 274.46"
/>
<path stroke="#008d12" vector-effect="non-scaling-stroke" d="
  M 962.29 251.00
  Q 962.10 250.11 961.64 250.39
  A 1.32 0.21 -32.9 0 1 960.78 250.77
  Q 959.47 250.77 960.24 249.72
  A 1.12 0.79 11.7 0 1 961.05 249.37
  Q 962.51 249.34 962.65 247.77
  A 0.57 0.49 7.8 0 0 962.17 247.23
  Q 960.90 247.03 960.28 245.91
  Q 960.10 245.59 960.06 245.95
  Q 959.78 248.02 959.29 245.45
  Q 957.99 238.59 954.06 232.90
  Q 953.79 232.51 953.72 231.99
  Q 953.36 229.39 951.18 227.79
  A 0.68 0.64 -45.1 0 0 950.38 227.82
  Q 948.43 229.37 946.00 229.96"
/>
<path stroke="#018c14" vector-effect="non-scaling-stroke" d="
  M 452.29 260.50
  L 449.68 262.34
  A 1.25 0.69 -25.1 0 0 449.15 263.07
  Q 448.96 264.81 450.26 266.48
  C 475.57 298.91 498.49 334.93 522.50 369.29"
/>
<path stroke="#399d11" vector-effect="non-scaling-stroke" d="
  M 522.50 369.29
  Q 529.02 380.99 537.49 391.27"
/>
<path stroke="#007b11" vector-effect="non-scaling-stroke" d="
  M 537.49 391.27
  Q 537.69 395.50 540.54 398.75"
/>
<path stroke="#00861b" vector-effect="non-scaling-stroke" d="
  M 540.54 398.75
  Q 540.01 400.31 540.58 401.80
  A 0.55 0.54 -25.0 0 1 540.33 402.46
  C 538.11 403.65 538.54 406.05 538.91 408.56
  A 0.61 0.61 75.9 0 1 538.52 409.22
  Q 535.90 410.19 533.98 412.27
  A 1.35 1.31 17.9 0 1 533.13 412.69
  Q 530.81 412.92 528.75 414.14
  A 1.63 1.51 30.0 0 1 527.82 414.35
  C 524.45 414.06 523.00 417.24 520.68 416.72
  A 1.89 1.16 30.2 0 0 519.74 416.74
  L 512.41 419.32
  A 1.63 0.84 29.9 0 1 511.51 419.28
  L 511.06 419.14
  A 1.29 0.88 -45.0 0 0 510.14 419.31
  Q 507.09 421.13 503.64 421.96
  C 501.58 422.46 500.36 423.55 498.44 424.31
  A 0.61 0.47 76.2 0 0 498.16 424.94
  Q 498.21 425.34 497.76 425.47
  Q 494.56 428.74 490.02 428.62
  Q 486.91 428.53 486.39 429.64
  Q 485.42 431.67 483.43 432.85
  A 1.80 1.24 23.2 0 1 482.48 433.04
  Q 479.48 432.80 478.31 435.41
  A 0.91 0.79 -79.3 0 1 477.64 435.94
  L 471.84 436.53
  A 1.16 1.04 13.3 0 0 471.05 436.96
  Q 468.92 439.83 465.65 440.82
  C 459.65 442.64 452.74 443.80 449.23 448.75
  Q 448.33 450.02 446.50 450.04
  C 443.04 450.09 435.62 449.46 434.87 454.03
  A 0.58 0.49 -2.2 0 1 434.40 454.46
  C 433.38 454.63 434.31 458.94 434.44 459.74
  A 1.45 0.81 27.6 0 0 434.93 460.49
  Q 435.75 461.18 434.71 462.50"
/>
<path stroke="#4da900" vector-effect="non-scaling-stroke" d="
  M 765.50 546.46
  Q 764.53 547.61 763.08 547.13
  Q 724.54 534.46 688.79 515.25"
/>
<path stroke="#399d00" vector-effect="non-scaling-stroke" d="
  M 688.79 515.25
  C 636.36 486.89 589.43 449.90 549.99 405.26
  Q 543.79 398.23 537.49 391.27"
/>
<path stroke="#158700" vector-effect="non-scaling-stroke" d="
  M 688.79 515.25
  Q 688.94 516.26 687.99 516.30
  A 1.12 0.90 13.9 0 0 687.20 516.67
  Q 685.97 518.21 684.69 518.23
  Q 679.67 518.32 671.94 519.30
  Q 662.49 520.51 646.65 521.20
  C 643.12 521.36 629.06 518.80 627.71 523.00"
/>
<path stroke="#008f00" vector-effect="non-scaling-stroke" d="
  M 627.71 523.00
  Q 610.35 503.93 595.00 483.21"
/>
<path stroke="#00860a" vector-effect="non-scaling-stroke" d="
  M 595.00 483.21
  Q 573.01 453.91 554.07 422.56
  C 550.13 416.03 545.64 406.43 540.54 398.75"
/>
<path stroke="#39ae03" vector-effect="non-scaling-stroke" d="
  M 626.50 370.71
  L 622.61 371.19
  A 0.22 0.21 4.5 0 1 622.36 370.92
  C 622.59 370.22 621.02 371.14 620.19 371.15
  Q 607.18 371.31 594.25 369.75
  Q 591.97 369.48 587.31 369.82
  C 584.34 370.04 581.23 369.33 578.00 369.74
  A 1.36 1.03 54.4 0 1 577.13 369.47
  Q 576.45 368.97 575.99 369.62
  A 0.98 0.75 -67.1 0 1 575.25 370.04
  Q 567.51 369.71 559.77 369.47
  C 555.13 369.33 547.61 369.90 541.43 369.09
  Q 539.35 368.82 530.57 369.13
  A 1.76 1.32 53.2 0 1 529.65 368.86
  Q 527.54 367.54 525.30 368.92
  A 1.38 1.11 30.2 0 1 524.39 369.06
  Q 523.50 368.89 522.50 369.29"
/>
<path stroke="#00990a" vector-effect="non-scaling-stroke" d="
  M 595.00 483.21
  C 592.30 484.77 589.21 484.84 586.85 486.35
  Q 584.55 487.81 582.95 489.47
  C 579.25 493.31 576.50 495.47 571.07 497.19
  Q 564.15 499.38 558.29 503.77
  C 555.50 505.86 548.93 507.10 545.14 509.17
  C 539.66 512.16 534.50 515.21 528.73 518.09
  C 524.31 520.31 520.21 523.75 516.17 525.48
  Q 509.59 528.31 502.63 530.12
  C 500.55 530.66 499.15 532.51 497.68 532.93
  Q 492.44 534.41 487.93 537.36
  C 484.88 539.35 481.03 540.72 478.09 543.61
  C 476.30 545.37 474.58 545.59 472.28 545.80
  A 0.35 0.33 75.2 0 0 472.02 546.28
  Q 472.32 546.97 472.21 547.75"
/>
<path stroke="#389c00" vector-effect="non-scaling-stroke" d="
  M 771.00 552.44
  Q 768.71 553.58 766.25 552.86
  A 1.18 1.06 36.3 0 0 765.35 552.95
  C 758.68 556.77 750.46 559.07 744.71 561.64
  Q 740.90 563.35 737.10 565.06
  C 727.17 569.55 716.63 573.09 706.43 576.99
  Q 705.97 577.16 706.46 577.16
  Q 712.60 577.15 704.68 579.00
  A 0.85 0.65 60.4 0 1 703.93 578.68
  C 702.81 577.31 694.02 581.75 692.45 582.54
  A 0.73 0.67 52.6 0 1 691.66 582.40
  Q 690.47 581.26 688.75 581.54"
/>
<path stroke="#40a500" vector-effect="non-scaling-stroke" d="
  M 688.75 581.54
  L 671.00 566.96"
/>
<path stroke="#2aa000" vector-effect="non-scaling-stroke" d="
  M 671.00 566.96
  Q 651.79 549.54 634.25 530.46"
/>
<path stroke="#159b00" vector-effect="non-scaling-stroke" d="
  M 627.71 523.00
  L 634.25 530.46"
/>
<path stroke="#15a700" vector-effect="non-scaling-stroke" d="
  M 634.25 530.46
  Q 630.33 532.14 627.23 534.99
  C 622.18 539.63 615.60 541.47 609.71 544.71
  C 607.20 546.09 604.26 546.99 601.63 548.35
  C 594.29 552.15 586.53 554.80 579.22 558.76
  C 573.56 561.82 568.34 563.87 562.70 566.30
  Q 562.35 566.45 561.97 566.90
  Q 561.40 567.57 560.49 567.55
  Q 559.89 567.54 559.53 567.69
  C 550.59 571.48 542.04 576.53 533.00 580.52
  C 526.00 583.61 521.08 586.07 515.21 589.21
  Q 512.04 590.91 510.71 594.54"
/>
<path stroke="#64bb00" vector-effect="non-scaling-stroke" d="
  M 837.25 607.71
  Q 836.41 608.18 835.37 608.14
  A 0.79 0.76 13.9 0 0 834.66 608.55
  C 832.76 612.29 828.94 613.16 825.28 614.53
  C 820.65 616.27 817.58 619.17 813.94 622.20
  Q 812.09 623.74 800.51 628.11
  A 0.78 0.75 82.1 0 0 800.02 628.79
  L 799.98 629.45
  A 0.56 0.55 -89.4 0 1 799.45 629.98
  C 798.06 630.03 796.90 629.81 795.58 630.35
  C 794.51 630.78 782.09 635.66 788.42 637.78
  C 815.93 647.00 843.09 652.30 872.50 651.75
  C 893.50 651.36 909.45 649.87 928.21 645.45
  Q 933.27 644.26 938.55 643.75
  Q 944.47 643.19 944.75 637.04"
/>
<path stroke="#4fae00" vector-effect="non-scaling-stroke" d="
  M 794.75 576.71
  Q 792.07 577.04 792.30 579.88
  A 0.56 0.55 81.3 0 1 791.87 580.48
  C 787.82 581.35 784.73 581.97 781.18 584.47
  Q 773.19 590.10 768.05 592.04
  Q 763.93 593.59 761.70 595.77
  Q 761.35 596.12 760.88 596.24
  C 758.13 596.99 755.66 598.74 753.14 599.47
  Q 741.16 602.93 730.52 609.49
  A 0.41 0.37 64.8 0 1 729.96 609.26
  Q 729.77 608.72 729.53 608.89
  A 0.88 0.44 -42.5 0 1 728.83 609.09
  C 727.61 608.58 726.72 608.38 725.59 607.70
  Q 706.18 596.00 688.75 581.54"
/>
<path stroke="#40b100" vector-effect="non-scaling-stroke" d="
  M 671.00 566.96
  L 668.75 567.02
  A 1.58 1.50 25.0 0 0 667.86 567.32
  C 656.08 576.29 641.21 581.37 627.88 587.76
  C 622.33 590.43 614.83 593.46 608.48 596.79
  A 1.12 0.60 -89.4 0 0 608.07 597.53
  L 607.91 598.49
  A 1.21 0.62 -17.7 0 1 607.24 599.16
  Q 589.02 607.94 570.66 616.42
  Q 569.45 616.98 566.20 619.05
  C 564.00 620.46 549.80 624.01 552.30 626.39
  A 0.29 0.29 57.8 0 1 552.19 626.88
  Q 550.49 627.43 550.71 628.75"
/>
<path stroke="#7d5027" vector-effect="non-scaling-stroke" d="
  M 1073.61 266.69
  Q 1070.17 268.58 1069.94 272.42
  Q 1069.75 275.42 1069.43 276.50
  C 1059.77 308.62 1048.25 340.90 1033.57 371.09
  A 1.09 1.08 -57.9 0 1 1031.93 371.47
  C 1026.60 367.29 1011.18 371.15 1005.72 373.77
  Q 1003.22 374.97 1001.07 374.23
  Q 996.41 372.61 992.89 375.69
  A 1.72 1.35 -63.1 0 1 992.03 376.09
  C 987.29 376.52 982.47 374.86 977.60 375.64
  C 970.66 376.76 963.68 377.38 956.69 378.15
  Q 953.86 378.47 951.03 379.71
  C 945.87 381.97 942.72 383.34 936.94 382.81
  Q 934.02 382.54 933.44 383.64
  Q 932.67 385.08 931.17 385.37
  A 1.28 0.92 51.5 0 1 930.29 385.12
  C 927.31 382.98 925.05 386.18 921.48 385.08
  A 1.23 1.11 36.4 0 0 920.56 385.17
  L 917.38 386.96
  A 1.84 1.52 -87.0 0 0 916.73 387.67
  Q 915.32 390.49 911.45 390.32
  Q 909.03 390.22 905.45 391.75
  C 901.82 393.31 898.53 391.79 895.00 391.24
  C 892.51 390.84 887.90 389.60 888.43 386.21
  A 0.59 0.54 -78.1 0 0 888.05 385.56
  Q 886.87 385.23 885.57 385.66
  A 0.21 0.19 87.1 0 1 885.33 385.42
  L 885.40 385.00
  Q 885.50 384.40 884.99 384.81
  Q 883.85 385.71 882.94 386.85
  C 882.80 387.03 879.31 389.33 881.74 386.36
  Q 881.93 386.12 882.18 385.94
  Q 884.33 384.34 883.75 383.96
  A 0.26 0.23 40.8 0 1 883.70 383.57
  Q 884.39 382.98 883.71 382.25"
/>
<path stroke="#7d5027" vector-effect="non-scaling-stroke" d="
  M 1045.04 526.75
  C 1043.76 526.19 1045.18 525.12 1044.72 523.95
  A 1.21 0.92 53.2 0 1 1044.73 523.06
  Q 1045.68 521.11 1045.28 519.00
  A 1.71 1.56 -40.3 0 1 1045.40 518.07
  Q 1046.27 516.08 1045.32 514.30
  A 1.43 1.19 0.4 0 0 1044.60 513.69
  Q 1042.44 512.85 1040.24 512.08
  C 1037.16 511.01 1034.48 511.60 1031.23 511.28
  C 1026.35 510.81 1021.15 511.70 1016.41 512.84
  C 1007.24 515.06 995.77 510.59 989.75 518.37
  A 0.75 0.72 -63.0 0 1 988.96 518.64
  Q 987.15 518.10 985.89 516.72
  A 0.93 0.90 63.4 0 0 985.07 516.43
  L 973.90 518.34
  A 1.26 1.04 54.7 0 1 973.01 518.10
  Q 970.76 516.48 968.28 517.35
  Q 967.83 517.51 967.34 517.44
  C 964.03 516.94 964.63 521.71 959.82 520.96
  C 955.85 520.33 953.91 521.97 950.54 522.65
  C 947.60 523.24 944.88 524.29 942.01 524.58
  Q 939.38 524.85 936.75 525.02
  A 0.31 0.26 -80.9 0 1 936.50 524.61
  Q 936.62 524.24 936.42 523.94
  A 1.22 0.73 43.1 0 1 936.19 523.14
  Q 936.40 522.14 935.52 521.88
  A 0.74 0.71 24.7 0 0 934.70 522.16
  L 932.64 525.28
  A 1.23 0.67 -66.4 0 1 931.94 525.82
  Q 930.16 526.06 928.51 525.20
  A 0.34 0.28 21.4 0 0 928.04 525.35
  L 927.96 525.71
  A 0.51 0.35 -74.5 0 1 927.46 526.13
  L 925.48 525.35
  Q 924.99 525.15 924.56 525.18
  L 918.27 525.51
  A 0.44 0.36 -84.2 0 1 917.92 524.98
  Q 918.22 523.68 917.00 523.21"
/>
<path stroke="#724c29" vector-effect="non-scaling-stroke" d="
  M 917.00 523.21
  Q 943.95 505.34 965.29 481.04
  Q 969.77 475.94 981.79 460.30
  Q 982.19 459.79 983.13 457.23
  A 0.35 0.26 -69.8 0 0 983.01 456.81
  L 982.76 456.71
  A 0.68 0.46 15.3 0 1 982.31 456.18
  L 982.41 454.41
  A 0.86 0.86 -72.4 0 0 982.01 453.63
  Q 977.63 451.01 972.54 452.06
  Q 972.06 452.16 971.59 452.00
  Q 967.69 450.72 963.78 451.72
  A 0.45 0.43 72.0 0 0 963.50 452.31
  Q 964.68 455.34 960.76 455.65
  A 0.71 0.66 -82.9 0 0 960.16 456.16
  Q 959.88 457.13 958.89 457.30
  A 1.59 1.17 9.9 0 0 958.07 457.71
  Q 955.50 460.40 951.97 458.98
  A 1.74 1.53 46.7 0 0 951.02 458.89
  Q 943.82 460.44 936.51 459.90
  C 931.69 459.54 927.75 460.06 923.21 460.40
  A 1.30 1.11 15.0 0 0 922.37 460.80
  Q 921.38 461.94 921.28 463.50
  Q 921.18 465.26 917.07 465.67
  C 912.14 466.16 907.31 465.51 902.46 466.42
  Q 900.92 466.71 899.05 466.33
  Q 895.15 465.52 891.19 466.58
  A 1.71 1.27 -70.0 0 0 890.40 467.10
  C 888.40 469.39 880.16 469.43 876.49 469.66
  C 872.06 469.94 867.10 469.11 862.25 469.29
  A 1.63 1.28 55.4 0 1 861.35 469.01
  C 859.39 467.64 857.86 469.09 856.32 469.41
  Q 852.59 470.20 848.91 471.22
  A 0.30 0.23 -25.7 0 1 848.63 471.16
  L 848.51 471.04
  A 0.68 0.53 59.3 0 0 847.97 470.83
  Q 846.03 471.23 844.03 471.35
  C 840.07 471.59 836.92 472.86 832.75 472.47
  A 0.86 0.62 -66.1 0 0 832.07 472.87
  C 831.64 473.54 825.32 473.89 824.17 473.95
  A 1.21 1.11 -70.0 0 0 823.36 474.37
  C 819.83 478.59 817.00 475.82 812.91 475.63
  Q 810.74 475.53 808.53 475.48
  Q 808.06 475.47 807.61 475.21
  Q 803.50 472.85 799.65 475.69
  Q 799.39 475.88 798.75 475.96
  L 796.63 476.23
  A 0.69 0.53 89.5 0 0 796.15 476.87
  Q 795.98 480.96 791.78 480.77
  A 0.50 0.48 3.8 0 1 791.30 480.24
  Q 791.45 478.54 792.62 477.46
  A 0.35 0.30 -49.3 0 0 792.62 476.93
  L 792.25 476.71"
/>
<path stroke="#784e28" vector-effect="non-scaling-stroke" d="
  M 917.00 523.21
  C 880.36 546.52 844.62 556.64 800.74 554.29
  Q 798.16 554.16 796.80 558.19"
/>
<path stroke="#137eca" vector-effect="non-scaling-stroke" d="
  M 699.09 242.17
  L 702.79 250.94
  Q 703.43 252.47 704.02 253.46
  C 710.35 263.97 723.61 271.51 735.03 274.89
  Q 735.32 274.98 735.89 275.36
  Q 736.50 275.77 737.26 275.62
  Q 737.84 275.51 738.22 275.62
  Q 746.17 277.96 751.19 277.40
  C 758.99 276.54 767.75 276.28 774.82 272.33
  Q 783.92 267.24 791.51 259.99
  Q 794.60 257.04 795.83 252.67
  Q 796.00 252.08 796.52 252.00
  A 1.24 0.66 2.5 0 0 797.31 251.62
  C 809.05 234.71 810.26 212.23 800.94 193.98
  Q 800.57 193.27 799.38 190.43
  C 796.25 182.99 789.42 178.78 783.69 173.67
  C 782.02 172.18 777.90 169.52 775.94 168.78
  C 775.12 168.47 768.25 165.54 768.01 165.90
  A 0.37 0.27 -59.1 0 1 767.62 166.07
  C 759.36 162.23 749.37 161.68 740.27 163.98
  A 0.10 0.08 -88.9 0 1 740.17 163.86
  Q 740.19 163.76 740.16 163.66
  A 0.42 0.31 -19.2 0 0 739.66 163.51
  C 734.11 165.58 728.00 166.77 723.16 169.62
  C 716.80 173.37 707.71 179.98 703.85 186.38
  C 702.49 188.65 700.90 190.23 699.93 192.59
  C 696.70 200.46 693.18 210.53 693.97 219.12
  Q 694.15 221.11 694.10 224.40
  Q 693.98 233.35 698.13 241.37
  C 698.23 241.56 698.18 242.09 698.60 242.00
  A 0.46 0.32 -15.6 0 1 699.09 242.17"
/>
</g>
<path fill="#0060c0" d="
  M 825.50 150.67
  Q 821.60 153.11 818.37 150.15
  C 813.69 145.87 810.70 143.61 808.42 137.95
  A 1.64 1.55 -85.7 0 0 807.82 137.21
  C 797.93 130.69 786.55 123.67 775.18 121.06
  C 757.25 116.95 737.16 118.53 719.73 122.85
  A 1.54 1.34 -75.5 0 0 718.94 123.39
  C 718.67 123.75 718.13 124.31 717.70 124.48
  C 712.76 126.41 708.17 127.45 704.46 131.90
  C 701.14 135.89 696.88 138.64 692.70 141.47
  A 1.87 1.39 -88.7 0 0 692.11 142.23
  Q 691.39 143.99 689.54 144.00
  Q 718.82 79.83 757.78 20.99
  A 0.30 0.30 45.9 0 1 758.29 21.00
  C 784.36 62.23 807.22 104.35 825.50 150.67
  Z"
/>
<path fill="#0075c7" d="
  M 825.50 150.67
  C 838.77 185.21 851.71 228.10 836.81 264.34
  C 825.29 292.33 801.45 313.37 770.88 318.75
  C 760.03 320.66 747.05 319.70 736.37 317.09
  C 732.38 316.12 728.35 315.52 724.66 314.27
  C 699.55 305.74 681.83 288.05 672.79 263.11
  Q 668.29 250.69 667.73 247.26
  C 666.75 241.14 664.63 234.74 664.85 228.62
  C 664.98 225.03 665.10 221.51 665.81 217.91
  C 667.52 209.33 668.74 200.92 671.49 192.39
  C 672.96 187.80 674.14 182.85 675.68 178.58
  Q 682.02 161.06 689.54 144.00
  Q 691.39 143.99 692.11 142.23
  A 1.87 1.39 -88.7 0 1 692.70 141.47
  C 696.88 138.64 701.14 135.89 704.46 131.90
  C 708.17 127.45 712.76 126.41 717.70 124.48
  C 718.13 124.31 718.67 123.75 718.94 123.39
  A 1.54 1.34 -75.5 0 1 719.73 122.85
  C 737.16 118.53 757.25 116.95 775.18 121.06
  C 786.55 123.67 797.93 130.69 807.82 137.21
  A 1.64 1.55 -85.7 0 1 808.42 137.95
  C 810.70 143.61 813.69 145.87 818.37 150.15
  Q 821.60 153.11 825.50 150.67
  Z
  M 699.09 242.17
  L 702.79 250.94
  Q 703.43 252.47 704.02 253.46
  C 710.35 263.97 723.61 271.51 735.03 274.89
  Q 735.32 274.98 735.89 275.36
  Q 736.50 275.77 737.26 275.62
  Q 737.84 275.51 738.22 275.62
  Q 746.17 277.96 751.19 277.40
  C 758.99 276.54 767.75 276.28 774.82 272.33
  Q 783.92 267.24 791.51 259.99
  Q 794.60 257.04 795.83 252.67
  Q 796.00 252.08 796.52 252.00
  A 1.24 0.66 2.5 0 0 797.31 251.62
  C 809.05 234.71 810.26 212.23 800.94 193.98
  Q 800.57 193.27 799.38 190.43
  C 796.25 182.99 789.42 178.78 783.69 173.67
  C 782.02 172.18 777.90 169.52 775.94 168.78
  C 775.12 168.47 768.25 165.54 768.01 165.90
  A 0.37 0.27 -59.1 0 1 767.62 166.07
  C 759.36 162.23 749.37 161.68 740.27 163.98
  A 0.10 0.08 -88.9 0 1 740.17 163.86
  Q 740.19 163.76 740.16 163.66
  A 0.42 0.31 -19.2 0 0 739.66 163.51
  C 734.11 165.58 728.00 166.77 723.16 169.62
  C 716.80 173.37 707.71 179.98 703.85 186.38
  C 702.49 188.65 700.90 190.23 699.93 192.59
  C 696.70 200.46 693.18 210.53 693.97 219.12
  Q 694.15 221.11 694.10 224.40
  Q 693.98 233.35 698.13 241.37
  C 698.23 241.56 698.18 242.09 698.60 242.00
  A 0.46 0.32 -15.6 0 1 699.09 242.17
  Z"
/>
<path fill="#007d1f" d="
  M 520.00 189.71
  Q 518.48 189.96 517.19 189.19
  A 0.58 0.52 -53.9 0 0 516.49 189.34
  L 515.81 190.15
  Q 515.42 190.61 515.34 190.97
  L 513.89 197.29
  A 1.72 1.71 -16.3 0 1 513.43 198.12
  Q 509.88 201.66 508.01 206.32
  A 1.35 1.14 49.7 0 0 508.01 207.24
  C 509.07 210.18 503.18 204.76 505.25 208.46
  Q 437.43 168.23 364.51 138.24
  C 359.68 136.26 351.52 133.87 345.32 130.61
  A 0.51 0.47 30.3 0 1 345.11 129.92
  Q 345.78 128.92 347.01 129.20
  C 355.40 131.14 363.18 131.89 371.12 134.18
  C 376.28 135.66 381.57 136.02 386.62 137.64
  Q 390.43 138.86 393.50 139.49
  Q 408.98 142.72 422.46 147.87
  C 423.84 148.40 425.49 148.56 426.75 148.99
  Q 475.08 165.46 520.00 189.71
  Z"
/>
<path fill="#007d1f" d="
  M 962.29 251.00
  Q 962.10 250.11 961.64 250.39
  A 1.32 0.21 -32.9 0 1 960.78 250.77
  Q 959.47 250.77 960.24 249.72
  A 1.12 0.79 11.7 0 1 961.05 249.37
  Q 962.51 249.34 962.65 247.77
  A 0.57 0.49 7.8 0 0 962.17 247.23
  Q 960.90 247.03 960.28 245.91
  Q 960.10 245.59 960.06 245.95
  Q 959.78 248.02 959.29 245.45
  Q 957.99 238.59 954.06 232.90
  Q 953.79 232.51 953.72 231.99
  Q 953.36 229.39 951.18 227.79
  A 0.68 0.64 -45.1 0 0 950.38 227.82
  Q 948.43 229.37 946.00 229.96
  C 988.94 203.19 1036.29 179.76 1084.58 164.49
  Q 1106.74 157.47 1112.75 156.02
  Q 1138.12 149.87 1143.26 149.03
  C 1152.75 147.46 1161.27 145.53 1169.99 144.62
  C 1173.11 144.30 1176.65 143.07 1180.21 142.99
  A 0.69 0.60 -6.2 0 1 1180.88 143.45
  C 1181.25 145.03 1162.59 150.79 1161.63 151.15
  C 1091.03 177.50 1024.84 210.42 962.29 251.00
  Z"
/>
<path fill="#2587cd" d="
  M 698.60 242.00
  C 698.18 242.09 698.23 241.56 698.13 241.37
  Q 693.98 233.35 694.10 224.40
  Q 694.15 221.11 693.97 219.12
  C 693.18 210.53 696.70 200.46 699.93 192.59
  C 700.90 190.23 702.49 188.65 703.85 186.38
  C 707.71 179.98 716.80 173.37 723.16 169.62
  C 728.00 166.77 734.11 165.58 739.66 163.51
  A 0.42 0.31 -19.2 0 1 740.16 163.66
  Q 740.19 163.76 740.17 163.86
  A 0.10 0.08 -88.9 0 0 740.27 163.98
  C 749.37 161.68 759.36 162.23 767.62 166.07
  A 0.37 0.27 -59.1 0 0 768.01 165.90
  C 768.25 165.54 775.12 168.47 775.94 168.78
  C 777.90 169.52 782.02 172.18 783.69 173.67
  C 789.42 178.78 796.25 182.99 799.38 190.43
  Q 800.57 193.27 800.94 193.98
  C 810.26 212.23 809.05 234.71 797.31 251.62
  A 1.24 0.66 2.5 0 1 796.52 252.00
  Q 796.00 252.08 795.83 252.67
  Q 794.60 257.04 791.51 259.99
  Q 783.92 267.24 774.82 272.33
  C 767.75 276.28 758.99 276.54 751.19 277.40
  Q 746.17 277.96 738.22 275.62
  Q 737.84 275.51 737.26 275.62
  Q 736.50 275.77 735.89 275.36
  Q 735.32 274.98 735.03 274.89
  C 723.61 271.51 710.35 263.97 704.02 253.46
  Q 703.43 252.47 702.79 250.94
  L 699.09 242.17
  A 0.46 0.32 -15.6 0 0 698.60 242.00
  Z"
/>
<path fill="#019c06" d="
  M 520.00 189.71
  Q 566.46 214.60 608.79 246.00
  Q 606.81 247.99 606.34 250.80
  A 1.81 1.44 -24.0 0 1 605.91 251.63
  C 604.46 253.18 604.80 263.19 604.75 265.75
  Q 604.69 269.36 607.52 278.23
  Q 607.88 279.36 607.00 280.04
  Q 558.61 240.72 505.25 208.46
  C 503.18 204.76 509.07 210.18 508.01 207.24
  A 1.35 1.14 49.7 0 1 508.01 206.32
  Q 509.88 201.66 513.43 198.12
  A 1.72 1.71 -16.3 0 0 513.89 197.29
  L 515.34 190.97
  Q 515.42 190.61 515.81 190.15
  L 516.49 189.34
  A 0.58 0.52 -53.9 0 1 517.19 189.19
  Q 518.48 189.96 520.00 189.71
  Z"
/>
<path fill="#009d04" d="
  M 962.29 251.00
  Q 916.41 280.99 875.54 317.50
  Q 876.28 315.91 875.11 315.06
  A 0.91 0.75 24.7 0 1 874.74 314.29
  C 875.36 309.92 878.02 306.74 879.14 303.13
  Q 881.44 295.72 882.83 288.08
  C 883.63 283.61 882.81 279.28 882.27 274.76
  Q 882.19 274.07 881.76 274.62
  Q 881.58 274.85 881.00 274.46
  Q 912.37 250.56 946.00 229.96
  Q 948.43 229.37 950.38 227.82
  A 0.68 0.64 -45.1 0 1 951.18 227.79
  Q 953.36 229.39 953.72 231.99
  Q 953.79 232.51 954.06 232.90
  Q 957.99 238.59 959.29 245.45
  Q 959.78 248.02 960.06 245.95
  Q 960.10 245.59 960.28 245.91
  Q 960.90 247.03 962.17 247.23
  A 0.57 0.49 7.8 0 1 962.65 247.77
  Q 962.51 249.34 961.05 249.37
  A 1.12 0.79 11.7 0 0 960.24 249.72
  Q 959.47 250.77 960.78 250.77
  A 1.32 0.21 -32.9 0 0 961.64 250.39
  Q 962.10 250.11 962.29 251.00
  Z"
/>
<path fill="#36b000" d="
  M 608.79 246.00
  C 662.70 285.35 713.63 331.49 756.65 382.60
  Q 758.91 385.27 761.35 382.61
  Q 816.13 322.95 881.00 274.46
  Q 881.58 274.85 881.76 274.62
  Q 882.19 274.07 882.27 274.76
  C 882.81 279.28 883.63 283.61 882.83 288.08
  Q 881.44 295.72 879.14 303.13
  C 878.02 306.74 875.36 309.92 874.74 314.29
  A 0.91 0.75 24.7 0 0 875.11 315.06
  Q 876.28 315.91 875.54 317.50
  Q 846.44 344.25 820.75 374.29
  C 816.41 374.20 814.62 376.61 811.63 378.32
  C 800.52 384.64 789.02 387.41 776.20 391.96
  C 772.10 393.42 767.23 393.16 763.62 393.81
  C 755.69 395.25 747.14 397.09 739.06 396.07
  C 730.60 395.01 725.24 395.23 716.21 391.16
  Q 715.89 391.02 715.26 391.02
  L 711.75 391.04
  C 681.52 349.16 646.01 313.05 607.00 280.04
  Q 607.88 279.36 607.52 278.23
  Q 604.69 269.36 604.75 265.75
  C 604.80 263.19 604.46 253.18 605.91 251.63
  A 1.81 1.44 -24.0 0 0 606.34 250.80
  Q 606.81 247.99 608.79 246.00
  Z"
/>
<path fill="#007b22" d="
  M 452.29 260.50
  L 449.68 262.34
  A 1.25 0.69 -25.1 0 0 449.15 263.07
  Q 448.96 264.81 450.26 266.48
  C 475.57 298.91 498.49 334.93 522.50 369.29
  Q 529.02 380.99 537.49 391.27
  Q 537.69 395.50 540.54 398.75
  Q 540.01 400.31 540.58 401.80
  A 0.55 0.54 -25.0 0 1 540.33 402.46
  C 538.11 403.65 538.54 406.05 538.91 408.56
  A 0.61 0.61 75.9 0 1 538.52 409.22
  Q 535.90 410.19 533.98 412.27
  A 1.35 1.31 17.9 0 1 533.13 412.69
  Q 530.81 412.92 528.75 414.14
  A 1.63 1.51 30.0 0 1 527.82 414.35
  C 524.45 414.06 523.00 417.24 520.68 416.72
  A 1.89 1.16 30.2 0 0 519.74 416.74
  L 512.41 419.32
  A 1.63 0.84 29.9 0 1 511.51 419.28
  L 511.06 419.14
  A 1.29 0.88 -45.0 0 0 510.14 419.31
  Q 507.09 421.13 503.64 421.96
  C 501.58 422.46 500.36 423.55 498.44 424.31
  A 0.61 0.47 76.2 0 0 498.16 424.94
  Q 498.21 425.34 497.76 425.47
  Q 494.56 428.74 490.02 428.62
  Q 486.91 428.53 486.39 429.64
  Q 485.42 431.67 483.43 432.85
  A 1.80 1.24 23.2 0 1 482.48 433.04
  Q 479.48 432.80 478.31 435.41
  A 0.91 0.79 -79.3 0 1 477.64 435.94
  L 471.84 436.53
  A 1.16 1.04 13.3 0 0 471.05 436.96
  Q 468.92 439.83 465.65 440.82
  C 459.65 442.64 452.74 443.80 449.23 448.75
  Q 448.33 450.02 446.50 450.04
  C 443.04 450.09 435.62 449.46 434.87 454.03
  A 0.58 0.49 -2.2 0 1 434.40 454.46
  C 433.38 454.63 434.31 458.94 434.44 459.74
  A 1.45 0.81 27.6 0 0 434.93 460.49
  Q 435.75 461.18 434.71 462.50
  Q 429.86 444.88 428.97 437.00
  C 427.50 423.88 425.44 410.23 425.14 397.60
  C 424.65 377.39 425.41 357.12 428.01 337.07
  C 429.47 325.81 430.73 314.38 433.42 303.32
  C 434.71 297.99 435.08 291.70 436.88 285.97
  C 439.56 277.45 441.00 268.69 443.88 260.20
  A 1.99 1.77 -72.9 0 1 446.08 258.86
  L 452.29 260.50
  Z"
/>
<path fill="#019c06" d="
  M 452.29 260.50
  C 518.78 279.65 579.21 320.50 626.50 370.71
  L 622.61 371.19
  A 0.22 0.21 4.5 0 1 622.36 370.92
  C 622.59 370.22 621.02 371.14 620.19 371.15
  Q 607.18 371.31 594.25 369.75
  Q 591.97 369.48 587.31 369.82
  C 584.34 370.04 581.23 369.33 578.00 369.74
  A 1.36 1.03 54.4 0 1 577.13 369.47
  Q 576.45 368.97 575.99 369.62
  A 0.98 0.75 -67.1 0 1 575.25 370.04
  Q 567.51 369.71 559.77 369.47
  C 555.13 369.33 547.61 369.90 541.43 369.09
  Q 539.35 368.82 530.57 369.13
  A 1.76 1.32 53.2 0 1 529.65 368.86
  Q 527.54 367.54 525.30 368.92
  A 1.38 1.11 30.2 0 1 524.39 369.06
  Q 523.50 368.89 522.50 369.29
  C 498.49 334.93 475.57 298.91 450.26 266.48
  Q 448.96 264.81 449.15 263.07
  A 1.25 0.69 -25.1 0 1 449.68 262.34
  L 452.29 260.50
  Z"
/>
<path fill="#835226" d="
  M 1073.61 266.69
  Q 1070.17 268.58 1069.94 272.42
  Q 1069.75 275.42 1069.43 276.50
  C 1059.77 308.62 1048.25 340.90 1033.57 371.09
  A 1.09 1.08 -57.9 0 1 1031.93 371.47
  C 1026.60 367.29 1011.18 371.15 1005.72 373.77
  Q 1003.22 374.97 1001.07 374.23
  Q 996.41 372.61 992.89 375.69
  A 1.72 1.35 -63.1 0 1 992.03 376.09
  C 987.29 376.52 982.47 374.86 977.60 375.64
  C 970.66 376.76 963.68 377.38 956.69 378.15
  Q 953.86 378.47 951.03 379.71
  C 945.87 381.97 942.72 383.34 936.94 382.81
  Q 934.02 382.54 933.44 383.64
  Q 932.67 385.08 931.17 385.37
  A 1.28 0.92 51.5 0 1 930.29 385.12
  C 927.31 382.98 925.05 386.18 921.48 385.08
  A 1.23 1.11 36.4 0 0 920.56 385.17
  L 917.38 386.96
  A 1.84 1.52 -87.0 0 0 916.73 387.67
  Q 915.32 390.49 911.45 390.32
  Q 909.03 390.22 905.45 391.75
  C 901.82 393.31 898.53 391.79 895.00 391.24
  C 892.51 390.84 887.90 389.60 888.43 386.21
  A 0.59 0.54 -78.1 0 0 888.05 385.56
  Q 886.87 385.23 885.57 385.66
  A 0.21 0.19 87.1 0 1 885.33 385.42
  L 885.40 385.00
  Q 885.50 384.40 884.99 384.81
  Q 883.85 385.71 882.94 386.85
  C 882.80 387.03 879.31 389.33 881.74 386.36
  Q 881.93 386.12 882.18 385.94
  Q 884.33 384.34 883.75 383.96
  A 0.26 0.23 40.8 0 1 883.70 383.57
  Q 884.39 382.98 883.71 382.25
  Q 927.56 340.37 977.51 306.03
  Q 1012.25 282.16 1052.00 268.28
  Q 1056.94 266.55 1072.78 263.29
  A 0.65 0.61 -16.3 0 1 1073.49 263.65
  Q 1074.13 265.15 1073.61 266.69
  Z"
/>
<path fill="#764d28" d="
  M 1073.61 266.69
  C 1074.70 272.61 1075.59 277.12 1077.32 284.11
  C 1078.44 288.66 1078.32 293.77 1079.08 297.92
  C 1082.20 314.98 1082.53 330.18 1083.27 346.50
  Q 1083.61 354.00 1082.01 387.25
  Q 1081.05 407.39 1077.24 425.41
  C 1076.32 429.78 1076.21 435.12 1074.94 439.86
  Q 1073.01 447.06 1072.81 448.11
  C 1070.88 458.06 1068.36 465.63 1064.90 476.92
  Q 1057.65 500.54 1045.04 526.75
  C 1043.76 526.19 1045.18 525.12 1044.72 523.95
  A 1.21 0.92 53.2 0 1 1044.73 523.06
  Q 1045.68 521.11 1045.28 519.00
  A 1.71 1.56 -40.3 0 1 1045.40 518.07
  Q 1046.27 516.08 1045.32 514.30
  A 1.43 1.19 0.4 0 0 1044.60 513.69
  Q 1042.44 512.85 1040.24 512.08
  C 1037.16 511.01 1034.48 511.60 1031.23 511.28
  C 1026.35 510.81 1021.15 511.70 1016.41 512.84
  C 1007.24 515.06 995.77 510.59 989.75 518.37
  A 0.75 0.72 -63.0 0 1 988.96 518.64
  Q 987.15 518.10 985.89 516.72
  A 0.93 0.90 63.4 0 0 985.07 516.43
  L 973.90 518.34
  A 1.26 1.04 54.7 0 1 973.01 518.10
  Q 970.76 516.48 968.28 517.35
  Q 967.83 517.51 967.34 517.44
  C 964.03 516.94 964.63 521.71 959.82 520.96
  C 955.85 520.33 953.91 521.97 950.54 522.65
  C 947.60 523.24 944.88 524.29 942.01 524.58
  Q 939.38 524.85 936.75 525.02
  A 0.31 0.26 -80.9 0 1 936.50 524.61
  Q 936.62 524.24 936.42 523.94
  A 1.22 0.73 43.1 0 1 936.19 523.14
  Q 936.40 522.14 935.52 521.88
  A 0.74 0.71 24.7 0 0 934.70 522.16
  L 932.64 525.28
  A 1.23 0.67 -66.4 0 1 931.94 525.82
  Q 930.16 526.06 928.51 525.20
  A 0.34 0.28 21.4 0 0 928.04 525.35
  L 927.96 525.71
  A 0.51 0.35 -74.5 0 1 927.46 526.13
  L 925.48 525.35
  Q 924.99 525.15 924.56 525.18
  L 918.27 525.51
  A 0.44 0.36 -84.2 0 1 917.92 524.98
  Q 918.22 523.68 917.00 523.21
  Q 943.95 505.34 965.29 481.04
  Q 969.77 475.94 981.79 460.30
  Q 982.19 459.79 983.13 457.23
  A 0.35 0.26 -69.8 0 0 983.01 456.81
  L 982.76 456.71
  A 0.68 0.46 15.3 0 1 982.31 456.18
  L 982.41 454.41
  A 0.86 0.86 -72.4 0 0 982.01 453.63
  Q 977.63 451.01 972.54 452.06
  Q 972.06 452.16 971.59 452.00
  Q 967.69 450.72 963.78 451.72
  A 0.45 0.43 72.0 0 0 963.50 452.31
  Q 964.68 455.34 960.76 455.65
  A 0.71 0.66 -82.9 0 0 960.16 456.16
  Q 959.88 457.13 958.89 457.30
  A 1.59 1.17 9.9 0 0 958.07 457.71
  Q 955.50 460.40 951.97 458.98
  A 1.74 1.53 46.7 0 0 951.02 458.89
  Q 943.82 460.44 936.51 459.90
  C 931.69 459.54 927.75 460.06 923.21 460.40
  A 1.30 1.11 15.0 0 0 922.37 460.80
  Q 921.38 461.94 921.28 463.50
  Q 921.18 465.26 917.07 465.67
  C 912.14 466.16 907.31 465.51 902.46 466.42
  Q 900.92 466.71 899.05 466.33
  Q 895.15 465.52 891.19 466.58
  A 1.71 1.27 -70.0 0 0 890.40 467.10
  C 888.40 469.39 880.16 469.43 876.49 469.66
  C 872.06 469.94 867.10 469.11 862.25 469.29
  A 1.63 1.28 55.4 0 1 861.35 469.01
  C 859.39 467.64 857.86 469.09 856.32 469.41
  Q 852.59 470.20 848.91 471.22
  A 0.30 0.23 -25.7 0 1 848.63 471.16
  L 848.51 471.04
  A 0.68 0.53 59.3 0 0 847.97 470.83
  Q 846.03 471.23 844.03 471.35
  C 840.07 471.59 836.92 472.86 832.75 472.47
  A 0.86 0.62 -66.1 0 0 832.07 472.87
  C 831.64 473.54 825.32 473.89 824.17 473.95
  A 1.21 1.11 -70.0 0 0 823.36 474.37
  C 819.83 478.59 817.00 475.82 812.91 475.63
  Q 810.74 475.53 808.53 475.48
  Q 808.06 475.47 807.61 475.21
  Q 803.50 472.85 799.65 475.69
  Q 799.39 475.88 798.75 475.96
  L 796.63 476.23
  A 0.69 0.53 89.5 0 0 796.15 476.87
  Q 795.98 480.96 791.78 480.77
  A 0.50 0.48 3.8 0 1 791.30 480.24
  Q 791.45 478.54 792.62 477.46
  A 0.35 0.30 -49.3 0 0 792.62 476.93
  L 792.25 476.71
  Q 835.79 427.36 883.71 382.25
  Q 884.39 382.98 883.70 383.57
  A 0.26 0.23 40.8 0 0 883.75 383.96
  Q 884.33 384.34 882.18 385.94
  Q 881.93 386.12 881.74 386.36
  C 879.31 389.33 882.80 387.03 882.94 386.85
  Q 883.85 385.71 884.99 384.81
  Q 885.50 384.40 885.40 385.00
  L 885.33 385.42
  A 0.21 0.19 87.1 0 0 885.57 385.66
  Q 886.87 385.23 888.05 385.56
  A 0.59 0.54 -78.1 0 1 888.43 386.21
  C 887.90 389.60 892.51 390.84 895.00 391.24
  C 898.53 391.79 901.82 393.31 905.45 391.75
  Q 909.03 390.22 911.45 390.32
  Q 915.32 390.49 916.73 387.67
  A 1.84 1.52 -87.0 0 1 917.38 386.96
  L 920.56 385.17
  A 1.23 1.11 36.4 0 1 921.48 385.08
  C 925.05 386.18 927.31 382.98 930.29 385.12
  A 1.28 0.92 51.5 0 0 931.17 385.37
  Q 932.67 385.08 933.44 383.64
  Q 934.02 382.54 936.94 382.81
  C 942.72 383.34 945.87 381.97 951.03 379.71
  Q 953.86 378.47 956.69 378.15
  C 963.68 377.38 970.66 376.76 977.60 375.64
  C 982.47 374.86 987.29 376.52 992.03 376.09
  A 1.72 1.35 -63.1 0 0 992.89 375.69
  Q 996.41 372.61 1001.07 374.23
  Q 1003.22 374.97 1005.72 373.77
  C 1011.18 371.15 1026.60 367.29 1031.93 371.47
  A 1.09 1.08 -57.9 0 0 1033.57 371.09
  C 1048.25 340.90 1059.77 308.62 1069.43 276.50
  Q 1069.75 275.42 1069.94 272.42
  Q 1070.17 268.58 1073.61 266.69
  Z"
/>
<path fill="#71bf00" d="
  M 626.50 370.71
  C 642.90 387.77 658.29 406.32 672.70 425.09
  C 703.69 465.47 732.96 507.34 765.50 546.46
  Q 764.53 547.61 763.08 547.13
  Q 724.54 534.46 688.79 515.25
  C 636.36 486.89 589.43 449.90 549.99 405.26
  Q 543.79 398.23 537.49 391.27
  Q 529.02 380.99 522.50 369.29
  Q 523.50 368.89 524.39 369.06
  A 1.38 1.11 30.2 0 0 525.30 368.92
  Q 527.54 367.54 529.65 368.86
  A 1.76 1.32 53.2 0 0 530.57 369.13
  Q 539.35 368.82 541.43 369.09
  C 547.61 369.90 555.13 369.33 559.77 369.47
  Q 567.51 369.71 575.25 370.04
  A 0.98 0.75 -67.1 0 0 575.99 369.62
  Q 576.45 368.97 577.13 369.47
  A 1.36 1.03 54.4 0 0 578.00 369.74
  C 581.23 369.33 584.34 370.04 587.31 369.82
  Q 591.97 369.48 594.25 369.75
  Q 607.18 371.31 620.19 371.15
  C 621.02 371.14 622.59 370.22 622.36 370.92
  A 0.22 0.21 4.5 0 0 622.61 371.19
  L 626.50 370.71
  Z"
/>
<path fill="#00a200" d="
  M 820.75 374.29
  Q 786.18 415.51 762.34 463.68
  C 761.07 466.25 760.25 470.15 758.09 473.10
  Q 757.21 474.30 756.75 472.89
  Q 753.45 462.87 748.74 453.35
  Q 732.63 420.78 711.75 391.04
  L 715.26 391.02
  Q 715.89 391.02 716.21 391.16
  C 725.24 395.23 730.60 395.01 739.06 396.07
  C 747.14 397.09 755.69 395.25 763.62 393.81
  C 767.23 393.16 772.10 393.42 776.20 391.96
  C 789.02 387.41 800.52 384.64 811.63 378.32
  C 814.62 376.61 816.41 374.20 820.75 374.29
  Z"
/>
<path fill="#007b00" d="
  M 537.49 391.27
  Q 543.79 398.23 549.99 405.26
  C 589.43 449.90 636.36 486.89 688.79 515.25
  Q 688.94 516.26 687.99 516.30
  A 1.12 0.90 13.9 0 0 687.20 516.67
  Q 685.97 518.21 684.69 518.23
  Q 679.67 518.32 671.94 519.30
  Q 662.49 520.51 646.65 521.20
  C 643.12 521.36 629.06 518.80 627.71 523.00
  Q 610.35 503.93 595.00 483.21
  Q 573.01 453.91 554.07 422.56
  C 550.13 416.03 545.64 406.43 540.54 398.75
  Q 537.69 395.50 537.49 391.27
  Z"
/>
<path fill="#009013" d="
  M 540.54 398.75
  C 545.64 406.43 550.13 416.03 554.07 422.56
  Q 573.01 453.91 595.00 483.21
  C 592.30 484.77 589.21 484.84 586.85 486.35
  Q 584.55 487.81 582.95 489.47
  C 579.25 493.31 576.50 495.47 571.07 497.19
  Q 564.15 499.38 558.29 503.77
  C 555.50 505.86 548.93 507.10 545.14 509.17
  C 539.66 512.16 534.50 515.21 528.73 518.09
  C 524.31 520.31 520.21 523.75 516.17 525.48
  Q 509.59 528.31 502.63 530.12
  C 500.55 530.66 499.15 532.51 497.68 532.93
  Q 492.44 534.41 487.93 537.36
  C 484.88 539.35 481.03 540.72 478.09 543.61
  C 476.30 545.37 474.58 545.59 472.28 545.80
  A 0.35 0.33 75.2 0 0 472.02 546.28
  Q 472.32 546.97 472.21 547.75
  Q 446.08 508.40 434.71 462.50
  Q 435.75 461.18 434.93 460.49
  A 1.45 0.81 27.6 0 1 434.44 459.74
  C 434.31 458.94 433.38 454.63 434.40 454.46
  A 0.58 0.49 -2.2 0 0 434.87 454.03
  C 435.62 449.46 443.04 450.09 446.50 450.04
  Q 448.33 450.02 449.23 448.75
  C 452.74 443.80 459.65 442.64 465.65 440.82
  Q 468.92 439.83 471.05 436.96
  A 1.16 1.04 13.3 0 1 471.84 436.53
  L 477.64 435.94
  A 0.91 0.79 -79.3 0 0 478.31 435.41
  Q 479.48 432.80 482.48 433.04
  A 1.80 1.24 23.2 0 0 483.43 432.85
  Q 485.42 431.67 486.39 429.64
  Q 486.91 428.53 490.02 428.62
  Q 494.56 428.74 497.76 425.47
  Q 498.21 425.34 498.16 424.94
  A 0.61 0.47 76.2 0 1 498.44 424.31
  C 500.36 423.55 501.58 422.46 503.64 421.96
  Q 507.09 421.13 510.14 419.31
  A 1.29 0.88 -45.0 0 1 511.06 419.14
  L 511.51 419.28
  A 1.63 0.84 29.9 0 0 512.41 419.32
  L 519.74 416.74
  A 1.89 1.16 30.2 0 1 520.68 416.72
  C 523.00 417.24 524.45 414.06 527.82 414.35
  A 1.63 1.51 30.0 0 0 528.75 414.14
  Q 530.81 412.92 533.13 412.69
  A 1.35 1.31 17.9 0 0 533.98 412.27
  Q 535.90 410.19 538.52 409.22
  A 0.61 0.61 75.9 0 0 538.91 408.56
  C 538.54 406.05 538.11 403.65 540.33 402.46
  A 0.55 0.54 -25.0 0 0 540.58 401.80
  Q 540.01 400.31 540.54 398.75
  Z"
/>
<path fill="#6d4a2a" d="
  M 917.00 523.21
  C 880.36 546.52 844.62 556.64 800.74 554.29
  Q 798.16 554.16 796.80 558.19
  Q 789.93 552.55 784.26 545.78
  C 777.38 537.58 768.06 524.99 761.15 514.27
  A 1.56 1.56 -41.6 0 1 761.26 512.43
  Q 776.92 493.57 792.25 476.71
  L 792.62 476.93
  A 0.35 0.30 -49.3 0 1 792.62 477.46
  Q 791.45 478.54 791.30 480.24
  A 0.50 0.48 3.8 0 0 791.78 480.77
  Q 795.98 480.96 796.15 476.87
  A 0.69 0.53 89.5 0 1 796.63 476.23
  L 798.75 475.96
  Q 799.39 475.88 799.65 475.69
  Q 803.50 472.85 807.61 475.21
  Q 808.06 475.47 808.53 475.48
  Q 810.74 475.53 812.91 475.63
  C 817.00 475.82 819.83 478.59 823.36 474.37
  A 1.21 1.11 -70.0 0 1 824.17 473.95
  C 825.32 473.89 831.64 473.54 832.07 472.87
  A 0.86 0.62 -66.1 0 1 832.75 472.47
  C 836.92 472.86 840.07 471.59 844.03 471.35
  Q 846.03 471.23 847.97 470.83
  A 0.68 0.53 59.3 0 1 848.51 471.04
  L 848.63 471.16
  A 0.30 0.23 -25.7 0 0 848.91 471.22
  Q 852.59 470.20 856.32 469.41
  C 857.86 469.09 859.39 467.64 861.35 469.01
  A 1.63 1.28 55.4 0 0 862.25 469.29
  C 867.10 469.11 872.06 469.94 876.49 469.66
  C 880.16 469.43 888.40 469.39 890.40 467.10
  A 1.71 1.27 -70.0 0 1 891.19 466.58
  Q 895.15 465.52 899.05 466.33
  Q 900.92 466.71 902.46 466.42
  C 907.31 465.51 912.14 466.16 917.07 465.67
  Q 921.18 465.26 921.28 463.50
  Q 921.38 461.94 922.37 460.80
  A 1.30 1.11 15.0 0 1 923.21 460.40
  C 927.75 460.06 931.69 459.54 936.51 459.90
  Q 943.82 460.44 951.02 458.89
  A 1.74 1.53 46.7 0 1 951.97 458.98
  Q 955.50 460.40 958.07 457.71
  A 1.59 1.17 9.9 0 1 958.89 457.30
  Q 959.88 457.13 960.16 456.16
  A 0.71 0.66 -82.9 0 1 960.76 455.65
  Q 964.68 455.34 963.50 452.31
  A 0.45 0.43 72.0 0 1 963.78 451.72
  Q 967.69 450.72 971.59 452.00
  Q 972.06 452.16 972.54 452.06
  Q 977.63 451.01 982.01 453.63
  A 0.86 0.86 -72.4 0 1 982.41 454.41
  L 982.31 456.18
  A 0.68 0.46 15.3 0 0 982.76 456.71
  L 983.01 456.81
  A 0.35 0.26 -69.8 0 1 983.13 457.23
  Q 982.19 459.79 981.79 460.30
  Q 969.77 475.94 965.29 481.04
  Q 943.95 505.34 917.00 523.21
  Z"
/>
<path fill="#00a200" d="
  M 595.00 483.21
  Q 610.35 503.93 627.71 523.00
  L 634.25 530.46
  Q 630.33 532.14 627.23 534.99
  C 622.18 539.63 615.60 541.47 609.71 544.71
  C 607.20 546.09 604.26 546.99 601.63 548.35
  C 594.29 552.15 586.53 554.80 579.22 558.76
  C 573.56 561.82 568.34 563.87 562.70 566.30
  Q 562.35 566.45 561.97 566.90
  Q 561.40 567.57 560.49 567.55
  Q 559.89 567.54 559.53 567.69
  C 550.59 571.48 542.04 576.53 533.00 580.52
  C 526.00 583.61 521.08 586.07 515.21 589.21
  Q 512.04 590.91 510.71 594.54
  C 495.23 578.94 483.74 565.33 472.21 547.75
  Q 472.32 546.97 472.02 546.28
  A 0.35 0.33 75.2 0 1 472.28 545.80
  C 474.58 545.59 476.30 545.37 478.09 543.61
  C 481.03 540.72 484.88 539.35 487.93 537.36
  Q 492.44 534.41 497.68 532.93
  C 499.15 532.51 500.55 530.66 502.63 530.12
  Q 509.59 528.31 516.17 525.48
  C 520.21 523.75 524.31 520.31 528.73 518.09
  C 534.50 515.21 539.66 512.16 545.14 509.17
  C 548.93 507.10 555.50 505.86 558.29 503.77
  Q 564.15 499.38 571.07 497.19
  C 576.50 495.47 579.25 493.31 582.95 489.47
  Q 584.55 487.81 586.85 486.35
  C 589.21 484.84 592.30 484.77 595.00 483.21
  Z"
/>
<path fill="#835226" d="
  M 1045.04 526.75
  Q 1021.05 577.27 982.97 618.23
  Q 981.04 620.30 978.46 621.47
  Q 970.75 624.96 961.49 625.37
  C 952.89 625.74 944.24 626.76 935.83 626.27
  C 920.69 625.39 910.85 624.44 897.71 620.93
  C 858.31 610.41 825.24 586.66 796.80 558.19
  Q 798.16 554.16 800.74 554.29
  C 844.62 556.64 880.36 546.52 917.00 523.21
  Q 918.22 523.68 917.92 524.98
  A 0.44 0.36 -84.2 0 0 918.27 525.51
  L 924.56 525.18
  Q 924.99 525.15 925.48 525.35
  L 927.46 526.13
  A 0.51 0.35 -74.5 0 0 927.96 525.71
  L 928.04 525.35
  A 0.34 0.28 21.4 0 1 928.51 525.20
  Q 930.16 526.06 931.94 525.82
  A 1.23 0.67 -66.4 0 0 932.64 525.28
  L 934.70 522.16
  A 0.74 0.71 24.7 0 1 935.52 521.88
  Q 936.40 522.14 936.19 523.14
  A 1.22 0.73 43.1 0 0 936.42 523.94
  Q 936.62 524.24 936.50 524.61
  A 0.31 0.26 -80.9 0 0 936.75 525.02
  Q 939.38 524.85 942.01 524.58
  C 944.88 524.29 947.60 523.24 950.54 522.65
  C 953.91 521.97 955.85 520.33 959.82 520.96
  C 964.63 521.71 964.03 516.94 967.34 517.44
  Q 967.83 517.51 968.28 517.35
  Q 970.76 516.48 973.01 518.10
  A 1.26 1.04 54.7 0 0 973.90 518.34
  L 985.07 516.43
  A 0.93 0.90 63.4 0 1 985.89 516.72
  Q 987.15 518.10 988.96 518.64
  A 0.75 0.72 -63.0 0 0 989.75 518.37
  C 995.77 510.59 1007.24 515.06 1016.41 512.84
  C 1021.15 511.70 1026.35 510.81 1031.23 511.28
  C 1034.48 511.60 1037.16 511.01 1040.24 512.08
  Q 1042.44 512.85 1044.60 513.69
  A 1.43 1.19 0.4 0 1 1045.32 514.30
  Q 1046.27 516.08 1045.40 518.07
  A 1.71 1.56 -40.3 0 0 1045.28 519.00
  Q 1045.68 521.11 1044.73 523.06
  A 1.21 0.92 53.2 0 0 1044.72 523.95
  C 1045.18 525.12 1043.76 526.19 1045.04 526.75
  Z"
/>
<path fill="#299300" d="
  M 688.79 515.25
  Q 724.54 534.46 763.08 547.13
  Q 764.53 547.61 765.50 546.46
  L 771.00 552.44
  Q 768.71 553.58 766.25 552.86
  A 1.18 1.06 36.3 0 0 765.35 552.95
  C 758.68 556.77 750.46 559.07 744.71 561.64
  Q 740.90 563.35 737.10 565.06
  C 727.17 569.55 716.63 573.09 706.43 576.99
  Q 705.97 577.16 706.46 577.16
  Q 712.60 577.15 704.68 579.00
  A 0.85 0.65 60.4 0 1 703.93 578.68
  C 702.81 577.31 694.02 581.75 692.45 582.54
  A 0.73 0.67 52.6 0 1 691.66 582.40
  Q 690.47 581.26 688.75 581.54
  L 671.00 566.96
  Q 651.79 549.54 634.25 530.46
  L 627.71 523.00
  C 629.06 518.80 643.12 521.36 646.65 521.20
  Q 662.49 520.51 671.94 519.30
  Q 679.67 518.32 684.69 518.23
  Q 685.97 518.21 687.20 516.67
  A 1.12 0.90 13.9 0 1 687.99 516.30
  Q 688.94 516.26 688.79 515.25
  Z"
/>
<path fill="#2aac00" d="
  M 634.25 530.46
  Q 651.79 549.54 671.00 566.96
  L 668.75 567.02
  A 1.58 1.50 25.0 0 0 667.86 567.32
  C 656.08 576.29 641.21 581.37 627.88 587.76
  C 622.33 590.43 614.83 593.46 608.48 596.79
  A 1.12 0.60 -89.4 0 0 608.07 597.53
  L 607.91 598.49
  A 1.21 0.62 -17.7 0 1 607.24 599.16
  Q 589.02 607.94 570.66 616.42
  Q 569.45 616.98 566.20 619.05
  C 564.00 620.46 549.80 624.01 552.30 626.39
  A 0.29 0.29 57.8 0 1 552.19 626.88
  Q 550.49 627.43 550.71 628.75
  Q 529.17 613.40 510.71 594.54
  Q 512.04 590.91 515.21 589.21
  C 521.08 586.07 526.00 583.61 533.00 580.52
  C 542.04 576.53 550.59 571.48 559.53 567.69
  Q 559.89 567.54 560.49 567.55
  Q 561.40 567.57 561.97 566.90
  Q 562.35 566.45 562.70 566.30
  C 568.34 563.87 573.56 561.82 579.22 558.76
  C 586.53 554.80 594.29 552.15 601.63 548.35
  C 604.26 546.99 607.20 546.09 609.71 544.71
  C 615.60 541.47 622.18 539.63 627.23 534.99
  Q 630.33 532.14 634.25 530.46
  Z"
/>
<path fill="#47a500" d="
  M 771.00 552.44
  Q 782.17 565.29 794.75 576.71
  Q 792.07 577.04 792.30 579.88
  A 0.56 0.55 81.3 0 1 791.87 580.48
  C 787.82 581.35 784.73 581.97 781.18 584.47
  Q 773.19 590.10 768.05 592.04
  Q 763.93 593.59 761.70 595.77
  Q 761.35 596.12 760.88 596.24
  C 758.13 596.99 755.66 598.74 753.14 599.47
  Q 741.16 602.93 730.52 609.49
  A 0.41 0.37 64.8 0 1 729.96 609.26
  Q 729.77 608.72 729.53 608.89
  A 0.88 0.44 -42.5 0 1 728.83 609.09
  C 727.61 608.58 726.72 608.38 725.59 607.70
  Q 706.18 596.00 688.75 581.54
  Q 690.47 581.26 691.66 582.40
  A 0.73 0.67 52.6 0 0 692.45 582.54
  C 694.02 581.75 702.81 577.31 703.93 578.68
  A 0.85 0.65 60.4 0 0 704.68 579.00
  Q 712.60 577.15 706.46 577.16
  Q 705.97 577.16 706.43 576.99
  C 716.63 573.09 727.17 569.55 737.10 565.06
  Q 740.90 563.35 744.71 561.64
  C 750.46 559.07 758.68 556.77 765.35 552.95
  A 1.18 1.06 36.3 0 1 766.25 552.86
  Q 768.71 553.58 771.00 552.44
  Z"
/>
<path fill="#56b600" d="
  M 671.00 566.96
  L 688.75 581.54
  Q 706.18 596.00 725.59 607.70
  C 726.72 608.38 727.61 608.58 728.83 609.09
  A 0.88 0.44 -42.5 0 0 729.53 608.89
  Q 729.77 608.72 729.96 609.26
  A 0.41 0.37 64.8 0 0 730.52 609.49
  Q 741.16 602.93 753.14 599.47
  C 755.66 598.74 758.13 596.99 760.88 596.24
  Q 761.35 596.12 761.70 595.77
  Q 763.93 593.59 768.05 592.04
  Q 773.19 590.10 781.18 584.47
  C 784.73 581.97 787.82 581.35 791.87 580.48
  A 0.56 0.55 81.3 0 0 792.30 579.88
  Q 792.07 577.04 794.75 576.71
  Q 814.04 594.88 837.25 607.71
  Q 836.41 608.18 835.37 608.14
  A 0.79 0.76 13.9 0 0 834.66 608.55
  C 832.76 612.29 828.94 613.16 825.28 614.53
  C 820.65 616.27 817.58 619.17 813.94 622.20
  Q 812.09 623.74 800.51 628.11
  A 0.78 0.75 82.1 0 0 800.02 628.79
  L 799.98 629.45
  A 0.56 0.55 -89.4 0 1 799.45 629.98
  C 798.06 630.03 796.90 629.81 795.58 630.35
  C 794.51 630.78 782.09 635.66 788.42 637.78
  C 815.93 647.00 843.09 652.30 872.50 651.75
  C 893.50 651.36 909.45 649.87 928.21 645.45
  Q 933.27 644.26 938.55 643.75
  Q 944.47 643.19 944.75 637.04
  L 961.26 637.57
  Q 964.38 637.67 961.91 639.68
  Q 923.99 670.77 877.60 686.48
  Q 876.99 686.69 871.86 688.61
  C 868.16 690.01 864.17 690.63 860.63 692.03
  Q 856.36 693.71 855.26 693.78
  C 849.82 694.11 844.70 696.38 840.08 697.22
  C 821.07 700.69 802.45 703.79 782.75 704.14
  Q 759.63 704.54 736.62 702.53
  Q 732.34 702.16 725.51 700.64
  C 719.44 699.29 713.34 698.78 707.35 697.25
  Q 700.98 695.63 694.47 694.62
  C 690.88 694.06 687.97 691.85 684.50 691.57
  Q 679.26 691.14 674.55 688.91
  C 669.94 686.72 665.59 687.17 660.99 684.94
  C 657.73 683.36 653.62 682.53 650.81 681.48
  C 615.03 667.99 581.67 651.28 550.71 628.75
  Q 550.49 627.43 552.19 626.88
  A 0.29 0.29 57.8 0 0 552.30 626.39
  C 549.80 624.01 564.00 620.46 566.20 619.05
  Q 569.45 616.98 570.66 616.42
  Q 589.02 607.94 607.24 599.16
  A 1.21 0.62 -17.7 0 0 607.91 598.49
  L 608.07 597.53
  A 1.12 0.60 -89.4 0 1 608.48 596.79
  C 614.83 593.46 622.33 590.43 627.88 587.76
  C 641.21 581.37 656.08 576.29 667.86 567.32
  A 1.58 1.50 25.0 0 1 668.75 567.02
  L 671.00 566.96
  Z"
/>
<path fill="#71bf00" d="
  M 837.25 607.71
  Q 846.85 613.02 856.55 618.17
  C 860.11 620.06 864.90 621.30 868.83 623.78
  Q 869.25 624.05 869.76 624.09
  Q 874.62 624.45 878.54 627.34
  Q 878.95 627.64 879.45 627.70
  Q 886.13 628.47 892.40 630.66
  Q 895.71 631.82 898.77 632.17
  C 906.95 633.10 915.08 635.68 922.93 636.19
  Q 933.83 636.90 944.75 637.04
  Q 944.47 643.19 938.55 643.75
  Q 933.27 644.26 928.21 645.45
  C 909.45 649.87 893.50 651.36 872.50 651.75
  C 843.09 652.30 815.93 647.00 788.42 637.78
  C 782.09 635.66 794.51 630.78 795.58 630.35
  C 796.90 629.81 798.06 630.03 799.45 629.98
  A 0.56 0.55 -89.4 0 0 799.98 629.45
  L 800.02 628.79
  A 0.78 0.75 82.1 0 1 800.51 628.11
  Q 812.09 623.74 813.94 622.20
  C 817.58 619.17 820.65 616.27 825.28 614.53
  C 828.94 613.16 832.76 612.29 834.66 608.55
  A 0.79 0.76 13.9 0 1 835.37 608.14
  Q 836.41 608.18 837.25 607.71
  Z"
/>
<path fill="#005bbe" d="
  M 772.99 1008.00
  L 720.44 1008.00
  L 720.31 768.54
  A 0.55 0.54 0.0 0 1 720.86 768.00
  L 772.74 768.05
  A 0.50 0.50 0.0 0 1 773.24 768.55
  L 772.99 1008.00
  Z"
/>
<path fill="#005bbe" d="
  M 196.78 1008.00
  L 110.44 1008.00
  Q 89.91 1007.59 71.75 1004.00
  C 47.12 999.14 25.60 980.92 14.22 959.03
  C -0.14 931.38 -1.60 895.99 1.79 865.67
  C 6.57 822.94 25.34 786.67 69.00 774.00
  Q 89.13 768.16 112.00 768.12
  Q 154.35 768.03 196.71 767.99
  A 0.50 0.50 0.0 0 1 197.21 768.49
  L 197.23 808.67
  A 0.35 0.35 89.7 0 1 196.88 809.02
  Q 156.13 808.93 115.31 809.07
  C 93.75 809.14 75.53 814.44 66.25 835.56
  C 58.04 854.22 55.13 876.38 55.37 896.77
  C 55.62 917.75 58.57 945.78 77.98 959.05
  C 86.62 964.96 100.65 966.63 111.00 966.55
  Q 153.59 966.23 196.80 966.23
  A 0.45 0.45 89.3 0 1 197.25 966.67
  Q 197.61 987.26 196.78 1008.00
  Z"
/>
<path fill="#005bbe" d="
  M 415.58 1008.01
  L 328.19 1008.00
  Q 306.43 1007.48 288.25 1003.50
  C 260.01 997.32 237.25 973.41 227.93 946.88
  C 218.61 920.37 217.28 891.94 220.97 864.20
  C 225.41 830.75 236.78 800.52 266.42 783.13
  C 285.54 771.92 308.84 768.44 330.75 768.31
  Q 373.10 768.06 415.45 767.99
  A 0.51 0.49 0.0 0 1 415.96 768.48
  L 415.96 809.23
  A 0.51 0.50 -0.0 0 1 415.45 809.73
  Q 372.99 809.74 330.57 809.79
  Q 320.87 809.80 309.06 813.66
  C 286.41 821.06 278.08 843.27 276.36 865.23
  A 0.54 0.54 -83.1 0 0 276.81 865.81
  C 279.74 866.32 283.15 865.71 285.39 865.71
  Q 349.83 865.92 415.01 865.47
  A 0.97 0.97 -0.3 0 1 415.99 866.44
  L 415.96 906.73
  A 0.50 0.50 0.0 0 1 415.46 907.23
  L 276.49 907.24
  A 0.45 0.45 -90.0 0 0 276.04 907.69
  C 276.19 930.32 283.46 958.50 309.35 964.24
  Q 320.22 966.65 329.75 966.57
  Q 372.60 966.19 415.45 966.26
  A 0.52 0.52 89.4 0 1 415.97 966.77
  Q 416.34 987.40 415.58 1008.01
  Z"
/>
<path fill="#005bbe" d="
  M 671.15 1008.00
  L 612.94 1008.00
  L 510.09 827.33
  Q 509.54 826.35 509.55 827.48
  L 511.68 1008.00
  L 460.13 1008.00
  L 460.00 768.32
  A 0.31 0.31 -90.0 0 1 460.31 768.01
  L 523.47 768.03
  A 0.90 0.86 74.0 0 1 524.22 768.47
  L 621.60 939.43
  Q 622.21 940.51 622.19 939.27
  L 619.84 768.30
  A 0.28 0.28 0.0 0 1 620.12 768.02
  L 670.74 768.05
  A 0.50 0.50 0.0 0 1 671.24 768.55
  L 671.15 1008.00
  Z"
/>
<path fill="#005bbe" d="
  M 1029.35 1008.00
  L 918.44 1008.00
  C 885.93 1007.01 857.86 1003.30 834.79 977.69
  C 805.39 945.06 804.03 891.91 811.64 851.43
  C 818.60 814.39 838.65 784.82 876.18 774.13
  Q 897.15 768.16 919.01 768.12
  Q 973.97 768.03 1028.95 767.99
  A 0.51 0.50 0.0 0 1 1029.46 768.49
  L 1029.48 809.17
  A 0.35 0.34 0.0 0 1 1029.13 809.51
  Q 972.50 809.45 915.82 809.55
  Q 906.98 809.57 897.24 813.38
  C 881.36 819.60 875.11 830.61 870.35 846.59
  C 861.31 876.92 860.75 916.19 875.75 944.71
  C 883.33 959.13 901.19 964.53 917.26 964.63
  Q 947.34 964.81 977.46 964.40
  A 0.30 0.29 -1.0 0 0 977.75 964.11
  L 977.75 908.49
  A 0.51 0.50 0.0 0 0 977.24 907.99
  L 910.77 907.97
  A 0.50 0.49 0.0 0 1 910.27 907.48
  L 910.26 865.81
  A 0.31 0.31 -0.1 0 1 910.57 865.50
  L 1029.19 865.50
  A 0.31 0.31 0.0 0 1 1029.50 865.81
  L 1029.35 1008.00
  Z"
/>
<path fill="#005bbe" d="
  M 1536.00 1006.31
  L 1536.00 1008.00
  L 1480.69 1008.00
  L 1458.74 951.37
  A 0.95 0.93 79.6 0 0 1457.86 950.75
  L 1354.67 950.75
  A 0.71 0.71 9.9 0 0 1354.00 951.22
  L 1332.51 1008.03
  L 1239.44 1008.00
  L 1217.39 951.23
  A 0.73 0.72 -10.5 0 0 1216.71 950.77
  L 1113.53 950.76
  A 0.76 0.73 -78.8 0 0 1112.84 951.24
  L 1091.08 1008.05
  L 1038.55 1007.84
  L 1139.42 768.55
  A 0.77 0.74 -78.0 0 1 1140.11 768.08
  L 1192.71 768.05
  A 0.77 0.75 78.0 0 1 1193.40 768.51
  L 1287.26 988.76
  Q 1287.51 989.34 1287.75 988.76
  L 1380.64 768.59
  A 0.96 0.96 -78.3 0 1 1381.52 768.01
  L 1433.84 768.01
  A 0.89 0.89 -11.5 0 1 1434.66 768.55
  L 1536.00 1006.31
  Z
  M 1129.40 907.75
  A 0.32 0.32 10.3 0 0 1129.70 908.18
  L 1200.36 907.81
  A 0.32 0.32 -10.9 0 0 1200.65 907.38
  L 1164.85 816.58
  A 0.32 0.32 44.7 0 0 1164.25 816.58
  L 1129.40 907.75
  Z
  M 1370.64 907.78
  A 0.30 0.30 -79.7 0 0 1370.92 908.18
  L 1441.58 907.81
  A 0.30 0.30 79.1 0 0 1441.86 907.40
  L 1406.05 816.47
  A 0.30 0.30 44.8 0 0 1405.49 816.47
  L 1370.64 907.78
  Z"
/>
</svg>
