<?xml version="1.0" encoding="UTF-8" standalone="no"?>
<!DOCTYPE svg PUBLIC "-//W3C//DTD SVG 1.1//EN" "http://www.w3.org/Graphics/SVG/1.1/DTD/svg11.dtd">
<svg xmlns="http://www.w3.org/2000/svg" version="1.1" viewBox="0 0 486 165">
<g stroke-width="2.00" fill="none" stroke-linecap="butt">
<path stroke="#87bce0" vector-effect="non-scaling-stroke" d="
  M 113.89 47.12
  C 115.70 49.81 121.38 52.07 124.34 52.38
  C 136.64 53.67 145.86 39.79 141.11 28.67
  C 135.87 16.41 122.74 13.39 111.09 12.18
  Q 108.88 11.96 106.42 12.28
  C 102.48 12.81 97.95 13.14 94.68 13.70
  Q 79.48 16.33 65.47 22.91
  Q 65.02 23.12 65.52 23.03
  Q 73.04 21.71 74.50 21.55
  C 90.23 19.81 105.39 34.47 113.89 47.12"
/>
<path stroke="#80cf8b" vector-effect="non-scaling-stroke" d="
  M 56.50 48.04
  L 60.00 47.04"
/>
<path stroke="#95d587" vector-effect="non-scaling-stroke" d="
  M 60.00 47.04
  Q 58.77 48.89 56.75 49.96"
/>
<path stroke="#80c78f" vector-effect="non-scaling-stroke" d="
  M 56.75 49.96
  Q 39.63 63.53 34.04 84.78
  A 0.37 0.37 -83.6 0 0 34.41 85.25
  C 59.80 84.56 88.18 78.28 96.79 50.72"
/>
<path stroke="#95d587" vector-effect="non-scaling-stroke" d="
  M 96.79 50.72
  Q 98.29 45.79 97.67 41.22"
/>
<path stroke="#80cf8b" vector-effect="non-scaling-stroke" d="
  M 97.67 41.22
  Q 83.52 28.81 64.88 29.38"
/>
<path stroke="#a2d787" vector-effect="non-scaling-stroke" d="
  M 64.88 29.38
  C 34.16 29.32 14.25 50.74 9.86 79.93
  Q 9.52 82.24 9.88 84.50
  Q 9.96 85.00 10.20 84.55
  C 20.04 66.32 37.12 54.47 56.50 48.04"
/>
<path stroke="#22a613" vector-effect="non-scaling-stroke" d="
  M 64.88 29.38
  Q 61.41 37.14 56.68 44.28
  C 55.91 45.44 55.95 46.20 55.66 47.48
  A 0.43 0.41 -81.7 0 0 56.03 48.00
  L 56.50 48.04"
/>
<path stroke="#16a513" vector-effect="non-scaling-stroke" d="
  M 97.67 41.22
  Q 95.09 41.64 92.65 41.31
  Q 88.00 40.67 87.74 40.67
  Q 73.12 40.30 60.00 47.04"
/>
<path stroke="#169d17" vector-effect="non-scaling-stroke" d="
  M 96.79 50.72
  L 58.06 51.18
  A 0.76 0.60 75.7 0 1 57.44 50.70
  Q 57.24 50.22 56.75 49.96"
/>
<path stroke="#ffc980" vector-effect="non-scaling-stroke" d="
  M 96.26 112.02
  C 90.77 125.70 76.26 138.99 64.33 146.08
  Q 63.91 146.33 63.99 146.64
  A 0.65 0.44 -12.2 0 0 64.72 146.93
  Q 65.99 146.64 69.73 146.03
  Q 101.52 140.86 115.88 114.04
  C 126.44 94.32 124.64 71.95 111.63 53.61
  Q 111.18 52.98 111.01 53.74
  C 105.02 80.89 81.33 97.02 55.03 100.77
  Q 50.98 101.35 50.25 101.72
  C 47.63 103.06 44.96 101.73 42.86 102.95
  Q 42.34 103.25 42.00 103.25
  L 27.00 103.43
  Q 25.02 103.45 23.86 105.00
  C 15.96 115.45 18.89 132.21 34.27 132.94
  C 56.26 133.99 80.36 127.45 96.09 111.91
  Q 96.44 111.56 96.26 112.02"
/>
<path stroke="#c4c3c3" vector-effect="non-scaling-stroke" d="
  M 252.80 84.14
  A 29.35 29.35 0.0 0 0 223.45 54.79
  A 29.35 29.35 0.0 0 0 194.10 84.14
  A 29.35 29.35 0.0 0 0 223.45 113.49
  A 29.35 29.35 0.0 0 0 252.80 84.14"
/>
<path stroke="#c4c3c3" vector-effect="non-scaling-stroke" d="
  M 166.30 111.60
  C 198.24 108.75 198.42 60.03 167.49 56.75
  Q 154.91 55.41 142.75 55.78
  A 1.21 1.11 89.0 0 0 141.67 57.00
  L 141.88 111.25
  A 0.48 0.48 -0.1 0 0 142.35 111.72
  Q 161.73 112.01 166.30 111.60"
/>
<path stroke="#c4c3c3" vector-effect="non-scaling-stroke" d="
  M 285.89 113.32
  C 302.66 112.15 306.78 102.07 306.78 87.00
  Q 306.77 71.67 306.73 56.30
  A 0.55 0.48 90.0 0 0 306.25 55.75
  L 295.25 55.75
  A 0.53 0.52 -90.0 0 0 294.73 56.28
  Q 294.80 72.70 294.71 89.11
  Q 294.68 94.34 293.72 96.60
  C 289.48 106.50 271.55 104.55 270.86 92.92
  Q 270.27 82.97 270.73 56.50
  A 0.73 0.49 -88.9 0 0 270.25 55.75
  L 259.75 55.75
  A 0.56 0.47 90.0 0 0 259.28 56.31
  Q 259.20 73.87 259.28 91.42
  C 259.36 108.58 269.93 114.43 285.89 113.32"
/>
<path stroke="#c4c3c3" vector-effect="non-scaling-stroke" d="
  M 339.26 82.47
  Q 339.26 82.29 339.49 82.26
  C 355.97 79.88 352.28 58.18 336.75 56.75
  Q 325.93 55.76 315.24 55.76
  A 0.49 0.48 -89.4 0 0 314.75 56.25
  L 314.75 111.25
  A 0.52 0.46 0.6 0 0 315.26 111.71
  C 326.81 111.81 349.82 114.83 351.84 97.93
  C 352.85 89.54 347.81 83.73 339.54 82.71
  A 0.31 0.22 4.8 0 1 339.26 82.47"
/>
<path stroke="#c4c3c3" vector-effect="non-scaling-stroke" d="
  M 387.95 111.22
  C 388.01 108.22 388.06 105.25 388.16 102.27
  A 0.50 0.41 -88.7 0 0 387.75 101.75
  L 369.50 101.75
  A 0.50 0.50 0.0 0 1 369.00 101.25
  L 369.00 56.25
  A 0.50 0.50 0.0 0 0 368.50 55.75
  L 357.75 55.75
  A 0.50 0.50 0.0 0 0 357.25 56.25
  L 357.25 111.25
  A 0.50 0.50 0.0 0 0 357.75 111.75
  L 387.50 111.75
  A 0.54 0.45 -89.4 0 0 387.95 111.22"
/>
<path stroke="#ffbc80" vector-effect="non-scaling-stroke" d="
  M 403.50 101.25
  L 403.50 88.25
  A 0.67 0.50 -90.0 0 1 404.00 87.58
  L 423.69 87.60
  A 0.60 0.56 -90.0 0 0 424.25 87.00
  L 424.25 78.25
  A 0.75 0.57 0.0 0 0 423.50 77.68
  L 404.00 77.54
  A 0.54 0.50 -90.0 0 1 403.50 77.00
  L 403.50 66.25
  A 0.50 0.50 0.0 0 1 404.00 65.75
  L 423.50 65.75
  A 0.58 0.56 3.4 0 0 424.07 65.26
  Q 424.54 60.87 423.95 56.50
  A 0.71 0.65 -3.7 0 0 423.25 55.94
  L 392.00 55.79
  A 0.55 0.53 -88.3 0 0 391.47 56.31
  Q 391.30 59.26 391.34 64.69
  Q 391.47 80.88 391.24 111.19
  A 0.56 0.51 90.0 0 0 391.75 111.75
  L 423.50 111.75
  A 0.73 0.49 -0.4 0 0 424.23 111.25
  L 424.14 102.18
  A 0.64 0.43 0.0 0 0 423.50 101.75
  L 404.00 101.75
  A 0.50 0.50 0.0 0 1 403.50 101.25"
/>
<path stroke="#80c78f" vector-effect="non-scaling-stroke" d="
  M 443.79 101.18
  L 443.54 88.05
  A 0.50 0.46 89.4 0 1 444.00 87.54
  L 463.75 87.71
  A 0.75 0.46 -0.0 0 0 464.50 87.25
  L 464.50 78.00
  A 0.75 0.49 -0.0 0 0 463.75 77.51
  L 444.19 77.55
  A 0.68 0.54 0.4 0 1 443.51 77.00
  L 443.60 66.57
  A 0.83 0.65 -89.6 0 1 444.25 65.75
  L 464.00 65.75
  A 0.50 0.50 0.0 0 0 464.50 65.25
  L 464.50 56.25
  A 0.53 0.50 90.0 0 0 464.00 55.72
  L 432.75 55.87
  A 0.63 0.51 89.5 0 0 432.25 56.50
  L 432.25 111.25
  A 0.51 0.50 90.0 0 0 432.75 111.76
  L 463.82 111.78
  A 0.68 0.53 0.0 0 0 464.50 111.25
  L 464.50 102.25
  A 0.50 0.50 0.0 0 0 464.00 101.75
  L 444.25 101.75
  A 0.59 0.46 88.7 0 1 443.79 101.18"
/>
<path stroke="#fec083" vector-effect="non-scaling-stroke" d="
  M 205.16 138.84
  C 198.73 130.37 209.38 118.80 217.62 127.42
  A 0.88 0.44 47.0 0 0 218.51 127.75
  Q 218.97 127.38 219.02 126.74
  Q 219.13 125.49 216.56 124.21
  C 200.20 116.03 195.61 142.69 210.27 143.25
  Q 219.96 143.62 220.68 133.75
  A 0.63 0.39 -87.1 0 0 220.32 133.09
  L 212.76 133.03
  A 0.81 0.70 5.6 0 0 211.97 133.59
  C 211.68 134.93 216.99 134.54 217.93 134.61
  A 0.52 0.50 4.5 0 1 218.41 135.15
  C 217.87 142.14 208.83 143.67 205.16 138.84"
/>
<path stroke="#86ca93" vector-effect="non-scaling-stroke" d="
  M 381.39 133.00
  A 10.20 10.20 0.0 0 0 371.19 122.80
  A 10.20 10.20 0.0 0 0 360.99 133.00
  A 10.20 10.20 0.0 0 0 371.19 143.20
  A 10.20 10.20 0.0 0 0 381.39 133.00"
/>
<path stroke="#c7c7c7" vector-effect="non-scaling-stroke" d="
  M 244.74 136.04
  Q 248.00 136.57 251.24 135.95
  A 0.71 0.55 74.1 0 1 251.92 136.45
  C 252.18 137.26 253.81 144.07 255.52 142.39
  A 0.77 0.71 57.3 0 0 255.67 141.57
  L 248.32 123.44
  Q 247.99 122.63 247.67 123.36
  L 239.98 141.49
  A 1.05 0.70 -58.1 0 0 240.01 142.43
  C 241.31 144.08 243.53 137.26 243.83 136.58
  A 0.90 0.81 -72.7 0 1 244.74 136.04"
/>
<path stroke="#c4c3c3" vector-effect="non-scaling-stroke" d="
  M 269.51 137.74
  L 257.18 123.06
  Q 256.77 122.57 256.77 123.47
  Q 256.74 131.77 256.75 140.46
  C 256.75 143.93 258.57 142.83 258.43 140.09
  Q 258.11 133.88 258.27 128.46
  Q 258.32 126.74 259.42 128.09
  L 271.47 142.78
  Q 272.25 143.74 272.25 142.50
  L 272.25 124.50
  A 1.23 0.25 49.4 0 0 271.80 123.69
  Q 271.60 123.43 271.24 123.49
  A 0.79 0.66 85.7 0 0 270.70 124.25
  L 270.70 137.44
  Q 270.70 139.17 269.51 137.74"
/>
<path stroke="#86ca93" vector-effect="non-scaling-stroke" d="
  M 313.27 127.56
  Q 313.27 126.98 313.72 127.53
  L 326.46 143.03
  Q 327.20 143.93 327.20 142.94
  L 327.06 124.50
  A 0.99 0.60 -80.6 0 0 326.76 123.75
  Q 326.40 123.50 326.00 123.49
  A 0.76 0.49 -89.7 0 0 325.50 124.25
  L 325.50 137.50
  Q 325.50 138.97 324.61 137.90
  L 312.41 123.31
  Q 311.55 122.27 311.53 123.70
  Q 311.44 132.13 311.67 141.17
  Q 311.71 143.03 312.83 142.47
  A 0.83 0.75 77.9 0 0 313.25 141.75
  L 313.27 127.56"
/>
<path stroke="#8bcc96" vector-effect="non-scaling-stroke" d="
  M 449.46 138.32
  L 436.95 123.30
  Q 436.00 122.16 436.00 123.75
  L 436.00 141.50
  A 1.30 0.76 -79.4 0 0 436.33 142.42
  Q 436.95 142.94 437.48 142.50
  A 1.18 0.60 -30.5 0 0 437.96 141.75
  L 437.74 128.00
  Q 437.73 127.01 438.42 127.83
  L 451.06 142.94
  Q 451.50 143.47 451.50 142.75
  L 451.50 124.50
  A 1.29 0.79 30.1 0 0 451.06 123.69
  Q 450.59 123.26 450.19 123.69
  A 1.34 0.49 -41.3 0 0 449.75 124.50
  L 449.75 138.25
  Q 449.75 138.66 449.46 138.32"
/>
<path stroke="#fec083" vector-effect="non-scaling-stroke" d="
  M 160.30 128.49
  Q 160.32 127.46 160.99 128.27
  L 172.83 142.43
  Q 173.50 143.24 173.50 142.25
  L 173.50 124.25
  A 0.74 0.71 10.8 0 0 173.02 123.58
  Q 171.67 123.08 171.72 125.00
  Q 171.88 131.39 171.61 137.76
  Q 171.59 138.32 171.30 137.97
  L 159.82 124.20
  Q 158.23 122.29 158.24 124.74
  L 158.32 141.75
  A 0.78 0.76 -79.5 0 0 158.80 142.47
  Q 160.27 143.06 160.26 141.75
  Q 160.20 134.91 160.30 128.49"
/>
<path stroke="#86ca93" vector-effect="non-scaling-stroke" d="
  M 418.19 129.31
  C 418.86 133.47 418.64 137.98 419.89 141.94
  A 0.96 0.76 83.8 0 0 420.52 142.58
  C 422.20 142.91 419.36 126.02 419.08 124.22
  Q 418.87 122.89 418.28 124.22
  L 411.79 138.80
  Q 411.35 139.81 410.95 138.88
  L 404.46 123.80
  Q 403.85 122.39 403.65 124.01
  L 401.46 141.49
  A 1.07 0.26 -81.6 0 0 401.55 142.48
  Q 402.22 142.83 402.99 142.46
  A 0.96 0.57 86.6 0 0 403.36 141.74
  L 404.36 129.26
  A 0.60 0.32 -86.3 0 1 404.70 128.71
  C 404.98 128.69 410.36 141.25 410.95 142.57
  Q 411.38 143.51 411.79 142.55
  L 417.55 129.31
  Q 418.01 128.24 418.19 129.31"
/>
<path stroke="#fec083" vector-effect="non-scaling-stroke" d="
  M 148.56 133.05
  C 149.79 133.01 154.70 133.29 155.46 132.74
  C 158.21 130.75 148.89 131.18 148.63 131.16
  A 0.67 0.39 2.7 0 1 148.00 130.75
  L 148.00 125.75
  A 0.52 0.51 89.4 0 1 148.50 125.23
  L 155.07 125.15
  A 0.84 0.73 -76.5 0 0 155.77 124.65
  C 156.51 122.89 149.55 123.42 146.34 123.61
  A 0.64 0.62 88.6 0 0 145.75 124.25
  L 145.75 142.00
  A 0.50 0.50 0.0 0 0 146.25 142.50
  L 154.75 142.50
  A 1.04 0.91 -69.6 0 0 155.53 142.08
  C 157.01 140.07 149.16 140.71 148.38 140.65
  A 0.63 0.60 -87.1 0 1 147.82 140.00
  L 147.97 133.50
  A 0.61 0.45 -0.8 0 1 148.56 133.05"
/>
<path stroke="#fec083" vector-effect="non-scaling-stroke" d="
  M 178.86 140.32
  L 178.86 133.43
  A 0.64 0.43 -0.0 0 1 179.50 133.00
  L 185.75 133.00
  A 1.31 0.76 -58.6 0 0 186.56 132.56
  Q 186.99 132.09 186.56 131.69
  A 1.34 0.49 48.7 0 0 185.75 131.25
  L 179.50 131.25
  A 0.57 0.50 -0.5 0 1 178.93 130.76
  L 178.88 125.68
  A 0.67 0.40 -1.3 0 1 179.53 125.27
  C 181.00 125.24 184.84 125.60 185.99 125.06
  C 189.86 123.25 179.18 123.51 177.54 123.70
  A 0.62 0.55 -4.2 0 0 177.00 124.25
  L 177.00 141.75
  A 0.75 0.50 90.0 0 0 177.50 142.50
  L 186.00 142.50
  A 0.81 0.65 -80.0 0 0 186.68 141.91
  Q 186.78 141.58 186.49 141.25
  A 1.18 0.43 54.2 0 0 185.75 140.75
  L 179.50 140.75
  A 0.64 0.43 -0.0 0 1 178.86 140.32"
/>
<path stroke="#fec083" vector-effect="non-scaling-stroke" d="
  M 191.79 133.76
  C 193.50 133.82 198.23 143.57 200.18 142.55
  A 0.61 0.50 57.4 0 0 200.28 141.72
  L 194.89 134.34
  A 0.58 0.50 59.3 0 1 195.04 133.51
  L 197.77 132.29
  A 1.22 1.03 -4.7 0 0 198.37 131.69
  Q 201.16 124.59 192.90 123.20
  Q 189.51 122.63 189.53 125.94
  L 189.67 141.73
  A 0.72 0.63 -84.6 0 0 190.17 142.42
  C 191.98 142.84 191.17 136.94 191.29 134.29
  A 0.55 0.49 -88.3 0 1 191.79 133.76"
/>
<path stroke="#fec083" vector-effect="non-scaling-stroke" d="
  M 226.87 131.40
  L 222.97 124.51
  A 1.71 0.64 69.6 0 0 222.33 123.77
  C 218.16 121.52 225.12 131.60 225.31 131.92
  C 227.23 135.17 226.90 138.18 226.73 141.75
  A 1.23 0.30 47.2 0 0 227.18 142.56
  Q 227.50 142.94 227.82 142.57
  A 1.38 0.50 -43.0 0 0 228.24 141.75
  L 228.25 134.00
  A 1.71 0.72 -47.2 0 1 228.56 133.14
  C 229.97 130.90 236.20 122.01 232.45 123.79
  A 1.57 0.44 -64.8 0 0 231.79 124.55
  L 227.72 131.45
  A 0.51 0.48 46.5 0 1 226.87 131.40"
/>
<path stroke="#c7c7c7" vector-effect="non-scaling-stroke" d="
  M 275.23 124.48
  C 276.12 129.56 275.11 135.73 275.40 141.62
  A 1.08 1.08 87.5 0 0 276.51 142.64
  C 279.85 142.54 284.46 142.95 287.15 140.96
  C 291.16 138.00 291.02 128.87 287.46 125.49
  C 284.77 122.93 279.47 123.28 275.92 123.58
  A 0.77 0.77 82.5 0 0 275.23 124.48"
/>
<path stroke="#8bcc96" vector-effect="non-scaling-stroke" d="
  M 300.86 140.31
  L 300.98 133.50
  A 0.78 0.50 0.3 0 1 301.76 133.01
  L 308.00 133.00
  A 0.74 0.03 -48.7 0 0 308.49 132.49
  Q 308.84 132.10 308.49 131.76
  A 1.15 0.29 48.8 0 0 307.75 131.25
  L 301.50 131.25
  A 0.62 0.43 0.0 0 1 300.88 130.82
  L 300.93 125.74
  A 0.58 0.53 -0.0 0 1 301.50 125.22
  L 307.76 125.10
  A 1.04 0.99 16.0 0 0 308.58 124.67
  C 309.80 122.89 302.60 123.45 299.83 123.61
  A 0.64 0.61 88.6 0 0 299.25 124.25
  L 299.25 142.00
  A 0.50 0.50 0.0 0 0 299.75 142.50
  L 308.00 142.50
  A 0.50 0.50 0.0 0 0 308.50 142.00
  L 308.50 141.25
  A 0.50 0.50 0.0 0 0 308.00 140.75
  L 301.50 140.75
  A 0.64 0.43 0.4 0 1 300.86 140.31"
/>
<path stroke="#86ca93" vector-effect="non-scaling-stroke" d="
  M 334.95 138.02
  L 330.08 124.22
  A 1.19 0.99 88.6 0 0 329.51 123.57
  C 327.83 122.84 328.21 124.48 328.51 125.29
  Q 331.83 134.21 335.03 142.97
  Q 335.25 143.57 335.49 142.95
  L 342.48 124.74
  A 1.00 0.66 -61.1 0 0 342.41 123.82
  C 341.63 123.00 340.92 123.89 340.63 124.66
  Q 338.11 131.27 335.72 137.97
  Q 335.33 139.07 334.95 138.02"
/>
<path stroke="#8bcc96" vector-effect="non-scaling-stroke" d="
  M 345.7853 124.4350
  A 0.90 0.90 0.0 0 0 344.8901 123.5303
  L 344.8301 123.5300
  A 0.90 0.90 0.0 0 0 343.9254 124.4252
  L 343.8347 141.7450
  A 0.90 0.90 0.0 0 0 344.7299 142.6497
  L 344.7899 142.6500
  A 0.90 0.90 0.0 0 0 345.6946 141.7548
  L 345.7853 124.4350"
/>
<path stroke="#80c78f" vector-effect="non-scaling-stroke" d="
  M 351.78 133.92
  C 352.21 134.40 358.43 143.11 359.86 142.49
  A 0.41 0.35 -28.7 0 0 360.07 141.93
  L 354.23 134.04
  A 0.41 0.36 -23.6 0 1 354.50 133.46
  C 362.83 131.56 358.45 120.58 349.25 123.91
  A 0.75 0.57 -12.5 0 0 348.75 124.50
  L 348.75 141.50
  A 1.05 0.45 -83.9 0 0 348.99 142.29
  Q 349.83 142.94 350.83 142.31
  A 0.94 0.47 78.8 0 0 351.05 141.51
  Q 350.66 137.73 351.34 134.05
  Q 351.43 133.55 351.78 133.92"
/>
<path stroke="#8bcc96" vector-effect="non-scaling-stroke" d="
  M 386.47 128.01
  L 397.57 141.43
  Q 399.20 143.40 399.21 140.94
  L 399.24 124.50
  A 1.00 0.88 -76.3 0 0 398.81 123.68
  Q 398.33 123.38 397.75 123.50
  A 1.06 0.44 88.5 0 0 397.37 124.50
  L 397.34 137.06
  Q 397.33 138.41 396.54 137.46
  L 385.15 123.87
  Q 384.29 122.85 384.27 123.99
  L 383.98 141.50
  A 0.76 0.76 -78.1 0 0 384.45 142.22
  Q 386.18 142.91 386.00 140.23
  Q 385.85 137.96 386.05 128.32
  Q 386.07 127.52 386.47 128.01"
/>
<path stroke="#80c78f" vector-effect="non-scaling-stroke" d="
  M 426.06 133.05
  C 426.47 133.04 435.62 133.58 433.40 131.57
  A 1.39 0.98 -17.9 0 0 432.50 131.29
  L 426.25 131.47
  A 0.73 0.48 -1.1 0 1 425.50 131.00
  L 425.50 125.76
  A 0.70 0.54 -0.5 0 1 426.19 125.22
  L 432.82 125.08
  A 1.09 0.80 10.2 0 0 433.68 124.66
  Q 433.91 124.27 433.56 123.94
  A 1.35 0.53 49.8 0 0 432.75 123.50
  L 424.25 123.50
  A 0.59 0.44 0.0 0 0 423.66 123.94
  L 423.73 141.75
  A 0.75 0.52 -90.0 0 0 424.25 142.50
  L 432.75 142.50
  A 1.19 0.40 -52.9 0 0 433.50 141.99
  Q 433.83 141.61 433.50 141.25
  A 1.20 0.49 55.3 0 0 432.75 140.76
  L 426.00 140.75
  A 0.75 0.50 90.0 0 1 425.50 140.00
  L 425.50 133.50
  A 0.57 0.45 -0.6 0 1 426.06 133.05"
/>
<path stroke="#8bcc96" vector-effect="non-scaling-stroke" d="
  M 458.25 125.75
  L 458.25 142.00
  A 0.50 0.50 0.0 0 0 458.75 142.50
  L 459.50 142.50
  A 0.50 0.50 0.0 0 0 460.00 142.00
  L 460.00 126.00
  A 0.75 0.50 -90.0 0 1 460.50 125.25
  L 464.50 125.24
  A 1.23 0.90 -63.4 0 0 465.31 124.82
  Q 465.74 124.33 465.31 123.94
  A 1.33 0.43 46.5 0 0 464.50 123.50
  L 454.00 123.50
  A 1.09 0.49 7.6 0 0 453.23 123.73
  Q 452.65 124.41 453.23 125.01
  A 1.19 0.64 -11.1 0 0 454.00 125.25
  L 457.75 125.25
  A 0.50 0.50 0.0 0 1 458.25 125.75"
/>
<path stroke="#87bce0" vector-effect="non-scaling-stroke" d="
  M 125.42 41.58
  C 129.85 37.10 141.53 26.49 129.49 22.08
  C 126.18 20.87 116.83 21.44 118.85 27.38
  A 0.48 0.46 -21.3 0 0 119.49 27.64
  C 122.29 26.39 127.34 24.29 127.98 28.31
  C 129.15 35.65 116.80 39.21 117.88 45.59
  A 0.67 0.65 -2.2 0 0 118.47 46.12
  Q 125.73 46.75 132.98 45.57
  C 136.19 45.05 137.05 43.00 136.12 40.07
  A 0.58 0.49 72.0 0 0 135.47 39.66
  Q 130.60 41.30 125.49 41.95
  Q 124.99 42.01 125.42 41.58"
/>
<path stroke="#c4c3c3" vector-effect="non-scaling-stroke" d="
  M 223.5157 102.8999
  A 18.81 17.43 89.8 0 0 240.8799 84.0292
  A 18.81 17.43 89.8 0 0 223.3843 65.2801
  A 18.81 17.43 89.8 0 0 206.0201 84.1508
  A 18.81 17.43 89.8 0 0 223.5157 102.8999"
/>
<path stroke="#c4c3c3" vector-effect="non-scaling-stroke" d="
  M 178.24 84.38
  C 178.70 68.35 168.07 65.45 154.70 65.87
  A 0.62 0.50 89.0 0 0 154.21 66.50
  L 154.24 101.25
  A 0.57 0.45 2.7 0 0 154.77 101.71
  C 168.70 102.76 177.80 99.86 178.24 84.38"
/>
<path stroke="#c4c3c3" vector-effect="non-scaling-stroke" d="
  M 326.76 66.00
  L 326.81 77.50
  A 0.59 0.56 -86.1 0 0 327.29 78.08
  C 332.12 78.80 338.09 78.42 339.28 72.51
  C 340.60 65.94 331.86 65.05 327.62 65.14
  A 0.88 0.86 -0.7 0 0 326.76 66.00"
/>
<path stroke="#c4c3c3" vector-effect="non-scaling-stroke" d="
  M 327.03 88.36
  C 326.88 92.95 326.66 97.34 327.02 101.97
  A 0.56 0.54 -1.7 0 0 327.57 102.47
  C 333.13 102.54 339.85 103.05 340.34 95.66
  C 340.88 87.64 333.28 87.13 327.54 87.79
  A 0.60 0.58 87.8 0 0 327.03 88.36"
/>
<path stroke="#86ca93" vector-effect="non-scaling-stroke" d="
  M 370.0015 141.5403
  A 8.61 8.38 97.8 0 0 379.4725 134.1473
  A 8.61 8.38 97.8 0 0 372.3385 124.4797
  A 8.61 8.38 97.8 0 0 362.8675 131.8727
  A 8.61 8.38 97.8 0 0 370.0015 141.5403"
/>
<path stroke="#c7c7c7" vector-effect="non-scaling-stroke" d="
  M 244.75 134.10
  A 0.31 0.31 10.8 0 0 245.04 134.52
  L 250.78 134.47
  A 0.31 0.31 -11.6 0 0 251.07 134.04
  L 248.14 127.15
  A 0.31 0.31 44.6 0 0 247.56 127.15
  L 244.75 134.10"
/>
<path stroke="#fec083" vector-effect="non-scaling-stroke" d="
  M 191.88 131.98
  C 198.60 133.66 199.86 123.74 191.95 125.14
  A 0.83 0.57 -6.6 0 0 191.25 125.75
  L 191.25 131.25
  A 0.84 0.73 8.1 0 0 191.88 131.98"
/>
<path stroke="#c7c7c7" vector-effect="non-scaling-stroke" d="
  M 286.38 139.09
  Q 290.34 133.30 286.74 127.26
  Q 285.55 125.27 283.24 125.23
  L 277.68 125.14
  A 0.67 0.61 0.5 0 0 277.00 125.75
  L 277.00 140.50
  A 0.51 0.47 88.4 0 0 277.50 141.01
  L 284.01 140.54
  A 3.42 2.96 -72.4 0 0 286.38 139.09"
/>
<path stroke="#80c78f" vector-effect="non-scaling-stroke" d="
  M 351.47 131.92
  C 358.08 133.88 359.33 123.12 351.45 125.38
  A 0.67 0.61 82.5 0 0 351.01 126.01
  L 351.00 131.25
  A 0.71 0.66 -82.4 0 0 351.47 131.92"
/>
</g>
<path fill="#ffffff" d="
  M 0.00 0.00
  L 486.00 0.00
  L 486.00 165.00
  L 0.00 165.00
  L 0.00 0.00
  Z
  M 113.89 47.12
  C 115.70 49.81 121.38 52.07 124.34 52.38
  C 136.64 53.67 145.86 39.79 141.11 28.67
  C 135.87 16.41 122.74 13.39 111.09 12.18
  Q 108.88 11.96 106.42 12.28
  C 102.48 12.81 97.95 13.14 94.68 13.70
  Q 79.48 16.33 65.47 22.91
  Q 65.02 23.12 65.52 23.03
  Q 73.04 21.71 74.50 21.55
  C 90.23 19.81 105.39 34.47 113.89 47.12
  Z
  M 56.50 48.04
  L 60.00 47.04
  Q 58.77 48.89 56.75 49.96
  Q 39.63 63.53 34.04 84.78
  A 0.37 0.37 -83.6 0 0 34.41 85.25
  C 59.80 84.56 88.18 78.28 96.79 50.72
  Q 98.29 45.79 97.67 41.22
  Q 83.52 28.81 64.88 29.38
  C 34.16 29.32 14.25 50.74 9.86 79.93
  Q 9.52 82.24 9.88 84.50
  Q 9.96 85.00 10.20 84.55
  C 20.04 66.32 37.12 54.47 56.50 48.04
  Z
  M 96.26 112.02
  C 90.77 125.70 76.26 138.99 64.33 146.08
  Q 63.91 146.33 63.99 146.64
  A 0.65 0.44 -12.2 0 0 64.72 146.93
  Q 65.99 146.64 69.73 146.03
  Q 101.52 140.86 115.88 114.04
  C 126.44 94.32 124.64 71.95 111.63 53.61
  Q 111.18 52.98 111.01 53.74
  C 105.02 80.89 81.33 97.02 55.03 100.77
  Q 50.98 101.35 50.25 101.72
  C 47.63 103.06 44.96 101.73 42.86 102.95
  Q 42.34 103.25 42.00 103.25
  L 27.00 103.43
  Q 25.02 103.45 23.86 105.00
  C 15.96 115.45 18.89 132.21 34.27 132.94
  C 56.26 133.99 80.36 127.45 96.09 111.91
  Q 96.44 111.56 96.26 112.02
  Z
  M 252.80 84.14
  A 29.35 29.35 0.0 0 0 223.45 54.79
  A 29.35 29.35 0.0 0 0 194.10 84.14
  A 29.35 29.35 0.0 0 0 223.45 113.49
  A 29.35 29.35 0.0 0 0 252.80 84.14
  Z
  M 166.30 111.60
  C 198.24 108.75 198.42 60.03 167.49 56.75
  Q 154.91 55.41 142.75 55.78
  A 1.21 1.11 89.0 0 0 141.67 57.00
  L 141.88 111.25
  A 0.48 0.48 -0.1 0 0 142.35 111.72
  Q 161.73 112.01 166.30 111.60
  Z
  M 285.89 113.32
  C 302.66 112.15 306.78 102.07 306.78 87.00
  Q 306.77 71.67 306.73 56.30
  A 0.55 0.48 90.0 0 0 306.25 55.75
  L 295.25 55.75
  A 0.53 0.52 -90.0 0 0 294.73 56.28
  Q 294.80 72.70 294.71 89.11
  Q 294.68 94.34 293.72 96.60
  C 289.48 106.50 271.55 104.55 270.86 92.92
  Q 270.27 82.97 270.73 56.50
  A 0.73 0.49 -88.9 0 0 270.25 55.75
  L 259.75 55.75
  A 0.56 0.47 90.0 0 0 259.28 56.31
  Q 259.20 73.87 259.28 91.42
  C 259.36 108.58 269.93 114.43 285.89 113.32
  Z
  M 339.26 82.47
  Q 339.26 82.29 339.49 82.26
  C 355.97 79.88 352.28 58.18 336.75 56.75
  Q 325.93 55.76 315.24 55.76
  A 0.49 0.48 -89.4 0 0 314.75 56.25
  L 314.75 111.25
  A 0.52 0.46 0.6 0 0 315.26 111.71
  C 326.81 111.81 349.82 114.83 351.84 97.93
  C 352.85 89.54 347.81 83.73 339.54 82.71
  A 0.31 0.22 4.8 0 1 339.26 82.47
  Z
  M 387.95 111.22
  C 388.01 108.22 388.06 105.25 388.16 102.27
  A 0.50 0.41 -88.7 0 0 387.75 101.75
  L 369.50 101.75
  A 0.50 0.50 0.0 0 1 369.00 101.25
  L 369.00 56.25
  A 0.50 0.50 0.0 0 0 368.50 55.75
  L 357.75 55.75
  A 0.50 0.50 0.0 0 0 357.25 56.25
  L 357.25 111.25
  A 0.50 0.50 0.0 0 0 357.75 111.75
  L 387.50 111.75
  A 0.54 0.45 -89.4 0 0 387.95 111.22
  Z
  M 403.50 101.25
  L 403.50 88.25
  A 0.67 0.50 -90.0 0 1 404.00 87.58
  L 423.69 87.60
  A 0.60 0.56 -90.0 0 0 424.25 87.00
  L 424.25 78.25
  A 0.75 0.57 0.0 0 0 423.50 77.68
  L 404.00 77.54
  A 0.54 0.50 -90.0 0 1 403.50 77.00
  L 403.50 66.25
  A 0.50 0.50 0.0 0 1 404.00 65.75
  L 423.50 65.75
  A 0.58 0.56 3.4 0 0 424.07 65.26
  Q 424.54 60.87 423.95 56.50
  A 0.71 0.65 -3.7 0 0 423.25 55.94
  L 392.00 55.79
  A 0.55 0.53 -88.3 0 0 391.47 56.31
  Q 391.30 59.26 391.34 64.69
  Q 391.47 80.88 391.24 111.19
  A 0.56 0.51 90.0 0 0 391.75 111.75
  L 423.50 111.75
  A 0.73 0.49 -0.4 0 0 424.23 111.25
  L 424.14 102.18
  A 0.64 0.43 0.0 0 0 423.50 101.75
  L 404.00 101.75
  A 0.50 0.50 0.0 0 1 403.50 101.25
  Z
  M 443.79 101.18
  L 443.54 88.05
  A 0.50 0.46 89.4 0 1 444.00 87.54
  L 463.75 87.71
  A 0.75 0.46 -0.0 0 0 464.50 87.25
  L 464.50 78.00
  A 0.75 0.49 -0.0 0 0 463.75 77.51
  L 444.19 77.55
  A 0.68 0.54 0.4 0 1 443.51 77.00
  L 443.60 66.57
  A 0.83 0.65 -89.6 0 1 444.25 65.75
  L 464.00 65.75
  A 0.50 0.50 0.0 0 0 464.50 65.25
  L 464.50 56.25
  A 0.53 0.50 90.0 0 0 464.00 55.72
  L 432.75 55.87
  A 0.63 0.51 89.5 0 0 432.25 56.50
  L 432.25 111.25
  A 0.51 0.50 90.0 0 0 432.75 111.76
  L 463.82 111.78
  A 0.68 0.53 0.0 0 0 464.50 111.25
  L 464.50 102.25
  A 0.50 0.50 0.0 0 0 464.00 101.75
  L 444.25 101.75
  A 0.59 0.46 88.7 0 1 443.79 101.18
  Z
  M 205.16 138.84
  C 198.73 130.37 209.38 118.80 217.62 127.42
  A 0.88 0.44 47.0 0 0 218.51 127.75
  Q 218.97 127.38 219.02 126.74
  Q 219.13 125.49 216.56 124.21
  C 200.20 116.03 195.61 142.69 210.27 143.25
  Q 219.96 143.62 220.68 133.75
  A 0.63 0.39 -87.1 0 0 220.32 133.09
  L 212.76 133.03
  A 0.81 0.70 5.6 0 0 211.97 133.59
  C 211.68 134.93 216.99 134.54 217.93 134.61
  A 0.52 0.50 4.5 0 1 218.41 135.15
  C 217.87 142.14 208.83 143.67 205.16 138.84
  Z
  M 381.39 133.00
  A 10.20 10.20 0.0 0 0 371.19 122.80
  A 10.20 10.20 0.0 0 0 360.99 133.00
  A 10.20 10.20 0.0 0 0 371.19 143.20
  A 10.20 10.20 0.0 0 0 381.39 133.00
  Z
  M 244.74 136.04
  Q 248.00 136.57 251.24 135.95
  A 0.71 0.55 74.1 0 1 251.92 136.45
  C 252.18 137.26 253.81 144.07 255.52 142.39
  A 0.77 0.71 57.3 0 0 255.67 141.57
  L 248.32 123.44
  Q 247.99 122.63 247.67 123.36
  L 239.98 141.49
  A 1.05 0.70 -58.1 0 0 240.01 142.43
  C 241.31 144.08 243.53 137.26 243.83 136.58
  A 0.90 0.81 -72.7 0 1 244.74 136.04
  Z
  M 269.51 137.74
  L 257.18 123.06
  Q 256.77 122.57 256.77 123.47
  Q 256.74 131.77 256.75 140.46
  C 256.75 143.93 258.57 142.83 258.43 140.09
  Q 258.11 133.88 258.27 128.46
  Q 258.32 126.74 259.42 128.09
  L 271.47 142.78
  Q 272.25 143.74 272.25 142.50
  L 272.25 124.50
  A 1.23 0.25 49.4 0 0 271.80 123.69
  Q 271.60 123.43 271.24 123.49
  A 0.79 0.66 85.7 0 0 270.70 124.25
  L 270.70 137.44
  Q 270.70 139.17 269.51 137.74
  Z
  M 313.27 127.56
  Q 313.27 126.98 313.72 127.53
  L 326.46 143.03
  Q 327.20 143.93 327.20 142.94
  L 327.06 124.50
  A 0.99 0.60 -80.6 0 0 326.76 123.75
  Q 326.40 123.50 326.00 123.49
  A 0.76 0.49 -89.7 0 0 325.50 124.25
  L 325.50 137.50
  Q 325.50 138.97 324.61 137.90
  L 312.41 123.31
  Q 311.55 122.27 311.53 123.70
  Q 311.44 132.13 311.67 141.17
  Q 311.71 143.03 312.83 142.47
  A 0.83 0.75 77.9 0 0 313.25 141.75
  L 313.27 127.56
  Z
  M 449.46 138.32
  L 436.95 123.30
  Q 436.00 122.16 436.00 123.75
  L 436.00 141.50
  A 1.30 0.76 -79.4 0 0 436.33 142.42
  Q 436.95 142.94 437.48 142.50
  A 1.18 0.60 -30.5 0 0 437.96 141.75
  L 437.74 128.00
  Q 437.73 127.01 438.42 127.83
  L 451.06 142.94
  Q 451.50 143.47 451.50 142.75
  L 451.50 124.50
  A 1.29 0.79 30.1 0 0 451.06 123.69
  Q 450.59 123.26 450.19 123.69
  A 1.34 0.49 -41.3 0 0 449.75 124.50
  L 449.75 138.25
  Q 449.75 138.66 449.46 138.32
  Z
  M 160.30 128.49
  Q 160.32 127.46 160.99 128.27
  L 172.83 142.43
  Q 173.50 143.24 173.50 142.25
  L 173.50 124.25
  A 0.74 0.71 10.8 0 0 173.02 123.58
  Q 171.67 123.08 171.72 125.00
  Q 171.88 131.39 171.61 137.76
  Q 171.59 138.32 171.30 137.97
  L 159.82 124.20
  Q 158.23 122.29 158.24 124.74
  L 158.32 141.75
  A 0.78 0.76 -79.5 0 0 158.80 142.47
  Q 160.27 143.06 160.26 141.75
  Q 160.20 134.91 160.30 128.49
  Z
  M 418.19 129.31
  C 418.86 133.47 418.64 137.98 419.89 141.94
  A 0.96 0.76 83.8 0 0 420.52 142.58
  C 422.20 142.91 419.36 126.02 419.08 124.22
  Q 418.87 122.89 418.28 124.22
  L 411.79 138.80
  Q 411.35 139.81 410.95 138.88
  L 404.46 123.80
  Q 403.85 122.39 403.65 124.01
  L 401.46 141.49
  A 1.07 0.26 -81.6 0 0 401.55 142.48
  Q 402.22 142.83 402.99 142.46
  A 0.96 0.57 86.6 0 0 403.36 141.74
  L 404.36 129.26
  A 0.60 0.32 -86.3 0 1 404.70 128.71
  C 404.98 128.69 410.36 141.25 410.95 142.57
  Q 411.38 143.51 411.79 142.55
  L 417.55 129.31
  Q 418.01 128.24 418.19 129.31
  Z
  M 148.56 133.05
  C 149.79 133.01 154.70 133.29 155.46 132.74
  C 158.21 130.75 148.89 131.18 148.63 131.16
  A 0.67 0.39 2.7 0 1 148.00 130.75
  L 148.00 125.75
  A 0.52 0.51 89.4 0 1 148.50 125.23
  L 155.07 125.15
  A 0.84 0.73 -76.5 0 0 155.77 124.65
  C 156.51 122.89 149.55 123.42 146.34 123.61
  A 0.64 0.62 88.6 0 0 145.75 124.25
  L 145.75 142.00
  A 0.50 0.50 0.0 0 0 146.25 142.50
  L 154.75 142.50
  A 1.04 0.91 -69.6 0 0 155.53 142.08
  C 157.01 140.07 149.16 140.71 148.38 140.65
  A 0.63 0.60 -87.1 0 1 147.82 140.00
  L 147.97 133.50
  A 0.61 0.45 -0.8 0 1 148.56 133.05
  Z
  M 178.86 140.32
  L 178.86 133.43
  A 0.64 0.43 -0.0 0 1 179.50 133.00
  L 185.75 133.00
  A 1.31 0.76 -58.6 0 0 186.56 132.56
  Q 186.99 132.09 186.56 131.69
  A 1.34 0.49 48.7 0 0 185.75 131.25
  L 179.50 131.25
  A 0.57 0.50 -0.5 0 1 178.93 130.76
  L 178.88 125.68
  A 0.67 0.40 -1.3 0 1 179.53 125.27
  C 181.00 125.24 184.84 125.60 185.99 125.06
  C 189.86 123.25 179.18 123.51 177.54 123.70
  A 0.62 0.55 -4.2 0 0 177.00 124.25
  L 177.00 141.75
  A 0.75 0.50 90.0 0 0 177.50 142.50
  L 186.00 142.50
  A 0.81 0.65 -80.0 0 0 186.68 141.91
  Q 186.78 141.58 186.49 141.25
  A 1.18 0.43 54.2 0 0 185.75 140.75
  L 179.50 140.75
  A 0.64 0.43 -0.0 0 1 178.86 140.32
  Z
  M 191.79 133.76
  C 193.50 133.82 198.23 143.57 200.18 142.55
  A 0.61 0.50 57.4 0 0 200.28 141.72
  L 194.89 134.34
  A 0.58 0.50 59.3 0 1 195.04 133.51
  L 197.77 132.29
  A 1.22 1.03 -4.7 0 0 198.37 131.69
  Q 201.16 124.59 192.90 123.20
  Q 189.51 122.63 189.53 125.94
  L 189.67 141.73
  A 0.72 0.63 -84.6 0 0 190.17 142.42
  C 191.98 142.84 191.17 136.94 191.29 134.29
  A 0.55 0.49 -88.3 0 1 191.79 133.76
  Z
  M 226.87 131.40
  L 222.97 124.51
  A 1.71 0.64 69.6 0 0 222.33 123.77
  C 218.16 121.52 225.12 131.60 225.31 131.92
  C 227.23 135.17 226.90 138.18 226.73 141.75
  A 1.23 0.30 47.2 0 0 227.18 142.56
  Q 227.50 142.94 227.82 142.57
  A 1.38 0.50 -43.0 0 0 228.24 141.75
  L 228.25 134.00
  A 1.71 0.72 -47.2 0 1 228.56 133.14
  C 229.97 130.90 236.20 122.01 232.45 123.79
  A 1.57 0.44 -64.8 0 0 231.79 124.55
  L 227.72 131.45
  A 0.51 0.48 46.5 0 1 226.87 131.40
  Z
  M 275.23 124.48
  C 276.12 129.56 275.11 135.73 275.40 141.62
  A 1.08 1.08 87.5 0 0 276.51 142.64
  C 279.85 142.54 284.46 142.95 287.15 140.96
  C 291.16 138.00 291.02 128.87 287.46 125.49
  C 284.77 122.93 279.47 123.28 275.92 123.58
  A 0.77 0.77 82.5 0 0 275.23 124.48
  Z
  M 300.86 140.31
  L 300.98 133.50
  A 0.78 0.50 0.3 0 1 301.76 133.01
  L 308.00 133.00
  A 0.74 0.03 -48.7 0 0 308.49 132.49
  Q 308.84 132.10 308.49 131.76
  A 1.15 0.29 48.8 0 0 307.75 131.25
  L 301.50 131.25
  A 0.62 0.43 0.0 0 1 300.88 130.82
  L 300.93 125.74
  A 0.58 0.53 -0.0 0 1 301.50 125.22
  L 307.76 125.10
  A 1.04 0.99 16.0 0 0 308.58 124.67
  C 309.80 122.89 302.60 123.45 299.83 123.61
  A 0.64 0.61 88.6 0 0 299.25 124.25
  L 299.25 142.00
  A 0.50 0.50 0.0 0 0 299.75 142.50
  L 308.00 142.50
  A 0.50 0.50 0.0 0 0 308.50 142.00
  L 308.50 141.25
  A 0.50 0.50 0.0 0 0 308.00 140.75
  L 301.50 140.75
  A 0.64 0.43 0.4 0 1 300.86 140.31
  Z
  M 334.95 138.02
  L 330.08 124.22
  A 1.19 0.99 88.6 0 0 329.51 123.57
  C 327.83 122.84 328.21 124.48 328.51 125.29
  Q 331.83 134.21 335.03 142.97
  Q 335.25 143.57 335.49 142.95
  L 342.48 124.74
  A 1.00 0.66 -61.1 0 0 342.41 123.82
  C 341.63 123.00 340.92 123.89 340.63 124.66
  Q 338.11 131.27 335.72 137.97
  Q 335.33 139.07 334.95 138.02
  Z
  M 345.7853 124.4350
  A 0.90 0.90 0.0 0 0 344.8901 123.5303
  L 344.8301 123.5300
  A 0.90 0.90 0.0 0 0 343.9254 124.4252
  L 343.8347 141.7450
  A 0.90 0.90 0.0 0 0 344.7299 142.6497
  L 344.7899 142.6500
  A 0.90 0.90 0.0 0 0 345.6946 141.7548
  L 345.7853 124.4350
  Z
  M 351.78 133.92
  C 352.21 134.40 358.43 143.11 359.86 142.49
  A 0.41 0.35 -28.7 0 0 360.07 141.93
  L 354.23 134.04
  A 0.41 0.36 -23.6 0 1 354.50 133.46
  C 362.83 131.56 358.45 120.58 349.25 123.91
  A 0.75 0.57 -12.5 0 0 348.75 124.50
  L 348.75 141.50
  A 1.05 0.45 -83.9 0 0 348.99 142.29
  Q 349.83 142.94 350.83 142.31
  A 0.94 0.47 78.8 0 0 351.05 141.51
  Q 350.66 137.73 351.34 134.05
  Q 351.43 133.55 351.78 133.92
  Z
  M 386.47 128.01
  L 397.57 141.43
  Q 399.20 143.40 399.21 140.94
  L 399.24 124.50
  A 1.00 0.88 -76.3 0 0 398.81 123.68
  Q 398.33 123.38 397.75 123.50
  A 1.06 0.44 88.5 0 0 397.37 124.50
  L 397.34 137.06
  Q 397.33 138.41 396.54 137.46
  L 385.15 123.87
  Q 384.29 122.85 384.27 123.99
  L 383.98 141.50
  A 0.76 0.76 -78.1 0 0 384.45 142.22
  Q 386.18 142.91 386.00 140.23
  Q 385.85 137.96 386.05 128.32
  Q 386.07 127.52 386.47 128.01
  Z
  M 426.06 133.05
  C 426.47 133.04 435.62 133.58 433.40 131.57
  A 1.39 0.98 -17.9 0 0 432.50 131.29
  L 426.25 131.47
  A 0.73 0.48 -1.1 0 1 425.50 131.00
  L 425.50 125.76
  A 0.70 0.54 -0.5 0 1 426.19 125.22
  L 432.82 125.08
  A 1.09 0.80 10.2 0 0 433.68 124.66
  Q 433.91 124.27 433.56 123.94
  A 1.35 0.53 49.8 0 0 432.75 123.50
  L 424.25 123.50
  A 0.59 0.44 0.0 0 0 423.66 123.94
  L 423.73 141.75
  A 0.75 0.52 -90.0 0 0 424.25 142.50
  L 432.75 142.50
  A 1.19 0.40 -52.9 0 0 433.50 141.99
  Q 433.83 141.61 433.50 141.25
  A 1.20 0.49 55.3 0 0 432.75 140.76
  L 426.00 140.75
  A 0.75 0.50 90.0 0 1 425.50 140.00
  L 425.50 133.50
  A 0.57 0.45 -0.6 0 1 426.06 133.05
  Z
  M 458.25 125.75
  L 458.25 142.00
  A 0.50 0.50 0.0 0 0 458.75 142.50
  L 459.50 142.50
  A 0.50 0.50 0.0 0 0 460.00 142.00
  L 460.00 126.00
  A 0.75 0.50 -90.0 0 1 460.50 125.25
  L 464.50 125.24
  A 1.23 0.90 -63.4 0 0 465.31 124.82
  Q 465.74 124.33 465.31 123.94
  A 1.33 0.43 46.5 0 0 464.50 123.50
  L 454.00 123.50
  A 1.09 0.49 7.6 0 0 453.23 123.73
  Q 452.65 124.41 453.23 125.01
  A 1.19 0.64 -11.1 0 0 454.00 125.25
  L 457.75 125.25
  A 0.50 0.50 0.0 0 1 458.25 125.75
  Z"
/>
<path fill="#0f79c0" d="
  M 124.34 52.38
  C 121.38 52.07 115.70 49.81 113.89 47.12
  C 105.39 34.47 90.23 19.81 74.50 21.55
  Q 73.04 21.71 65.52 23.03
  Q 65.02 23.12 65.47 22.91
  Q 79.48 16.33 94.68 13.70
  C 97.95 13.14 102.48 12.81 106.42 12.28
  Q 108.88 11.96 111.09 12.18
  C 122.74 13.39 135.87 16.41 141.11 28.67
  C 145.86 39.79 136.64 53.67 124.34 52.38
  Z
  M 125.42 41.58
  C 129.85 37.10 141.53 26.49 129.49 22.08
  C 126.18 20.87 116.83 21.44 118.85 27.38
  A 0.48 0.46 -21.3 0 0 119.49 27.64
  C 122.29 26.39 127.34 24.29 127.98 28.31
  C 129.15 35.65 116.80 39.21 117.88 45.59
  A 0.67 0.65 -2.2 0 0 118.47 46.12
  Q 125.73 46.75 132.98 45.57
  C 136.19 45.05 137.05 43.00 136.12 40.07
  A 0.58 0.49 72.0 0 0 135.47 39.66
  Q 130.60 41.30 125.49 41.95
  Q 124.99 42.01 125.42 41.58
  Z"
/>
<path fill="#ffffff" d="
  M 125.49 41.95
  Q 130.60 41.30 135.47 39.66
  A 0.58 0.49 72.0 0 1 136.12 40.07
  C 137.05 43.00 136.19 45.05 132.98 45.57
  Q 125.73 46.75 118.47 46.12
  A 0.67 0.65 -2.2 0 1 117.88 45.59
  C 116.80 39.21 129.15 35.65 127.98 28.31
  C 127.34 24.29 122.29 26.39 119.49 27.64
  A 0.48 0.46 -21.3 0 1 118.85 27.38
  C 116.83 21.44 126.18 20.87 129.49 22.08
  C 141.53 26.49 129.85 37.10 125.42 41.58
  Q 124.99 42.01 125.49 41.95
  Z"
/>
<path fill="#44ae0e" d="
  M 64.88 29.38
  Q 61.41 37.14 56.68 44.28
  C 55.91 45.44 55.95 46.20 55.66 47.48
  A 0.43 0.41 -81.7 0 0 56.03 48.00
  L 56.50 48.04
  C 37.12 54.47 20.04 66.32 10.20 84.55
  Q 9.96 85.00 9.88 84.50
  Q 9.52 82.24 9.86 79.93
  C 14.25 50.74 34.16 29.32 64.88 29.38
  Z"
/>
<path fill="#009e17" d="
  M 64.88 29.38
  Q 83.52 28.81 97.67 41.22
  Q 95.09 41.64 92.65 41.31
  Q 88.00 40.67 87.74 40.67
  Q 73.12 40.30 60.00 47.04
  L 56.50 48.04
  L 56.03 48.00
  A 0.43 0.41 -81.7 0 1 55.66 47.48
  C 55.95 46.20 55.91 45.44 56.68 44.28
  Q 61.41 37.14 64.88 29.38
  Z"
/>
<path fill="#2bab0f" d="
  M 97.67 41.22
  Q 98.29 45.79 96.79 50.72
  L 58.06 51.18
  A 0.76 0.60 75.7 0 1 57.44 50.70
  Q 57.24 50.22 56.75 49.96
  Q 58.77 48.89 60.00 47.04
  Q 73.12 40.30 87.74 40.67
  Q 88.00 40.67 92.65 41.31
  Q 95.09 41.64 97.67 41.22
  Z"
/>
<path fill="#008e1f" d="
  M 56.75 49.96
  Q 57.24 50.22 57.44 50.70
  A 0.76 0.60 75.7 0 0 58.06 51.18
  L 96.79 50.72
  C 88.18 78.28 59.80 84.56 34.41 85.25
  A 0.37 0.37 -83.6 0 1 34.04 84.78
  Q 39.63 63.53 56.75 49.96
  Z"
/>
<path fill="#ff9200" d="
  M 96.09 111.91
  C 80.36 127.45 56.26 133.99 34.27 132.94
  C 18.89 132.21 15.96 115.45 23.86 105.00
  Q 25.02 103.45 27.00 103.43
  L 42.00 103.25
  Q 42.34 103.25 42.86 102.95
  C 44.96 101.73 47.63 103.06 50.25 101.72
  Q 50.98 101.35 55.03 100.77
  C 81.33 97.02 105.02 80.89 111.01 53.74
  Q 111.18 52.98 111.63 53.61
  C 124.64 71.95 126.44 94.32 115.88 114.04
  Q 101.52 140.86 69.73 146.03
  Q 65.99 146.64 64.72 146.93
  A 0.65 0.44 -12.2 0 1 63.99 146.64
  Q 63.91 146.33 64.33 146.08
  C 76.26 138.99 90.77 125.70 96.26 112.02
  Q 96.44 111.56 96.09 111.91
  Z"
/>
<path fill="#888686" d="
  M 252.80 84.14
  A 29.35 29.35 0.0 0 1 223.45 113.49
  A 29.35 29.35 0.0 0 1 194.10 84.14
  A 29.35 29.35 0.0 0 1 223.45 54.79
  A 29.35 29.35 0.0 0 1 252.80 84.14
  Z
  M 223.5157 102.8999
  A 18.81 17.43 89.8 0 0 240.8799 84.0292
  A 18.81 17.43 89.8 0 0 223.3843 65.2801
  A 18.81 17.43 89.8 0 0 206.0201 84.1508
  A 18.81 17.43 89.8 0 0 223.5157 102.8999
  Z"
/>
<path fill="#888686" d="
  M 167.49 56.75
  C 198.42 60.03 198.24 108.75 166.30 111.60
  Q 161.73 112.01 142.35 111.72
  A 0.48 0.48 -0.1 0 1 141.88 111.25
  L 141.67 57.00
  A 1.21 1.11 89.0 0 1 142.75 55.78
  Q 154.91 55.41 167.49 56.75
  Z
  M 178.24 84.38
  C 178.70 68.35 168.07 65.45 154.70 65.87
  A 0.62 0.50 89.0 0 0 154.21 66.50
  L 154.24 101.25
  A 0.57 0.45 2.7 0 0 154.77 101.71
  C 168.70 102.76 177.80 99.86 178.24 84.38
  Z"
/>
<path fill="#888686" d="
  M 306.78 87.00
  C 306.78 102.07 302.66 112.15 285.89 113.32
  C 269.93 114.43 259.36 108.58 259.28 91.42
  Q 259.20 73.87 259.28 56.31
  A 0.56 0.47 -90.0 0 1 259.75 55.75
  L 270.25 55.75
  A 0.73 0.49 -88.9 0 1 270.73 56.50
  Q 270.27 82.97 270.86 92.92
  C 271.55 104.55 289.48 106.50 293.72 96.60
  Q 294.68 94.34 294.71 89.11
  Q 294.80 72.70 294.73 56.28
  A 0.53 0.52 -90.0 0 1 295.25 55.75
  L 306.25 55.75
  A 0.55 0.48 90.0 0 1 306.73 56.30
  Q 306.77 71.67 306.78 87.00
  Z"
/>
<path fill="#888686" d="
  M 339.54 82.71
  C 347.81 83.73 352.85 89.54 351.84 97.93
  C 349.82 114.83 326.81 111.81 315.26 111.71
  A 0.52 0.46 0.6 0 1 314.75 111.25
  L 314.75 56.25
  A 0.49 0.48 -89.4 0 1 315.24 55.76
  Q 325.93 55.76 336.75 56.75
  C 352.28 58.18 355.97 79.88 339.49 82.26
  Q 339.26 82.29 339.26 82.47
  A 0.31 0.22 4.8 0 0 339.54 82.71
  Z
  M 326.76 66.00
  L 326.81 77.50
  A 0.59 0.56 -86.1 0 0 327.29 78.08
  C 332.12 78.80 338.09 78.42 339.28 72.51
  C 340.60 65.94 331.86 65.05 327.62 65.14
  A 0.88 0.86 -0.7 0 0 326.76 66.00
  Z
  M 327.03 88.36
  C 326.88 92.95 326.66 97.34 327.02 101.97
  A 0.56 0.54 -1.7 0 0 327.57 102.47
  C 333.13 102.54 339.85 103.05 340.34 95.66
  C 340.88 87.64 333.28 87.13 327.54 87.79
  A 0.60 0.58 87.8 0 0 327.03 88.36
  Z"
/>
<path fill="#888686" d="
  M 388.16 102.27
  C 388.06 105.25 388.01 108.22 387.95 111.22
  A 0.54 0.45 -89.4 0 1 387.50 111.75
  L 357.75 111.75
  A 0.50 0.50 0.0 0 1 357.25 111.25
  L 357.25 56.25
  A 0.50 0.50 0.0 0 1 357.75 55.75
  L 368.50 55.75
  A 0.50 0.50 0.0 0 1 369.00 56.25
  L 369.00 101.25
  A 0.50 0.50 0.0 0 0 369.50 101.75
  L 387.75 101.75
  A 0.50 0.41 -88.7 0 1 388.16 102.27
  Z"
/>
<path fill="#ff7800" d="
  M 404.00 101.75
  L 423.50 101.75
  A 0.64 0.43 -0.0 0 1 424.14 102.18
  L 424.23 111.25
  A 0.73 0.49 -0.4 0 1 423.50 111.75
  L 391.75 111.75
  A 0.56 0.51 -90.0 0 1 391.24 111.19
  Q 391.47 80.88 391.34 64.69
  Q 391.30 59.26 391.47 56.31
  A 0.55 0.53 -88.3 0 1 392.00 55.79
  L 423.25 55.94
  A 0.71 0.65 -3.7 0 1 423.95 56.50
  Q 424.54 60.87 424.07 65.26
  A 0.58 0.56 3.4 0 1 423.50 65.75
  L 404.00 65.75
  A 0.50 0.50 0.0 0 0 403.50 66.25
  L 403.50 77.00
  A 0.54 0.50 90.0 0 0 404.00 77.54
  L 423.50 77.68
  A 0.75 0.57 0.0 0 1 424.25 78.25
  L 424.25 87.00
  A 0.60 0.56 -90.0 0 1 423.69 87.60
  L 404.00 87.58
  A 0.67 0.50 -90.0 0 0 403.50 88.25
  L 403.50 101.25
  A 0.50 0.50 0.0 0 0 404.00 101.75
  Z"
/>
<path fill="#008e1f" d="
  M 444.25 101.75
  L 464.00 101.75
  A 0.50 0.50 0.0 0 1 464.50 102.25
  L 464.50 111.25
  A 0.68 0.53 0.0 0 1 463.82 111.78
  L 432.75 111.76
  A 0.51 0.50 90.0 0 1 432.25 111.25
  L 432.25 56.50
  A 0.63 0.51 89.5 0 1 432.75 55.87
  L 464.00 55.72
  A 0.53 0.50 90.0 0 1 464.50 56.25
  L 464.50 65.25
  A 0.50 0.50 0.0 0 1 464.00 65.75
  L 444.25 65.75
  A 0.83 0.65 -89.6 0 0 443.60 66.57
  L 443.51 77.00
  A 0.68 0.54 0.4 0 0 444.19 77.55
  L 463.75 77.51
  A 0.75 0.49 0.0 0 1 464.50 78.00
  L 464.50 87.25
  A 0.75 0.46 0.0 0 1 463.75 87.71
  L 444.00 87.54
  A 0.50 0.46 89.4 0 0 443.54 88.05
  L 443.79 101.18
  A 0.59 0.46 88.7 0 0 444.25 101.75
  Z"
/>
<path fill="#ffffff" d="
  M 326.76 66.00
  A 0.88 0.86 -0.7 0 1 327.62 65.14
  C 331.86 65.05 340.60 65.94 339.28 72.51
  C 338.09 78.42 332.12 78.80 327.29 78.08
  A 0.59 0.56 -86.1 0 1 326.81 77.50
  L 326.76 66.00
  Z"
/>
<ellipse fill="#ffffff" cx="0.00" cy="0.00" transform="translate(223.45,84.09) rotate(89.8)" rx="18.81" ry="17.43"/>
<path fill="#ffffff" d="
  M 154.70 65.87
  C 168.07 65.45 178.70 68.35 178.24 84.38
  C 177.80 99.86 168.70 102.76 154.77 101.71
  A 0.57 0.45 2.7 0 1 154.24 101.25
  L 154.21 66.50
  A 0.62 0.50 89.0 0 1 154.70 65.87
  Z"
/>
<path fill="#ffffff" d="
  M 327.02 101.97
  C 326.66 97.34 326.88 92.95 327.03 88.36
  A 0.60 0.58 87.8 0 1 327.54 87.79
  C 333.28 87.13 340.88 87.64 340.34 95.66
  C 339.85 103.05 333.13 102.54 327.57 102.47
  A 0.56 0.54 -1.7 0 1 327.02 101.97
  Z"
/>
<path fill="#fd8107" d="
  M 217.62 127.42
  C 209.38 118.80 198.73 130.37 205.16 138.84
  C 208.83 143.67 217.87 142.14 218.41 135.15
  A 0.52 0.50 4.5 0 0 217.93 134.61
  C 216.99 134.54 211.68 134.93 211.97 133.59
  A 0.81 0.70 5.6 0 1 212.76 133.03
  L 220.32 133.09
  A 0.63 0.39 -87.1 0 1 220.68 133.75
  Q 219.96 143.62 210.27 143.25
  C 195.61 142.69 200.20 116.03 216.56 124.21
  Q 219.13 125.49 219.02 126.74
  Q 218.97 127.38 218.51 127.75
  A 0.88 0.44 47.0 0 1 217.62 127.42
  Z"
/>
<path fill="#0d9426" d="
  M 381.39 133.00
  A 10.20 10.20 0.0 0 1 371.19 143.20
  A 10.20 10.20 0.0 0 1 360.99 133.00
  A 10.20 10.20 0.0 0 1 371.19 122.80
  A 10.20 10.20 0.0 0 1 381.39 133.00
  Z
  M 370.0015 141.5403
  A 8.61 8.38 97.8 0 0 379.4725 134.1473
  A 8.61 8.38 97.8 0 0 372.3385 124.4797
  A 8.61 8.38 97.8 0 0 362.8675 131.8727
  A 8.61 8.38 97.8 0 0 370.0015 141.5403
  Z"
/>
<path fill="#8f8e8f" d="
  M 244.74 136.04
  A 0.90 0.81 -72.7 0 0 243.83 136.58
  C 243.53 137.26 241.31 144.08 240.01 142.43
  A 1.05 0.70 -58.1 0 1 239.98 141.49
  L 247.67 123.36
  Q 247.99 122.63 248.32 123.44
  L 255.67 141.57
  A 0.77 0.71 57.3 0 1 255.52 142.39
  C 253.81 144.07 252.18 137.26 251.92 136.45
  A 0.71 0.55 74.1 0 0 251.24 135.95
  Q 248.00 136.57 244.74 136.04
  Z
  M 244.75 134.10
  A 0.31 0.31 10.8 0 0 245.04 134.52
  L 250.78 134.47
  A 0.31 0.31 -11.6 0 0 251.07 134.04
  L 248.14 127.15
  A 0.31 0.31 44.6 0 0 247.56 127.15
  L 244.75 134.10
  Z"
/>
<path fill="#888686" d="
  M 269.51 137.74
  Q 270.70 139.17 270.70 137.44
  L 270.70 124.25
  A 0.79 0.66 85.7 0 1 271.24 123.49
  Q 271.60 123.43 271.80 123.69
  A 1.23 0.25 49.4 0 1 272.25 124.50
  L 272.25 142.50
  Q 272.25 143.74 271.47 142.78
  L 259.42 128.09
  Q 258.32 126.74 258.27 128.46
  Q 258.11 133.88 258.43 140.09
  C 258.57 142.83 256.75 143.93 256.75 140.46
  Q 256.74 131.77 256.77 123.47
  Q 256.77 122.57 257.18 123.06
  L 269.51 137.74
  Z"
/>
<path fill="#0d9426" d="
  M 313.27 127.56
  L 313.25 141.75
  A 0.83 0.75 77.9 0 1 312.83 142.47
  Q 311.71 143.03 311.67 141.17
  Q 311.44 132.13 311.53 123.70
  Q 311.55 122.27 312.41 123.31
  L 324.61 137.90
  Q 325.50 138.97 325.50 137.50
  L 325.50 124.25
  A 0.76 0.49 -89.7 0 1 326.00 123.49
  Q 326.40 123.50 326.76 123.75
  A 0.99 0.60 -80.6 0 1 327.06 124.50
  L 327.20 142.94
  Q 327.20 143.93 326.46 143.03
  L 313.72 127.53
  Q 313.27 126.98 313.27 127.56
  Z"
/>
<path fill="#17982d" d="
  M 449.46 138.32
  Q 449.75 138.66 449.75 138.25
  L 449.75 124.50
  A 1.34 0.49 -41.3 0 1 450.19 123.69
  Q 450.59 123.26 451.06 123.69
  A 1.29 0.79 30.1 0 1 451.50 124.50
  L 451.50 142.75
  Q 451.50 143.47 451.06 142.94
  L 438.42 127.83
  Q 437.73 127.01 437.74 128.00
  L 437.96 141.75
  A 1.18 0.60 -30.5 0 1 437.48 142.50
  Q 436.95 142.94 436.33 142.42
  A 1.30 0.76 -79.4 0 1 436.00 141.50
  L 436.00 123.75
  Q 436.00 122.16 436.95 123.30
  L 449.46 138.32
  Z"
/>
<path fill="#fd8107" d="
  M 160.30 128.49
  Q 160.20 134.91 160.26 141.75
  Q 160.27 143.06 158.80 142.47
  A 0.78 0.76 -79.5 0 1 158.32 141.75
  L 158.24 124.74
  Q 158.23 122.29 159.82 124.20
  L 171.30 137.97
  Q 171.59 138.32 171.61 137.76
  Q 171.88 131.39 171.72 125.00
  Q 171.67 123.08 173.02 123.58
  A 0.74 0.71 10.8 0 1 173.50 124.25
  L 173.50 142.25
  Q 173.50 143.24 172.83 142.43
  L 160.99 128.27
  Q 160.32 127.46 160.30 128.49
  Z"
/>
<path fill="#0d9426" d="
  M 418.19 129.31
  Q 418.01 128.24 417.55 129.31
  L 411.79 142.55
  Q 411.38 143.51 410.95 142.57
  C 410.36 141.25 404.98 128.69 404.70 128.71
  A 0.60 0.32 -86.3 0 0 404.36 129.26
  L 403.36 141.74
  A 0.96 0.57 86.6 0 1 402.99 142.46
  Q 402.22 142.83 401.55 142.48
  A 1.07 0.26 -81.6 0 1 401.46 141.49
  L 403.65 124.01
  Q 403.85 122.39 404.46 123.80
  L 410.95 138.88
  Q 411.35 139.81 411.79 138.80
  L 418.28 124.22
  Q 418.87 122.89 419.08 124.22
  C 419.36 126.02 422.20 142.91 420.52 142.58
  A 0.96 0.76 83.8 0 1 419.89 141.94
  C 418.64 137.98 418.86 133.47 418.19 129.31
  Z"
/>
<path fill="#fd8107" d="
  M 147.97 133.50
  L 147.82 140.00
  A 0.63 0.60 -87.1 0 0 148.38 140.65
  C 149.16 140.71 157.01 140.07 155.53 142.08
  A 1.04 0.91 -69.6 0 1 154.75 142.50
  L 146.25 142.50
  A 0.50 0.50 0.0 0 1 145.75 142.00
  L 145.75 124.25
  A 0.64 0.62 88.6 0 1 146.34 123.61
  C 149.55 123.42 156.51 122.89 155.77 124.65
  A 0.84 0.73 -76.5 0 1 155.07 125.15
  L 148.50 125.23
  A 0.52 0.51 89.4 0 0 148.00 125.75
  L 148.00 130.75
  A 0.67 0.39 2.7 0 0 148.63 131.16
  C 148.89 131.18 158.21 130.75 155.46 132.74
  C 154.70 133.29 149.79 133.01 148.56 133.05
  A 0.61 0.45 -0.8 0 0 147.97 133.50
  Z"
/>
<path fill="#fd8107" d="
  M 179.50 140.75
  L 185.75 140.75
  A 1.18 0.43 54.2 0 1 186.49 141.25
  Q 186.78 141.58 186.68 141.91
  A 0.81 0.65 -80.0 0 1 186.00 142.50
  L 177.50 142.50
  A 0.75 0.50 90.0 0 1 177.00 141.75
  L 177.00 124.25
  A 0.62 0.55 -4.2 0 1 177.54 123.70
  C 179.18 123.51 189.86 123.25 185.99 125.06
  C 184.84 125.60 181.00 125.24 179.53 125.27
  A 0.67 0.40 -1.3 0 0 178.88 125.68
  L 178.93 130.76
  A 0.57 0.50 -0.5 0 0 179.50 131.25
  L 185.75 131.25
  A 1.34 0.49 48.7 0 1 186.56 131.69
  Q 186.99 132.09 186.56 132.56
  A 1.31 0.76 -58.6 0 1 185.75 133.00
  L 179.50 133.00
  A 0.64 0.43 0.0 0 0 178.86 133.43
  L 178.86 140.32
  A 0.64 0.43 0.0 0 0 179.50 140.75
  Z"
/>
<path fill="#fd8107" d="
  M 191.29 134.29
  C 191.17 136.94 191.98 142.84 190.17 142.42
  A 0.72 0.63 -84.6 0 1 189.67 141.73
  L 189.53 125.94
  Q 189.51 122.63 192.90 123.20
  Q 201.16 124.59 198.37 131.69
  A 1.22 1.03 -4.7 0 1 197.77 132.29
  L 195.04 133.51
  A 0.58 0.50 59.3 0 0 194.89 134.34
  L 200.28 141.72
  A 0.61 0.50 57.4 0 1 200.18 142.55
  C 198.23 143.57 193.50 133.82 191.79 133.76
  A 0.55 0.49 -88.3 0 0 191.29 134.29
  Z
  M 191.88 131.98
  C 198.60 133.66 199.86 123.74 191.95 125.14
  A 0.83 0.57 -6.6 0 0 191.25 125.75
  L 191.25 131.25
  A 0.84 0.73 8.1 0 0 191.88 131.98
  Z"
/>
<path fill="#fd8107" d="
  M 227.72 131.45
  L 231.79 124.55
  A 1.57 0.44 -64.8 0 1 232.45 123.79
  C 236.20 122.01 229.97 130.90 228.56 133.14
  A 1.71 0.72 -47.2 0 0 228.25 134.00
  L 228.24 141.75
  A 1.38 0.50 -43.0 0 1 227.82 142.57
  Q 227.50 142.94 227.18 142.56
  A 1.23 0.30 47.2 0 1 226.73 141.75
  C 226.90 138.18 227.23 135.17 225.31 131.92
  C 225.12 131.60 218.16 121.52 222.33 123.77
  A 1.71 0.64 69.6 0 1 222.97 124.51
  L 226.87 131.40
  A 0.51 0.48 46.5 0 0 227.72 131.45
  Z"
/>
<path fill="#8f8e8f" d="
  M 275.40 141.62
  C 275.11 135.73 276.12 129.56 275.23 124.48
  A 0.77 0.77 82.5 0 1 275.92 123.58
  C 279.47 123.28 284.77 122.93 287.46 125.49
  C 291.02 128.87 291.16 138.00 287.15 140.96
  C 284.46 142.95 279.85 142.54 276.51 142.64
  A 1.08 1.08 87.5 0 1 275.40 141.62
  Z
  M 286.38 139.09
  Q 290.34 133.30 286.74 127.26
  Q 285.55 125.27 283.24 125.23
  L 277.68 125.14
  A 0.67 0.61 0.5 0 0 277.00 125.75
  L 277.00 140.50
  A 0.51 0.47 88.4 0 0 277.50 141.01
  L 284.01 140.54
  A 3.42 2.96 -72.4 0 0 286.38 139.09
  Z"
/>
<path fill="#17982d" d="
  M 301.50 140.75
  L 308.00 140.75
  A 0.50 0.50 0.0 0 1 308.50 141.25
  L 308.50 142.00
  A 0.50 0.50 0.0 0 1 308.00 142.50
  L 299.75 142.50
  A 0.50 0.50 0.0 0 1 299.25 142.00
  L 299.25 124.25
  A 0.64 0.61 88.6 0 1 299.83 123.61
  C 302.60 123.45 309.80 122.89 308.58 124.67
  A 1.04 0.99 16.0 0 1 307.76 125.10
  L 301.50 125.22
  A 0.58 0.53 -0.0 0 0 300.93 125.74
  L 300.88 130.82
  A 0.62 0.43 0.0 0 0 301.50 131.25
  L 307.75 131.25
  A 1.15 0.29 48.8 0 1 308.49 131.76
  Q 308.84 132.10 308.49 132.49
  A 0.74 0.03 -48.7 0 1 308.00 133.00
  L 301.76 133.01
  A 0.78 0.50 0.3 0 0 300.98 133.50
  L 300.86 140.31
  A 0.64 0.43 0.4 0 0 301.50 140.75
  Z"
/>
<path fill="#0d9426" d="
  M 334.95 138.02
  Q 335.33 139.07 335.72 137.97
  Q 338.11 131.27 340.63 124.66
  C 340.92 123.89 341.63 123.00 342.41 123.82
  A 1.00 0.66 -61.1 0 1 342.48 124.74
  L 335.49 142.95
  Q 335.25 143.57 335.03 142.97
  Q 331.83 134.21 328.51 125.29
  C 328.21 124.48 327.83 122.84 329.51 123.57
  A 1.19 0.99 88.6 0 1 330.08 124.22
  L 334.95 138.02
  Z"
/>
<rect fill="#17982d" x="-0.93" y="-9.56" transform="translate(344.81,133.09) rotate(0.3)" width="1.86" height="19.12" rx="0.90"/>
<path fill="#008e1f" d="
  M 351.34 134.05
  Q 350.66 137.73 351.05 141.51
  A 0.94 0.47 78.8 0 1 350.83 142.31
  Q 349.83 142.94 348.99 142.29
  A 1.05 0.45 -83.9 0 1 348.75 141.50
  L 348.75 124.50
  A 0.75 0.57 -12.5 0 1 349.25 123.91
  C 358.45 120.58 362.83 131.56 354.50 133.46
  A 0.41 0.36 -23.6 0 0 354.23 134.04
  L 360.07 141.93
  A 0.41 0.35 -28.7 0 1 359.86 142.49
  C 358.43 143.11 352.21 134.40 351.78 133.92
  Q 351.43 133.55 351.34 134.05
  Z
  M 351.47 131.92
  C 358.08 133.88 359.33 123.12 351.45 125.38
  A 0.67 0.61 82.5 0 0 351.01 126.01
  L 351.00 131.25
  A 0.71 0.66 -82.4 0 0 351.47 131.92
  Z"
/>
<path fill="#17982d" d="
  M 386.05 128.32
  Q 385.85 137.96 386.00 140.23
  Q 386.18 142.91 384.45 142.22
  A 0.76 0.76 -78.1 0 1 383.98 141.50
  L 384.27 123.99
  Q 384.29 122.85 385.15 123.87
  L 396.54 137.46
  Q 397.33 138.41 397.34 137.06
  L 397.37 124.50
  A 1.06 0.44 88.5 0 1 397.75 123.50
  Q 398.33 123.38 398.81 123.68
  A 1.00 0.88 -76.3 0 1 399.24 124.50
  L 399.21 140.94
  Q 399.20 143.40 397.57 141.43
  L 386.47 128.01
  Q 386.07 127.52 386.05 128.32
  Z"
/>
<path fill="#008e1f" d="
  M 425.50 133.50
  L 425.50 140.00
  A 0.75 0.50 90.0 0 0 426.00 140.75
  L 432.75 140.76
  A 1.20 0.49 55.3 0 1 433.50 141.25
  Q 433.83 141.61 433.50 141.99
  A 1.19 0.40 -52.9 0 1 432.75 142.50
  L 424.25 142.50
  A 0.75 0.52 90.0 0 1 423.73 141.75
  L 423.66 123.94
  A 0.59 0.44 -0.0 0 1 424.25 123.50
  L 432.75 123.50
  A 1.35 0.53 49.8 0 1 433.56 123.94
  Q 433.91 124.27 433.68 124.66
  A 1.09 0.80 10.2 0 1 432.82 125.08
  L 426.19 125.22
  A 0.70 0.54 -0.5 0 0 425.50 125.76
  L 425.50 131.00
  A 0.73 0.48 -1.1 0 0 426.25 131.47
  L 432.50 131.29
  A 1.39 0.98 -17.9 0 1 433.40 131.57
  C 435.62 133.58 426.47 133.04 426.06 133.05
  A 0.57 0.45 -0.6 0 0 425.50 133.50
  Z"
/>
<path fill="#17982d" d="
  M 457.75 125.25
  L 454.00 125.25
  A 1.19 0.64 -11.1 0 1 453.23 125.01
  Q 452.65 124.41 453.23 123.73
  A 1.09 0.49 7.6 0 1 454.00 123.50
  L 464.50 123.50
  A 1.33 0.43 46.5 0 1 465.31 123.94
  Q 465.74 124.33 465.31 124.82
  A 1.23 0.90 -63.4 0 1 464.50 125.24
  L 460.50 125.25
  A 0.75 0.50 -90.0 0 0 460.00 126.00
  L 460.00 142.00
  A 0.50 0.50 0.0 0 1 459.50 142.50
  L 458.75 142.50
  A 0.50 0.50 0.0 0 1 458.25 142.00
  L 458.25 125.75
  A 0.50 0.50 0.0 0 0 457.75 125.25
  Z"
/>
<ellipse fill="#ffffff" cx="0.00" cy="0.00" transform="translate(371.17,133.01) rotate(97.8)" rx="8.61" ry="8.38"/>
<path fill="#ffffff" d="
  M 191.95 125.14
  C 199.86 123.74 198.60 133.66 191.88 131.98
  A 0.84 0.73 8.1 0 1 191.25 131.25
  L 191.25 125.75
  A 0.83 0.57 -6.6 0 1 191.95 125.14
  Z"
/>
<path fill="#ffffff" d="
  M 286.38 139.09
  A 3.42 2.96 -72.4 0 1 284.01 140.54
  L 277.50 141.01
  A 0.51 0.47 88.4 0 1 277.00 140.50
  L 277.00 125.75
  A 0.67 0.61 0.5 0 1 277.68 125.14
  L 283.24 125.23
  Q 285.55 125.27 286.74 127.26
  Q 290.34 133.30 286.38 139.09
  Z"
/>
<path fill="#ffffff" d="
  M 351.45 125.38
  C 359.33 123.12 358.08 133.88 351.47 131.92
  A 0.71 0.66 -82.4 0 1 351.00 131.25
  L 351.01 126.01
  A 0.67 0.61 82.5 0 1 351.45 125.38
  Z"
/>
<path fill="#ffffff" d="
  M 244.75 134.10
  L 247.56 127.15
  A 0.31 0.31 41.4 0 1 248.14 127.15
  L 251.07 134.04
  A 0.31 0.31 -14.4 0 1 250.78 134.47
  L 245.04 134.52
  A 0.31 0.31 10.2 0 1 244.75 134.10
  Z"
/>
</svg>
