<?xml version="1.0" encoding="UTF-8" standalone="no"?>
<!DOCTYPE svg PUBLIC "-//W3C//DTD SVG 1.1//EN" "http://www.w3.org/Graphics/SVG/1.1/DTD/svg11.dtd">
<svg xmlns="http://www.w3.org/2000/svg" version="1.1" viewBox="0 0 1238 1303">
<g stroke-width="2.00" fill="none" stroke-linecap="butt">
<path stroke="#9c7d69" vector-effect="non-scaling-stroke" d="
  M 603.00 762.71
  Q 608.00 763.43 613.00 762.71"
/>
<path stroke="#987967" vector-effect="non-scaling-stroke" d="
  M 614.00 862.29
  Q 607.96 861.56 602.05 862.31"
/>
<path stroke="#f47c38" vector-effect="non-scaling-stroke" d="
  M 1195.04 1137.75
  Q 1191.31 1139.13 1188.57 1141.70"
/>
<path stroke="#9c7d69" vector-effect="non-scaling-stroke" d="
  M 1195.00 1210.29
  Q 1193.14 1209.76 1191.25 1210.29"
/>
<path stroke="#9c7d69" vector-effect="non-scaling-stroke" d="
  M 1174.00 1207.29
  L 1145.23 1202.07"
/>
<path stroke="#5fa3ad" vector-effect="non-scaling-stroke" d="
  M 1068.23 1147.17
  Q 1063.96 1146.96 1064.51 1150.60
  A 2.95 2.93 -25.4 0 1 1063.56 1153.25
  Q 1059.22 1157.15 1059.80 1159.45
  Q 1060.19 1160.99 1061.29 1159.83
  Q 1066.01 1154.81 1069.22 1148.94
  A 1.20 1.19 15.9 0 0 1068.23 1147.17"
/>
</g>
<path fill="#3f7f97" d="
  M 769.16 33.54
  A 31.57 31.57 0.0 0 1 737.59 65.11
  A 31.57 31.57 0.0 0 1 706.02 33.54
  A 31.57 31.57 0.0 0 1 737.59 1.97
  A 31.57 31.57 0.0 0 1 769.16 33.54
  Z
  M 759.18 34.00
  A 21.55 21.55 0.0 0 0 737.63 12.45
  A 21.55 21.55 0.0 0 0 716.08 34.00
  A 21.55 21.55 0.0 0 0 737.63 55.55
  A 21.55 21.55 0.0 0 0 759.18 34.00
  Z"
/>
<path fill="#3f7f97" d="
  M 4.23 454.33
  C 50.78 304.74 143.03 180.50 276.96 98.21
  C 291.50 89.28 308.96 79.98 322.61 72.91
  Q 325.29 71.53 326.56 69.47
  A 1.32 1.14 57.3 0 0 326.69 68.54
  C 318.14 33.16 351.45 -0.58 386.53 17.25
  C 423.13 35.86 418.05 81.32 382.07 96.32
  C 364.57 103.61 346.84 98.01 335.44 83.43
  C 333.18 80.53 331.46 79.65 328.08 81.34
  Q 178.12 156.70 86.87 296.43
  C 85.26 298.90 82.45 301.45 86.48 303.74
  Q 112.42 318.47 138.30 333.20
  Q 142.83 335.78 145.69 331.45
  C 252.62 169.06 434.08 78.34 628.82 89.70
  Q 634.04 90.00 638.34 92.90
  Q 640.09 94.08 639.47 96.09
  C 638.16 100.38 635.21 101.59 630.75 101.24
  C 495.39 90.71 364.91 131.72 260.62 218.66
  Q 197.92 270.94 154.29 335.55
  C 151.98 338.96 154.61 341.72 157.67 343.50
  Q 183.38 358.44 209.08 373.41
  C 213.76 376.14 213.47 380.82 210.85 385.20
  Q 201.41 401.01 197.50 408.24
  C 161.72 474.40 145.31 546.41 143.58 621.42
  Q 143.51 624.41 140.68 625.37
  Q 135.96 626.99 134.23 623.47
  Q 133.21 621.41 133.27 619.12
  Q 136.15 490.93 200.61 382.47
  Q 201.64 380.74 199.89 379.74
  Q 174.32 365.06 148.82 350.43
  Q 145.67 348.62 143.99 351.52
  C 104.77 419.29 75.93 496.67 73.51 575.70
  A 2.05 2.05 10.7 0 0 74.88 577.70
  Q 85.60 581.41 94.66 588.83
  C 108.95 600.54 110.92 623.51 103.74 639.50
  C 94.79 659.42 70.06 666.33 50.43 660.08
  C 27.89 652.90 19.97 629.80 24.61 608.25
  C 28.39 590.71 42.60 581.05 59.26 576.97
  Q 61.47 576.43 61.74 574.17
  Q 66.01 538.80 73.98 503.55
  Q 92.86 420.07 136.08 346.23
  Q 137.10 344.49 135.42 343.37
  Q 111.17 327.28 84.85 314.19
  C 80.57 312.06 77.99 310.55 75.23 315.23
  Q 33.77 385.43 12.71 464.21
  C 11.85 467.43 10.10 470.45 7.46 472.03
  Q 4.49 473.82 3.23 470.58
  C 0.94 464.68 2.15 460.99 4.23 454.33
  Z
  M 400.58 55.84
  A 32.60 32.60 0.0 0 0 367.98 23.24
  A 32.60 32.60 0.0 0 0 335.38 55.84
  A 32.60 32.60 0.0 0 0 367.98 88.44
  A 32.60 32.60 0.0 0 0 400.58 55.84
  Z
  M 98.14 620.30
  A 33.07 33.07 0.0 0 0 65.07 587.23
  A 33.07 33.07 0.0 0 0 32.00 620.30
  A 33.07 33.07 0.0 0 0 65.07 653.37
  A 33.07 33.07 0.0 0 0 98.14 620.30
  Z"
/>
<path fill="#3f7f97" d="
  M 889.21 72.55
  A 39.24 39.24 0.0 0 1 849.97 111.79
  A 39.24 39.24 0.0 0 1 810.73 72.55
  A 39.24 39.24 0.0 0 1 849.97 33.31
  A 39.24 39.24 0.0 0 1 889.21 72.55
  Z
  M 879.57 73.14
  A 29.11 29.11 0.0 0 0 850.46 44.03
  A 29.11 29.11 0.0 0 0 821.35 73.14
  A 29.11 29.11 0.0 0 0 850.46 102.25
  A 29.11 29.11 0.0 0 0 879.57 73.14
  Z"
/>
<path fill="#3a758e" fill-opacity="0.929" d="
  M 910.66 118.70
  C 921.67 81.92 976.96 78.31 990.76 115.00
  C 996.21 129.48 992.86 141.59 989.28 155.86
  Q 988.81 157.72 990.26 158.97
  Q 1135.96 285.56 1183.89 473.18
  Q 1184.63 476.08 1187.61 476.38
  C 1205.56 478.17 1221.89 487.88 1228.28 505.45
  C 1241.27 541.14 1213.42 569.04 1177.92 562.33
  C 1149.28 556.91 1141.67 529.40 1148.81 504.51
  C 1150.55 498.46 1152.71 495.68 1157.80 491.37
  Q 1165.26 485.05 1172.73 478.71
  Q 1174.27 477.40 1173.77 475.44
  Q 1158.99 417.05 1132.38 362.04
  Q 1131.39 360.01 1129.35 360.98
  L 1071.75 388.63
  A 1.48 1.48 64.8 0 0 1071.05 390.58
  Q 1093.60 439.18 1107.08 490.93
  C 1122.04 548.39 1124.73 608.09 1120.57 667.55
  C 1120.30 671.52 1120.24 674.94 1118.46 678.48
  Q 1117.28 680.83 1114.96 679.61
  C 1111.64 677.87 1110.60 675.53 1110.93 671.66
  C 1122.65 534.04 1084.60 405.33 1000.24 296.22
  Q 998.61 294.10 1000.10 291.88
  C 1003.63 286.65 1009.08 291.04 1011.85 294.68
  Q 1041.75 333.86 1064.82 377.44
  A 1.81 1.80 63.4 0 0 1067.19 378.23
  Q 1093.56 365.83 1119.96 353.13
  C 1123.76 351.30 1125.19 348.27 1123.39 344.44
  C 1120.92 339.16 1118.43 333.74 1115.56 328.71
  Q 1062.53 235.56 981.56 165.35
  A 1.99 1.99 -43.1 0 0 979.05 165.27
  C 944.55 191.56 897.93 161.23 910.66 118.70
  Z
  M 984.9542 130.1641
  A 33.51 32.05 -4.1 0 0 949.2385 100.5920
  A 33.51 32.05 -4.1 0 0 918.1058 134.9559
  A 33.51 32.05 -4.1 0 0 953.8215 164.5280
  A 33.51 32.05 -4.1 0 0 984.9542 130.1641
  Z
  M 1221.28 520.83
  A 32.30 32.30 0.0 0 0 1188.98 488.53
  A 32.30 32.30 0.0 0 0 1156.68 520.83
  A 32.30 32.30 0.0 0 0 1188.98 553.13
  A 32.30 32.30 0.0 0 0 1221.28 520.83
  Z"
/>
<path fill="#3f7f97" d="
  M 918.32 315.82
  C 837.65 229.00 719.93 172.76 600.42 173.65
  Q 597.92 173.67 597.52 176.14
  Q 594.30 195.78 597.67 214.89
  A 1.94 1.92 86.2 0 0 599.48 216.49
  C 651.30 219.07 703.73 228.59 751.26 249.95
  C 755.19 251.71 761.03 254.56 761.88 258.73
  C 762.80 263.20 757.90 264.86 754.48 263.28
  Q 685.27 231.13 608.82 228.08
  Q 603.56 227.87 598.90 228.03
  Q 597.01 228.09 597.01 229.99
  Q 597.05 251.09 596.71 272.18
  C 596.68 274.09 598.19 276.76 599.98 276.84
  C 706.29 281.43 809.96 330.47 869.84 419.53
  Q 871.69 422.29 869.66 424.92
  Q 866.54 428.95 863.16 424.85
  Q 856.72 417.04 850.23 409.25
  C 785.33 331.37 694.62 287.24 592.51 287.13
  C 589.08 287.12 586.87 285.74 586.82 282.20
  Q 586.44 255.13 586.49 228.25
  A 1.56 1.55 86.7 0 0 584.76 226.70
  L 518.46 234.33
  Q 515.15 234.71 514.83 238.03
  C 512.92 257.78 500.56 276.12 480.26 280.00
  C 448.91 285.99 421.37 262.13 429.33 229.01
  C 436.78 198.06 474.35 184.48 498.55 206.50
  Q 506.74 213.94 512.61 223.19
  Q 513.91 225.25 516.29 224.75
  Q 549.75 217.87 583.79 216.63
  Q 585.92 216.55 585.97 214.42
  C 586.32 198.92 586.15 183.44 586.39 167.94
  C 586.44 164.62 587.92 162.73 591.26 162.69
  C 713.72 161.17 843.05 216.87 925.93 307.56
  C 992.09 379.94 1034.74 469.70 1045.52 566.99
  C 1049.71 604.69 1048.90 643.11 1044.58 681.52
  Q 1038.83 732.57 1019.42 780.25
  C 1018.36 782.84 1018.54 785.86 1021.23 787.03
  Q 1086.87 815.76 1152.51 844.47
  C 1156.30 846.13 1156.21 850.28 1154.74 853.82
  Q 1106.62 969.38 1016.03 1057.78
  C 1013.84 1059.91 999.40 1075.35 999.73 1063.75
  C 999.81 1060.84 1002.58 1057.14 1005.01 1054.80
  Q 1094.83 968.23 1144.64 853.63
  A 1.55 1.54 23.7 0 0 1143.84 851.60
  L 1017.26 796.48
  Q 1014.42 795.25 1013.44 797.50
  Q 951.59 940.77 816.65 1018.95
  Q 814.68 1020.09 812.41 1020.03
  C 803.15 1019.78 810.38 1011.09 814.12 1008.86
  C 905.48 954.25 971.69 878.31 1009.56 778.63
  C 1027.65 731.01 1039.37 679.48 1039.73 628.53
  Q 1039.74 625.90 1037.11 625.84
  Q 1018.30 625.40 1000.30 625.04
  C 993.91 624.91 993.95 625.17 993.77 631.38
  Q 989.59 771.15 901.22 878.21
  C 898.93 880.98 891.69 883.77 892.07 877.04
  Q 892.22 874.33 893.88 872.18
  C 902.14 861.47 910.89 850.02 918.10 839.18
  Q 981.35 744.02 985.56 628.66
  Q 985.64 626.56 983.55 626.53
  L 943.20 625.97
  Q 941.25 625.94 940.87 627.87
  C 935.14 656.54 903.70 671.45 877.52 657.96
  C 850.82 644.21 849.87 607.93 870.08 588.44
  Q 886.32 572.78 910.71 579.44
  C 927.96 584.15 937.37 596.74 941.32 613.74
  Q 941.88 616.14 944.34 616.06
  Q 961.58 615.48 978.03 614.81
  C 983.73 614.57 986.31 612.66 985.84 606.85
  C 980.86 545.20 964.98 484.56 935.37 430.05
  C 932.55 424.87 925.01 413.98 927.27 408.42
  Q 928.46 405.49 931.43 406.57
  Q 934.51 407.69 936.22 410.53
  Q 991.58 502.07 993.78 609.40
  C 993.87 613.74 995.38 616.45 999.99 616.27
  Q 1018.09 615.53 1037.27 614.86
  Q 1039.50 614.78 1039.50 612.56
  C 1039.81 502.31 992.60 395.76 918.32 315.82
  Z
  M 503.79 238.29
  A 32.73 32.73 0.0 0 0 471.06 205.56
  A 32.73 32.73 0.0 0 0 438.33 238.29
  A 32.73 32.73 0.0 0 0 471.06 271.02
  A 32.73 32.73 0.0 0 0 503.79 238.29
  Z
  M 871.81 639.23
  C 889.39 662.88 922.15 655.14 930.21 628.00
  A 1.27 1.27 -72.9 0 0 929.38 626.43
  C 920.73 623.65 913.94 629.04 910.96 636.80
  A 1.59 1.48 85.3 0 1 910.37 637.55
  C 883.44 655.15 862.35 608.25 894.60 600.25
  C 905.15 597.63 911.71 603.40 917.20 611.48
  C 919.02 614.15 921.58 615.69 924.51 615.98
  C 933.02 616.83 929.84 607.26 927.10 603.65
  C 923.00 598.23 917.39 593.38 911.86 590.09
  C 894.87 579.98 878.06 591.76 868.53 605.49
  C 861.07 616.23 864.59 629.52 871.81 639.23
  Z"
/>
<path fill="#f07237" d="
  M 603.00 762.71
  Q 608.00 763.43 613.00 762.71
  Q 627.96 763.39 642.94 763.82
  C 647.51 763.95 650.29 767.69 650.27 772.24
  Q 650.10 815.58 650.48 858.51
  Q 650.50 860.84 648.17 860.93
  L 614.00 862.29
  Q 607.96 861.56 602.05 862.31
  L 449.85 861.18
  Q 448.19 861.17 447.00 860.01
  Q 404.08 817.93 361.73 775.28
  C 353.26 766.75 350.41 757.45 350.47 745.16
  Q 351.21 612.08 350.96 478.98
  A 3.63 3.62 -22.7 0 1 352.01 476.43
  L 447.36 380.55
  Q 449.27 378.64 451.95 378.55
  Q 464.88 378.11 477.00 378.75
  C 488.27 379.35 499.13 377.47 510.69 379.86
  Q 512.75 380.28 512.75 382.38
  L 512.75 762.66
  A 1.53 1.52 89.6 0 0 514.29 764.19
  L 603.00 762.71
  Z"
/>
<path fill="#f07237" d="
  M 538.94 474.69
  A 1.21 1.20 13.0 0 1 538.27 473.63
  Q 537.85 433.02 538.01 392.30
  C 538.02 389.42 537.42 385.00 537.93 381.35
  Q 538.28 378.86 540.80 378.86
  L 729.41 379.30
  Q 731.69 379.31 733.28 380.95
  Q 777.19 426.24 816.25 475.77
  Q 817.24 477.02 817.25 478.60
  L 817.74 521.51
  Q 817.76 523.50 815.77 523.50
  L 658.22 523.50
  Q 656.24 523.50 656.24 521.52
  L 656.23 478.04
  Q 656.23 475.92 654.10 475.90
  Q 597.37 475.55 540.25 475.08
  Q 539.72 475.08 538.94 474.69
  Z"
/>
<path fill="#3f7f97" d="
  M 400.43 906.31
  C 320.66 849.82 266.77 769.50 252.23 673.25
  Q 246.95 638.34 247.86 601.89
  Q 247.92 599.68 245.96 598.64
  C 223.82 586.98 217.31 557.57 238.47 541.23
  C 255.26 528.27 280.26 538.43 285.93 557.81
  C 291.33 576.26 280.38 594.47 261.91 599.14
  C 259.63 599.72 258.12 602.03 258.04 604.49
  C 254.44 719.99 305.15 826.33 399.47 893.25
  C 404.09 896.53 424.13 908.90 424.40 914.05
  C 424.89 923.30 402.99 908.12 400.43 906.31
  Z
  M 277.71 567.00
  A 21.69 21.69 0.0 0 0 256.02 545.31
  A 21.69 21.69 0.0 0 0 234.33 567.00
  A 21.69 21.69 0.0 0 0 256.02 588.69
  A 21.69 21.69 0.0 0 0 277.71 567.00
  Z"
/>
<path fill="#3f7f97" d="
  M 602.05 862.31
  Q 607.96 861.56 614.00 862.29
  Q 614.00 1002.80 614.00 1143.31
  C 614.00 1148.03 613.28 1150.09 608.24 1150.26
  Q 533.61 1152.80 464.02 1135.89
  C 331.44 1103.68 216.19 1019.71 142.71 904.97
  Q 141.32 902.80 143.12 900.96
  C 150.09 893.84 160.91 888.91 169.19 883.38
  Q 206.87 858.22 245.20 833.31
  Q 247.72 831.68 246.22 829.08
  Q 191.44 734.22 187.90 624.29
  C 187.52 612.43 188.95 599.58 189.64 587.20
  C 189.86 583.23 191.45 581.00 195.26 580.22
  Q 197.24 579.81 198.14 581.63
  C 199.51 584.38 199.79 587.23 199.60 590.61
  C 193.04 710.37 236.25 828.47 326.03 909.61
  C 368.32 947.82 419.22 978.50 474.06 994.83
  Q 516.61 1007.50 560.74 1012.78
  Q 568.30 1013.68 565.07 1019.43
  Q 563.93 1021.47 561.59 1021.38
  C 435.92 1016.72 324.70 943.72 254.47 842.27
  Q 253.33 840.63 251.65 841.71
  Q 205.12 871.73 157.83 902.30
  C 155.14 904.04 154.22 906.02 156.24 908.77
  C 193.18 959.00 235.26 1003.61 285.19 1040.79
  C 376.29 1108.63 484.76 1141.83 598.00 1142.45
  C 602.19 1142.47 603.56 1140.77 603.49 1136.75
  Q 601.41 1023.10 602.74 909.44
  Q 603.01 885.84 602.05 862.31
  Z"
/>
<path fill="#f07237" d="
  M 598.03 688.37
  A 1.92 1.82 14.7 0 1 597.01 686.73
  L 597.01 596.73
  Q 597.01 594.25 599.49 594.25
  Q 705.77 594.24 812.04 594.26
  C 814.53 594.26 816.92 595.33 816.93 598.00
  Q 817.41 728.38 817.22 858.01
  Q 817.21 860.76 814.46 860.76
  L 677.69 860.80
  Q 675.36 860.80 675.42 858.46
  Q 677.48 774.52 674.92 691.65
  Q 674.85 689.50 672.70 689.50
  L 600.57 689.50
  Q 600.16 689.50 599.65 689.22
  L 598.03 688.37
  Z"
/>
<circle fill="#47889a" cx="64.87" cy="620.26" r="19.41"/>
<path fill="#2c6582" fill-opacity="0.855" d="
  M 1236.02 645.90
  A 39.65 39.65 0.0 0 1 1196.37 685.55
  A 39.65 39.65 0.0 0 1 1156.72 645.90
  A 39.65 39.65 0.0 0 1 1196.37 606.25
  A 39.65 39.65 0.0 0 1 1236.02 645.90
  Z
  M 1225.17 646.12
  A 28.74 28.74 0.0 0 0 1196.43 617.38
  A 28.74 28.74 0.0 0 0 1167.69 646.12
  A 28.74 28.74 0.0 0 0 1196.43 674.86
  A 28.74 28.74 0.0 0 0 1225.17 646.12
  Z"
/>
<path fill="#47889a" d="
  M 613.00 762.71
  Q 608.00 763.43 603.00 762.71
  Q 604.66 757.86 600.94 756.10
  Q 593.05 752.36 587.68 746.92
  C 575.53 734.62 575.10 716.62 588.70 704.70
  C 620.10 677.20 659.86 728.08 623.41 751.90
  C 619.06 754.74 613.04 756.55 613.00 762.71
  Z"
/>
<circle fill="#47889a" cx="76.61" cy="726.98" r="20.02"/>
<path fill="#3f7f97" d="
  M 1211.70 759.36
  A 31.49 31.49 0.0 0 1 1180.21 790.85
  A 31.49 31.49 0.0 0 1 1148.72 759.36
  A 31.49 31.49 0.0 0 1 1180.21 727.87
  A 31.49 31.49 0.0 0 1 1211.70 759.36
  Z
  M 1201.47 759.58
  A 21.38 21.38 0.0 0 0 1180.09 738.20
  A 21.38 21.38 0.0 0 0 1158.71 759.58
  A 21.38 21.38 0.0 0 0 1180.09 780.96
  A 21.38 21.38 0.0 0 0 1201.47 759.58
  Z"
/>
<circle fill="#47889a" cx="93.24" cy="790.04" r="19.81"/>
<circle fill="#47889a" cx="119.65" cy="854.71" r="19.53"/>
<path fill="#3f7f97" d="
  M 291.63 965.87
  C 288.68 963.34 286.09 961.73 286.77 957.28
  C 287.59 951.95 294.33 955.10 296.82 957.14
  C 352.96 1002.98 416.16 1038.82 486.50 1054.99
  C 490.34 1055.87 494.17 1045.50 496.74 1042.91
  C 516.33 1023.16 550.98 1034.11 551.48 1063.25
  C 552.02 1094.83 519.70 1106.98 497.23 1086.63
  C 492.98 1082.79 490.71 1074.49 489.02 1069.22
  Q 488.41 1067.30 486.48 1066.74
  C 414.51 1045.70 348.85 1014.99 291.63 965.87
  Z
  M 541.90 1064.16
  A 21.47 21.47 0.0 0 0 520.43 1042.69
  A 21.47 21.47 0.0 0 0 498.96 1064.16
  A 21.47 21.47 0.0 0 0 520.43 1085.63
  A 21.47 21.47 0.0 0 0 541.90 1064.16
  Z"
/>
<path fill="#3a758e" fill-opacity="0.929" d="
  M 471.29 1218.28
  C 356.50 1194.90 251.37 1139.63 166.79 1058.67
  A 1.43 1.42 51.1 0 0 165.05 1058.48
  C 131.17 1079.24 96.10 1049.61 105.09 1013.07
  C 116.89 965.08 198.24 986.47 179.80 1038.20
  Q 177.61 1044.34 175.75 1049.91
  Q 175.19 1051.57 176.47 1052.77
  C 278.11 1148.23 403.92 1205.06 542.63 1218.21
  C 548.62 1218.78 551.65 1217.62 553.20 1211.79
  C 555.30 1203.86 566.72 1193.39 573.72 1189.69
  C 591.62 1180.23 615.19 1187.33 624.86 1204.45
  C 634.77 1222.01 631.87 1246.26 614.13 1257.90
  C 603.57 1264.84 589.44 1265.82 577.66 1261.02
  C 564.77 1255.76 555.32 1243.86 550.98 1230.72
  A 1.64 1.21 -88.5 0 0 550.43 1229.93
  Q 548.66 1228.69 545.50 1228.50
  Q 511.35 1226.43 471.29 1218.28
  Z
  M 170.94 1024.98
  A 28.76 28.76 0.0 0 0 142.18 996.22
  A 28.76 28.76 0.0 0 0 113.42 1024.98
  A 28.76 28.76 0.0 0 0 142.18 1053.74
  A 28.76 28.76 0.0 0 0 170.94 1024.98
  Z
  M 620.97 1225.30
  A 28.97 28.97 0.0 0 0 592.00 1196.33
  A 28.97 28.97 0.0 0 0 563.03 1225.30
  A 28.97 28.97 0.0 0 0 592.00 1254.27
  A 28.97 28.97 0.0 0 0 620.97 1225.30
  Z"
/>
<rect fill="#f07237" x="-29.42" y="-91.04" transform="translate(680.59,1175.40) rotate(-0.1)" width="58.84" height="182.08" rx="2.16"/>
<path fill="#f07237" d="
  M 721.67 1120.58
  A 1.69 1.67 14.7 0 1 720.82 1119.14
  Q 720.61 1104.94 720.49 1091.04
  C 720.43 1084.82 720.19 1084.98 726.19 1084.80
  Q 748.64 1084.13 771.08 1084.39
  Q 778.62 1084.48 783.28 1085.87
  C 798.85 1090.54 812.74 1106.50 821.18 1120.06
  Q 823.19 1123.29 823.52 1126.50
  Q 826.32 1153.98 823.74 1181.51
  Q 823.57 1183.36 822.28 1184.69
  L 790.48 1217.44
  Q 789.16 1218.80 787.26 1218.98
  Q 755.22 1221.97 722.41 1219.00
  Q 720.02 1218.78 720.01 1216.38
  Q 719.98 1203.01 720.01 1188.95
  C 720.02 1185.09 721.40 1182.85 725.36 1182.76
  Q 743.27 1182.35 761.20 1182.52
  Q 763.25 1182.54 763.26 1180.47
  L 763.57 1124.56
  A 1.86 1.86 0.8 0 0 761.75 1122.69
  L 724.25 1121.81
  Q 723.76 1121.80 723.31 1121.53
  L 721.67 1120.58
  Z"
/>
<path fill="#f07237" d="
  M 918.59 1121.07
  A 1.88 1.87 89.2 0 1 916.74 1119.26
  L 915.49 1087.27
  A 1.78 1.77 -1.6 0 1 917.24 1085.43
  L 984.20 1084.33
  A 3.36 3.36 -22.4 0 1 986.70 1085.37
  Q 999.09 1098.26 1012.43 1110.85
  C 1019.24 1117.29 1021.92 1125.69 1022.20 1135.01
  C 1022.59 1147.79 1021.31 1160.39 1022.01 1172.27
  A 3.66 3.63 -25.5 0 1 1021.05 1174.95
  L 995.50 1202.58
  Q 994.30 1203.88 995.14 1205.45
  L 1026.71 1264.57
  A 1.28 1.27 75.8 0 1 1025.60 1266.45
  L 966.26 1266.29
  A 2.73 2.67 76.1 0 1 963.87 1264.81
  L 936.93 1212.30
  Q 935.60 1209.71 932.91 1210.81
  Q 925.66 1213.78 918.07 1211.20
  Q 916.47 1210.66 916.17 1209.00
  Q 913.37 1193.61 916.48 1177.99
  A 2.13 2.13 -85.0 0 1 918.53 1176.27
  L 959.95 1175.43
  Q 961.93 1175.39 961.95 1173.42
  L 962.31 1124.73
  Q 962.34 1121.57 959.16 1121.53
  L 918.59 1121.07
  Z"
/>
<rect fill="#f07237" x="846.00" y="1084.50" width="61.50" height="182.00" rx="2.73"/>
<path fill="#dc8768" d="
  M 1220.12 1175.64
  A 90.79 90.79 0.0 0 1 1129.33 1266.43
  A 90.79 90.79 0.0 0 1 1038.54 1175.64
  A 90.79 90.79 0.0 0 1 1129.33 1084.85
  A 90.79 90.79 0.0 0 1 1220.12 1175.64
  Z
  M 1212.77 1175.51
  A 83.48 83.48 0.0 0 0 1129.29 1092.03
  A 83.48 83.48 0.0 0 0 1045.81 1175.51
  A 83.48 83.48 0.0 0 0 1129.29 1258.99
  A 83.48 83.48 0.0 0 0 1212.77 1175.51
  Z"
/>
<path fill="#f78638" d="
  M 1195.04 1137.75
  Q 1191.31 1139.13 1188.57 1141.70
  Q 1176.46 1155.65 1164.46 1169.66
  C 1157.78 1177.45 1155.10 1173.89 1152.23 1166.33
  Q 1140.54 1135.61 1128.97 1104.83
  C 1127.28 1100.35 1128.06 1097.87 1133.30 1098.27
  C 1158.46 1100.20 1184.20 1114.17 1195.04 1137.75
  Z"
/>
<path fill="#efb68b" fill-opacity="0.996" d="
  M 1065.92 1137.56
  Q 1063.78 1136.86 1065.08 1135.02
  Q 1084.09 1108.15 1116.06 1100.68
  C 1120.27 1099.70 1122.64 1098.38 1124.36 1102.91
  Q 1132.84 1125.33 1141.27 1147.75
  Q 1142.20 1150.24 1139.56 1149.98
  C 1114.80 1147.57 1089.74 1145.34 1065.92 1137.56
  Z"
/>
<path fill="#f07237" d="
  M 1195.04 1137.75
  Q 1214.41 1171.60 1198.94 1207.69
  Q 1198.30 1209.18 1195.00 1210.29
  Q 1193.14 1209.76 1191.25 1210.29
  L 1174.00 1207.29
  L 1145.23 1202.07
  C 1145.50 1199.41 1146.59 1198.26 1147.52 1196.25
  C 1151.63 1187.49 1155.70 1183.00 1163.71 1173.31
  Q 1176.49 1157.83 1185.02 1148.52
  Q 1188.08 1145.19 1188.57 1141.70
  Q 1191.31 1139.13 1195.04 1137.75
  Z"
/>
<path fill="#7fc6c2" d="
  M 1060.41 1145.54
  C 1062.66 1140.68 1071.09 1144.35 1074.65 1144.86
  Q 1093.04 1147.51 1111.41 1150.29
  Q 1116.36 1151.03 1112.93 1154.93
  Q 1088.93 1182.18 1065.06 1209.57
  Q 1063.49 1211.37 1062.36 1209.27
  Q 1045.38 1177.91 1060.41 1145.54
  Z
  M 1068.23 1147.17
  Q 1063.96 1146.96 1064.51 1150.60
  A 2.95 2.93 -25.4 0 1 1063.56 1153.25
  Q 1059.22 1157.15 1059.80 1159.45
  Q 1060.19 1160.99 1061.29 1159.83
  Q 1066.01 1154.81 1069.22 1148.94
  A 1.20 1.19 15.9 0 0 1068.23 1147.17
  Z"
/>
<path fill="#3f7f97" d="
  M 1068.23 1147.17
  A 1.20 1.19 15.9 0 1 1069.22 1148.94
  Q 1066.01 1154.81 1061.29 1159.83
  Q 1060.19 1160.99 1059.80 1159.45
  Q 1059.22 1157.15 1063.56 1153.25
  A 2.95 2.93 -25.4 0 0 1064.51 1150.60
  Q 1063.96 1146.96 1068.23 1147.17
  Z"
/>
<path fill="#51a8b1" d="
  M 1072.19 1227.56
  C 1058.53 1216.14 1076.53 1203.47 1083.79 1194.87
  Q 1091.64 1185.58 1097.72 1174.99
  C 1098.90 1172.94 1101.02 1173.12 1101.79 1175.29
  Q 1115.24 1213.11 1128.33 1250.27
  Q 1129.19 1252.69 1126.62 1252.60
  C 1105.03 1251.87 1089.02 1241.64 1072.19 1227.56
  Z"
/>
<path fill="#47889a" d="
  M 1145.23 1202.07
  L 1174.00 1207.29
  Q 1181.94 1212.48 1191.25 1210.29
  Q 1193.14 1209.76 1195.00 1210.29
  C 1196.49 1219.57 1189.07 1223.39 1183.64 1229.21
  Q 1164.30 1249.97 1136.08 1251.92
  Q 1133.62 1252.09 1132.73 1249.80
  Q 1124.01 1227.42 1115.96 1206.26
  C 1114.35 1202.03 1117.45 1200.56 1121.13 1200.81
  Q 1133.19 1201.63 1145.23 1202.07
  Z"
/>
</svg>
