<?xml version="1.0" encoding="UTF-8" standalone="no"?>
<!DOCTYPE svg PUBLIC "-//W3C//DTD SVG 1.1//EN" "http://www.w3.org/Graphics/SVG/1.1/DTD/svg11.dtd">
<svg xmlns="http://www.w3.org/2000/svg" version="1.1" viewBox="0 0 231 162">
<g stroke-width="2.00" fill="none" stroke-linecap="butt">
<path stroke="#c0da89" vector-effect="non-scaling-stroke" d="
  M 94.75 15.18
  Q 96.32 16.27 97.78 15.02
  C 102.10 11.28 99.22 5.33 96.63 1.67
  Q 96.33 1.25 96.13 1.72
  C 94.50 5.45 90.10 11.96 94.75 15.18"
/>
<path stroke="#c0da89" vector-effect="non-scaling-stroke" d="
  M 81.63 5.05
  C 79.10 11.98 75.52 29.25 87.53 30.03
  A 1.34 1.26 -61.2 0 0 88.42 29.74
  C 99.47 21.02 85.51 12.74 82.37 5.04
  Q 81.98 4.08 81.63 5.05"
/>
<path stroke="#c0da89" vector-effect="non-scaling-stroke" d="
  M 99.48 32.73
  C 112.74 42.48 121.22 21.56 123.31 12.25
  Q 123.42 11.76 122.97 12.00
  C 113.32 17.08 95.94 13.95 97.49 29.24
  Q 97.71 31.42 99.48 32.73"
/>
<path stroke="#c0da89" vector-effect="non-scaling-stroke" d="
  M 88.46 98.50
  C 88.88 104.70 88.47 111.58 89.40 117.03
  C 92.06 132.75 102.10 146.76 116.93 153.29"
/>
<path stroke="#fdc98b" vector-effect="non-scaling-stroke" d="
  M 116.93 153.29
  C 124.70 156.46 132.34 157.80 140.72 156.12
  C 164.19 151.43 176.81 133.81 179.03 110.10
  C 180.57 93.65 186.24 81.86 204.19 78.87
  C 215.73 76.95 223.08 73.67 225.08 60.70
  A 1.24 1.23 -85.4 0 0 223.87 59.27
  C 215.90 59.19 206.60 58.78 199.49 60.07
  Q 181.14 63.40 169.50 78.79"
/>
<path stroke="#c0da89" vector-effect="non-scaling-stroke" d="
  M 169.50 78.79
  Q 159.78 64.68 143.95 60.70
  C 133.59 58.10 118.79 59.55 107.32 59.47
  A 0.57 0.56 87.7 0 1 106.77 58.96
  C 106.43 55.73 106.73 51.92 106.17 49.17
  Q 103.45 35.89 89.01 34.36
  A 0.47 0.47 -86.8 0 0 88.49 34.83
  L 88.46 78.75"
/>
<path stroke="#80b7d3" vector-effect="non-scaling-stroke" d="
  M 88.46 78.75
  L 35.13 78.68
  A 0.51 0.50 -0.6 0 1 34.62 78.19
  Q 34.41 67.46 34.50 56.71
  C 34.59 44.53 30.69 35.64 16.90 34.37
  A 0.37 0.36 -87.2 0 0 16.50 34.74
  Q 16.49 84.44 16.51 134.16
  C 16.51 146.51 20.23 155.35 33.99 156.88
  A 0.46 0.39 3.9 0 0 34.50 156.50
  L 34.50 99.00
  A 0.50 0.48 -90.0 0 1 34.98 98.50
  L 88.46 98.50"
/>
<path stroke="#41915d" vector-effect="non-scaling-stroke" d="
  M 88.46 78.75
  Q 89.19 88.62 88.46 98.50"
/>
<path stroke="#bea315" vector-effect="non-scaling-stroke" d="
  M 169.50 78.79
  Q 164.11 87.63 162.39 97.82
  A 0.91 0.67 -88.8 0 1 161.85 98.52
  L 160.75 98.79"
/>
<path stroke="#c0da89" vector-effect="non-scaling-stroke" d="
  M 160.75 98.79
  Q 155.20 82.95 140.72 78.95
  C 131.83 76.50 116.59 77.83 105.55 77.73
  A 0.53 0.53 -88.3 0 0 105.01 78.24
  C 104.53 91.10 103.13 109.84 107.18 120.65
  Q 111.77 132.89 125.04 138.50"
/>
<path stroke="#bea315" vector-effect="non-scaling-stroke" d="
  M 125.04 138.50
  L 124.94 139.33
  A 1.28 0.58 -26.6 0 1 124.34 140.07
  Q 117.39 144.76 116.93 153.29"
/>
<path stroke="#fdc98b" vector-effect="non-scaling-stroke" d="
  M 125.04 138.50
  C 137.85 141.95 149.29 137.68 156.71 126.82
  Q 164.97 114.74 160.75 98.79"
/>
<path stroke="#80b7d3" vector-effect="non-scaling-stroke" d="
  M 149.80 85.45
  Q 142.74 79.55 134.98 79.52
  Q 121.04 79.46 107.04 79.53
  A 0.51 0.51 -89.4 0 0 106.53 80.03
  C 106.48 91.87 105.02 108.95 108.14 118.57
  C 114.17 137.10 136.57 144.80 151.22 130.90
  C 164.50 118.31 163.76 97.12 149.80 85.45"
/>
<path stroke="#80b7d3" vector-effect="non-scaling-stroke" d="
  M 147.26 97.31
  C 157.52 94.32 140.06 86.50 137.26 85.89
  Q 135.26 85.46 136.88 86.62
  Q 142.76 90.82 146.42 97.07
  A 0.80 0.62 -21.8 0 0 147.26 97.31"
/>
<path stroke="#80b7d3" vector-effect="non-scaling-stroke" d="
  M 148.04 100.75
  Q 151.09 107.92 150.68 115.74
  Q 150.65 116.44 151.12 115.82
  C 153.09 113.23 155.20 110.63 154.94 107.18
  Q 154.57 102.42 152.67 97.98
  A 0.54 0.50 63.8 0 0 151.95 97.70
  L 148.27 99.78
  A 0.83 0.66 64.8 0 0 148.04 100.75"
/>
</g>
<path fill="#ffffff" d="
  M 0.00 0.00
  L 231.00 0.00
  L 231.00 162.00
  L 0.00 162.00
  L 0.00 0.00
  Z
  M 94.75 15.18
  Q 96.32 16.27 97.78 15.02
  C 102.10 11.28 99.22 5.33 96.63 1.67
  Q 96.33 1.25 96.13 1.72
  C 94.50 5.45 90.10 11.96 94.75 15.18
  Z
  M 81.63 5.05
  C 79.10 11.98 75.52 29.25 87.53 30.03
  A 1.34 1.26 -61.2 0 0 88.42 29.74
  C 99.47 21.02 85.51 12.74 82.37 5.04
  Q 81.98 4.08 81.63 5.05
  Z
  M 99.48 32.73
  C 112.74 42.48 121.22 21.56 123.31 12.25
  Q 123.42 11.76 122.97 12.00
  C 113.32 17.08 95.94 13.95 97.49 29.24
  Q 97.71 31.42 99.48 32.73
  Z
  M 88.46 98.50
  C 88.88 104.70 88.47 111.58 89.40 117.03
  C 92.06 132.75 102.10 146.76 116.93 153.29
  C 124.70 156.46 132.34 157.80 140.72 156.12
  C 164.19 151.43 176.81 133.81 179.03 110.10
  C 180.57 93.65 186.24 81.86 204.19 78.87
  C 215.73 76.95 223.08 73.67 225.08 60.70
  A 1.24 1.23 -85.4 0 0 223.87 59.27
  C 215.90 59.19 206.60 58.78 199.49 60.07
  Q 181.14 63.40 169.50 78.79
  Q 159.78 64.68 143.95 60.70
  C 133.59 58.10 118.79 59.55 107.32 59.47
  A 0.57 0.56 87.7 0 1 106.77 58.96
  C 106.43 55.73 106.73 51.92 106.17 49.17
  Q 103.45 35.89 89.01 34.36
  A 0.47 0.47 -86.8 0 0 88.49 34.83
  L 88.46 78.75
  L 35.13 78.68
  A 0.51 0.50 -0.6 0 1 34.62 78.19
  Q 34.41 67.46 34.50 56.71
  C 34.59 44.53 30.69 35.64 16.90 34.37
  A 0.37 0.36 -87.2 0 0 16.50 34.74
  Q 16.49 84.44 16.51 134.16
  C 16.51 146.51 20.23 155.35 33.99 156.88
  A 0.46 0.39 3.9 0 0 34.50 156.50
  L 34.50 99.00
  A 0.50 0.48 -90.0 0 1 34.98 98.50
  L 88.46 98.50
  Z"
/>
<path fill="#81b413" d="
  M 94.75 15.18
  C 90.10 11.96 94.50 5.45 96.13 1.72
  Q 96.33 1.25 96.63 1.67
  C 99.22 5.33 102.10 11.28 97.78 15.02
  Q 96.32 16.27 94.75 15.18
  Z"
/>
<path fill="#81b413" d="
  M 87.53 30.03
  C 75.52 29.25 79.10 11.98 81.63 5.05
  Q 81.98 4.08 82.37 5.04
  C 85.51 12.74 99.47 21.02 88.42 29.74
  A 1.34 1.26 -61.2 0 1 87.53 30.03
  Z"
/>
<path fill="#81b413" d="
  M 99.48 32.73
  Q 97.71 31.42 97.49 29.24
  C 95.94 13.95 113.32 17.08 122.97 12.00
  Q 123.42 11.76 123.31 12.25
  C 121.22 21.56 112.74 42.48 99.48 32.73
  Z"
/>
<path fill="#006ea7" d="
  M 88.46 78.75
  Q 89.19 88.62 88.46 98.50
  L 34.98 98.50
  A 0.50 0.48 90.0 0 0 34.50 99.00
  L 34.50 156.50
  A 0.46 0.39 3.9 0 1 33.99 156.88
  C 20.23 155.35 16.51 146.51 16.51 134.16
  Q 16.49 84.44 16.50 34.74
  A 0.37 0.36 -87.2 0 1 16.90 34.37
  C 30.69 35.64 34.59 44.53 34.50 56.71
  Q 34.41 67.46 34.62 78.19
  A 0.51 0.50 -0.6 0 0 35.13 78.68
  L 88.46 78.75
  Z"
/>
<path fill="#81b413" d="
  M 169.50 78.79
  Q 164.11 87.63 162.39 97.82
  A 0.91 0.67 -88.8 0 1 161.85 98.52
  L 160.75 98.79
  Q 155.20 82.95 140.72 78.95
  C 131.83 76.50 116.59 77.83 105.55 77.73
  A 0.53 0.53 -88.3 0 0 105.01 78.24
  C 104.53 91.10 103.13 109.84 107.18 120.65
  Q 111.77 132.89 125.04 138.50
  L 124.94 139.33
  A 1.28 0.58 -26.6 0 1 124.34 140.07
  Q 117.39 144.76 116.93 153.29
  C 102.10 146.76 92.06 132.75 89.40 117.03
  C 88.47 111.58 88.88 104.70 88.46 98.50
  Q 89.19 88.62 88.46 78.75
  L 88.49 34.83
  A 0.47 0.47 -86.8 0 1 89.01 34.36
  Q 103.45 35.89 106.17 49.17
  C 106.73 51.92 106.43 55.73 106.77 58.96
  A 0.57 0.56 87.7 0 0 107.32 59.47
  C 118.79 59.55 133.59 58.10 143.95 60.70
  Q 159.78 64.68 169.50 78.79
  Z"
/>
<path fill="#fb9216" d="
  M 116.93 153.29
  Q 117.39 144.76 124.34 140.07
  A 1.28 0.58 -26.6 0 0 124.94 139.33
  L 125.04 138.50
  C 137.85 141.95 149.29 137.68 156.71 126.82
  Q 164.97 114.74 160.75 98.79
  L 161.85 98.52
  A 0.91 0.67 -88.8 0 0 162.39 97.82
  Q 164.11 87.63 169.50 78.79
  Q 181.14 63.40 199.49 60.07
  C 206.60 58.78 215.90 59.19 223.87 59.27
  A 1.24 1.23 -85.4 0 1 225.08 60.70
  C 223.08 73.67 215.73 76.95 204.19 78.87
  C 186.24 81.86 180.57 93.65 179.03 110.10
  C 176.81 133.81 164.19 151.43 140.72 156.12
  C 132.34 157.80 124.70 156.46 116.93 153.29
  Z"
/>
<path fill="#ffffff" d="
  M 160.75 98.79
  Q 164.97 114.74 156.71 126.82
  C 149.29 137.68 137.85 141.95 125.04 138.50
  Q 111.77 132.89 107.18 120.65
  C 103.13 109.84 104.53 91.10 105.01 78.24
  A 0.53 0.53 -88.3 0 1 105.55 77.73
  C 116.59 77.83 131.83 76.50 140.72 78.95
  Q 155.20 82.95 160.75 98.79
  Z
  M 149.80 85.45
  Q 142.74 79.55 134.98 79.52
  Q 121.04 79.46 107.04 79.53
  A 0.51 0.51 -89.4 0 0 106.53 80.03
  C 106.48 91.87 105.02 108.95 108.14 118.57
  C 114.17 137.10 136.57 144.80 151.22 130.90
  C 164.50 118.31 163.76 97.12 149.80 85.45
  Z"
/>
<path fill="#006ea7" d="
  M 149.80 85.45
  C 163.76 97.12 164.50 118.31 151.22 130.90
  C 136.57 144.80 114.17 137.10 108.14 118.57
  C 105.02 108.95 106.48 91.87 106.53 80.03
  A 0.51 0.51 -89.4 0 1 107.04 79.53
  Q 121.04 79.46 134.98 79.52
  Q 142.74 79.55 149.80 85.45
  Z
  M 147.26 97.31
  C 157.52 94.32 140.06 86.50 137.26 85.89
  Q 135.26 85.46 136.88 86.62
  Q 142.76 90.82 146.42 97.07
  A 0.80 0.62 -21.8 0 0 147.26 97.31
  Z
  M 148.04 100.75
  Q 151.09 107.92 150.68 115.74
  Q 150.65 116.44 151.12 115.82
  C 153.09 113.23 155.20 110.63 154.94 107.18
  Q 154.57 102.42 152.67 97.98
  A 0.54 0.50 63.8 0 0 151.95 97.70
  L 148.27 99.78
  A 0.83 0.66 64.8 0 0 148.04 100.75
  Z"
/>
<path fill="#ffffff" d="
  M 137.26 85.89
  C 140.06 86.50 157.52 94.32 147.26 97.31
  A 0.80 0.62 -21.8 0 1 146.42 97.07
  Q 142.76 90.82 136.88 86.62
  Q 135.26 85.46 137.26 85.89
  Z"
/>
<path fill="#ffffff" d="
  M 148.27 99.78
  L 151.95 97.70
  A 0.54 0.50 63.8 0 1 152.67 97.98
  Q 154.57 102.42 154.94 107.18
  C 155.20 110.63 153.09 113.23 151.12 115.82
  Q 150.65 116.44 150.68 115.74
  Q 151.09 107.92 148.04 100.75
  A 0.83 0.66 64.8 0 1 148.27 99.78
  Z"
/>
</svg>
