<?xml version="1.0" encoding="UTF-8" standalone="no"?>
<!DOCTYPE svg PUBLIC "-//W3C//DTD SVG 1.1//EN" "http://www.w3.org/Graphics/SVG/1.1/DTD/svg11.dtd">
<svg xmlns="http://www.w3.org/2000/svg" version="1.1" viewBox="0 0 357 110">
<g stroke-width="2.00" fill="none" stroke-linecap="butt">
<path stroke="#81add3" vector-effect="non-scaling-stroke" d="
  M 190.19 47.76
  L 220.19 47.62
  A 0.61 0.57 9.7 0 0 220.75 47.25
  L 226.47 32.49
  A 0.34 0.31 -79.0 0 0 226.19 32.03
  L 196.50 32.09
  A 0.52 0.28 4.1 0 1 195.93 31.73
  L 198.58 25.07
  A 1.04 0.43 3.0 0 1 199.50 24.75
  L 228.75 24.75
  A 0.88 0.76 9.1 0 0 229.54 24.26
  L 235.13 9.55
  A 0.31 0.25 8.2 0 0 234.81 9.21
  L 186.75 9.24
  A 0.86 0.77 9.3 0 0 185.97 9.74
  L 159.90 77.35
  A 0.48 0.41 -77.9 0 0 160.25 78.00
  L 208.75 78.00
  A 0.75 0.43 -74.5 0 0 209.26 77.50
  L 214.60 63.33
  A 0.63 0.61 10.0 0 0 214.00 62.50
  L 184.75 62.50
  A 0.51 0.41 8.1 0 1 184.23 61.95
  L 189.57 48.32
  A 0.86 0.56 -75.0 0 1 190.19 47.76"
/>
<path stroke="#81add3" vector-effect="non-scaling-stroke" d="
  M 37.23 9.87
  C 28.38 32.37 19.83 54.91 11.00 77.46
  A 0.40 0.31 -76.9 0 0 11.25 78.00
  L 29.00 78.00
  A 0.97 0.45 -72.7 0 0 29.61 77.33
  L 55.42 9.93
  A 0.50 0.47 -78.5 0 0 55.00 9.25
  L 38.00 9.25
  A 0.97 0.76 -77.0 0 0 37.23 9.87"
/>
<path stroke="#80b1d6" vector-effect="non-scaling-stroke" d="
  M 49.50 44.71
  L 36.75 77.51
  A 0.36 0.34 -79.2 0 0 37.06 77.99
  L 54.50 78.00
  A 0.77 0.63 -77.5 0 0 55.13 77.50
  L 61.46 60.50"
/>
<path stroke="#80c2e4" vector-effect="non-scaling-stroke" d="
  M 61.46 60.50
  L 67.74 44.29
  Q 68.12 43.29 68.34 44.23
  Q 72.07 60.64 74.81 77.24
  A 0.90 0.66 84.2 0 0 75.50 78.00
  L 92.75 78.00
  A 1.18 1.01 -77.9 0 0 93.74 77.24
  L 119.60 9.83
  A 0.43 0.39 -78.7 0 0 119.25 9.25
  L 102.50 9.25
  A 1.36 1.17 8.9 0 0 101.27 10.01
  L 88.79 42.55
  Q 87.96 44.72 87.52 42.50
  L 81.17 9.82
  A 0.70 0.68 84.3 0 0 80.50 9.25
  L 63.50 9.25
  A 0.78 0.64 -77.8 0 0 62.86 9.76
  L 49.50 44.71"
/>
<path stroke="#0074bb" vector-effect="non-scaling-stroke" d="
  M 61.46 60.50
  Q 59.79 61.96 58.50 60.00
  Q 54.69 54.21 52.41 47.69
  Q 52.31 47.39 52.18 47.69
  L 52.04 48.05
  Q 51.83 48.55 51.63 48.00
  Q 50.93 46.08 49.50 44.71"
/>
<path stroke="#80b4d8" vector-effect="non-scaling-stroke" d="
  M 139.25 24.75
  A 0.73 0.59 -76.7 0 1 139.72 25.74
  L 119.05 77.23
  A 0.59 0.35 -73.9 0 0 119.25 78.00
  L 136.75 78.00
  A 0.88 0.65 -76.4 0 0 137.43 77.43
  L 157.06 25.31
  A 1.05 0.85 8.2 0 1 158.00 24.75
  L 172.25 24.75
  A 0.88 0.60 -75.8 0 0 172.90 24.17
  L 178.26 10.00
  A 0.56 0.55 -79.6 0 0 177.75 9.25
  L 127.50 9.25
  A 0.90 0.65 6.8 0 0 126.70 9.69
  L 121.20 24.23
  A 0.53 0.38 7.3 0 0 121.75 24.75
  L 139.25 24.75"
/>
<path stroke="#81add3" vector-effect="non-scaling-stroke" d="
  M 246.45 62.44
  C 243.31 62.43 241.88 60.21 242.91 57.23
  Q 247.45 44.08 252.79 31.22
  C 254.60 26.87 256.51 24.67 261.26 24.74
  Q 270.37 24.86 285.35 24.67
  A 0.85 0.50 5.4 0 0 286.09 24.32
  L 291.75 9.75
  A 0.48 0.34 7.8 0 0 291.25 9.28
  Q 273.38 9.25 255.46 9.22
  C 246.74 9.21 241.51 12.81 238.27 21.03
  Q 227.02 49.59 220.77 66.26
  C 219.36 70.01 218.60 77.87 224.82 77.96
  Q 234.28 78.09 264.97 77.98
  A 0.93 0.72 7.9 0 0 265.79 77.51
  L 271.30 63.02
  A 0.50 0.35 6.9 0 0 270.77 62.55
  Q 258.52 62.51 246.45 62.44"
/>
<path stroke="#81add3" vector-effect="non-scaling-stroke" d="
  M 313.19 9.25
  C 302.62 9.29 298.04 12.53 294.24 22.25
  Q 286.21 42.79 278.27 63.37
  C 275.85 69.65 273.83 77.97 283.63 77.99
  Q 302.65 78.03 321.69 77.98
  A 0.81 0.71 -78.1 0 0 322.38 77.46
  L 327.83 63.28
  A 0.57 0.56 -79.1 0 0 327.32 62.50
  Q 315.37 62.53 303.09 62.46
  C 299.27 62.44 298.36 59.72 299.59 56.40
  Q 304.09 44.25 308.88 32.22
  C 311.17 26.45 312.67 24.74 319.48 24.75
  Q 330.60 24.76 341.79 24.74
  A 0.90 0.65 7.7 0 0 342.57 24.32
  L 348.10 9.79
  A 0.51 0.32 6.1 0 0 347.55 9.36
  Q 330.32 9.18 313.19 9.25"
/>
<path stroke="#b8d98e" vector-effect="non-scaling-stroke" d="
  M 144.25 96.50
  Q 141.08 97.32 141.01 94.01
  C 140.96 91.41 142.22 87.07 145.74 87.87
  A 1.36 1.03 74.2 0 1 146.48 88.43
  C 147.74 90.30 151.63 90.71 149.58 87.95
  C 144.39 80.93 134.57 90.71 140.01 97.16
  C 142.41 100.01 148.02 99.07 149.34 95.21
  A 1.00 0.50 -68.0 0 0 149.26 94.22
  Q 148.59 93.76 147.81 94.09
  A 1.78 1.56 3.8 0 0 147.13 94.61
  Q 146.05 96.03 144.25 96.50"
/>
<path stroke="#b8d98e" vector-effect="non-scaling-stroke" d="
  M 78.58 91.97
  C 77.46 91.83 72.33 91.50 73.86 93.48
  A 0.91 0.70 -20.6 0 0 74.68 93.73
  Q 75.73 93.52 76.29 94.21
  A 0.63 0.56 -44.1 0 1 76.23 95.00
  C 70.93 100.79 67.18 89.68 74.42 87.70
  A 1.04 0.89 -29.1 0 1 75.34 87.89
  L 77.30 89.70
  A 1.31 1.08 58.8 0 0 78.27 90.04
  Q 79.52 89.87 79.26 88.47
  Q 78.78 85.86 75.72 85.73
  C 64.65 85.26 64.97 102.10 75.84 97.89
  A 1.01 0.54 -25.7 0 1 76.82 97.93
  Q 77.47 98.70 78.31 98.34
  A 1.07 0.42 -87.0 0 0 78.69 97.50
  L 79.30 93.00
  A 0.93 0.85 -82.6 0 0 78.58 91.97"
/>
<path stroke="#b8d98e" vector-effect="non-scaling-stroke" d="
  M 112.82 94.71
  C 111.05 98.08 106.27 96.51 107.18 92.26
  Q 108.77 84.89 113.96 89.59
  C 114.62 90.20 115.53 90.31 115.75 89.23
  Q 116.31 86.40 112.98 85.94
  C 102.91 84.53 100.59 99.24 111.45 98.71
  Q 113.23 98.63 114.17 97.11
  Q 116.39 93.54 113.52 94.14
  A 1.14 0.92 -78.2 0 0 112.82 94.71"
/>
<path stroke="#b8d98e" vector-effect="non-scaling-stroke" d="
  M 154.1381 98.1387
  A 6.79 5.95 119.0 0 0 162.6340 95.0846
  A 6.79 5.95 119.0 0 0 160.7219 86.2613
  A 6.79 5.95 119.0 0 0 152.2260 89.3154
  A 6.79 5.95 119.0 0 0 154.1381 98.1387"
/>
<path stroke="#b8d98e" vector-effect="non-scaling-stroke" d="
  M 257.44 88.44
  C 252.10 95.74 261.82 103.55 266.60 95.46
  A 1.07 0.88 -45.5 0 0 266.68 94.55
  C 266.13 93.35 264.94 94.15 264.33 94.90
  C 262.03 97.75 257.93 96.47 258.44 92.48
  C 258.75 90.03 262.70 85.09 264.61 89.09
  A 1.14 0.93 80.7 0 0 265.29 89.69
  Q 268.29 90.40 266.89 87.72
  C 264.99 84.08 259.35 85.81 257.44 88.44"
/>
<path stroke="#b8d98e" vector-effect="non-scaling-stroke" d="
  M 305.67 94.57
  C 305.05 98.02 296.98 97.33 300.13 90.26
  Q 302.20 85.62 306.61 89.71
  A 1.46 0.93 57.5 0 0 307.47 90.11
  C 310.37 90.16 305.97 83.37 300.45 86.48
  C 294.40 89.89 296.38 101.67 304.28 98.15
  A 1.93 1.17 -41.0 0 1 305.26 97.98
  L 306.99 98.27
  A 0.64 0.60 -80.2 0 0 307.69 97.74
  L 308.58 92.52
  A 0.71 0.58 7.4 0 0 307.93 91.83
  C 306.88 91.71 302.58 91.40 302.71 93.25
  A 0.56 0.48 84.2 0 0 303.25 93.77
  Q 304.32 93.63 305.32 93.90
  A 0.62 0.50 -78.3 0 1 305.67 94.57"
/>
<path stroke="#b8d98e" vector-effect="non-scaling-stroke" d="
  M 19.2755 86.8458
  A 0.57 0.57 0.0 0 0 18.8212 86.1799
  L 17.4456 85.9199
  A 0.57 0.57 0.0 0 0 16.7797 86.3742
  L 14.6445 97.6742
  A 0.57 0.57 0.0 0 0 15.0988 98.3401
  L 16.4744 98.6001
  A 0.57 0.57 0.0 0 0 17.1403 98.1458
  L 19.2755 86.8458"
/>
<path stroke="#b8d98e" vector-effect="non-scaling-stroke" d="
  M 24.08 91.18
  L 26.47 97.51
  A 1.65 1.11 13.5 0 0 27.14 98.24
  C 30.55 100.20 30.91 91.17 31.50 86.98
  A 0.88 0.46 -81.0 0 0 31.19 86.06
  Q 30.49 85.91 29.82 86.07
  A 1.18 0.58 -85.0 0 0 29.26 87.00
  L 28.03 94.01
  Q 27.82 95.21 27.41 94.07
  L 24.96 87.27
  A 1.35 0.54 76.0 0 0 24.33 86.40
  Q 23.11 86.02 21.93 86.41
  A 1.10 0.42 -83.2 0 0 21.49 87.25
  L 19.59 97.27
  A 1.02 0.54 -74.9 0 0 19.80 98.22
  Q 20.69 98.75 21.68 98.42
  A 1.14 0.59 -86.0 0 0 22.19 97.58
  C 22.34 96.71 22.99 90.84 23.51 90.75
  A 0.63 0.45 72.4 0 1 24.08 91.18"
/>
<path stroke="#b8d98e" vector-effect="non-scaling-stroke" d="
  M 36.11 88.81
  C 35.87 90.23 33.12 99.87 36.56 98.25
  A 0.97 0.94 -7.7 0 0 37.09 97.57
  L 38.56 89.01
  A 0.91 0.67 -83.7 0 1 39.26 88.25
  L 41.00 88.25
  A 0.93 0.79 -71.8 0 0 41.72 87.81
  C 43.60 84.78 34.83 86.27 33.71 86.34
  A 0.60 0.55 -0.7 0 0 33.15 86.87
  Q 33.07 88.84 35.69 88.41
  A 0.36 0.36 -0.7 0 1 36.11 88.81"
/>
<path stroke="#b8d98e" vector-effect="non-scaling-stroke" d="
  M 45.74 93.00
  L 49.75 92.99
  A 1.38 0.82 12.5 0 0 50.64 92.70
  C 52.62 90.65 47.28 90.99 46.80 90.99
  A 0.90 0.78 -11.7 0 1 46.03 90.56
  C 44.46 87.53 49.81 88.26 50.99 88.25
  A 1.32 0.37 -43.3 0 0 51.81 87.82
  Q 52.45 87.31 52.24 86.50
  A 0.77 0.62 -7.2 0 0 51.50 86.04
  L 44.75 86.21
  A 0.90 0.88 4.3 0 0 43.89 86.93
  L 41.98 97.70
  A 0.66 0.63 -83.7 0 0 42.57 98.48
  C 43.87 98.51 51.98 99.38 50.69 96.71
  A 0.83 0.74 75.1 0 0 50.00 96.25
  L 45.75 96.25
  A 0.73 0.48 0.7 0 1 45.01 95.75
  L 45.07 93.57
  A 0.67 0.58 0.4 0 1 45.74 93.00"
/>
<path stroke="#b8d98e" vector-effect="non-scaling-stroke" d="
  M 55.62 95.69
  Q 56.01 92.05 56.83 88.42
  C 57.63 84.88 54.76 85.37 54.36 87.92
  Q 53.58 92.82 52.63 97.68
  A 0.45 0.45 7.9 0 0 53.04 98.22
  C 53.87 98.29 62.73 99.20 61.25 96.67
  A 0.88 0.86 -15.0 0 0 60.50 96.25
  L 56.00 96.25
  A 0.50 0.40 -85.6 0 1 55.62 95.69"
/>
<path stroke="#b8d98e" vector-effect="non-scaling-stroke" d="
  M 66.8148 87.1460
  A 0.93 0.93 0.0 0 0 66.0755 86.0582
  L 65.3879 85.9271
  A 0.93 0.93 0.0 0 0 64.3002 86.6663
  L 62.2652 97.3340
  A 0.93 0.93 0.0 0 0 63.0045 98.4218
  L 63.6921 98.5529
  A 0.93 0.93 0.0 0 0 64.7798 97.8137
  L 66.8148 87.1460"
/>
<path stroke="#b8d98e" vector-effect="non-scaling-stroke" d="
  M 85.06 93.05
  C 85.50 93.03 91.54 93.34 89.66 91.31
  A 1.36 0.77 -11.2 0 0 88.75 91.01
  L 85.50 91.00
  A 0.75 0.50 0.0 0 1 84.75 90.50
  L 84.75 88.75
  A 0.75 0.50 -0.0 0 1 85.50 88.25
  L 90.25 88.26
  A 1.01 0.53 -69.1 0 0 90.92 87.67
  L 91.26 87.01
  A 0.74 0.49 10.3 0 0 90.50 86.28
  L 83.51 85.94
  A 0.78 0.58 -82.0 0 0 82.88 86.58
  L 80.75 97.51
  A 0.84 0.78 6.5 0 0 81.55 98.45
  C 82.49 98.48 91.70 99.41 89.30 96.33
  A 1.06 0.77 -15.1 0 0 88.50 96.02
  L 84.50 96.22
  A 0.70 0.57 4.9 0 1 83.75 95.50
  L 84.33 93.57
  A 0.81 0.72 6.3 0 1 85.06 93.05"
/>
<path stroke="#b8d98e" vector-effect="non-scaling-stroke" d="
  M 99.19 93.56
  C 98.43 91.24 97.28 84.75 93.83 86.44
  A 1.18 0.88 86.5 0 0 93.29 87.26
  L 91.51 97.25
  A 0.99 0.86 -66.7 0 0 91.78 98.11
  C 94.74 100.71 94.91 92.59 95.10 91.34
  A 0.77 0.50 -87.9 0 1 95.53 90.73
  C 96.66 90.47 97.64 100.19 100.97 98.36
  C 102.24 97.66 103.35 88.60 103.64 86.80
  A 0.70 0.46 -83.5 0 0 103.24 86.00
  L 101.74 86.00
  A 0.88 0.46 -81.6 0 0 101.20 86.74
  L 99.97 93.49
  Q 99.68 95.06 99.19 93.56"
/>
<path stroke="#b8d98e" vector-effect="non-scaling-stroke" d="
  M 121.2485 87.1007
  A 0.78 0.78 0.0 0 0 120.6237 86.1916
  L 119.5815 85.9984
  A 0.78 0.78 0.0 0 0 118.6724 86.6232
  L 116.6715 97.4193
  A 0.78 0.78 0.0 0 0 117.2963 98.3284
  L 118.3385 98.5216
  A 0.78 0.78 0.0 0 0 119.2476 97.8968
  L 121.2485 87.1007"
/>
<path stroke="#b8d98e" vector-effect="non-scaling-stroke" d="
  M 124.93 96.12
  L 128.94 96.05
  A 0.57 0.49 -85.5 0 1 129.42 96.70
  Q 129.09 98.95 131.23 98.47
  A 0.70 0.36 -11.4 0 0 131.82 98.00
  L 130.43 87.01
  A 1.06 1.00 -81.4 0 0 129.87 86.20
  C 126.91 84.72 123.68 92.97 121.41 97.58
  A 0.59 0.50 -68.9 0 0 121.69 98.38
  Q 123.93 98.93 124.38 96.62
  A 0.61 0.55 -84.4 0 1 124.93 96.12"
/>
<path stroke="#b8d98e" vector-effect="non-scaling-stroke" d="
  M 170.70 94.25
  Q 171.02 90.58 170.32 86.99
  A 1.07 0.75 89.0 0 0 169.77 86.23
  Q 168.24 85.68 166.74 86.23
  A 1.06 0.51 -85.6 0 0 166.29 87.01
  L 164.52 97.25
  A 1.09 1.05 -63.1 0 0 164.81 98.20
  Q 165.28 98.66 166.01 98.50
  A 1.02 0.88 -86.8 0 0 166.69 97.79
  Q 167.71 93.84 167.98 89.75
  C 168.03 88.91 168.49 89.23 168.56 89.70
  C 168.88 91.77 168.07 99.31 171.14 98.48
  A 1.20 0.87 -80.6 0 0 171.81 97.82
  L 175.03 90.27
  Q 175.55 89.06 175.36 90.28
  L 174.23 97.53
  A 0.84 0.61 -74.5 0 0 174.52 98.31
  C 177.31 99.95 178.21 88.56 178.49 86.97
  A 0.65 0.61 -73.9 0 0 178.13 86.27
  C 173.68 84.39 172.46 91.31 171.42 94.18
  A 0.45 0.34 -85.6 0 1 171.19 94.44
  L 171.00 94.50
  A 0.23 0.23 83.8 0 1 170.70 94.25"
/>
<path stroke="#b8d98e" vector-effect="non-scaling-stroke" d="
  M 188.22 86.50
  Q 184.89 85.74 181.57 86.07
  A 0.85 0.54 -84.1 0 0 181.03 86.75
  L 179.02 97.25
  A 1.02 0.68 -72.4 0 0 179.30 98.22
  Q 180.23 98.80 181.24 98.21
  A 0.98 0.94 -13.1 0 0 181.71 97.49
  L 182.04 94.76
  A 1.19 1.17 9.6 0 1 183.47 93.76
  Q 189.66 95.11 189.79 89.04
  Q 189.84 86.87 188.22 86.50"
/>
<path stroke="#b8d98e" vector-effect="non-scaling-stroke" d="
  M 193.55 95.75
  L 194.15 93.42
  A 0.85 0.57 5.9 0 1 194.95 92.99
  C 196.00 93.03 200.16 93.46 199.65 91.48
  A 0.68 0.65 -7.2 0 0 199.00 91.00
  L 195.25 91.00
  A 0.75 0.44 2.6 0 1 194.47 90.49
  L 194.76 88.75
  A 0.72 0.60 3.6 0 1 195.46 88.24
  C 196.20 88.25 202.07 88.85 200.75 86.71
  A 0.96 0.84 -12.6 0 0 200.00 86.30
  L 194.32 86.06
  A 1.79 1.45 5.7 0 0 192.53 87.24
  L 190.58 97.81
  A 0.59 0.46 -83.9 0 0 191.01 98.50
  L 198.25 98.50
  A 0.92 0.63 6.0 0 0 199.07 98.06
  L 199.51 96.75
  A 0.50 0.38 6.7 0 0 199.00 96.25
  L 194.00 96.25
  A 0.45 0.40 6.4 0 1 193.55 95.75"
/>
<path stroke="#b8d98e" vector-effect="non-scaling-stroke" d="
  M 208.31 88.35
  C 209.80 88.39 213.22 86.42 210.44 86.06
  C 209.99 86.01 201.47 85.51 202.03 87.62
  A 0.84 0.73 81.3 0 0 202.76 88.24
  L 204.75 88.23
  A 0.71 0.58 -83.5 0 1 205.29 89.07
  L 203.71 97.25
  A 1.04 0.34 -76.8 0 0 203.79 98.21
  Q 204.77 98.83 205.82 98.32
  A 1.14 0.46 -85.5 0 0 206.23 97.50
  L 207.76 88.75
  A 0.54 0.48 5.5 0 1 208.31 88.35"
/>
<path stroke="#b8d98e" vector-effect="non-scaling-stroke" d="
  M 215.4610 87.2580
  A 0.97 0.97 0.0 0 0 214.6781 86.1316
  L 214.1073 86.0288
  A 0.97 0.97 0.0 0 0 212.9809 86.8117
  L 211.0790 97.3820
  A 0.97 0.97 0.0 0 0 211.8619 98.5084
  L 212.4327 98.6112
  A 0.97 0.97 0.0 0 0 213.5591 97.8283
  L 215.4610 87.2580"
/>
<path stroke="#b8d98e" vector-effect="non-scaling-stroke" d="
  M 219.82 88.76
  L 218.32 97.51
  A 0.85 0.36 -81.5 0 0 218.56 98.45
  L 220.25 98.50
  A 0.87 0.40 -81.1 0 0 220.75 97.75
  L 222.24 89.25
  A 0.97 0.77 86.9 0 1 222.73 88.56
  C 223.52 88.20 226.63 87.62 225.56 86.34
  A 1.13 0.92 -17.4 0 0 224.71 86.00
  C 223.52 86.04 216.66 85.77 216.72 87.23
  A 0.90 0.83 -81.2 0 0 217.25 88.02
  Q 218.21 88.41 219.25 88.23
  A 0.49 0.46 -0.3 0 1 219.82 88.76"
/>
<path stroke="#b8d98e" vector-effect="non-scaling-stroke" d="
  M 230.0970 87.1268
  A 0.86 0.86 0.0 0 0 229.4082 86.1245
  L 228.5626 85.9678
  A 0.86 0.86 0.0 0 0 227.5603 86.6567
  L 225.5630 97.4332
  A 0.86 0.86 0.0 0 0 226.2518 98.4355
  L 227.0974 98.5922
  A 0.86 0.86 0.0 0 0 228.0997 97.9033
  L 230.0970 87.1268"
/>
<path stroke="#b8d98e" vector-effect="non-scaling-stroke" d="
  M 235.01 93.75
  Q 234.16 90.42 234.24 87.00
  A 0.91 0.62 -83.0 0 0 233.81 86.16
  Q 232.84 85.83 231.81 86.07
  A 0.89 0.45 80.5 0 0 231.52 87.00
  L 233.17 97.76
  A 0.92 0.84 8.6 0 0 233.71 98.43
  Q 235.48 99.18 236.17 97.67
  Q 238.62 92.34 241.09 86.95
  A 0.63 0.55 -62.9 0 0 240.90 86.19
  C 238.31 84.61 236.18 92.28 235.77 93.78
  Q 235.38 95.20 235.01 93.75"
/>
<path stroke="#b8d98e" vector-effect="non-scaling-stroke" d="
  M 239.00 98.26
  Q 241.19 99.23 241.81 97.08
  A 1.32 1.03 -8.7 0 1 242.50 96.35
  Q 246.11 94.74 247.27 97.92
  A 1.00 1.00 86.1 0 0 247.98 98.54
  C 250.39 99.10 248.66 90.65 248.15 86.66
  A 0.71 0.66 -88.6 0 0 247.61 86.05
  C 245.87 85.70 244.86 86.24 243.99 87.86
  Q 241.39 92.72 238.79 97.60
  A 0.49 0.46 -64.1 0 0 239.00 98.26"
/>
<path stroke="#b8d98e" vector-effect="non-scaling-stroke" d="
  M 271.25 95.23
  L 271.77 93.51
  A 0.82 0.69 7.0 0 1 272.53 93.02
  C 273.11 93.02 278.86 93.44 277.21 91.45
  A 1.25 1.23 -19.4 0 0 276.25 91.00
  L 273.00 91.00
  A 0.75 0.50 0.0 0 1 272.25 90.50
  L 272.25 88.75
  A 0.75 0.50 -0.0 0 1 273.00 88.25
  L 277.50 88.25
  A 1.17 0.50 -57.8 0 0 278.24 87.74
  Q 278.51 87.41 278.49 87.01
  A 0.71 0.49 88.7 0 0 278.00 86.33
  L 270.74 86.09
  A 0.71 0.54 -82.9 0 0 270.17 86.68
  L 268.23 97.75
  A 0.58 0.41 9.3 0 0 268.75 98.26
  Q 272.50 98.83 276.25 98.24
  A 1.19 0.41 -60.2 0 0 276.90 97.67
  Q 277.39 96.95 276.97 96.31
  A 0.89 0.70 -21.7 0 0 276.07 96.04
  Q 273.68 96.68 271.48 95.93
  A 0.61 0.43 -72.9 0 1 271.25 95.23"
/>
<path stroke="#b8d98e" vector-effect="non-scaling-stroke" d="
  M 282.99 90.58
  C 283.42 90.70 285.40 96.52 285.72 97.35
  A 1.76 1.42 -88.0 0 0 286.30 98.12
  Q 288.66 99.73 289.18 96.93
  Q 290.11 91.88 291.10 86.79
  A 0.67 0.41 -83.0 0 0 290.74 86.01
  L 289.07 86.07
  A 0.81 0.60 -84.6 0 0 288.47 86.74
  L 287.51 92.75
  Q 287.11 95.23 286.35 92.93
  C 285.82 91.31 284.38 84.62 281.62 86.12
  C 280.32 86.83 279.30 95.47 279.00 97.27
  A 0.92 0.83 -66.6 0 0 279.28 98.10
  C 282.03 100.48 282.23 92.27 282.48 90.99
  A 0.49 0.38 -76.8 0 1 282.99 90.58"
/>
<path stroke="#b8d98e" vector-effect="non-scaling-stroke" d="
  M 296.0836 86.9319
  A 0.74 0.74 0.0 0 0 295.4969 86.0653
  L 294.4560 85.8649
  A 0.74 0.74 0.0 0 0 293.5894 86.4516
  L 291.4564 97.5281
  A 0.74 0.74 0.0 0 0 292.0431 98.3947
  L 293.0840 98.5951
  A 0.74 0.74 0.0 0 0 293.9506 98.0084
  L 296.0836 86.9319"
/>
<path stroke="#b8d98e" vector-effect="non-scaling-stroke" d="
  M 316.88 96.68
  Q 316.87 99.18 319.32 98.33
  A 0.81 0.60 78.9 0 0 319.71 97.51
  L 318.39 87.18
  A 1.13 0.60 89.7 0 0 317.94 86.35
  Q 316.57 85.78 315.25 86.20
  A 1.29 0.63 -73.0 0 0 314.64 86.85
  C 314.19 87.72 306.97 99.53 310.64 98.46
  A 1.22 1.16 -83.7 0 0 311.38 97.84
  Q 312.81 95.01 316.19 96.18
  A 0.89 0.30 17.2 0 1 316.88 96.68"
/>
<path stroke="#b8d98e" vector-effect="non-scaling-stroke" d="
  M 324.49 96.19
  L 327.76 96.02
  A 0.89 0.55 -1.3 0 1 328.70 96.57
  Q 328.67 97.22 328.92 97.82
  A 1.12 0.74 80.5 0 0 329.48 98.42
  Q 331.60 99.11 331.28 96.74
  Q 330.41 90.14 330.24 87.53
  A 1.19 0.32 88.4 0 0 329.95 86.55
  Q 328.53 85.74 327.06 86.29
  A 1.49 1.10 -3.2 0 0 326.35 86.88
  L 321.11 97.09
  A 1.12 1.04 49.8 0 0 321.07 97.98
  C 321.66 99.61 323.46 97.89 323.90 96.78
  A 0.89 0.54 -76.1 0 1 324.49 96.19"
/>
<path stroke="#b8d98e" vector-effect="non-scaling-stroke" d="
  M 156.1506 96.5493
  A 4.55 3.37 106.2 0 0 160.6562 93.1202
  A 4.55 3.37 106.2 0 0 158.6894 87.8107
  A 4.55 3.37 106.2 0 0 154.1838 91.2398
  A 4.55 3.37 106.2 0 0 156.1506 96.5493"
/>
<path stroke="#b8d98e" vector-effect="non-scaling-stroke" d="
  M 127.67 89.93
  L 126.16 93.17
  A 0.60 0.39 -68.6 0 0 126.32 93.94
  Q 127.46 94.16 128.57 93.85
  A 1.02 0.46 -88.4 0 0 128.98 93.00
  Q 129.13 91.47 128.78 89.99
  Q 128.40 88.37 127.67 89.93"
/>
<path stroke="#b8d98e" vector-effect="non-scaling-stroke" d="
  M 186.57 88.44
  Q 182.26 87.03 182.98 90.98
  A 1.19 0.40 81.8 0 0 183.49 92.00
  Q 185.29 92.20 186.67 91.22
  Q 189.30 89.34 186.57 88.44"
/>
<path stroke="#b8d98e" vector-effect="non-scaling-stroke" d="
  M 243.50 93.34
  A 0.32 0.32 18.0 0 0 243.73 93.80
  L 246.36 94.21
  A 0.32 0.32 0.5 0 0 246.73 93.85
  L 246.05 89.56
  A 0.32 0.32 63.0 0 0 245.45 89.47
  L 243.50 93.34"
/>
<path stroke="#b8d98e" vector-effect="non-scaling-stroke" d="
  M 315.40 89.93
  L 313.73 93.50
  A 0.35 0.32 -75.8 0 0 314.00 94.00
  L 316.25 94.00
  A 0.54 0.47 -2.0 0 0 316.79 93.49
  L 316.53 90.24
  Q 316.34 87.93 315.40 89.93"
/>
<path stroke="#b8d98e" vector-effect="non-scaling-stroke" d="
  M 325.38 93.29
  A 0.32 0.32 18.8 0 0 325.60 93.75
  L 328.06 94.25
  A 0.32 0.32 -86.2 0 0 328.44 93.91
  L 328.11 89.24
  A 0.32 0.32 -33.8 0 0 327.51 89.12
  L 325.38 93.29"
/>
</g>
<path fill="#ffffff" d="
  M 0.00 0.00
  L 357.00 0.00
  L 357.00 110.00
  L 0.00 110.00
  L 0.00 0.00
  Z
  M 190.19 47.76
  L 220.19 47.62
  A 0.61 0.57 9.7 0 0 220.75 47.25
  L 226.47 32.49
  A 0.34 0.31 -79.0 0 0 226.19 32.03
  L 196.50 32.09
  A 0.52 0.28 4.1 0 1 195.93 31.73
  L 198.58 25.07
  A 1.04 0.43 3.0 0 1 199.50 24.75
  L 228.75 24.75
  A 0.88 0.76 9.1 0 0 229.54 24.26
  L 235.13 9.55
  A 0.31 0.25 8.2 0 0 234.81 9.21
  L 186.75 9.24
  A 0.86 0.77 9.3 0 0 185.97 9.74
  L 159.90 77.35
  A 0.48 0.41 -77.9 0 0 160.25 78.00
  L 208.75 78.00
  A 0.75 0.43 -74.5 0 0 209.26 77.50
  L 214.60 63.33
  A 0.63 0.61 10.0 0 0 214.00 62.50
  L 184.75 62.50
  A 0.51 0.41 8.1 0 1 184.23 61.95
  L 189.57 48.32
  A 0.86 0.56 -75.0 0 1 190.19 47.76
  Z
  M 37.23 9.87
  C 28.38 32.37 19.83 54.91 11.00 77.46
  A 0.40 0.31 -76.9 0 0 11.25 78.00
  L 29.00 78.00
  A 0.97 0.45 -72.7 0 0 29.61 77.33
  L 55.42 9.93
  A 0.50 0.47 -78.5 0 0 55.00 9.25
  L 38.00 9.25
  A 0.97 0.76 -77.0 0 0 37.23 9.87
  Z
  M 49.50 44.71
  L 36.75 77.51
  A 0.36 0.34 -79.2 0 0 37.06 77.99
  L 54.50 78.00
  A 0.77 0.63 -77.5 0 0 55.13 77.50
  L 61.46 60.50
  L 67.74 44.29
  Q 68.12 43.29 68.34 44.23
  Q 72.07 60.64 74.81 77.24
  A 0.90 0.66 84.2 0 0 75.50 78.00
  L 92.75 78.00
  A 1.18 1.01 -77.9 0 0 93.74 77.24
  L 119.60 9.83
  A 0.43 0.39 -78.7 0 0 119.25 9.25
  L 102.50 9.25
  A 1.36 1.17 8.9 0 0 101.27 10.01
  L 88.79 42.55
  Q 87.96 44.72 87.52 42.50
  L 81.17 9.82
  A 0.70 0.68 84.3 0 0 80.50 9.25
  L 63.50 9.25
  A 0.78 0.64 -77.8 0 0 62.86 9.76
  L 49.50 44.71
  Z
  M 139.25 24.75
  A 0.73 0.59 -76.7 0 1 139.72 25.74
  L 119.05 77.23
  A 0.59 0.35 -73.9 0 0 119.25 78.00
  L 136.75 78.00
  A 0.88 0.65 -76.4 0 0 137.43 77.43
  L 157.06 25.31
  A 1.05 0.85 8.2 0 1 158.00 24.75
  L 172.25 24.75
  A 0.88 0.60 -75.8 0 0 172.90 24.17
  L 178.26 10.00
  A 0.56 0.55 -79.6 0 0 177.75 9.25
  L 127.50 9.25
  A 0.90 0.65 6.8 0 0 126.70 9.69
  L 121.20 24.23
  A 0.53 0.38 7.3 0 0 121.75 24.75
  L 139.25 24.75
  Z
  M 246.45 62.44
  C 243.31 62.43 241.88 60.21 242.91 57.23
  Q 247.45 44.08 252.79 31.22
  C 254.60 26.87 256.51 24.67 261.26 24.74
  Q 270.37 24.86 285.35 24.67
  A 0.85 0.50 5.4 0 0 286.09 24.32
  L 291.75 9.75
  A 0.48 0.34 7.8 0 0 291.25 9.28
  Q 273.38 9.25 255.46 9.22
  C 246.74 9.21 241.51 12.81 238.27 21.03
  Q 227.02 49.59 220.77 66.26
  C 219.36 70.01 218.60 77.87 224.82 77.96
  Q 234.28 78.09 264.97 77.98
  A 0.93 0.72 7.9 0 0 265.79 77.51
  L 271.30 63.02
  A 0.50 0.35 6.9 0 0 270.77 62.55
  Q 258.52 62.51 246.45 62.44
  Z
  M 313.19 9.25
  C 302.62 9.29 298.04 12.53 294.24 22.25
  Q 286.21 42.79 278.27 63.37
  C 275.85 69.65 273.83 77.97 283.63 77.99
  Q 302.65 78.03 321.69 77.98
  A 0.81 0.71 -78.1 0 0 322.38 77.46
  L 327.83 63.28
  A 0.57 0.56 -79.1 0 0 327.32 62.50
  Q 315.37 62.53 303.09 62.46
  C 299.27 62.44 298.36 59.72 299.59 56.40
  Q 304.09 44.25 308.88 32.22
  C 311.17 26.45 312.67 24.74 319.48 24.75
  Q 330.60 24.76 341.79 24.74
  A 0.90 0.65 7.7 0 0 342.57 24.32
  L 348.10 9.79
  A 0.51 0.32 6.1 0 0 347.55 9.36
  Q 330.32 9.18 313.19 9.25
  Z
  M 144.25 96.50
  Q 141.08 97.32 141.01 94.01
  C 140.96 91.41 142.22 87.07 145.74 87.87
  A 1.36 1.03 74.2 0 1 146.48 88.43
  C 147.74 90.30 151.63 90.71 149.58 87.95
  C 144.39 80.93 134.57 90.71 140.01 97.16
  C 142.41 100.01 148.02 99.07 149.34 95.21
  A 1.00 0.50 -68.0 0 0 149.26 94.22
  Q 148.59 93.76 147.81 94.09
  A 1.78 1.56 3.8 0 0 147.13 94.61
  Q 146.05 96.03 144.25 96.50
  Z
  M 78.58 91.97
  C 77.46 91.83 72.33 91.50 73.86 93.48
  A 0.91 0.70 -20.6 0 0 74.68 93.73
  Q 75.73 93.52 76.29 94.21
  A 0.63 0.56 -44.1 0 1 76.23 95.00
  C 70.93 100.79 67.18 89.68 74.42 87.70
  A 1.04 0.89 -29.1 0 1 75.34 87.89
  L 77.30 89.70
  A 1.31 1.08 58.8 0 0 78.27 90.04
  Q 79.52 89.87 79.26 88.47
  Q 78.78 85.86 75.72 85.73
  C 64.65 85.26 64.97 102.10 75.84 97.89
  A 1.01 0.54 -25.7 0 1 76.82 97.93
  Q 77.47 98.70 78.31 98.34
  A 1.07 0.42 -87.0 0 0 78.69 97.50
  L 79.30 93.00
  A 0.93 0.85 -82.6 0 0 78.58 91.97
  Z
  M 112.82 94.71
  C 111.05 98.08 106.27 96.51 107.18 92.26
  Q 108.77 84.89 113.96 89.59
  C 114.62 90.20 115.53 90.31 115.75 89.23
  Q 116.31 86.40 112.98 85.94
  C 102.91 84.53 100.59 99.24 111.45 98.71
  Q 113.23 98.63 114.17 97.11
  Q 116.39 93.54 113.52 94.14
  A 1.14 0.92 -78.2 0 0 112.82 94.71
  Z
  M 154.1381 98.1387
  A 6.79 5.95 119.0 0 0 162.6340 95.0846
  A 6.79 5.95 119.0 0 0 160.7219 86.2613
  A 6.79 5.95 119.0 0 0 152.2260 89.3154
  A 6.79 5.95 119.0 0 0 154.1381 98.1387
  Z
  M 257.44 88.44
  C 252.10 95.74 261.82 103.55 266.60 95.46
  A 1.07 0.88 -45.5 0 0 266.68 94.55
  C 266.13 93.35 264.94 94.15 264.33 94.90
  C 262.03 97.75 257.93 96.47 258.44 92.48
  C 258.75 90.03 262.70 85.09 264.61 89.09
  A 1.14 0.93 80.7 0 0 265.29 89.69
  Q 268.29 90.40 266.89 87.72
  C 264.99 84.08 259.35 85.81 257.44 88.44
  Z
  M 305.67 94.57
  C 305.05 98.02 296.98 97.33 300.13 90.26
  Q 302.20 85.62 306.61 89.71
  A 1.46 0.93 57.5 0 0 307.47 90.11
  C 310.37 90.16 305.97 83.37 300.45 86.48
  C 294.40 89.89 296.38 101.67 304.28 98.15
  A 1.93 1.17 -41.0 0 1 305.26 97.98
  L 306.99 98.27
  A 0.64 0.60 -80.2 0 0 307.69 97.74
  L 308.58 92.52
  A 0.71 0.58 7.4 0 0 307.93 91.83
  C 306.88 91.71 302.58 91.40 302.71 93.25
  A 0.56 0.48 84.2 0 0 303.25 93.77
  Q 304.32 93.63 305.32 93.90
  A 0.62 0.50 -78.3 0 1 305.67 94.57
  Z
  M 19.2755 86.8458
  A 0.57 0.57 0.0 0 0 18.8212 86.1799
  L 17.4456 85.9199
  A 0.57 0.57 0.0 0 0 16.7797 86.3742
  L 14.6445 97.6742
  A 0.57 0.57 0.0 0 0 15.0988 98.3401
  L 16.4744 98.6001
  A 0.57 0.57 0.0 0 0 17.1403 98.1458
  L 19.2755 86.8458
  Z
  M 24.08 91.18
  L 26.47 97.51
  A 1.65 1.11 13.5 0 0 27.14 98.24
  C 30.55 100.20 30.91 91.17 31.50 86.98
  A 0.88 0.46 -81.0 0 0 31.19 86.06
  Q 30.49 85.91 29.82 86.07
  A 1.18 0.58 -85.0 0 0 29.26 87.00
  L 28.03 94.01
  Q 27.82 95.21 27.41 94.07
  L 24.96 87.27
  A 1.35 0.54 76.0 0 0 24.33 86.40
  Q 23.11 86.02 21.93 86.41
  A 1.10 0.42 -83.2 0 0 21.49 87.25
  L 19.59 97.27
  A 1.02 0.54 -74.9 0 0 19.80 98.22
  Q 20.69 98.75 21.68 98.42
  A 1.14 0.59 -86.0 0 0 22.19 97.58
  C 22.34 96.71 22.99 90.84 23.51 90.75
  A 0.63 0.45 72.4 0 1 24.08 91.18
  Z
  M 36.11 88.81
  C 35.87 90.23 33.12 99.87 36.56 98.25
  A 0.97 0.94 -7.7 0 0 37.09 97.57
  L 38.56 89.01
  A 0.91 0.67 -83.7 0 1 39.26 88.25
  L 41.00 88.25
  A 0.93 0.79 -71.8 0 0 41.72 87.81
  C 43.60 84.78 34.83 86.27 33.71 86.34
  A 0.60 0.55 -0.7 0 0 33.15 86.87
  Q 33.07 88.84 35.69 88.41
  A 0.36 0.36 -0.7 0 1 36.11 88.81
  Z
  M 45.74 93.00
  L 49.75 92.99
  A 1.38 0.82 12.5 0 0 50.64 92.70
  C 52.62 90.65 47.28 90.99 46.80 90.99
  A 0.90 0.78 -11.7 0 1 46.03 90.56
  C 44.46 87.53 49.81 88.26 50.99 88.25
  A 1.32 0.37 -43.3 0 0 51.81 87.82
  Q 52.45 87.31 52.24 86.50
  A 0.77 0.62 -7.2 0 0 51.50 86.04
  L 44.75 86.21
  A 0.90 0.88 4.3 0 0 43.89 86.93
  L 41.98 97.70
  A 0.66 0.63 -83.7 0 0 42.57 98.48
  C 43.87 98.51 51.98 99.38 50.69 96.71
  A 0.83 0.74 75.1 0 0 50.00 96.25
  L 45.75 96.25
  A 0.73 0.48 0.7 0 1 45.01 95.75
  L 45.07 93.57
  A 0.67 0.58 0.4 0 1 45.74 93.00
  Z
  M 55.62 95.69
  Q 56.01 92.05 56.83 88.42
  C 57.63 84.88 54.76 85.37 54.36 87.92
  Q 53.58 92.82 52.63 97.68
  A 0.45 0.45 7.9 0 0 53.04 98.22
  C 53.87 98.29 62.73 99.20 61.25 96.67
  A 0.88 0.86 -15.0 0 0 60.50 96.25
  L 56.00 96.25
  A 0.50 0.40 -85.6 0 1 55.62 95.69
  Z
  M 66.8148 87.1460
  A 0.93 0.93 0.0 0 0 66.0755 86.0582
  L 65.3879 85.9271
  A 0.93 0.93 0.0 0 0 64.3002 86.6663
  L 62.2652 97.3340
  A 0.93 0.93 0.0 0 0 63.0045 98.4218
  L 63.6921 98.5529
  A 0.93 0.93 0.0 0 0 64.7798 97.8137
  L 66.8148 87.1460
  Z
  M 85.06 93.05
  C 85.50 93.03 91.54 93.34 89.66 91.31
  A 1.36 0.77 -11.2 0 0 88.75 91.01
  L 85.50 91.00
  A 0.75 0.50 0.0 0 1 84.75 90.50
  L 84.75 88.75
  A 0.75 0.50 -0.0 0 1 85.50 88.25
  L 90.25 88.26
  A 1.01 0.53 -69.1 0 0 90.92 87.67
  L 91.26 87.01
  A 0.74 0.49 10.3 0 0 90.50 86.28
  L 83.51 85.94
  A 0.78 0.58 -82.0 0 0 82.88 86.58
  L 80.75 97.51
  A 0.84 0.78 6.5 0 0 81.55 98.45
  C 82.49 98.48 91.70 99.41 89.30 96.33
  A 1.06 0.77 -15.1 0 0 88.50 96.02
  L 84.50 96.22
  A 0.70 0.57 4.9 0 1 83.75 95.50
  L 84.33 93.57
  A 0.81 0.72 6.3 0 1 85.06 93.05
  Z
  M 99.19 93.56
  C 98.43 91.24 97.28 84.75 93.83 86.44
  A 1.18 0.88 86.5 0 0 93.29 87.26
  L 91.51 97.25
  A 0.99 0.86 -66.7 0 0 91.78 98.11
  C 94.74 100.71 94.91 92.59 95.10 91.34
  A 0.77 0.50 -87.9 0 1 95.53 90.73
  C 96.66 90.47 97.64 100.19 100.97 98.36
  C 102.24 97.66 103.35 88.60 103.64 86.80
  A 0.70 0.46 -83.5 0 0 103.24 86.00
  L 101.74 86.00
  A 0.88 0.46 -81.6 0 0 101.20 86.74
  L 99.97 93.49
  Q 99.68 95.06 99.19 93.56
  Z
  M 121.2485 87.1007
  A 0.78 0.78 0.0 0 0 120.6237 86.1916
  L 119.5815 85.9984
  A 0.78 0.78 0.0 0 0 118.6724 86.6232
  L 116.6715 97.4193
  A 0.78 0.78 0.0 0 0 117.2963 98.3284
  L 118.3385 98.5216
  A 0.78 0.78 0.0 0 0 119.2476 97.8968
  L 121.2485 87.1007
  Z
  M 124.93 96.12
  L 128.94 96.05
  A 0.57 0.49 -85.5 0 1 129.42 96.70
  Q 129.09 98.95 131.23 98.47
  A 0.70 0.36 -11.4 0 0 131.82 98.00
  L 130.43 87.01
  A 1.06 1.00 -81.4 0 0 129.87 86.20
  C 126.91 84.72 123.68 92.97 121.41 97.58
  A 0.59 0.50 -68.9 0 0 121.69 98.38
  Q 123.93 98.93 124.38 96.62
  A 0.61 0.55 -84.4 0 1 124.93 96.12
  Z
  M 170.70 94.25
  Q 171.02 90.58 170.32 86.99
  A 1.07 0.75 89.0 0 0 169.77 86.23
  Q 168.24 85.68 166.74 86.23
  A 1.06 0.51 -85.6 0 0 166.29 87.01
  L 164.52 97.25
  A 1.09 1.05 -63.1 0 0 164.81 98.20
  Q 165.28 98.66 166.01 98.50
  A 1.02 0.88 -86.8 0 0 166.69 97.79
  Q 167.71 93.84 167.98 89.75
  C 168.03 88.91 168.49 89.23 168.56 89.70
  C 168.88 91.77 168.07 99.31 171.14 98.48
  A 1.20 0.87 -80.6 0 0 171.81 97.82
  L 175.03 90.27
  Q 175.55 89.06 175.36 90.28
  L 174.23 97.53
  A 0.84 0.61 -74.5 0 0 174.52 98.31
  C 177.31 99.95 178.21 88.56 178.49 86.97
  A 0.65 0.61 -73.9 0 0 178.13 86.27
  C 173.68 84.39 172.46 91.31 171.42 94.18
  A 0.45 0.34 -85.6 0 1 171.19 94.44
  L 171.00 94.50
  A 0.23 0.23 83.8 0 1 170.70 94.25
  Z
  M 188.22 86.50
  Q 184.89 85.74 181.57 86.07
  A 0.85 0.54 -84.1 0 0 181.03 86.75
  L 179.02 97.25
  A 1.02 0.68 -72.4 0 0 179.30 98.22
  Q 180.23 98.80 181.24 98.21
  A 0.98 0.94 -13.1 0 0 181.71 97.49
  L 182.04 94.76
  A 1.19 1.17 9.6 0 1 183.47 93.76
  Q 189.66 95.11 189.79 89.04
  Q 189.84 86.87 188.22 86.50
  Z
  M 193.55 95.75
  L 194.15 93.42
  A 0.85 0.57 5.9 0 1 194.95 92.99
  C 196.00 93.03 200.16 93.46 199.65 91.48
  A 0.68 0.65 -7.2 0 0 199.00 91.00
  L 195.25 91.00
  A 0.75 0.44 2.6 0 1 194.47 90.49
  L 194.76 88.75
  A 0.72 0.60 3.6 0 1 195.46 88.24
  C 196.20 88.25 202.07 88.85 200.75 86.71
  A 0.96 0.84 -12.6 0 0 200.00 86.30
  L 194.32 86.06
  A 1.79 1.45 5.7 0 0 192.53 87.24
  L 190.58 97.81
  A 0.59 0.46 -83.9 0 0 191.01 98.50
  L 198.25 98.50
  A 0.92 0.63 6.0 0 0 199.07 98.06
  L 199.51 96.75
  A 0.50 0.38 6.7 0 0 199.00 96.25
  L 194.00 96.25
  A 0.45 0.40 6.4 0 1 193.55 95.75
  Z
  M 208.31 88.35
  C 209.80 88.39 213.22 86.42 210.44 86.06
  C 209.99 86.01 201.47 85.51 202.03 87.62
  A 0.84 0.73 81.3 0 0 202.76 88.24
  L 204.75 88.23
  A 0.71 0.58 -83.5 0 1 205.29 89.07
  L 203.71 97.25
  A 1.04 0.34 -76.8 0 0 203.79 98.21
  Q 204.77 98.83 205.82 98.32
  A 1.14 0.46 -85.5 0 0 206.23 97.50
  L 207.76 88.75
  A 0.54 0.48 5.5 0 1 208.31 88.35
  Z
  M 215.4610 87.2580
  A 0.97 0.97 0.0 0 0 214.6781 86.1316
  L 214.1073 86.0288
  A 0.97 0.97 0.0 0 0 212.9809 86.8117
  L 211.0790 97.3820
  A 0.97 0.97 0.0 0 0 211.8619 98.5084
  L 212.4327 98.6112
  A 0.97 0.97 0.0 0 0 213.5591 97.8283
  L 215.4610 87.2580
  Z
  M 219.82 88.76
  L 218.32 97.51
  A 0.85 0.36 -81.5 0 0 218.56 98.45
  L 220.25 98.50
  A 0.87 0.40 -81.1 0 0 220.75 97.75
  L 222.24 89.25
  A 0.97 0.77 86.9 0 1 222.73 88.56
  C 223.52 88.20 226.63 87.62 225.56 86.34
  A 1.13 0.92 -17.4 0 0 224.71 86.00
  C 223.52 86.04 216.66 85.77 216.72 87.23
  A 0.90 0.83 -81.2 0 0 217.25 88.02
  Q 218.21 88.41 219.25 88.23
  A 0.49 0.46 -0.3 0 1 219.82 88.76
  Z
  M 230.0970 87.1268
  A 0.86 0.86 0.0 0 0 229.4082 86.1245
  L 228.5626 85.9678
  A 0.86 0.86 0.0 0 0 227.5603 86.6567
  L 225.5630 97.4332
  A 0.86 0.86 0.0 0 0 226.2518 98.4355
  L 227.0974 98.5922
  A 0.86 0.86 0.0 0 0 228.0997 97.9033
  L 230.0970 87.1268
  Z
  M 235.01 93.75
  Q 234.16 90.42 234.24 87.00
  A 0.91 0.62 -83.0 0 0 233.81 86.16
  Q 232.84 85.83 231.81 86.07
  A 0.89 0.45 80.5 0 0 231.52 87.00
  L 233.17 97.76
  A 0.92 0.84 8.6 0 0 233.71 98.43
  Q 235.48 99.18 236.17 97.67
  Q 238.62 92.34 241.09 86.95
  A 0.63 0.55 -62.9 0 0 240.90 86.19
  C 238.31 84.61 236.18 92.28 235.77 93.78
  Q 235.38 95.20 235.01 93.75
  Z
  M 239.00 98.26
  Q 241.19 99.23 241.81 97.08
  A 1.32 1.03 -8.7 0 1 242.50 96.35
  Q 246.11 94.74 247.27 97.92
  A 1.00 1.00 86.1 0 0 247.98 98.54
  C 250.39 99.10 248.66 90.65 248.15 86.66
  A 0.71 0.66 -88.6 0 0 247.61 86.05
  C 245.87 85.70 244.86 86.24 243.99 87.86
  Q 241.39 92.72 238.79 97.60
  A 0.49 0.46 -64.1 0 0 239.00 98.26
  Z
  M 271.25 95.23
  L 271.77 93.51
  A 0.82 0.69 7.0 0 1 272.53 93.02
  C 273.11 93.02 278.86 93.44 277.21 91.45
  A 1.25 1.23 -19.4 0 0 276.25 91.00
  L 273.00 91.00
  A 0.75 0.50 0.0 0 1 272.25 90.50
  L 272.25 88.75
  A 0.75 0.50 -0.0 0 1 273.00 88.25
  L 277.50 88.25
  A 1.17 0.50 -57.8 0 0 278.24 87.74
  Q 278.51 87.41 278.49 87.01
  A 0.71 0.49 88.7 0 0 278.00 86.33
  L 270.74 86.09
  A 0.71 0.54 -82.9 0 0 270.17 86.68
  L 268.23 97.75
  A 0.58 0.41 9.3 0 0 268.75 98.26
  Q 272.50 98.83 276.25 98.24
  A 1.19 0.41 -60.2 0 0 276.90 97.67
  Q 277.39 96.95 276.97 96.31
  A 0.89 0.70 -21.7 0 0 276.07 96.04
  Q 273.68 96.68 271.48 95.93
  A 0.61 0.43 -72.9 0 1 271.25 95.23
  Z
  M 282.99 90.58
  C 283.42 90.70 285.40 96.52 285.72 97.35
  A 1.76 1.42 -88.0 0 0 286.30 98.12
  Q 288.66 99.73 289.18 96.93
  Q 290.11 91.88 291.10 86.79
  A 0.67 0.41 -83.0 0 0 290.74 86.01
  L 289.07 86.07
  A 0.81 0.60 -84.6 0 0 288.47 86.74
  L 287.51 92.75
  Q 287.11 95.23 286.35 92.93
  C 285.82 91.31 284.38 84.62 281.62 86.12
  C 280.32 86.83 279.30 95.47 279.00 97.27
  A 0.92 0.83 -66.6 0 0 279.28 98.10
  C 282.03 100.48 282.23 92.27 282.48 90.99
  A 0.49 0.38 -76.8 0 1 282.99 90.58
  Z
  M 296.0836 86.9319
  A 0.74 0.74 0.0 0 0 295.4969 86.0653
  L 294.4560 85.8649
  A 0.74 0.74 0.0 0 0 293.5894 86.4516
  L 291.4564 97.5281
  A 0.74 0.74 0.0 0 0 292.0431 98.3947
  L 293.0840 98.5951
  A 0.74 0.74 0.0 0 0 293.9506 98.0084
  L 296.0836 86.9319
  Z
  M 316.88 96.68
  Q 316.87 99.18 319.32 98.33
  A 0.81 0.60 78.9 0 0 319.71 97.51
  L 318.39 87.18
  A 1.13 0.60 89.7 0 0 317.94 86.35
  Q 316.57 85.78 315.25 86.20
  A 1.29 0.63 -73.0 0 0 314.64 86.85
  C 314.19 87.72 306.97 99.53 310.64 98.46
  A 1.22 1.16 -83.7 0 0 311.38 97.84
  Q 312.81 95.01 316.19 96.18
  A 0.89 0.30 17.2 0 1 316.88 96.68
  Z
  M 324.49 96.19
  L 327.76 96.02
  A 0.89 0.55 -1.3 0 1 328.70 96.57
  Q 328.67 97.22 328.92 97.82
  A 1.12 0.74 80.5 0 0 329.48 98.42
  Q 331.60 99.11 331.28 96.74
  Q 330.41 90.14 330.24 87.53
  A 1.19 0.32 88.4 0 0 329.95 86.55
  Q 328.53 85.74 327.06 86.29
  A 1.49 1.10 -3.2 0 0 326.35 86.88
  L 321.11 97.09
  A 1.12 1.04 49.8 0 0 321.07 97.98
  C 321.66 99.61 323.46 97.89 323.90 96.78
  A 0.89 0.54 -76.1 0 1 324.49 96.19
  Z"
/>
<path fill="#035ba6" d="
  M 189.57 48.32
  L 184.23 61.95
  A 0.51 0.41 8.1 0 0 184.75 62.50
  L 214.00 62.50
  A 0.63 0.61 10.0 0 1 214.60 63.33
  L 209.26 77.50
  A 0.75 0.43 -74.5 0 1 208.75 78.00
  L 160.25 78.00
  A 0.48 0.41 -77.9 0 1 159.90 77.35
  L 185.97 9.74
  A 0.86 0.77 9.3 0 1 186.75 9.24
  L 234.81 9.21
  A 0.31 0.25 8.2 0 1 235.13 9.55
  L 229.54 24.26
  A 0.88 0.76 9.1 0 1 228.75 24.75
  L 199.50 24.75
  A 1.04 0.43 3.0 0 0 198.58 25.07
  L 195.93 31.73
  A 0.52 0.28 4.1 0 0 196.50 32.09
  L 226.19 32.03
  A 0.34 0.31 -79.0 0 1 226.47 32.49
  L 220.75 47.25
  A 0.61 0.57 9.7 0 1 220.19 47.62
  L 190.19 47.76
  A 0.86 0.56 -75.0 0 0 189.57 48.32
  Z"
/>
<path fill="#035ba6" d="
  M 11.00 77.46
  C 19.83 54.91 28.38 32.37 37.23 9.87
  A 0.97 0.76 -77.0 0 1 38.00 9.25
  L 55.00 9.25
  A 0.50 0.47 -78.5 0 1 55.42 9.93
  L 29.61 77.33
  A 0.97 0.45 -72.7 0 1 29.00 78.00
  L 11.25 78.00
  A 0.40 0.31 -76.9 0 1 11.00 77.46
  Z"
/>
<path fill="#0084c9" d="
  M 61.46 60.50
  Q 59.79 61.96 58.50 60.00
  Q 54.69 54.21 52.41 47.69
  Q 52.31 47.39 52.18 47.69
  L 52.04 48.05
  Q 51.83 48.55 51.63 48.00
  Q 50.93 46.08 49.50 44.71
  L 62.86 9.76
  A 0.78 0.64 -77.8 0 1 63.50 9.25
  L 80.50 9.25
  A 0.70 0.68 84.3 0 1 81.17 9.82
  L 87.52 42.50
  Q 87.96 44.72 88.79 42.55
  L 101.27 10.01
  A 1.36 1.17 8.9 0 1 102.50 9.25
  L 119.25 9.25
  A 0.43 0.39 -78.7 0 1 119.60 9.83
  L 93.74 77.24
  A 1.18 1.01 -77.9 0 1 92.75 78.00
  L 75.50 78.00
  A 0.90 0.66 84.2 0 1 74.81 77.24
  Q 72.07 60.64 68.34 44.23
  Q 68.12 43.29 67.74 44.29
  L 61.46 60.50
  Z"
/>
<path fill="#0068b1" d="
  M 139.25 24.75
  L 121.75 24.75
  A 0.53 0.38 7.3 0 1 121.20 24.23
  L 126.70 9.69
  A 0.90 0.65 6.8 0 1 127.50 9.25
  L 177.75 9.25
  A 0.56 0.55 -79.6 0 1 178.26 10.00
  L 172.90 24.17
  A 0.88 0.60 -75.8 0 1 172.25 24.75
  L 158.00 24.75
  A 1.05 0.85 8.2 0 0 157.06 25.31
  L 137.43 77.43
  A 0.88 0.65 -76.4 0 1 136.75 78.00
  L 119.25 78.00
  A 0.59 0.35 -73.9 0 1 119.05 77.23
  L 139.72 25.74
  A 0.73 0.59 -76.7 0 0 139.25 24.75
  Z"
/>
<path fill="#035ba6" d="
  M 246.45 62.44
  Q 258.52 62.51 270.77 62.55
  A 0.50 0.35 6.9 0 1 271.30 63.02
  L 265.79 77.51
  A 0.93 0.72 7.9 0 1 264.97 77.98
  Q 234.28 78.09 224.82 77.96
  C 218.60 77.87 219.36 70.01 220.77 66.26
  Q 227.02 49.59 238.27 21.03
  C 241.51 12.81 246.74 9.21 255.46 9.22
  Q 273.38 9.25 291.25 9.28
  A 0.48 0.34 7.8 0 1 291.75 9.75
  L 286.09 24.32
  A 0.85 0.50 5.4 0 1 285.35 24.67
  Q 270.37 24.86 261.26 24.74
  C 256.51 24.67 254.60 26.87 252.79 31.22
  Q 247.45 44.08 242.91 57.23
  C 241.88 60.21 243.31 62.43 246.45 62.44
  Z"
/>
<path fill="#035ba6" d="
  M 294.24 22.25
  C 298.04 12.53 302.62 9.29 313.19 9.25
  Q 330.32 9.18 347.55 9.36
  A 0.51 0.32 6.1 0 1 348.10 9.79
  L 342.57 24.32
  A 0.90 0.65 7.7 0 1 341.79 24.74
  Q 330.60 24.76 319.48 24.75
  C 312.67 24.74 311.17 26.45 308.88 32.22
  Q 304.09 44.25 299.59 56.40
  C 298.36 59.72 299.27 62.44 303.09 62.46
  Q 315.37 62.53 327.32 62.50
  A 0.57 0.56 -79.1 0 1 327.83 63.28
  L 322.38 77.46
  A 0.81 0.71 -78.1 0 1 321.69 77.98
  Q 302.65 78.03 283.63 77.99
  C 273.83 77.97 275.85 69.65 278.27 63.37
  Q 286.21 42.79 294.24 22.25
  Z"
/>
<path fill="#0063ad" d="
  M 49.50 44.71
  Q 50.93 46.08 51.63 48.00
  Q 51.83 48.55 52.04 48.05
  L 52.18 47.69
  Q 52.31 47.39 52.41 47.69
  Q 54.69 54.21 58.50 60.00
  Q 59.79 61.96 61.46 60.50
  L 55.13 77.50
  A 0.77 0.63 -77.5 0 1 54.50 78.00
  L 37.06 77.99
  A 0.36 0.34 -79.2 0 1 36.75 77.51
  L 49.50 44.71
  Z"
/>
<path fill="#71b31d" d="
  M 144.25 96.50
  Q 146.05 96.03 147.13 94.61
  A 1.78 1.56 3.8 0 1 147.81 94.09
  Q 148.59 93.76 149.26 94.22
  A 1.00 0.50 -68.0 0 1 149.34 95.21
  C 148.02 99.07 142.41 100.01 140.01 97.16
  C 134.57 90.71 144.39 80.93 149.58 87.95
  C 151.63 90.71 147.74 90.30 146.48 88.43
  A 1.36 1.03 74.2 0 0 145.74 87.87
  C 142.22 87.07 140.96 91.41 141.01 94.01
  Q 141.08 97.32 144.25 96.50
  Z"
/>
<path fill="#71b31d" d="
  M 78.58 91.97
  A 0.93 0.85 -82.6 0 1 79.30 93.00
  L 78.69 97.50
  A 1.07 0.42 -87.0 0 1 78.31 98.34
  Q 77.47 98.70 76.82 97.93
  A 1.01 0.54 -25.7 0 0 75.84 97.89
  C 64.97 102.10 64.65 85.26 75.72 85.73
  Q 78.78 85.86 79.26 88.47
  Q 79.52 89.87 78.27 90.04
  A 1.31 1.08 58.8 0 1 77.30 89.70
  L 75.34 87.89
  A 1.04 0.89 -29.1 0 0 74.42 87.70
  C 67.18 89.68 70.93 100.79 76.23 95.00
  A 0.63 0.56 -44.1 0 0 76.29 94.21
  Q 75.73 93.52 74.68 93.73
  A 0.91 0.70 -20.6 0 1 73.86 93.48
  C 72.33 91.50 77.46 91.83 78.58 91.97
  Z"
/>
<path fill="#71b31d" d="
  M 107.18 92.26
  C 106.27 96.51 111.05 98.08 112.82 94.71
  A 1.14 0.92 -78.2 0 1 113.52 94.14
  Q 116.39 93.54 114.17 97.11
  Q 113.23 98.63 111.45 98.71
  C 100.59 99.24 102.91 84.53 112.98 85.94
  Q 116.31 86.40 115.75 89.23
  C 115.53 90.31 114.62 90.20 113.96 89.59
  Q 108.77 84.89 107.18 92.26
  Z"
/>
<path fill="#71b31d" d="
  M 154.1381 98.1387
  A 6.79 5.95 119.0 0 1 152.2260 89.3154
  A 6.79 5.95 119.0 0 1 160.7219 86.2613
  A 6.79 5.95 119.0 0 1 162.6340 95.0846
  A 6.79 5.95 119.0 0 1 154.1381 98.1387
  Z
  M 156.1506 96.5493
  A 4.55 3.37 106.2 0 0 160.6562 93.1202
  A 4.55 3.37 106.2 0 0 158.6894 87.8107
  A 4.55 3.37 106.2 0 0 154.1838 91.2398
  A 4.55 3.37 106.2 0 0 156.1506 96.5493
  Z"
/>
<path fill="#71b31d" d="
  M 257.44 88.44
  C 259.35 85.81 264.99 84.08 266.89 87.72
  Q 268.29 90.40 265.29 89.69
  A 1.14 0.93 80.7 0 1 264.61 89.09
  C 262.70 85.09 258.75 90.03 258.44 92.48
  C 257.93 96.47 262.03 97.75 264.33 94.90
  C 264.94 94.15 266.13 93.35 266.68 94.55
  A 1.07 0.88 -45.5 0 1 266.60 95.46
  C 261.82 103.55 252.10 95.74 257.44 88.44
  Z"
/>
<path fill="#71b31d" d="
  M 305.32 93.90
  Q 304.32 93.63 303.25 93.77
  A 0.56 0.48 84.2 0 1 302.71 93.25
  C 302.58 91.40 306.88 91.71 307.93 91.83
  A 0.71 0.58 7.4 0 1 308.58 92.52
  L 307.69 97.74
  A 0.64 0.60 -80.2 0 1 306.99 98.27
  L 305.26 97.98
  A 1.93 1.17 -41.0 0 0 304.28 98.15
  C 296.38 101.67 294.40 89.89 300.45 86.48
  C 305.97 83.37 310.37 90.16 307.47 90.11
  A 1.46 0.93 57.5 0 1 306.61 89.71
  Q 302.20 85.62 300.13 90.26
  C 296.98 97.33 305.05 98.02 305.67 94.57
  A 0.62 0.50 -78.3 0 0 305.32 93.90
  Z"
/>
<rect fill="#71b31d" x="-1.27" y="-6.32" transform="translate(16.96,92.26) rotate(10.7)" width="2.54" height="12.64" rx="0.57"/>
<path fill="#71b31d" d="
  M 23.51 90.75
  C 22.99 90.84 22.34 96.71 22.19 97.58
  A 1.14 0.59 -86.0 0 1 21.68 98.42
  Q 20.69 98.75 19.80 98.22
  A 1.02 0.54 -74.9 0 1 19.59 97.27
  L 21.49 87.25
  A 1.10 0.42 -83.2 0 1 21.93 86.41
  Q 23.11 86.02 24.33 86.40
  A 1.35 0.54 76.0 0 1 24.96 87.27
  L 27.41 94.07
  Q 27.82 95.21 28.03 94.01
  L 29.26 87.00
  A 1.18 0.58 -85.0 0 1 29.82 86.07
  Q 30.49 85.91 31.19 86.06
  A 0.88 0.46 -81.0 0 1 31.50 86.98
  C 30.91 91.17 30.55 100.20 27.14 98.24
  A 1.65 1.11 13.5 0 1 26.47 97.51
  L 24.08 91.18
  A 0.63 0.45 72.4 0 0 23.51 90.75
  Z"
/>
<path fill="#71b31d" d="
  M 35.69 88.41
  Q 33.07 88.84 33.15 86.87
  A 0.60 0.55 -0.7 0 1 33.71 86.34
  C 34.83 86.27 43.60 84.78 41.72 87.81
  A 0.93 0.79 -71.8 0 1 41.00 88.25
  L 39.26 88.25
  A 0.91 0.67 -83.7 0 0 38.56 89.01
  L 37.09 97.57
  A 0.97 0.94 -7.7 0 1 36.56 98.25
  C 33.12 99.87 35.87 90.23 36.11 88.81
  A 0.36 0.36 -0.7 0 0 35.69 88.41
  Z"
/>
<path fill="#71b31d" d="
  M 45.07 93.57
  L 45.01 95.75
  A 0.73 0.48 0.7 0 0 45.75 96.25
  L 50.00 96.25
  A 0.83 0.74 75.1 0 1 50.69 96.71
  C 51.98 99.38 43.87 98.51 42.57 98.48
  A 0.66 0.63 -83.7 0 1 41.98 97.70
  L 43.89 86.93
  A 0.90 0.88 4.3 0 1 44.75 86.21
  L 51.50 86.04
  A 0.77 0.62 -7.2 0 1 52.24 86.50
  Q 52.45 87.31 51.81 87.82
  A 1.32 0.37 -43.3 0 1 50.99 88.25
  C 49.81 88.26 44.46 87.53 46.03 90.56
  A 0.90 0.78 -11.7 0 0 46.80 90.99
  C 47.28 90.99 52.62 90.65 50.64 92.70
  A 1.38 0.82 12.5 0 1 49.75 92.99
  L 45.74 93.00
  A 0.67 0.58 0.4 0 0 45.07 93.57
  Z"
/>
<path fill="#71b31d" d="
  M 56.00 96.25
  L 60.50 96.25
  A 0.88 0.86 -15.0 0 1 61.25 96.67
  C 62.73 99.20 53.87 98.29 53.04 98.22
  A 0.45 0.45 7.9 0 1 52.63 97.68
  Q 53.58 92.82 54.36 87.92
  C 54.76 85.37 57.63 84.88 56.83 88.42
  Q 56.01 92.05 55.62 95.69
  A 0.50 0.40 -85.6 0 0 56.00 96.25
  Z"
/>
<rect fill="#71b31d" x="-1.28" y="-6.36" transform="translate(64.54,92.24) rotate(10.8)" width="2.56" height="12.72" rx="0.93"/>
<path fill="#71b31d" d="
  M 84.33 93.57
  L 83.75 95.50
  A 0.70 0.57 4.9 0 0 84.50 96.22
  L 88.50 96.02
  A 1.06 0.77 -15.1 0 1 89.30 96.33
  C 91.70 99.41 82.49 98.48 81.55 98.45
  A 0.84 0.78 6.5 0 1 80.75 97.51
  L 82.88 86.58
  A 0.78 0.58 -82.0 0 1 83.51 85.94
  L 90.50 86.28
  A 0.74 0.49 10.3 0 1 91.26 87.01
  L 90.92 87.67
  A 1.01 0.53 -69.1 0 1 90.25 88.26
  L 85.50 88.25
  A 0.75 0.50 -0.0 0 0 84.75 88.75
  L 84.75 90.50
  A 0.75 0.50 0.0 0 0 85.50 91.00
  L 88.75 91.01
  A 1.36 0.77 -11.2 0 1 89.66 91.31
  C 91.54 93.34 85.50 93.03 85.06 93.05
  A 0.81 0.72 6.3 0 0 84.33 93.57
  Z"
/>
<path fill="#71b31d" d="
  M 99.19 93.56
  Q 99.68 95.06 99.97 93.49
  L 101.20 86.74
  A 0.88 0.46 -81.6 0 1 101.74 86.00
  L 103.24 86.00
  A 0.70 0.46 -83.5 0 1 103.64 86.80
  C 103.35 88.60 102.24 97.66 100.97 98.36
  C 97.64 100.19 96.66 90.47 95.53 90.73
  A 0.77 0.50 -87.9 0 0 95.10 91.34
  C 94.91 92.59 94.74 100.71 91.78 98.11
  A 0.99 0.86 -66.7 0 1 91.51 97.25
  L 93.29 87.26
  A 1.18 0.88 86.5 0 1 93.83 86.44
  C 97.28 84.75 98.43 91.24 99.19 93.56
  Z"
/>
<rect fill="#71b31d" x="-1.31" y="-6.27" transform="translate(118.96,92.26) rotate(10.5)" width="2.62" height="12.54" rx="0.78"/>
<path fill="#71b31d" d="
  M 124.38 96.62
  Q 123.93 98.93 121.69 98.38
  A 0.59 0.50 -68.9 0 1 121.41 97.58
  C 123.68 92.97 126.91 84.72 129.87 86.20
  A 1.06 1.00 -81.4 0 1 130.43 87.01
  L 131.82 98.00
  A 0.70 0.36 -11.4 0 1 131.23 98.47
  Q 129.09 98.95 129.42 96.70
  A 0.57 0.49 -85.5 0 0 128.94 96.05
  L 124.93 96.12
  A 0.61 0.55 -84.4 0 0 124.38 96.62
  Z
  M 127.67 89.93
  L 126.16 93.17
  A 0.60 0.39 -68.6 0 0 126.32 93.94
  Q 127.46 94.16 128.57 93.85
  A 1.02 0.46 -88.4 0 0 128.98 93.00
  Q 129.13 91.47 128.78 89.99
  Q 128.40 88.37 127.67 89.93
  Z"
/>
<path fill="#71b31d" d="
  M 171.00 94.50
  L 171.19 94.44
  A 0.45 0.34 -85.6 0 0 171.42 94.18
  C 172.46 91.31 173.68 84.39 178.13 86.27
  A 0.65 0.61 -73.9 0 1 178.49 86.97
  C 178.21 88.56 177.31 99.95 174.52 98.31
  A 0.84 0.61 -74.5 0 1 174.23 97.53
  L 175.36 90.28
  Q 175.55 89.06 175.03 90.27
  L 171.81 97.82
  A 1.20 0.87 -80.6 0 1 171.14 98.48
  C 168.07 99.31 168.88 91.77 168.56 89.70
  C 168.49 89.23 168.03 88.91 167.98 89.75
  Q 167.71 93.84 166.69 97.79
  A 1.02 0.88 -86.8 0 1 166.01 98.50
  Q 165.28 98.66 164.81 98.20
  A 1.09 1.05 -63.1 0 1 164.52 97.25
  L 166.29 87.01
  A 1.06 0.51 -85.6 0 1 166.74 86.23
  Q 168.24 85.68 169.77 86.23
  A 1.07 0.75 89.0 0 1 170.32 86.99
  Q 171.02 90.58 170.70 94.25
  A 0.23 0.23 83.8 0 0 171.00 94.50
  Z"
/>
<path fill="#71b31d" d="
  M 188.22 86.50
  Q 189.84 86.87 189.79 89.04
  Q 189.66 95.11 183.47 93.76
  A 1.19 1.17 9.6 0 0 182.04 94.76
  L 181.71 97.49
  A 0.98 0.94 -13.1 0 1 181.24 98.21
  Q 180.23 98.80 179.30 98.22
  A 1.02 0.68 -72.4 0 1 179.02 97.25
  L 181.03 86.75
  A 0.85 0.54 -84.1 0 1 181.57 86.07
  Q 184.89 85.74 188.22 86.50
  Z
  M 186.57 88.44
  Q 182.26 87.03 182.98 90.98
  A 1.19 0.40 81.8 0 0 183.49 92.00
  Q 185.29 92.20 186.67 91.22
  Q 189.30 89.34 186.57 88.44
  Z"
/>
<path fill="#71b31d" d="
  M 194.00 96.25
  L 199.00 96.25
  A 0.50 0.38 6.7 0 1 199.51 96.75
  L 199.07 98.06
  A 0.92 0.63 6.0 0 1 198.25 98.50
  L 191.01 98.50
  A 0.59 0.46 -83.9 0 1 190.58 97.81
  L 192.53 87.24
  A 1.79 1.45 5.7 0 1 194.32 86.06
  L 200.00 86.30
  A 0.96 0.84 -12.6 0 1 200.75 86.71
  C 202.07 88.85 196.20 88.25 195.46 88.24
  A 0.72 0.60 3.6 0 0 194.76 88.75
  L 194.47 90.49
  A 0.75 0.44 2.6 0 0 195.25 91.00
  L 199.00 91.00
  A 0.68 0.65 -7.2 0 1 199.65 91.48
  C 200.16 93.46 196.00 93.03 194.95 92.99
  A 0.85 0.57 5.9 0 0 194.15 93.42
  L 193.55 95.75
  A 0.45 0.40 6.4 0 0 194.00 96.25
  Z"
/>
<path fill="#71b31d" d="
  M 207.76 88.75
  L 206.23 97.50
  A 1.14 0.46 -85.5 0 1 205.82 98.32
  Q 204.77 98.83 203.79 98.21
  A 1.04 0.34 -76.8 0 1 203.71 97.25
  L 205.29 89.07
  A 0.71 0.58 -83.5 0 0 204.75 88.23
  L 202.76 88.24
  A 0.84 0.73 81.3 0 1 202.03 87.62
  C 201.47 85.51 209.99 86.01 210.44 86.06
  C 213.22 86.42 209.80 88.39 208.31 88.35
  A 0.54 0.48 5.5 0 0 207.76 88.75
  Z"
/>
<rect fill="#71b31d" x="-1.26" y="-6.34" transform="translate(213.27,92.32) rotate(10.2)" width="2.52" height="12.68" rx="0.97"/>
<path fill="#71b31d" d="
  M 219.25 88.23
  Q 218.21 88.41 217.25 88.02
  A 0.90 0.83 -81.2 0 1 216.72 87.23
  C 216.66 85.77 223.52 86.04 224.71 86.00
  A 1.13 0.92 -17.4 0 1 225.56 86.34
  C 226.63 87.62 223.52 88.20 222.73 88.56
  A 0.97 0.77 86.9 0 0 222.24 89.25
  L 220.75 97.75
  A 0.87 0.40 -81.1 0 1 220.25 98.50
  L 218.56 98.45
  A 0.85 0.36 -81.5 0 1 218.32 97.51
  L 219.82 88.76
  A 0.49 0.46 -0.3 0 0 219.25 88.23
  Z"
/>
<rect fill="#71b31d" x="-1.29" y="-6.34" transform="translate(227.83,92.28) rotate(10.5)" width="2.58" height="12.68" rx="0.86"/>
<path fill="#71b31d" d="
  M 235.01 93.75
  Q 235.38 95.20 235.77 93.78
  C 236.18 92.28 238.31 84.61 240.90 86.19
  A 0.63 0.55 -62.9 0 1 241.09 86.95
  Q 238.62 92.34 236.17 97.67
  Q 235.48 99.18 233.71 98.43
  A 0.92 0.84 8.6 0 1 233.17 97.76
  L 231.52 87.00
  A 0.89 0.45 80.5 0 1 231.81 86.07
  Q 232.84 85.83 233.81 86.16
  A 0.91 0.62 -83.0 0 1 234.24 87.00
  Q 234.16 90.42 235.01 93.75
  Z"
/>
<path fill="#71b31d" d="
  M 239.00 98.26
  A 0.49 0.46 -64.1 0 1 238.79 97.60
  Q 241.39 92.72 243.99 87.86
  C 244.86 86.24 245.87 85.70 247.61 86.05
  A 0.71 0.66 -88.6 0 1 248.15 86.66
  C 248.66 90.65 250.39 99.10 247.98 98.54
  A 1.00 1.00 86.1 0 1 247.27 97.92
  Q 246.11 94.74 242.50 96.35
  A 1.32 1.03 -8.7 0 0 241.81 97.08
  Q 241.19 99.23 239.00 98.26
  Z
  M 243.50 93.34
  A 0.32 0.32 18.0 0 0 243.73 93.80
  L 246.36 94.21
  A 0.32 0.32 0.5 0 0 246.73 93.85
  L 246.05 89.56
  A 0.32 0.32 63.0 0 0 245.45 89.47
  L 243.50 93.34
  Z"
/>
<path fill="#71b31d" d="
  M 271.48 95.93
  Q 273.68 96.68 276.07 96.04
  A 0.89 0.70 -21.7 0 1 276.97 96.31
  Q 277.39 96.95 276.90 97.67
  A 1.19 0.41 -60.2 0 1 276.25 98.24
  Q 272.50 98.83 268.75 98.26
  A 0.58 0.41 9.3 0 1 268.23 97.75
  L 270.17 86.68
  A 0.71 0.54 -82.9 0 1 270.74 86.09
  L 278.00 86.33
  A 0.71 0.49 88.7 0 1 278.49 87.01
  Q 278.51 87.41 278.24 87.74
  A 1.17 0.50 -57.8 0 1 277.50 88.25
  L 273.00 88.25
  A 0.75 0.50 -0.0 0 0 272.25 88.75
  L 272.25 90.50
  A 0.75 0.50 0.0 0 0 273.00 91.00
  L 276.25 91.00
  A 1.25 1.23 -19.4 0 1 277.21 91.45
  C 278.86 93.44 273.11 93.02 272.53 93.02
  A 0.82 0.69 7.0 0 0 271.77 93.51
  L 271.25 95.23
  A 0.61 0.43 -72.9 0 0 271.48 95.93
  Z"
/>
<path fill="#71b31d" d="
  M 282.48 90.99
  C 282.23 92.27 282.03 100.48 279.28 98.10
  A 0.92 0.83 -66.6 0 1 279.00 97.27
  C 279.30 95.47 280.32 86.83 281.62 86.12
  C 284.38 84.62 285.82 91.31 286.35 92.93
  Q 287.11 95.23 287.51 92.75
  L 288.47 86.74
  A 0.81 0.60 -84.6 0 1 289.07 86.07
  L 290.74 86.01
  A 0.67 0.41 -83.0 0 1 291.10 86.79
  Q 290.11 91.88 289.18 96.93
  Q 288.66 99.73 286.30 98.12
  A 1.76 1.42 -88.0 0 1 285.72 97.35
  C 285.40 96.52 283.42 90.70 282.99 90.58
  A 0.49 0.38 -76.8 0 0 282.48 90.99
  Z"
/>
<rect fill="#71b31d" x="-1.27" y="-6.38" transform="translate(293.77,92.23) rotate(10.9)" width="2.54" height="12.76" rx="0.74"/>
<path fill="#71b31d" d="
  M 316.19 96.18
  Q 312.81 95.01 311.38 97.84
  A 1.22 1.16 -83.7 0 1 310.64 98.46
  C 306.97 99.53 314.19 87.72 314.64 86.85
  A 1.29 0.63 -73.0 0 1 315.25 86.20
  Q 316.57 85.78 317.94 86.35
  A 1.13 0.60 89.7 0 1 318.39 87.18
  L 319.71 97.51
  A 0.81 0.60 78.9 0 1 319.32 98.33
  Q 316.87 99.18 316.88 96.68
  A 0.89 0.30 17.2 0 0 316.19 96.18
  Z
  M 315.40 89.93
  L 313.73 93.50
  A 0.35 0.32 -75.8 0 0 314.00 94.00
  L 316.25 94.00
  A 0.54 0.47 -2.0 0 0 316.79 93.49
  L 316.53 90.24
  Q 316.34 87.93 315.40 89.93
  Z"
/>
<path fill="#71b31d" d="
  M 323.90 96.78
  C 323.46 97.89 321.66 99.61 321.07 97.98
  A 1.12 1.04 49.8 0 1 321.11 97.09
  L 326.35 86.88
  A 1.49 1.10 -3.2 0 1 327.06 86.29
  Q 328.53 85.74 329.95 86.55
  A 1.19 0.32 88.4 0 1 330.24 87.53
  Q 330.41 90.14 331.28 96.74
  Q 331.60 99.11 329.48 98.42
  A 1.12 0.74 80.5 0 1 328.92 97.82
  Q 328.67 97.22 328.70 96.57
  A 0.89 0.55 -1.3 0 0 327.76 96.02
  L 324.49 96.19
  A 0.89 0.54 -76.1 0 0 323.90 96.78
  Z
  M 325.38 93.29
  A 0.32 0.32 18.8 0 0 325.60 93.75
  L 328.06 94.25
  A 0.32 0.32 -86.2 0 0 328.44 93.91
  L 328.11 89.24
  A 0.32 0.32 -33.8 0 0 327.51 89.12
  L 325.38 93.29
  Z"
/>
<ellipse fill="#ffffff" cx="0.00" cy="0.00" transform="translate(157.42,92.18) rotate(106.2)" rx="4.55" ry="3.37"/>
<path fill="#ffffff" d="
  M 186.57 88.44
  Q 189.30 89.34 186.67 91.22
  Q 185.29 92.20 183.49 92.00
  A 1.19 0.40 81.8 0 1 182.98 90.98
  Q 182.26 87.03 186.57 88.44
  Z"
/>
<path fill="#ffffff" d="
  M 315.40 89.93
  Q 316.34 87.93 316.53 90.24
  L 316.79 93.49
  A 0.54 0.47 -2.0 0 1 316.25 94.00
  L 314.00 94.00
  A 0.35 0.32 -75.8 0 1 313.73 93.50
  L 315.40 89.93
  Z"
/>
<path fill="#ffffff" d="
  M 127.67 89.93
  Q 128.40 88.37 128.78 89.99
  Q 129.13 91.47 128.98 93.00
  A 1.02 0.46 -88.4 0 1 128.57 93.85
  Q 127.46 94.16 126.32 93.94
  A 0.60 0.39 -68.6 0 1 126.16 93.17
  L 127.67 89.93
  Z"
/>
<path fill="#ffffff" d="
  M 325.38 93.29
  L 327.51 89.12
  A 0.32 0.32 -35.8 0 1 328.11 89.24
  L 328.44 93.91
  A 0.32 0.32 -86.3 0 1 328.06 94.25
  L 325.60 93.75
  A 0.32 0.32 18.6 0 1 325.38 93.29
  Z"
/>
<path fill="#ffffff" d="
  M 243.50 93.34
  L 245.45 89.47
  A 0.32 0.32 55.4 0 1 246.05 89.56
  L 246.73 93.85
  A 0.32 0.32 -2.1 0 1 246.36 94.21
  L 243.73 93.80
  A 0.32 0.32 18.6 0 1 243.50 93.34
  Z"
/>
</svg>
