<?xml version="1.0" encoding="UTF-8"?>
<svg id="Organigrama" xmlns="http://www.w3.org/2000/svg" viewBox="0 0 408 131.5">
  <defs>
    <style>
      .cls-1 {
        stroke: #12a502;
      }

      .cls-1, .cls-2, .cls-3, .cls-4, .cls-5, .cls-6, .cls-7, .cls-8, .cls-9, .cls-10, .cls-11, .cls-12, .cls-13, .cls-14, .cls-15, .cls-16, .cls-17, .cls-18, .cls-19, .cls-20, .cls-21, .cls-22, .cls-23, .cls-24, .cls-25, .cls-26, .cls-27, .cls-28, .cls-29, .cls-30, .cls-31, .cls-32, .cls-33, .cls-34 {
        fill: none;
      }

      .cls-1, .cls-2, .cls-3, .cls-4, .cls-5, .cls-6, .cls-7, .cls-8, .cls-9, .cls-10, .cls-11, .cls-12, .cls-13, .cls-14, .cls-15, .cls-16, .cls-17, .cls-18, .cls-19, .cls-20, .cls-21, .cls-22, .cls-24, .cls-25, .cls-26, .cls-27, .cls-28, .cls-29, .cls-30, .cls-31, .cls-32, .cls-33, .cls-34 {
        stroke-width: 2px;
      }

      .cls-35 {
        fill: #2cad02;
      }

      .cls-36 {
        fill: #007824;
      }

      .cls-2 {
        stroke: #47aa00;
      }

      .cls-3 {
        stroke: #65bb01;
      }

      .cls-37 {
        fill: #57b700;
      }

      .cls-38 {
        fill: #008b17;
      }

      .cls-4 {
        stroke: #028d13;
      }

      .cls-39 {
        fill: #017d1f;
      }

      .cls-5 {
        stroke: #209e0c;
      }

      .cls-6 {
        stroke: #4bb401;
      }

      .cls-7 {
        stroke: #23a704;
      }

      .cls-40 {
        fill: #009211;
      }

      .cls-8 {
        stroke: #17a504;
      }

      .cls-9 {
        stroke: #7e5027;
      }

      .cls-41 {
        fill: #43b202;
      }

      .cls-10 {
        stroke: #1c8c01;
      }

      .cls-42 {
        fill: #0062c1;
      }

      .cls-11 {
        stroke: #00821e;
      }

      .cls-12 {
        stroke: #754d29;
      }

      .cls-43 {
        fill: #73bf01;
      }

      .cls-44 {
        fill: #0075c7;
      }

      .cls-13 {
        stroke: #794e28;
      }

      .cls-14 {
        stroke: #209513;
      }

      .cls-45 {
        fill: #017c01;
      }

      .cls-46 {
        fill: #379c00;
      }

      .cls-15 {
        stroke: #59b801;
      }

      .cls-16 {
        stroke: #018e02;
      }

      .cls-17 {
        stroke: #137eca;
      }

      .cls-18 {
        stroke: #20a802;
      }

      .cls-47 {
        fill: #005bbe;
      }

      .cls-48 {
        fill: #825126;
      }

      .cls-19 {
        stroke: #1c9e02;
      }

      .cls-20 {
        stroke: #3ba701;
      }

      .cls-21 {
        stroke: #32ae01;
      }

      .cls-49 {
        fill: #7a4e27;
      }

      .cls-50 {
        fill: #009f03;
      }

      .cls-22 {
        stroke: #00950d;
      }

      .cls-51 {
        fill: #029c06;
      }

      .cls-52 {
        fill: #3fb101;
      }

      .cls-23 {
        stroke: #94c82f;
        stroke-miterlimit: 10;
        stroke-width: 3px;
      }

      .cls-24 {
        stroke: #3a9e01;
      }

      .cls-25 {
        stroke: #16a603;
      }

      .cls-26 {
        stroke: #00990a;
      }

      .cls-27 {
        stroke: #008c14;
      }

      .cls-28 {
        stroke: #01840c;
      }

      .cls-29 {
        stroke: #2ea400;
      }

      .cls-53 {
        fill: #24ab00;
      }

      .cls-30 {
        stroke: #006cc4;
      }

      .cls-54 {
        fill: #2586cc;
      }

      .cls-31 {
        stroke: #209701;
      }

      .cls-32 {
        stroke: #00851b;
      }

      .cls-55 {
        fill: #6f4b2a;
      }

      .cls-33 {
        stroke: #55ae01;
      }

      .cls-34 {
        stroke: #38b002;
      }
    </style>
  </defs>
  <path class="cls-47" d="M157.74,109.95h-15.18c-11.09-.21-15.62-8.45-16.25-19.75v-1.58c1.11-24.08,15-21.79,31.28-21.6.19,0,.35.18.35.39v6.63c0,.2-.15.37-.33.37h0c-4.5,0-15.67-1.27-18.93,2.06-4.4,4.51-5.26,22.01.87,25.17.94.49,2.49.76,4.62.83,4.23.13,8.62.15,13.16.08.3,0,.55.25.56.56,0,0,0,.02,0,.03l-.15,6.82Z"/>
  <path class="cls-47" d="M193,109.95h-15.18c-8.27-.14-13.43-4.42-15.46-12.85-1.63-6.73-1.03-16.46,2.2-22.27,2.71-4.88,7.09-7.43,13.14-7.65,4.99-.19,9.99-.23,14.98-.13.18,0,.34.16.36.36.29,2.24.27,4.47-.07,6.7-.03.2-.19.34-.37.35-5.93.23-9.79.27-11.58.12-6.19-.51-9.62,2.64-10.29,9.45-.02.27.15.51.39.54.02,0,.03,0,.05,0l21.52-.09c.18,0,.33.15.35.35.27,2.26.27,4.52,0,6.78-.03.2-.18.35-.36.35l-21.63.04c-.23,0-.42.21-.42.46,0,0,0,.01,0,.02.2,5.46,1.86,9.32,7.2,9.92,4.83.53,9.44.04,14.93.27.18,0,.33.16.34.37.2,2.31.16,4.61-.11,6.91Z"/>
  <path class="cls-47" d="M234.08,109.95h-9.3l-15.98-31.3c-.48-.95-.72-.88-.71.22l.33,31.09h-8.15l-.12-42.32c0-.34.25-.62.56-.62h9.34c.22,0,.43.13.53.34l15.15,29.62c.35.68.51.62.51-.15l-.31-29.35c0-.25.18-.45.4-.46,0,0,0,0,0,0h7.39c.23,0,.42.21.42.46h0l-.07,42.47Z"/>
  <path class="cls-47" d="M250.34,109.95h-8.32l.04-42.47c0-.26.19-.47.42-.47h7.6c.2,0,.35.17.35.39h0l-.09,42.55Z"/>
  <path class="cls-47" d="M291.51,109.95l-18.96-.08c-14.15.15-18.15-13.9-16.01-26.96,1.8-10.99,7.4-15.6,17.29-15.87,5.81-.16,11.63-.13,17.44.09.19,0,.34.17.34.37l-.03,6.55c0,.19-.16.35-.34.34,0,0,0,0,0,0-8.07-.1-19.97-1.15-22.97,2.25-4.05,4.6-4.69,20.24.59,24.12,3.2,2.35,9.89,1.44,13.91,1.44.29,0,.52-.26.52-.57l-.08-9.15c0-.2-.15-.36-.33-.36l-10.05-.25c-.19,0-.34-.17-.34-.37v-6.59c0-.2.16-.36.34-.36h0l18.2-.12c.36,0,.65.32.65.72,0,0,0,0,0,0l-.18,24.79Z"/>
  <path class="cls-47" d="M372.98,109.29v.66h-8.73l-3.53-9.78c-.09-.25-.3-.42-.52-.42l-16.12.04c-.18,0-.35.13-.42.33l-3.45,9.83h-14.86l-3.52-9.84c-.07-.2-.24-.32-.44-.32h-16.04c-.19,0-.36.13-.42.33l-3.45,9.83-8.36-.06,16.07-42.47c.09-.25.31-.41.55-.41h7.89c.18,0,.34.12.41.3l14.71,38.56c.22.56.43.56.65,0l14.59-38.41c.08-.2.25-.34.44-.34l7.53-.09c.45,0,.87.32,1.06.82l15.96,41.44ZM307.82,91.72c-.04.12.01.26.13.31.02.01.05.02.08.02l10.78-.08c.12,0,.21-.11.21-.24,0-.03,0-.06-.02-.09l-5.49-15.46c-.05-.12-.17-.18-.28-.13-.05.03-.1.07-.12.13l-5.29,15.54ZM346.52,91.73c-.04.11,0,.23.11.27.02,0,.05.01.07.01l10.86-.04c.1,0,.19-.09.19-.21,0-.03,0-.05-.01-.08l-5.48-15.63c-.04-.11-.15-.16-.25-.12-.05.02-.09.07-.11.12l-5.38,15.67Z"/>
  <g>
    <path class="cls-30" d="M52.88,42.64c-.5.23-.98.13-1.45-.3-2.68-2.51-5.72-3.08-9.13-1.73-.48.19-.91.66-1.3,1.42-.05.09-.14.18-.26.26-.13.08-.19.2-.19.34,0,.15-.03.27-.08.34-.71.92-.8,1.98-1.8,2.82" vector-effect="non-scaling-stroke"/>
    <path class="cls-4" d="M25.05,46.58c-.49-.07-.79.14-.9.6-.03.13-.09.24-.17.34-.29.33-.33.69-.13,1.11" vector-effect="non-scaling-stroke"/>
    <path class="cls-7" d="M32.1,51.58c-.21.63-.28,1.27-.22,1.93.01.14-.03.27-.11.34l-.24.23c-.07.06-.17.04-.25-.04-.11-.12-.23-.12-.37,0" vector-effect="non-scaling-stroke"/>
    <path class="cls-34" d="M45.68,65.28c-1.18.76-2.15.34-3.63,0-.27-.06-.38.06-.35.36,0,.06.06.18.16.35.08.13.05.24-.09.33" vector-effect="non-scaling-stroke"/>
    <path class="cls-25" d="M51.46,66.38c-1.06-.14-1.92-.03-2.58.34-.54.3-1.02.44-1.46.42-.12,0-.23.03-.33.09-1.1.76-3.01.12-4.44.39" vector-effect="non-scaling-stroke"/>
    <path class="cls-8" d="M56.9,59.84c-.4-.67-.32-1.35.23-2.02.6-.74.62-1.5.04-2.28" vector-effect="non-scaling-stroke"/>
    <path class="cls-4" d="M66.51,51.68c-.81-.57-.81-1.45-1.49-2.03" vector-effect="non-scaling-stroke"/>
    <path class="cls-32" d="M18.4,53.61c-.36.16-.43.41-.22.74,1.16,1.79,2.33,3.58,3.49,5.38" vector-effect="non-scaling-stroke"/>
    <path class="cls-27" d="M21.67,59.72l2.54,4.25" vector-effect="non-scaling-stroke"/>
    <path class="cls-14" d="M24.22,63.97l.58,1.12" vector-effect="non-scaling-stroke"/>
    <path class="cls-11" d="M24.79,65.09c-.08,1.66-1.45,1.28-2.36,1.89-.57.39-.93.61-1.08.67-1.04.41-2.8.98-3.27,2.19-.13.34-.45.54-.77.48-.78-.14-1.16.22-1.15,1.09,0,.06.04.18.11.37.05.14,0,.25-.15.31" vector-effect="non-scaling-stroke"/>
    <path class="cls-18" d="M32.46,62.97c-2.63.49-5.29.63-7.96.41-.12-.01-.23.07-.24.18l-.05.41" vector-effect="non-scaling-stroke"/>
    <path class="cls-26" d="M28.16,58.98c-.42.16-.71.07-.87-.28-.03-.07-.09-.1-.13-.08,0,0-.01,0-.02.01l-.09.09c-.12.11-.22.19-.26.19l-4.66.19c-.14,0-.25.06-.31.14-.1.13-.15.3-.14.49" vector-effect="non-scaling-stroke"/>
    <path class="cls-15" d="M36.37,67.51c-.8-.87-1.31-.38-2.08-.4-2.43-.05-4.87-.06-7.3-.03-.25,0-.38.15-.4.45" vector-effect="non-scaling-stroke"/>
    <path class="cls-31" d="M26.59,67.53l-.52-.51" vector-effect="non-scaling-stroke"/>
    <path class="cls-5" d="M26.07,67.02l-1.28-1.93" vector-effect="non-scaling-stroke"/>
    <path class="cls-28" d="M26.07,67.02c.8,2.57,3.01,5.96,4.22,7.77" vector-effect="non-scaling-stroke"/>
    <path class="cls-22" d="M30.3,74.79c-.9,1.34-2.05,2.13-3.44,2.37-1.42.24-1.6,1.45-2.97,1.48-.09,0-.16.09-.18.2-.12.67-2.71.76-3.34,2.01-.05.1-.15.18-.26.22-.45.14-.66.5-.64,1.11" vector-effect="non-scaling-stroke"/>
    <path class="cls-10" d="M38.39,78.71c-.05.3.04.47.26.51.15.02.27.07.32.12,1.54,1.41-4.1,1.03-4.76.88" vector-effect="non-scaling-stroke"/>
    <path class="cls-16" d="M34.22,80.21c-1.46-1.68-2.77-3.49-3.92-5.43" vector-effect="non-scaling-stroke"/>
    <path class="cls-33" d="M46.92,82.82c-3.01-.89-5.86-2.26-8.53-4.11" vector-effect="non-scaling-stroke"/>
    <path class="cls-24" d="M38.39,78.71c-4.51-2.98-8.44-6.71-11.81-11.18" vector-effect="non-scaling-stroke"/>
    <path class="cls-19" d="M34.22,80.21c.46.24.77.68.92,1.32" vector-effect="non-scaling-stroke"/>
    <path class="cls-1" d="M35.14,81.53c-2.27,1.27-4.53,2.5-6.78,3.71-.45.24-.9.48-1.35.72-1.11.59-2.33.92-3.34,2.09" vector-effect="non-scaling-stroke"/>
    <path class="cls-2" d="M50.16,86.41c-.37.14-.74.16-1.11.04-.11-.03-.22.01-.28.12-.68,1.19-3.03,2.09-4.16,2.59-.3.13-.63.14-.93,0-1.16-.5-2.19-1.18-3.1-2.05" vector-effect="non-scaling-stroke"/>
    <path class="cls-20" d="M40.57,87.12l-3.41-3.33" vector-effect="non-scaling-stroke"/>
    <path class="cls-29" d="M37.16,83.79l-2.02-2.26" vector-effect="non-scaling-stroke"/>
    <path class="cls-21" d="M37.16,83.79c-2.36,1.18-4.71,2.4-7.04,3.68-.77.42-2.02.84-2.92,1.67-.09.08-.19.13-.32.16-.52.1-.8.47-.83,1.11" vector-effect="non-scaling-stroke"/>
    <path class="cls-6" d="M40.57,87.12c-.5.04-.87.28-1.12.73-.06.1-.16.17-.27.17-.29,0-.56.08-.82.21-2.38,1.22-4.74,2.48-7.07,3.8-.58.33-1.34.2-1.41,1.3" vector-effect="non-scaling-stroke"/>
    <path class="cls-3" d="M53.35,89.05c-.19.13-.34.13-.45-.01-.06-.08-.16-.11-.21-.06,0,0,0,0,0,0-.04.04-.07.1-.09.16-.03.14-.1.25-.18.28-1.16.54-2.19,1.2-3.09,1.97-.53.46-.48.81.15,1.05,3.55,1.38,9.15,2.19,12.74.66.11-.05.22-.06.34-.03.56.11.89-.14,1.01-.74" vector-effect="non-scaling-stroke"/>
    <path class="cls-13" d="M75.82,54.73c-.4.14-.63.42-.69.83-.37,2.87-1.96,6.49-3.07,9.15" vector-effect="non-scaling-stroke"/>
    <path class="cls-9" d="M72.07,64.7c-.41.21-.71.13-.92-.24-.06-.11-.17-.17-.27-.15-1.48.29-2.43,1.21-3.82,1.3-1.68.12-4.67.21-6.23,1.3-.23.17-.56.24-.98.24-.11,0-.21.07-.26.18-.2.46-.31.4-.33-.18,0-.09-.08-.18-.19-.21l-.7-.2c-.11-.03-.22-.03-.32,0-.15.04-.13-.16.05-.61" vector-effect="non-scaling-stroke"/>
    <path class="cls-13" d="M75.52,73.32c-.24-.35-.51-.43-.79-.23-.88.63-1.2.44-2.13.59-1.8.29-3.6.56-5.4.8-.11.02-.22.08-.29.18-3.84,5.51-9.36,9.29-15.7,9.19-.64-.01-.69.17-.14.54.4.27.68.81.82,1.61" vector-effect="non-scaling-stroke"/>
    <path class="cls-12" d="M53.72,70.97c-.37.91-.24,1.27.38,1.07.63-.2,1-.07,1.57-.13.2-.02.24-.12.12-.29-.31-.46-.24-.64.23-.52,1.36.35,2.17-.41,3.21-.56,1.53-.22,3.02.02,4.44-.31,1.53-.36,3.8-1.39,5.28-1.32.13,0,.25-.02.34-.09.29-.2.53-.46.71-.79.05-.09.16-.14.26-.12.77.14,1.57-2.55,1.81-3.22" vector-effect="non-scaling-stroke"/>
    <path class="cls-17" d="M49.99,45.9c-.94-1.58-2.3-2.37-4.05-2.38-.83,0-1.79.32-2.88.97-1.95,1.17-2.33,2.69-2.4,5.08-.05,1.46.41,2.68,1.35,3.66,2.27,2.34,4.66,2.57,7.15.69.25-.19.46-.42.62-.7,1.4-2.39,1.62-4.67.67-6.84-.05-.11-.11-.18-.2-.24-.14-.09-.23-.17-.27-.24" vector-effect="non-scaling-stroke"/>
  </g>
  <path class="cls-42" d="M52.88,42.64c-.5.23-.98.13-1.45-.3-2.68-2.51-5.72-3.08-9.13-1.73-.48.19-.91.66-1.3,1.42-.05.09-.14.18-.26.26-.13.08-.19.2-.19.34,0,.15-.03.27-.08.34-.71.92-.8,1.98-1.8,2.82,1.92-5.98,4.49-11.58,7.73-16.8.04-.06.12-.08.18-.04.01,0,.02.02.03.04,2.54,4.29,4.63,8.84,6.27,13.65Z"/>
  <path class="cls-44" d="M52.88,42.64c1.82,5.04,2.59,10.78-1.33,14.76-2.66,2.7-7.19,2.85-10.09.51-3.43-2.76-4.31-7.75-2.79-12.12,1-.84,1.1-1.91,1.8-2.82.05-.07.08-.19.08-.34,0-.14.06-.25.19-.34.12-.08.21-.17.26-.26.39-.76.82-1.23,1.3-1.42,3.41-1.36,6.45-.78,9.13,1.73.46.43.95.54,1.45.3ZM49.99,45.9c-.94-1.58-2.3-2.37-4.05-2.38-.83,0-1.79.32-2.88.97-1.95,1.17-2.33,2.69-2.4,5.08-.05,1.46.41,2.68,1.35,3.66,2.27,2.34,4.66,2.57,7.15.69.25-.19.46-.42.62-.7,1.4-2.39,1.62-4.67.67-6.84-.05-.11-.11-.18-.2-.24-.14-.09-.23-.17-.27-.24Z"/>
  <path class="cls-39" d="M25.05,46.58c-.49-.07-.79.14-.9.6-.03.13-.09.24-.17.34-.29.33-.33.69-.13,1.11-5.1-3.46-10.16-6.23-15.16-8.31-.14-.06-.23-.13-.28-.21-.08-.14-.04-.19.14-.16,5.84,1.16,11.34,3.37,16.5,6.63Z"/>
  <path class="cls-39" d="M66.51,51.68c-.81-.57-.81-1.45-1.49-2.03,6.19-4.26,12.89-6.97,20.11-8.14.52-.08.58-.05.19.11-6.59,2.6-12.86,5.95-18.81,10.06Z"/>
  <path class="cls-54" d="M50.26,46.13c.09.05.15.13.2.24.95,2.17.73,4.45-.67,6.84-.17.28-.37.52-.62.7-2.5,1.88-4.88,1.65-7.15-.69-.95-.98-1.4-2.19-1.35-3.66.08-2.39.45-3.91,2.4-5.08,1.09-.65,2.05-.98,2.88-.97,1.76,0,3.11.8,4.05,2.38.04.07.14.15.27.24Z"/>
  <path class="cls-51" d="M25.05,46.58c2.45,1.48,4.8,3.14,7.04,4.99-.21.63-.28,1.27-.22,1.93.01.14-.03.27-.11.34l-.24.23c-.07.06-.17.04-.25-.04-.11-.12-.23-.12-.37,0l-7.04-5.4c-.2-.41-.16-.78.13-1.11.08-.09.14-.21.17-.34.11-.47.41-.67.9-.6Z"/>
  <path class="cls-51" d="M65.02,49.65c.68.59.68,1.46,1.49,2.03-3.38,2.44-6.59,5.16-9.61,8.16-.4-.67-.32-1.35.23-2.02.6-.74.62-1.5.04-2.28,2.49-2.17,5.11-4.13,7.85-5.89Z"/>
  <path class="cls-41" d="M32.1,51.58c5.03,3.95,9.56,8.52,13.59,13.7-1.18.76-2.15.34-3.63,0-.27-.06-.38.06-.35.36,0,.06.06.18.16.35.08.13.05.24-.09.33-3.15-4.61-6.78-8.7-10.88-12.28.14-.12.26-.12.37,0,.08.08.18.1.25.04l.24-.23c.08-.08.12-.2.11-.34-.06-.66.01-1.3.22-1.93Z"/>
  <path class="cls-36" d="M18.4,53.61c-.36.16-.43.41-.22.74,1.16,1.79,2.33,3.58,3.49,5.38l2.54,4.25.58,1.12c-.08,1.66-1.45,1.28-2.36,1.89-.57.39-.93.61-1.08.67-1.04.41-2.8.98-3.27,2.19-.13.34-.45.54-.77.48-.78-.14-1.16.22-1.15,1.09,0,.06.04.18.11.37.05.14,0,.25-.15.31-.91-6.3-.48-12.47,1.27-18.53.04-.12.13-.21.24-.22.27-.01.53.07.77.25Z"/>
  <path class="cls-40" d="M18.4,53.61c3.53,1.17,6.78,2.95,9.75,5.37-.42.16-.71.07-.87-.28-.03-.07-.09-.1-.13-.08,0,0-.01,0-.02.01l-.09.09c-.12.11-.22.19-.26.19l-4.66.19c-.14,0-.25.06-.31.14-.1.13-.15.3-.14.49-1.16-1.79-2.33-3.59-3.49-5.38-.21-.33-.14-.58.22-.74Z"/>
  <path class="cls-48" d="M75.82,54.73c-.4.14-.63.42-.69.83-.37,2.87-1.96,6.49-3.07,9.15-.41.21-.71.13-.92-.24-.06-.11-.17-.17-.27-.15-1.48.29-2.43,1.21-3.82,1.3-1.68.12-4.67.21-6.23,1.3-.23.17-.56.24-.98.24-.11,0-.21.07-.26.18-.2.46-.31.4-.33-.18,0-.09-.08-.18-.19-.21l-.7-.2c-.11-.03-.22-.03-.32,0-.15.04-.13-.16.05-.61,4.73-5.05,10.79-10.53,17.16-12.31.54-.15.73.15.56.91Z"/>
  <path class="cls-55" d="M75.82,54.73c1.2,6.23,1.09,12.42-.3,18.59-.24-.35-.51-.43-.79-.23-.88.63-1.2.44-2.13.59-1.8.29-3.6.56-5.4.8-.11.02-.22.08-.29.18-3.84,5.51-9.36,9.29-15.7,9.19-.64-.01-.69.17-.14.54.4.27.68.81.82,1.61-2.02-1.75-3.69-3.84-5-6.28-.06-.11-.05-.24.02-.33,2.14-2.93,4.41-5.74,6.8-8.42-.37.91-.24,1.27.38,1.07.63-.2,1-.07,1.57-.13.2-.02.24-.12.12-.29-.31-.46-.24-.64.23-.52,1.36.35,2.17-.41,3.21-.56,1.53-.22,3.02.02,4.44-.31,1.53-.36,3.8-1.39,5.28-1.32.13,0,.25-.02.34-.09.29-.2.53-.46.71-.79.05-.09.16-.14.26-.12.77.14,1.57-2.55,1.81-3.22,1.11-2.65,2.7-6.28,3.07-9.15.05-.41.28-.68.69-.83Z"/>
  <path class="cls-35" d="M57.17,55.54c.58.77.57,1.53-.04,2.28-.55.68-.63,1.35-.23,2.02-1.93,2.08-3.75,4.25-5.44,6.54-1.06-.14-1.92-.03-2.58.34-.54.3-1.02.44-1.46.42-.12,0-.23.03-.33.09-1.1.76-3.01.12-4.44.39l-.88-1.32c.14-.09.17-.2.09-.33-.1-.17-.16-.29-.16-.35-.03-.3.09-.42.35-.36,1.48.35,2.45.77,3.63,0l.51.54c.23.25.57.27.76.05,0,0,0,0,0,0,3.23-3.82,6.63-7.27,10.21-10.33Z"/>
  <path class="cls-50" d="M28.16,58.98c1.52,1.09,2.96,2.42,4.31,3.99-2.63.49-5.29.63-7.96.41-.12-.01-.23.07-.24.18l-.05.41-2.54-4.25c0-.2.04-.36.14-.49.06-.08.18-.13.31-.14l4.66-.19s.14-.07.26-.19l.09-.09s.09-.01.13.05c0,0,.01.02.01.03.16.34.45.44.87.28Z"/>
  <path class="cls-52" d="M32.46,62.97c1.4,1.3,2.7,2.81,3.91,4.55-.8-.87-1.31-.38-2.08-.4-2.43-.05-4.87-.06-7.3-.03-.25,0-.38.15-.4.45l-.52-.51-1.28-1.93-.58-1.12.05-.41c.01-.11.12-.19.24-.18,2.67.21,5.33.07,7.96-.41Z"/>
  <path class="cls-49" d="M72.07,64.7c-.24.67-1.04,3.36-1.81,3.22-.11-.02-.21.03-.26.12-.18.33-.42.59-.71.79-.09.06-.21.09-.34.09-1.48-.07-3.75.96-5.28,1.32-1.42.33-2.91.09-4.44.31-1.04.15-1.85.9-3.21.56-.47-.12-.55.05-.23.52.12.17.08.27-.12.29-.57.06-.93-.07-1.57.13-.63.2-.75-.16-.38-1.07l4.38-4.84c-.18.45-.2.66-.05.61.1-.03.21-.03.32,0l.7.2c.11.03.18.12.19.21.02.58.13.64.33.18.05-.11.15-.18.26-.18.42,0,.74-.07.98-.24,1.56-1.1,4.54-1.18,6.23-1.3,1.38-.1,2.34-1.02,3.82-1.3.1-.02.21.04.27.15.21.37.51.45.92.24Z"/>
  <path class="cls-38" d="M24.79,65.09l1.28,1.93c.8,2.57,3.01,5.96,4.22,7.77-.9,1.34-2.05,2.13-3.44,2.37-1.42.24-1.6,1.45-2.97,1.48-.09,0-.16.09-.18.2-.12.67-2.71.76-3.34,2.01-.05.1-.15.18-.26.22-.45.14-.66.5-.64,1.11-1.7-3.11-2.82-6.46-3.35-10.06.15-.07.2-.17.15-.31-.07-.19-.11-.31-.11-.37-.01-.86.37-1.23,1.15-1.09.33.06.65-.14.77-.48.46-1.21,2.23-1.78,3.27-2.19.14-.06.5-.28,1.08-.67.91-.62,2.27-.23,2.36-1.89Z"/>
  <path class="cls-50" d="M51.46,66.38c-1.9,2.71-3.52,5.66-4.85,8.86-.09.21-.17.21-.26,0-1.11-2.73-2.35-5.26-3.71-7.6,1.42-.28,3.33.37,4.44-.39.1-.07.21-.1.33-.09.44.02.93-.12,1.46-.42.66-.37,1.52-.48,2.58-.34Z"/>
  <path class="cls-43" d="M36.37,67.51c3.76,4.8,7.08,10.15,10.55,15.31-3.01-.89-5.86-2.26-8.53-4.11-4.51-2.98-8.44-6.71-11.81-11.18.02-.3.15-.44.4-.45,2.43-.04,4.87-.03,7.3.03.77.02,1.28-.46,2.08.4Z"/>
  <path class="cls-45" d="M26.07,67.02l.52.51c3.36,4.47,7.3,8.19,11.81,11.18-.05.3.04.47.26.51.15.02.27.07.32.12,1.54,1.41-4.1,1.03-4.76.88-1.46-1.68-2.77-3.49-3.92-5.43-1.22-1.8-3.43-5.19-4.22-7.77Z"/>
  <path class="cls-48" d="M75.52,73.32c-1.32,6.11-3.89,11.6-7.72,16.48-.56.72-1.21,1.12-1.95,1.21-5.36.63-10.01-1.04-13.96-5.01-.14-.8-.41-1.33-.82-1.61-.55-.37-.5-.55.14-.54,6.35.1,11.86-3.68,15.7-9.19.07-.1.17-.17.29-.18,1.8-.25,3.61-.51,5.4-.8.93-.15,1.25.04,2.13-.59.28-.2.54-.12.79.23Z"/>
  <path class="cls-50" d="M30.3,74.79c1.15,1.94,2.46,3.75,3.92,5.43.46.24.77.68.92,1.32-2.27,1.27-4.53,2.5-6.78,3.71-.45.24-.9.48-1.35.72-1.11.59-2.33.92-3.34,2.09-1.63-1.76-3.03-3.73-4.2-5.89-.02-.6.19-.97.64-1.11.11-.03.21-.11.26-.22.63-1.24,3.22-1.33,3.34-2.01.02-.11.1-.2.18-.2,1.37-.02,1.55-1.24,2.97-1.48,1.39-.24,2.54-1.03,3.44-2.37Z"/>
  <path class="cls-46" d="M38.39,78.71c2.67,1.85,5.52,3.22,8.53,4.11l3.23,3.59c-.37.14-.74.16-1.11.04-.11-.03-.22.01-.28.12-.68,1.19-3.03,2.09-4.16,2.59-.3.13-.63.14-.93,0-1.16-.5-2.19-1.18-3.1-2.05l-3.41-3.33-2.02-2.26c-.15-.63-.46-1.07-.92-1.32.66.15,6.3.54,4.76-.88-.06-.05-.18-.1-.32-.12-.22-.04-.31-.2-.26-.51Z"/>
  <path class="cls-53" d="M35.14,81.53l2.02,2.26c-2.36,1.18-4.71,2.4-7.04,3.68-.77.42-2.02.84-2.92,1.67-.09.08-.19.13-.32.16-.52.1-.8.47-.83,1.11l-2.39-2.35c1.02-1.17,2.23-1.5,3.34-2.09.45-.24.9-.48,1.35-.72,2.25-1.21,4.51-2.44,6.78-3.71Z"/>
  <path class="cls-52" d="M37.16,83.79l3.41,3.33c-.5.04-.87.28-1.12.73-.06.1-.16.17-.27.17-.29,0-.56.08-.82.21-2.38,1.22-4.74,2.48-7.07,3.8-.58.33-1.34.2-1.41,1.3-1.35-.85-2.62-1.83-3.82-2.93.03-.64.3-1.01.83-1.11.13-.02.23-.08.32-.16.9-.83,2.15-1.24,2.92-1.67,2.33-1.28,4.67-2.5,7.04-3.68Z"/>
  <path class="cls-37" d="M50.16,86.41l3.2,2.64c-.19.13-.34.13-.45-.01-.06-.08-.16-.11-.21-.06,0,0,0,0,0,0-.04.04-.07.1-.09.16-.03.14-.1.25-.18.28-1.16.54-2.19,1.2-3.09,1.97-.53.46-.48.81.15,1.05,3.55,1.38,9.15,2.19,12.74.66.11-.05.22-.06.34-.03.56.11.89-.14,1.01-.74.57-.12,1.11-.07,1.64.14.05.02.08.09.06.15,0,.02-.02.04-.03.05-5.88,5.61-14.82,7.52-22.21,6.14-4.56-.85-8.95-2.68-13.16-5.49.07-1.1.83-.98,1.41-1.3,2.33-1.32,4.69-2.59,7.07-3.8.26-.13.53-.2.82-.21.11,0,.21-.07.27-.17.25-.45.62-.7,1.12-.73.91.87,1.94,1.55,3.1,2.05.3.13.63.13.93,0,1.12-.5,3.48-1.4,4.16-2.59.06-.1.17-.15.28-.12.37.11.74.1,1.11-.04Z"/>
  <path class="cls-43" d="M53.35,89.05c3.13,2.12,6.54,3.21,10.22,3.28-.12.6-.45.85-1.01.74-.12-.02-.24-.01-.34.03-3.59,1.53-9.19.72-12.74-.66-.63-.25-.68-.6-.15-1.05.9-.77,1.93-1.42,3.09-1.97.08-.04.14-.14.18-.28.02-.06.05-.12.09-.16.05-.05.14-.03.21.05,0,0,0,0,0,0,.1.14.25.14.45.01Z"/>
  <line class="cls-23" x1="89.51" y1="10.65" x2="89.51" y2="129.83"/>
  <g>
    <path d="M138.57,53.3c-1.6-.87-2.83-2.12-3.67-3.75-.85-1.64-1.27-3.61-1.27-5.92v-25.66c0-2.31.42-4.29,1.27-5.93.85-1.65,2.07-2.9,3.67-3.75,1.6-.85,3.53-1.28,5.78-1.28s4.17.43,5.78,1.28c1.6.86,2.83,2.11,3.67,3.75.85,1.65,1.27,3.62,1.27,5.93v25.66c0,2.31-.42,4.28-1.27,5.92-.85,1.64-2.07,2.89-3.67,3.75-1.6.87-3.53,1.3-5.78,1.3s-4.17-.43-5.78-1.3ZM146.23,46.16c.53-.32.93-.78,1.2-1.38.27-.6.4-1.33.4-2.18v-23.67c0-.83-.13-1.55-.4-2.15-.27-.6-.67-1.06-1.2-1.38-.53-.32-1.16-.48-1.89-.48s-1.35.16-1.87.48-.91.78-1.18,1.38c-.27.6-.4,1.32-.4,2.15v23.67c0,.86.13,1.58.4,2.18.27.6.66,1.06,1.18,1.38s1.14.48,1.87.48,1.36-.16,1.89-.48Z"/>
    <path d="M159.62,7.45h7v46.67h-7V7.45ZM162.82,26.76h7.55c.61,0,1.15-.12,1.6-.37.45-.25.79-.6,1.02-1.06.23-.46.35-1.01.35-1.65v-5.2c0-.71-.12-1.32-.35-1.83s-.57-.9-1.02-1.17c-.45-.27-.98-.4-1.6-.4h-7.55v-7.63h7.12c2.27,0,4.2.41,5.81,1.23,1.6.82,2.83,2.03,3.67,3.62.85,1.59,1.27,3.5,1.27,5.73v5.45c0,2.29-.42,4.25-1.27,5.89-.85,1.64-2.08,2.88-3.69,3.74-1.61.86-3.54,1.28-5.79,1.28h-7.12v-7.63ZM168.64,32.95l6.54-1.48,6.69,22.65h-7.67l-5.56-21.17Z"/>
    <path d="M206.05,28.94v13.95c0,2.44-.41,4.53-1.22,6.29-.82,1.75-2,3.1-3.56,4.03s-3.42,1.4-5.59,1.4-4.1-.45-5.68-1.35c-1.58-.9-2.78-2.2-3.62-3.91-.84-1.71-1.25-3.75-1.25-6.13v-24.19c0-2.5.41-4.66,1.22-6.46.82-1.81,2-3.19,3.56-4.14,1.56-.95,3.42-1.43,5.59-1.43s3.96.46,5.49,1.38c1.53.92,2.69,2.26,3.5,4.01.81,1.75,1.21,3.85,1.21,6.29v3.59h-7.35v-3.59c0-.75-.12-1.4-.35-1.94s-.56-.96-.99-1.25-.94-.43-1.51-.43c-.63,0-1.19.16-1.66.48-.47.32-.83.78-1.08,1.38-.25.6-.37,1.3-.37,2.12v24.19c0,.66.13,1.25.39,1.75.26.5.64.89,1.14,1.15.5.27,1.09.4,1.76.4s1.29-.14,1.8-.42c.51-.28.9-.68,1.17-1.22.27-.53.4-1.18.4-1.92v-6.38h-3.52v-7.63h10.52Z"/>
    <path d="M217.43,7.48h5.01l10,46.64h-7.09l-5.42-30.57-5.42,30.57h-7.09l10-46.64ZM214.24,39.43h11.41v7.44h-11.41v-7.44Z"/>
    <path d="M235.56,7.48h5.62l9.86,31.11-.78,1.25V7.48h6.51v46.61h-5.68l-9.74-29.32.75-1.28v30.6h-6.54V7.48Z"/>
    <path d="M268.48,54.12h-7.15V7.48h7.15v46.64Z"/>
    <path d="M293.95,28.94v13.95c0,2.44-.41,4.53-1.22,6.29-.82,1.75-2,3.1-3.56,4.03s-3.42,1.4-5.59,1.4-4.1-.45-5.68-1.35c-1.58-.9-2.78-2.2-3.62-3.91-.84-1.71-1.25-3.75-1.25-6.13v-24.19c0-2.5.41-4.66,1.22-6.46.82-1.81,2-3.19,3.56-4.14,1.56-.95,3.42-1.43,5.59-1.43s3.96.46,5.49,1.38c1.53.92,2.69,2.26,3.5,4.01.81,1.75,1.21,3.85,1.21,6.29v3.59h-7.35v-3.59c0-.75-.12-1.4-.35-1.94s-.56-.96-.99-1.25-.94-.43-1.51-.43c-.63,0-1.19.16-1.66.48-.47.32-.83.78-1.08,1.38-.25.6-.37,1.3-.37,2.12v24.19c0,.66.13,1.25.39,1.75.26.5.64.89,1.14,1.15.5.27,1.09.4,1.76.4s1.29-.14,1.8-.42c.51-.28.9-.68,1.17-1.22.27-.53.4-1.18.4-1.92v-6.38h-3.52v-7.63h10.52Z"/>
    <path d="M298.51,7.45h7v46.67h-7V7.45ZM301.71,26.76h7.55c.61,0,1.15-.12,1.6-.37.45-.25.79-.6,1.02-1.06.23-.46.35-1.01.35-1.65v-5.2c0-.71-.12-1.32-.35-1.83s-.57-.9-1.02-1.17c-.45-.27-.98-.4-1.6-.4h-7.55v-7.63h7.12c2.27,0,4.2.41,5.81,1.23,1.6.82,2.83,2.03,3.67,3.62.85,1.59,1.27,3.5,1.27,5.73v5.45c0,2.29-.42,4.25-1.27,5.89-.85,1.64-2.08,2.88-3.69,3.74-1.61.86-3.54,1.28-5.79,1.28h-7.12v-7.63ZM307.53,32.95l6.54-1.48,6.69,22.65h-7.67l-5.56-21.17Z"/>
    <path d="M331.71,7.48h5.01l10,46.64h-7.09l-5.42-30.57-5.42,30.57h-7.09l10-46.64ZM328.51,39.43h11.41v7.44h-11.41v-7.44Z"/>
    <path d="M370.76,7.48h6.69v46.64h-6.37V21.56l.43,2.05-6.08,22.26h-3.57l-6.08-21.62.58-2.69v32.56h-6.51V7.48h6.86l6.95,25.34,7.12-25.34Z"/>
    <path d="M389.98,7.48h5.01l10,46.64h-7.09l-5.42-30.57-5.42,30.57h-7.09l10-46.64ZM386.79,39.43h11.41v7.44h-11.41v-7.44Z"/>
  </g>
</svg>